<svg xmlns="http://www.w3.org/2000/svg" viewBox="0 0 500 500" style="enable-background:new 0 0 500 500" xml:space="preserve"><path d="M400.99 182.5 168.19 54.11l25.03 13.81c-16.38-5.03-34.07-3-49.26 6.06-15.39 9.18-25.67 24.04-28.89 41.12l.18.05c.94-7.69 6.25-11.72 8.67-13.17 2.68-1.6 9.81-4.83 18.02-.31l232.81 128.39c8.64 4.77 9.66 12.92 9.69 16.21.04 3.28-.8 11.47-9.34 16.42l-54.6 31.69c-12.98 7.53-17.39 24.16-9.85 37.14s24.16 17.39 37.14 9.85l54.6-31.69c23.07-13.39 36.68-37.32 36.38-64-.29-26.67-14.41-50.29-37.78-63.18z" style="fill:#515151"/><path d="m197.79 365.5-56.39 32.91c-7.11 4.15-13.41 1.43-15.79.07-2.38-1.36-7.92-5.42-8-13.68l-2.35-267.08c-.01-.9.06-1.74.16-2.55l-.18-.05c3.2-17.08 13.43-31.94 28.73-41.12 15.11-9.06 32.71-11.09 49-6.06l-24.91-13.81c-22.64-12.58-49.45-12.13-71.69 1.2S61 92.16 61.23 118.19l2.35 267.08c.22 25.3 13.41 47.88 35.27 60.41 10.85 6.22 22.73 9.32 34.6 9.32 12.06 0 24.11-3.2 35.07-9.6l56.39-32.91c12.91-7.53 17.3-24.16 9.8-37.14-7.48-12.97-24.01-17.38-36.92-9.85z"/></svg>