<svg xmlns="http://www.w3.org/2000/svg" viewBox="0 0 500 500" style="enable-background:new 0 0 500 500" xml:space="preserve"><path d="M275.79 92.12c-8.77.11-17.54.05-26.31.05-8.67 0-17.34.11-26.01-.07-2.56-.05-2.79.94-2.32 2.9 1.24 5.18 4.79 8.24 9.47 10.16 8.55 3.5 17.48 3.48 26.47 2.69 4.13-.36 8.19-1.2 11.99-2.92 4.52-2.05 7.88-5.14 8.88-10.29.36-1.86-.1-2.55-2.17-2.52z"/><path d="M353.21 350.75c-4.05-5.02-4.54-9.92-1.05-15.47 2.26-3.6 1.39-7.87-1.93-10.33-5.08-3.76-6.72-8.35-4.84-14.48 1.35-4.39-.52-8.09-4.78-9.86-5.66-2.35-8.12-6.44-7.98-12.48.11-5-2.16-7.77-7.14-8.55-5.9-.93-9.28-4.11-10.56-9.95-1.08-4.97-4.53-7.17-9.59-6.64-5.39.57-9.17-1.38-11.76-6.06-3.1-5.6-6.04-6.81-12.16-4.77-2.54.84-5.02 1.05-7.52.14s-4.75-2.26-5.04-5.22c-.29-3.02 2-4.22 4.27-5.37 22.18-11.2 44.34-22.44 66.54-33.6 5.1-2.57 7.59-6.41 7.58-12.23-.07-47.27-.04-94.54-.04-141.81 0-4.79-3.89-8.68-8.68-8.68H161.51c-6.61.01-8.78 2.13-8.78 8.6 0 47.26.04 94.53-.05 141.79-.01 5.95 2.5 9.82 7.74 12.43 15.54 7.74 31.01 15.6 46.5 23.43 6.95 3.51 13.93 6.98 20.83 10.58 4.47 2.33 4.53 6.6.22 9.17-2.67 1.59-5.54 1.93-8.55 1.07-7.88-2.27-9.24-1.69-13.65 5.41-2.41 3.87-5.97 5.61-10.52 5.19-6.11-.57-8.97 1.39-10.45 7.37-1.27 5.15-4.4 8.15-9.72 8.99-5.63.9-7.96 3.62-7.84 9.22.13 5.73-2.39 9.52-7.59 11.8-4.8 2.12-6.48 5.57-5.01 10.52 1.67 5.63.2 9.98-4.43 13.54-4.09 3.15-4.78 7-2.1 11.47 2.94 4.92 2.66 9.43-.85 13.97-3.25 4.2-2.95 8.13.81 11.89 3.95 3.95 4.82 8.33 2.61 13.49-2.21 5.16-1.03 8.64 3.76 11.53 4.65 2.8 6.68 6.68 5.81 12.14-.9 5.7 1.1 8.86 6.6 10.46 5.29 1.54 8.06 5 8.6 10.4.55 5.47 2.97 7.99 8.48 8.28 5.93.31 9.71 3.07 11.66 8.71 1.52 4.41 5.04 6.41 9.52 5.35 6.06-1.43 10.54.31 13.97 5.51 2.56 3.88 6.46 4.86 10.61 2.69 5.4-2.82 10.1-2.32 14.66 1.78 3.6 3.24 7.69 3.25 11.19.05 4.52-4.14 9.22-4.68 14.63-1.86 4.2 2.19 8.05 1.29 10.64-2.61 3.52-5.31 8.08-7.04 14.24-5.52 4.1 1.01 7.81-1.01 9.16-5.06 2.02-6.05 6.01-8.87 12.32-9.07 4.51-.14 7.38-2.63 7.74-7.01.55-6.59 3.76-10.43 10.13-12.14 3.94-1.06 6.17-4.77 5.42-8.7-1.19-6.23.76-10.71 6.36-13.86 3.85-2.16 5.21-6.21 3.39-10.2-2.65-5.8-1.75-10.57 2.88-14.96 3.07-2.93 3.4-7.21.76-10.48zm-171.37-4.37c-.72 3.28-5.49 4.87-8.14 2.4-1.48-1.38-2.32-1.03-3.65-.23-1.73 1.04-3.65 1.44-5.68 1.27-1.99-.17-3.68-.84-4.42-2.88-.78-2.13.04-3.88 1.55-5.32 2.15-2.05 4.97-2.73 7.67-3.66 1.16-.4 3-.04 2.74-2.24-.18-1.56-.92-2.58-2.55-2.77-1.68-.19-3.17.09-3.88 1.9-.04.09-.05.19-.07.28-.31 1.55-.8 2.88-2.79 2.76-1.1-.07-1.98-.44-2.26-1.53-.47-1.81.61-3.03 1.9-4 2.09-1.57 4.59-1.61 7.06-1.68 6.66.04 8.44 1.81 8.44 8.39.01 1.87.01 3.75.01 5.62.01.7.02 1.5.8 1.74.79.24 1.31-.33 1.56-1.02.23-.65.6-1.08 1.28-.84.91.37.59 1.17.43 1.81zm19.35.85c-3.47 3.94-11.34 3.71-15.17-.37-3.59-3.82-3.03-10.1 1.35-13.59 3.81-3.05 8.08-3.27 12.51-1.49 1.11.45 2.06 1.17 2.37 2.45.32 1.38.15 2.61-1.36 3.14-1.4.49-2.58.13-3.02-1.43-.52-1.85-1.27-3.4-3.58-3.01-2.26.37-3.72 1.67-4.13 4-.15.87-.28 1.74-.31 1.9-.09 2.23.21 3.69.75 5.06 1.61 4.02 6.05 4.85 9.01 1.7.73-.78 1.44-2.09 2.54-.98 1.04 1.04-.34 1.92-.96 2.62zm26.63-1.1c-.6 3.61-5.44 5.12-8.45 2.43-1.16-1.03-1.78-1.03-2.93-.27-1.77 1.17-3.76 1.65-5.9 1.54-2.13-.12-3.99-.82-4.68-2.95-.66-2.04.07-3.9 1.67-5.33 2.2-1.96 4.97-2.73 7.7-3.59 1.14-.36 2.73-.23 2.56-2.17-.12-1.39-.59-2.53-2.16-2.75-1.59-.22-3.2-.34-4.04 1.51-.08.18-.14.37-.2.56-.46 1.41-.73 2.95-2.79 2.83-1.23-.07-2.15-.51-2.34-1.78-.27-1.8.72-2.99 2.12-3.91 2.08-1.36 4.45-1.47 7.54-1.52.67.09 2.06.17 3.39.47 2.77.62 4.19 2.43 4.23 5.27.04 2.56.01 5.13.02 7.69.01.89-.02 1.91.96 2.29 1.02.4 1.29-.62 1.7-1.24.3-.45.64-.78 1.2-.57.78.28.49.92.4 1.49zM193.33 63.39c-.07-2.53 1.54-2 2.92-2 17.85-.01 35.7-.01 53.55-.01s35.7.05 53.55-.05c2.36-.01 3.25.43 3.15 3.01-.39 10.33.6 20.71-.64 31.03-2.83 23.28-17.29 38.74-40.37 42.85-14.58 2.59-29.13 2.06-43.18-2.95-17.84-6.37-26.57-19.84-28.43-38.17-1.12-11.21-.28-22.48-.55-33.71zm60.86 285.05c-.04.67-.58.66-1.06.71-2.06.22-4.61 1.32-6.06.49-2.85-1.62-4.95.39-7.38.42-4.13.07-7.62-2.15-9.22-6.09-1.61-3.98-.66-8.39 2.38-11.09 2.85-2.53 7.47-2.9 11.03-.88.33.18.65.4 1.48.94 0-2.41-.04-4.38.01-6.33.04-1.74-.27-3.17-2.37-3.39-.65-.07-1.1-.36-1.06-1.13.04-.7.46-1.08 1.07-1.22 2.21-.47 4.43-.94 6.65-1.34 1.84-.33 1.51 1.06 1.51 2.07.02 6.99-.01 13.99.03 20.98.01 1.83-.76 4.17 2.4 4.4.73.05.64.87.59 1.46zm-56.92-152.35c-4.6 0-3.88.3-3.9-3.99-.04-7.8.09-15.59-.07-23.38-.06-2.64.58-3.52 3.37-3.49 13.21.15 26.44.07 39.66.07 13.12 0 26.25-.06 39.37.05 2.42.02 3.31-.6 3.17-3.12-.2-3.74.03-7.5-.08-11.24-.06-1.91.56-2.54 2.53-2.51 7.3.11 14.6.16 21.9-.02 2.56-.06 3.33.56 3.31 3.23-.13 17.36-.07 34.73-.07 52.09 0 2.37-.17 4.75.05 7.1.21 2.33-.72 2.76-2.84 2.72-7.4-.12-14.8-.12-22.2-.01-2.02.03-2.77-.47-2.69-2.6.16-3.94-.1-7.9.09-11.83.12-2.5-.73-3.14-3.16-3.12-26.15.09-52.29.06-78.44.05zm78.52 142.92c-.6 1.73-2.96.45-4.51.74-.67.13-1.38.02-2.07.02-.79 0-1.61-.14-2.36.03-1.39.31-3.37-1.08-4.12.99-.72 1.99 1.38 5.58 3.47 6.31 2.29.79 4.49.41 6.41-1.09.86-.67 1.7-1.77 2.63-.37.76 1.14-.54 1.72-1.2 2.3-3.32 2.93-10.3 2.82-14.09-.17-3.6-2.83-4.54-7.82-2.26-12.01 2.24-4.11 7.55-6.11 12.3-4.65 1.55.47 2.86 1.29 3.92 2.52 1.36 1.58 2.48 3.66 1.88 5.38zm43.62 9.45c-.11.81-.78.76-1.35.77-3.15.01-6.31.01-9.46.01-.6 0-1.21-.04-1.29-.85-.07-.74.35-1.07 1.02-1.19 1.94-.34 2.09-1.78 2.07-3.35-.02-1.97.05-3.94-.02-5.91-.07-1.7-.24-3.51-2.27-4.03-2.22-.57-4.17.14-5.38 2.12-1.88 3.08-1.06 6.5-.92 9.81.04.86 1.03 1.13 1.79 1.32.74.18 1.36.41 1.18 1.33-.19 1-1.04.74-1.67.74-2.86.03-5.72.03-8.57 0-.63-.01-1.48.21-1.65-.78-.16-.92.54-1.14 1.22-1.35.19-.06.43-.09.54-.23 2.37-2.95.62-6.38 1.11-9.56.2-1.32-.22-2.49-1.63-3.15-2.66-1.26-6.18.57-6.78 3.67-.45 2.34-.24 4.71-.15 7.07.05 1.45.9 2.1 2.21 2.31.72.12 1 .52.93 1.22-.09.84-.74.79-1.32.8-3.05.01-6.11.01-9.17 0-.58 0-1.24.05-1.36-.76-.1-.68.19-1.12.9-1.26 1.95-.37 2.05-1.81 2-3.38-.05-1.67-.02-3.35-.01-5.03.01-2 .33-4.16-2.79-4.01-.76.04-.9-.62-.92-1.25-.02-.75.47-1.01 1.1-1.15 2.31-.5 4.62-1 6.93-1.46.34-.07 1.03.05 1.06.18.68 3.74 2.35.98 3.47.46 3.87-1.83 8.09-.93 11.2 2.61 2.34-2.53 5.17-3.82 8.69-3.43 3.62.4 5.57 2.16 5.88 5.79.2 2.35.12 4.73.12 7.09-.01 1.75-.04 3.47 2.36 3.63.76.07 1.02.51.93 1.2zm21.53-14.78c-1.99.8-2.42 2.74-3.23 4.38-3 6.08-5.92 12.21-8.92 18.3-.78 1.59-1.65 3.17-3.55 3.73-1.52.44-2.85.11-3.43-1.4-.54-1.38.12-2.5 1.5-3.09.81-.35 1.67-.6 2.45-1 3.17-1.61 4.03-4.39 2.32-7.42-2.03-3.6-4.09-7.18-6.14-10.77-.34-.6-.76-1.16-1.05-1.78-.47-.99-2.63-.95-1.88-2.53.68-1.43 2.26-.59 3.43-.67 1.86-.12 3.74-.05 5.61-.02.55.01 1.26-.17 1.41.65.12.69.15 1.45-.81 1.58-1.17.16-1.22.87-.78 1.67 1.45 2.63 2.96 5.24 4.63 8.19 1.25-2.49 2.26-4.49 3.24-6.52.65-1.33 1.57-2.76-.82-3.42-.72-.2-.67-.91-.58-1.49.14-.82.85-.66 1.39-.67 1.48-.03 2.95-.02 4.43-.01.58.01 1.25-.07 1.34.76.08.58.12 1.25-.56 1.53z"/><path d="M216.81 340c-2.29.04-5.24 2.71-5.15 4.51.08 1.42.98 2.07 2.3 2.15 2.31.13 3.9-1.65 3.89-4.54-.54-.48.87-2.15-1.04-2.12zm-50.33 2.63c-.75 1.03-1.04 2.19-.17 3.24.77.93 1.84.87 2.97.55 3.75-1.07 2.53-3.99 2.6-6.78-2.08.78-4.1 1.2-5.4 2.99zm74.53-9.31c-2.01-.29-3.43.68-4.35 2.35-1.54 2.76-.9 8.67 1.08 10.6 1.55 1.51 3.26 1.42 5.15.64 3.04-1.25 2.47-3.84 2.47-6.25 0-4.79-1.23-6.89-4.35-7.34zm25.63-.42c-2.2.01-3.61 1.38-3.64 3.43-.04 2.58 2.26.62 3.27 1.49 1.27-.9 3.72 1.14 3.95-1.56.18-2.16-1.41-3.37-3.58-3.36z"/></svg>