<svg version="1.1" id="Camada_1" xmlns="http://www.w3.org/2000/svg" x="0" y="0" viewBox="0 0 692 692" style="enable-background:new 0 0 692 692" xml:space="preserve"><style>.st0{fill:#fefefe}.st1{fill:#fdfdfd}</style><path id="shape" d="M346.04.85h149.29c10.96 0 14.64 3.71 14.64 14.67 0 79.72-.05 159.44.07 239.16.01 9.81-4.18 16.3-12.79 20.63-37.45 18.82-74.83 37.78-112.24 56.67-3.83 1.94-7.69 3.96-7.2 9.06.48 4.98 4.28 7.26 8.5 8.8 4.23 1.54 8.41 1.19 12.69-.23 10.32-3.44 15.28-1.4 20.51 8.05 4.37 7.9 10.73 11.18 19.83 10.22 8.53-.9 14.34 2.81 16.17 11.2 2.16 9.85 7.86 15.21 17.82 16.78 8.4 1.33 12.24 5.99 12.05 14.43-.23 10.19 3.92 17.09 13.46 21.05 7.19 2.99 10.34 9.22 8.06 16.63-3.18 10.34-.41 18.08 8.16 24.43 5.61 4.16 7.08 11.36 3.26 17.43-5.89 9.36-5.06 17.63 1.77 26.1 4.45 5.52 3.9 12.73-1.32 17.68-7.81 7.41-9.32 15.45-4.85 25.24 3.08 6.73.79 13.55-5.71 17.2-9.44 5.3-12.73 12.87-10.72 23.37 1.27 6.63-2.49 12.9-9.14 14.68-10.74 2.87-16.15 9.36-17.08 20.47-.62 7.4-5.46 11.59-13.06 11.83-10.64.34-17.38 5.09-20.78 15.3-2.28 6.84-8.53 10.25-15.45 8.54-10.39-2.57-18.08.36-24.02 9.31-4.37 6.58-10.86 8.11-17.94 4.41-9.12-4.76-17.05-3.84-24.68 3.14-5.91 5.4-12.81 5.38-18.88-.09-7.69-6.92-15.63-7.76-24.73-3.01-7 3.65-13.58 2-17.9-4.54-5.79-8.78-13.35-11.72-23.57-9.3-7.56 1.79-13.49-1.59-16.06-9.03-3.29-9.52-9.66-14.17-19.66-14.69-9.29-.48-13.37-4.73-14.3-13.96-.91-9.11-5.58-14.94-14.5-17.54-9.28-2.71-12.65-8.04-11.13-17.65 1.46-9.21-1.96-15.76-9.8-20.48-8.08-4.86-10.06-10.73-6.34-19.44 3.72-8.71 2.26-16.09-4.41-22.76-6.34-6.33-6.84-12.97-1.36-20.05 5.92-7.65 6.4-15.26 1.44-23.56-4.52-7.55-3.36-14.04 3.54-19.35 7.82-6.01 10.3-13.35 7.48-22.84-2.48-8.35.35-14.18 8.45-17.75 8.77-3.86 13.02-10.25 12.8-19.91-.21-9.45 3.73-14.03 13.22-15.55 8.96-1.43 14.24-6.49 16.39-15.17 2.5-10.08 7.32-13.39 17.63-12.43 7.68.72 13.69-2.23 17.75-8.75 7.45-11.98 9.73-12.96 23.03-9.13 5.08 1.46 9.92.89 14.42-1.8 7.27-4.34 7.17-11.54-.37-15.47-11.65-6.08-23.42-11.93-35.14-17.85-26.13-13.2-52.22-26.47-78.43-39.52-8.83-4.4-13.07-10.93-13.05-20.97.14-79.72.08-159.44.08-239.16 0-10.91 3.66-14.49 14.81-14.5h149.29z"/><g id="type"><path class="st0" d="M322.95 203.1c22.13 0 44.27-.1 66.4.09 4.08.03 5.58-1.02 5.35-5.26-.34-6.31.05-12.65-.14-18.96-.1-3.23.94-4.28 4.26-4.23 12.31.19 24.63.27 36.94-.03 4.32-.1 5.62.95 5.58 5.45-.22 29.29-.11 58.58-.11 87.87 0 3.99-.28 8.01.08 11.97.36 3.93-1.22 4.65-4.79 4.59-12.48-.21-24.96-.2-37.44-.01-3.41.05-4.68-.79-4.54-4.38.27-6.65-.17-13.32.16-19.96.21-4.21-1.23-5.29-5.33-5.27-44.1.14-88.2.1-132.3.07-7.76 0-6.55.5-6.58-6.73-.06-13.15.16-26.3-.12-39.44-.1-4.45.97-5.93 5.69-5.88 22.29.25 44.59.11 66.89.11zm109.81 284.89c3.94-4.27 8.72-6.44 14.66-5.78 6.11.68 9.4 3.65 9.91 9.76.33 3.96.21 7.97.21 11.96-.01 2.96-.06 5.85 3.98 6.13 1.27.09 1.72.83 1.56 2-.19 1.37-1.31 1.29-2.27 1.3-5.32.02-10.64.02-15.96.01-1.01 0-2.04-.06-2.17-1.43-.11-1.25.59-1.8 1.72-2 3.28-.57 3.53-3 3.5-5.65-.03-3.32.09-6.65-.04-9.97-.12-2.86-.4-5.92-3.83-6.8-3.75-.96-7.03.23-9.07 3.57-3.17 5.2-1.79 10.97-1.55 16.55.06 1.45 1.73 1.91 3.02 2.23 1.25.3 2.29.69 1.99 2.24-.32 1.68-1.75 1.24-2.81 1.25-4.82.05-9.64.05-14.46 0-1.07-.01-2.49.36-2.78-1.31-.27-1.56.91-1.92 2.05-2.27.32-.1.73-.15.91-.38 3.99-4.97 1.05-10.76 1.87-16.12.34-2.23-.37-4.2-2.75-5.32-4.49-2.12-10.43.96-11.44 6.19-.76 3.94-.4 7.95-.26 11.93.09 2.45 1.52 3.55 3.72 3.9 1.22.2 1.69.88 1.57 2.05-.15 1.41-1.25 1.34-2.22 1.35-5.15.02-10.31.02-15.46 0-.97 0-2.09.08-2.29-1.29-.17-1.15.32-1.89 1.52-2.12 3.29-.62 3.45-3.05 3.38-5.7-.08-2.82-.03-5.65-.01-8.48.02-3.37.55-7.02-4.71-6.76-1.28.06-1.52-1.05-1.55-2.11-.04-1.26.8-1.71 1.85-1.94 3.9-.84 7.79-1.69 11.69-2.46.58-.11 1.74.08 1.78.3 1.15 6.3 3.96 1.65 5.85.77 6.53-3.09 13.65-1.57 18.89 4.4z"/><path class="st1" d="M485.17 503.68c2.1-4.2 3.82-7.58 5.47-10.99 1.09-2.25 2.65-4.65-1.38-5.77-1.21-.34-1.13-1.53-.97-2.51.23-1.39 1.44-1.11 2.35-1.13 2.49-.05 4.98-.03 7.47-.01.97.01 2.11-.11 2.26 1.28.11.98.17 2.11-.97 2.57-3.35 1.35-4.08 4.63-5.44 7.39-5.06 10.26-9.99 20.59-15.04 30.86-1.32 2.69-2.78 5.35-5.99 6.29-2.56.74-4.81.18-5.79-2.36-.91-2.33.2-4.21 2.53-5.21 1.37-.59 2.81-1.02 4.13-1.69 5.34-2.71 6.8-7.41 3.91-12.52-3.43-6.07-6.9-12.11-10.36-18.16-.58-1.01-1.28-1.95-1.77-3-.8-1.67-4.43-1.6-3.17-4.27 1.14-2.41 3.81-.99 5.78-1.13 3.14-.21 6.31-.08 9.46-.03.92.01 2.13-.29 2.38 1.09.21 1.16.26 2.44-1.36 2.67-1.98.27-2.06 1.46-1.31 2.82 2.44 4.44 4.99 8.84 7.81 13.81zm-240.65-7.87c-.15 3.76.35 6.22 1.27 8.53 2.71 6.78 10.21 8.18 15.2 2.86 1.23-1.32 2.43-3.52 4.29-1.65 1.77 1.77-.56 3.25-1.6 4.43-5.86 6.64-19.12 6.26-25.59-.63-6.05-6.44-5.11-17.03 2.27-22.92 6.43-5.15 13.63-5.51 21.1-2.51 1.88.76 3.48 1.98 3.99 4.13.54 2.32.25 4.41-2.3 5.3-2.36.82-4.35.22-5.09-2.41-.88-3.12-2.15-5.73-6.04-5.08-3.81.63-6.28 2.81-6.97 6.75-.26 1.47-.48 2.94-.53 3.2z"/><path class="st0" d="M441.32 32.81c.17-4.35-1.34-5.1-5.32-5.08-30.11.17-60.22.09-90.33.09s-60.22-.01-90.33.01c-2.34 0-5.04-.88-4.93 3.38.46 18.95-.96 37.95.96 56.85 3.13 30.92 17.86 53.64 47.95 64.38 23.7 8.46 48.23 9.35 72.83 4.98 38.93-6.92 63.31-33.01 68.09-72.27 2.1-17.4.42-34.91 1.08-52.34zm-48.16 51.13c-1.68 8.68-7.35 13.9-14.97 17.35-6.41 2.9-13.25 4.32-20.22 4.93-15.16 1.33-30.23 1.37-44.65-4.54-7.9-3.24-13.89-8.41-15.98-17.14-.79-3.31-.39-4.99 3.92-4.9 14.62.31 29.24.12 43.87.12 14.79 0 29.58.11 44.37-.08 3.49-.05 4.27 1.11 3.66 4.26z"/><path class="st1" d="M352.08 509.56c-5.32-.39-4.02-4.33-4.04-7.42-.07-11.79-.02-23.59-.05-35.38 0-1.71.55-4.06-2.55-3.5-3.75.68-7.49 1.47-11.22 2.26-1.04.22-1.74.87-1.81 2.05-.07 1.29.69 1.79 1.79 1.9 3.55.37 4.07 2.77 4 5.71-.08 3.3-.02 6.61-.02 10.68-1.4-.9-1.93-1.27-2.49-1.58-6-3.4-13.79-2.78-18.6 1.49-5.14 4.55-6.74 12-4.02 18.71 2.7 6.65 8.58 10.39 15.55 10.28 4.1-.06 7.64-3.45 12.45-.71 2.45 1.4 6.75-.46 10.22-.83.82-.09 1.72-.07 1.79-1.2.07-.99.23-2.37-1-2.46zm-18.07-.12c-3.19 1.31-6.07 1.47-8.69-1.08-3.33-3.25-4.41-13.23-1.82-17.88 1.56-2.81 3.95-4.45 7.34-3.96 5.26.76 7.34 4.31 7.33 12.38 0 4.06.97 8.43-4.16 10.54zm-103.7-3.88c-1.15-.42-1.77.31-2.16 1.41-.42 1.17-1.3 2.13-2.63 1.72-1.32-.41-1.34-1.76-1.35-2.94-.01-3.16-.01-6.32-.02-9.48-.01-11.11-3.01-14.1-14.24-14.16-4.17.11-8.39.18-11.91 2.83-2.18 1.64-4 3.69-3.21 6.75.48 1.84 1.97 2.47 3.82 2.58 3.36.19 4.19-2.05 4.71-4.66.03-.16.06-.33.12-.48 1.21-3.05 3.71-3.53 6.55-3.21 2.75.31 4 2.04 4.3 4.67.43 3.71-2.67 3.1-4.63 3.77-4.55 1.56-9.31 2.72-12.93 6.17-2.55 2.43-3.92 5.38-2.61 8.97 1.25 3.44 4.1 4.56 7.45 4.85 3.42.29 6.67-.39 9.58-2.14 2.25-1.36 3.66-1.95 6.16.38 4.47 4.17 12.52 1.5 13.73-4.04.26-1.08.81-2.43-.73-2.99zm-20.47 3.06c-1.91.54-3.71.64-5.01-.93-1.46-1.77-.98-3.72.29-5.46 2.2-3.03 5.6-3.74 9.1-5.04-.11 4.7 1.95 9.63-4.38 11.43zm98.08-3.04c-.94-.36-1.52.2-2.02.96-.69 1.05-1.14 2.76-2.86 2.09-1.66-.65-1.61-2.37-1.62-3.87-.03-4.32.02-8.65-.04-12.97-.06-4.79-2.45-7.84-7.13-8.89-2.25-.5-4.59-.64-5.72-.79-5.2.08-9.2.26-12.71 2.56-2.37 1.55-4.04 3.57-3.58 6.6.32 2.15 1.86 2.89 3.94 3.01 3.47.2 3.93-2.39 4.7-4.77.1-.32.19-.64.33-.94 1.43-3.11 4.13-2.91 6.82-2.54 2.64.37 3.43 2.29 3.64 4.64.29 3.27-2.4 3.05-4.32 3.66-4.6 1.45-9.27 2.75-12.98 6.06-2.71 2.42-3.94 5.55-2.82 8.99 1.16 3.6 4.3 4.78 7.89 4.98 3.61.2 6.98-.62 9.96-2.59 1.93-1.28 2.99-1.29 4.94.45 5.08 4.53 13.23 1.99 14.25-4.1.16-.96.65-2.04-.67-2.54zm-16.14-4.21c.02 4.86-2.66 7.87-6.56 7.65-2.23-.13-3.75-1.23-3.88-3.63-.16-3.03 4.82-7.53 8.68-7.6 3.22-.05.85 2.77 1.76 3.58zm94.58-14.3c-1.79-2.08-4.01-3.45-6.62-4.25-8.01-2.47-16.97.91-20.74 7.84-3.84 7.06-2.25 15.47 3.82 20.25 6.39 5.04 18.16 5.23 23.76.28 1.11-.98 3.31-1.95 2.02-3.88-1.57-2.36-2.99-.51-4.44.62-3.24 2.53-6.95 3.17-10.82 1.84-3.54-1.22-7.07-7.29-5.86-10.64 1.26-3.49 4.6-1.15 6.95-1.67 1.27-.28 2.65-.05 3.98-.05 1.16 0 2.36.18 3.49-.04 2.62-.49 6.6 1.66 7.61-1.25 1.01-2.91-.88-6.41-3.15-9.05zm-6.25 4.4c-.38 4.56-4.52 1.12-6.66 2.63-1.7-1.46-5.58 1.84-5.52-2.51.05-3.46 2.43-5.77 6.14-5.78 3.66-.02 6.34 2.02 6.04 5.66z"/></g></svg>