<svg width="25" height="29" viewBox="0 0 25 29" fill="none" xmlns="http://www.w3.org/2000/svg"><g clip-path="url(#a)" fill="#000"><path d="M14.322 26.135c1.228-.34 2.497-.754 3.643-1.334.407-.173.78-.405 1.188-.596.69-.34 1.317.613.764 1.135-1.106 1.06-2.57 1.631-4.042 1.863-.594.017-2 .43-2.017-.555a.578.578 0 0 1 .456-.513h.008Zm1.569 1.755c.903-.232 1.855-.521 2.7-.944.301-.132.586-.306.895-.447.545-.281 1.09.489.659.92-1.098 1.125-2.684 1.689-4.237 1.573a.553.553 0 0 1-.488-.605.567.567 0 0 1 .463-.497h.008ZM8.214 9.11c-1.017.628-1.944 1.655-2.22 2.864-.081.39-.683.282-.635-.107.106-1.127.667-2.145 1.391-2.973.39-.39 1.066-1.342 1.643-.68.22.29.138.721-.179.895Z"/><path d="M7.523 1.052C-4.757 6.848-1.155 23.949 12.19 24.18c0 0 1.26-.828 0-.828s-5.083-1.507-6.49-3.461c-2.895-3.909-2.546-9.548.78-12.869 5.303-5.117 14.176-1.424 14.396 6.029.138 2.931-1.31 5.739-3.432 7.784 0 0 2.285-1.441 2.228-1.035-.057.405-1.147 2.103-1.147 2.103s2.31-1.051 1.977-.53l-.96 1.524c3.31-2.02 5.4-5.838 5.465-9.846.325-9.093-9.328-15.71-17.485-12Z"/></g><defs><clipPath id="a"><path fill="#fff" d="M0 0h25v29H0z"/></clipPath></defs></svg>