<svg xmlns="http://www.w3.org/2000/svg" viewBox="0 0 500 500" style="enable-background:new 0 0 500 500" xml:space="preserve"><path d="M275.65 414.5c17.36-4.81 35.3-10.66 51.51-18.86 5.75-2.45 11.03-5.73 16.8-8.43 9.76-4.81 18.62 8.67 10.8 16.05-15.64 14.99-36.34 23.06-57.15 26.34-8.4.24-28.28 6.08-28.52-7.85a8.172 8.172 0 0 1 6.45-7.25h.11zm22.19 28.27c12.77-3.28 26.23-7.37 38.17-13.35 4.26-1.87 8.29-4.33 12.65-6.32 7.71-3.97 15.41 6.91 9.32 13.01-15.52 15.91-37.95 23.88-59.91 22.24a7.817 7.817 0 0 1-6.9-8.55c.38-3.53 3.05-6.4 6.55-7.03h.12zM185.43 170.23c-14.38 8.88-27.49 23.4-31.39 40.49-1.15 5.51-9.66 3.99-8.98-1.51 1.5-15.93 9.43-30.33 19.67-42.03 5.51-5.51 15.07-18.97 23.23-9.61 3.11 4.1 1.95 10.19-2.53 12.65v.01z"/><path d="M179.52 56.3c-173.62 81.95-122.7 323.73 65.99 327 0 0 17.81-11.71 0-11.71s-71.87-21.31-91.76-48.93c-40.93-55.27-36-135 11.03-181.95 74.98-72.35 200.43-20.13 203.54 85.24 1.95 41.44-18.52 81.14-48.52 110.06 0 0 32.31-20.37 31.5-14.63-.81 5.73-16.22 29.73-16.22 29.73s32.66-14.86 27.95-7.49l-13.57 21.55c46.8-28.56 76.35-82.54 77.27-139.21C431.32 97.39 294.84 3.83 179.51 56.29l.01.01z"/></svg>