<svg width="25" height="33" viewBox="0 0 25 33" fill="none" xmlns="http://www.w3.org/2000/svg"><g clip-path="url(#a)"><path fill-rule="evenodd" clip-rule="evenodd" d="M12.446 26.598c-3.2-.025-5.773-2.525-5.747-5.584.026-3.059 2.642-5.518 5.842-5.493 3.2.025 5.774 2.526 5.747 5.584-.026 3.059-2.642 5.518-5.842 5.493Zm12.539-5.547c.157-2.941-.898-7.756-3.48-11.691-.07-.102-.186-.062-.161.046.172.6.214 1.684-.784 1.62-1.768-.114.062-3.73-3.821-6.238-.078-.05-.17.017-.128.097.266.483.424 1.992-.19 2.506-.494.412-1.4.301-2.271-1.057-1.452-2.264-.9-4.684.086-6.195.074-.113-.028-.158-.112-.131-5.341 1.684-6.408 7.7-7.544 9.895-.19.367-.356.56-.682.539-.973-.062-.272-2.046.065-2.736.047-.098-.07-.151-.133-.089C3.08 10.364.591 15.04.118 19.386c.015-.103-.044.359-.073.697v.001a14.497 14.497 0 0 0-.045.877C-.056 27.556 5.491 32.945 12.391 33c6.9.054 12.539-5.248 12.596-11.842l-.002-.107Z" fill="#000"/></g><defs><clipPath id="a"><path fill="#fff" d="M0 0h25v33H0z"/></clipPath></defs></svg>