<svg xmlns="http://www.w3.org/2000/svg" viewBox="0 0 692 692" style="enable-background:new 0 0 692 692" xml:space="preserve"><path d="M584.71 295.74c-.96.01-2.33 1.99-2.76 3.3-8.24 25.1-16.37 50.23-24.52 75.36-2.76 8.5-5.51 17-8.63 26.63-2.74-8.23-5.1-15.26-7.43-22.31-8.76-26.5-17.55-53-26.2-79.54-.87-2.67-2.09-3.72-4.91-3.68-9.5.14-19 .12-28.49.01-2.58-.03-3.76.85-4.58 3.37-9.95 30.32-20.03 60.61-30.1 90.89-1.05 3.16-2.32 6.25-3.91 10.51-2.35-7.29-4.29-13.25-6.21-19.22-8.81-27.37-17.65-54.73-26.36-82.13-.89-2.79-2.39-3.45-5.08-3.42-11.83.12-23.66.05-35.49.05h-5.8c1.84 5.86 3.45 10.99 5.31 16.9-46.99-36.53-114.52-22.83-142.08 20.49-9.6-23.52-26.69-38.01-51.85-41.62-24.21-3.47-46.48 1.57-65.96 19.28v-90.38H64.31c-.09 1.39-.21 2.37-.21 3.35-.01 79.65.01 159.3-.08 238.95 0 3.65.97 4.96 4.77 4.89 12.33-.21 24.66-.06 36.99-.1 1.26 0 2.52-.31 4.2-.53v-5.71c0-25.33-.18-50.66.08-75.98.15-13.8 2.66-27.11 10.94-38.76 11.82-16.63 40.65-19.09 54.92-4.53 8.63 8.8 11.08 19.96 11.16 31.67.21 29.33.07 58.66.07 87.98v5.5h45.23v-29.91c25.95 29.15 57.89 39.72 94.98 32.59 37.66-7.24 61.49-30.41 71.67-68.79 7.67 22.99 14.96 44.88 22.33 66.96 12.06 0 23.88-.17 35.69.1 3.77.09 5.61-.96 6.82-4.6 7.6-23.04 15.4-46.02 23.14-69.01 2.95-8.76 5.93-17.51 9.27-27.38 3.95 11.73 7.51 22.19 11 32.68 7.18 21.61 14.27 43.26 21.62 64.81.5 1.47 2.89 3.22 4.44 3.25 11.49.27 22.99.24 34.49.02 1.33-.02 3.41-1.45 3.83-2.68 6.63-19.34 13.06-38.76 19.51-58.16 9.16-27.58 18.28-55.16 27.42-82.75 3.06-9.25 6.12-18.51 9.42-28.5-15.07 0-29.19-.07-43.3.15zM329.43 427.28c-28.4 14.33-62.66-2.04-69.36-33.24-.9-4.21-1.14-8.55-1.42-10.75.35-29.4 18.14-49.41 44.91-52.62 22.2-2.66 44.5 13.03 50.69 35.67 6.84 25.01-3.39 50.12-24.82 60.94z"/></svg>