<svg width="18" height="18" viewBox="0 0 18 18" fill="none" xmlns="http://www.w3.org/2000/svg"><g clip-path="url(#a)"><path d="M9 0C3.937 0 0 3.938 0 9c0 5.906 5.344 8.438 6.188 8.438.562 0 .562-.282.562-.563v-1.406c-1.969.562-2.813-.563-3.094-1.406 0 0 0-.282-.562-.844-.281-.281-1.406-.844-.281-.844.843 0 1.406 1.125 1.406 1.125.843 1.125 1.968.844 2.531.563 0-.563.563-1.126.563-1.126-2.25-.28-3.938-1.124-3.938-4.218 0-1.125.281-1.969.844-2.531 0 0-.563-1.125 0-2.532 0 0 1.406 0 2.531 1.125.844-.562 3.656-.562 4.5 0 1.125-1.125 2.531-1.125 2.531-1.125.563 1.969 0 2.531 0 2.531.563.563.844 1.407.844 2.532 0 3.094-1.969 3.937-3.938 4.219.282.28.563.843.563 1.687v2.25c0 .281 0 .563.563.563C12.655 17.438 18 14.905 18 9c0-5.063-3.938-9-9-9Z" fill="#fff"/></g><defs><clipPath id="a"><path fill="#fff" d="M0 0h18v18H0z"/></clipPath></defs></svg>