<svg xmlns="http://www.w3.org/2000/svg" viewBox="0 0 500 500" style="enable-background:new 0 0 500 500" xml:space="preserve"><path d="M250 20C116.45 20 12.58 123.87 12.58 257.42 12.58 413.23 153.55 480 175.81 480c14.84 0 14.84-7.42 14.84-14.84v-37.1c-51.94 14.84-74.19-14.84-81.61-37.1 0 0 0-7.42-14.84-22.26-7.42-7.42-37.1-22.26-7.42-22.26 22.26 0 37.1 29.68 37.1 29.68 22.26 29.68 51.94 22.26 66.77 14.84 0-14.84 14.84-29.68 14.84-29.68-59.35-7.42-103.87-29.68-103.87-111.29 0-29.68 7.42-51.94 22.26-66.77 0 0-14.84-29.68 0-66.77 0 0 37.1 0 66.77 29.68 22.26-14.84 96.45-14.84 118.71 0 29.68-29.68 66.77-29.68 66.77-29.68 14.84 51.94 0 66.77 0 66.77 14.84 14.84 22.26 37.1 22.26 66.77 0 81.61-51.94 103.87-103.87 111.29 7.42 7.42 14.84 22.26 14.84 44.52v59.35c0 7.42 0 14.84 14.84 14.84 22.26 0 163.23-66.77 163.23-222.58C487.42 123.87 383.55 20 250 20z"/></svg>