<svg xmlns="http://www.w3.org/2000/svg" viewBox="0 0 500 500" style="enable-background:new 0 0 500 500" xml:space="preserve"><path d="M354.55 480h-209.1C76.27 480 20 423.73 20 354.55v-209.1C20 76.27 76.27 20 145.45 20h209.09C423.73 20 480 76.27 480 145.45v209.09C480 423.73 423.73 480 354.55 480zM145.45 61.82c-46.13 0-83.64 37.52-83.64 83.64v209.09c0 46.12 37.51 83.64 83.64 83.64h209.09c46.13 0 83.64-37.52 83.64-83.64v-209.1c0-46.12-37.51-83.64-83.64-83.64H145.45z"/><path d="M248.06 345.31c-50.95 0-95.68-37.37-103.38-89.21-8.43-57.04 31.08-110.3 88.09-118.76 10.17-1.52 20.5-1.52 30.67 0 45.88 6.8 81.27 42.2 88.09 88.08 4.1 27.63-2.82 55.19-19.44 77.62-16.64 22.43-41.02 37.03-68.65 41.13-5.17.77-10.32 1.14-15.38 1.14zm.04-167.29c-3.06 0-6.15.23-9.21.68-34.2 5.06-57.91 37.03-52.84 71.25 5.08 34.19 36.94 57.89 71.26 52.84 16.58-2.46 31.2-11.22 41.19-24.68 9.98-13.46 14.11-30 11.66-46.57-4.08-27.54-25.32-48.78-52.84-52.85-3.05-.43-6.14-.67-9.22-.67z"/><circle cx="354.55" cy="124.55" r="20.91"/></svg>