<svg width="18" height="18" viewBox="0 0 18 18" fill="none" xmlns="http://www.w3.org/2000/svg"><path d="M5.204 3.377c.526 0 1.005.045 1.44.141a3.25 3.25 0 0 1 1.113.458c.308.21.55.487.72.84.169.352.255.787.255 1.297 0 .555-.127 1.02-.38 1.395-.254.375-.628.675-1.127.915.68.195 1.183.54 1.517 1.028.336.495.499 1.087.499 1.77 0 .562-.098 1.042-.308 1.447-.21.413-.502.75-.87 1.013-.36.26-.787.45-1.252.575-.458.124-.94.19-1.433.19H0V3.384h5.204v-.006Zm7.501 9.122c.33.32.805.482 1.42.482.443 0 .825-.11 1.148-.335.318-.218.51-.458.585-.705h1.941c-.302.96-.786 1.65-1.425 2.062-.637.42-1.413.623-2.31.623a4.597 4.597 0 0 1-1.704-.3 3.71 3.71 0 0 1-1.29-.855 3.826 3.826 0 0 1-.808-1.328 4.922 4.922 0 0 1-.28-1.702c0-.602.102-1.155.303-1.673.202-.525.483-.96.84-1.342a4.077 4.077 0 0 1 1.302-.896c.505-.224 1.05-.324 1.665-.324.682 0 1.267.123 1.785.392a3.6 3.6 0 0 1 1.245 1.05c.33.44.562.945.705 1.515.142.562.187 1.155.157 1.785h-5.767c0 .63.21 1.224.532 1.549l-.06.022.016-.02Zm-7.68.037c.238 0 .465-.022.68-.07a1.74 1.74 0 0 0 .572-.224c.157-.102.292-.246.39-.438.097-.18.142-.427.142-.72 0-.562-.165-.967-.48-1.215-.322-.24-.742-.36-1.267-.36H2.43v3.038h2.595v-.023.012ZM15.23 8.3c-.264-.289-.705-.444-1.242-.444-.351 0-.642.055-.875.178a1.616 1.616 0 0 0-.555.443 1.56 1.56 0 0 0-.294.562 2.63 2.63 0 0 0-.101.533h3.571c-.052-.563-.247-.975-.51-1.268v.008l.006-.012ZM4.89 7.838c.43 0 .788-.1 1.069-.31.28-.202.415-.54.415-1.003 0-.258-.052-.469-.135-.634a1.096 1.096 0 0 0-.375-.384 1.588 1.588 0 0 0-.54-.193 3.32 3.32 0 0 0-.63-.056H2.422v2.58H4.89Zm6.824-3.719h4.475v1.09h-4.476V4.11v.01Z" fill="#fff"/></svg>