<svg xmlns="http://www.w3.org/2000/svg" viewBox="0 0 500 500" style="enable-background:new 0 0 500 500" xml:space="preserve"><path d="M139.37 176.19H56.26a6.68 6.68 0 0 0-6.68 6.68v267a6.68 6.68 0 0 0 6.68 6.68h83.11a6.68 6.68 0 0 0 6.68-6.68v-267a6.68 6.68 0 0 0-6.68-6.68zM97.84 43.46C67.6 43.46 43 68.03 43 98.24c0 30.22 24.6 54.81 54.84 54.81 30.22 0 54.8-24.59 54.8-54.81 0-30.21-24.58-54.78-54.8-54.78zm252.93 126.09c-33.38 0-58.06 14.35-73.02 30.65v-17.34a6.68 6.68 0 0 0-6.68-6.68h-79.59a6.68 6.68 0 0 0-6.68 6.68v267a6.68 6.68 0 0 0 6.68 6.68h82.93a6.68 6.68 0 0 0 6.68-6.68v-132.1c0-44.52 12.09-61.86 43.12-61.86 33.8 0 36.48 27.8 36.48 64.15v129.81a6.68 6.68 0 0 0 6.68 6.68h82.96a6.68 6.68 0 0 0 6.68-6.68V303.41c-.01-66.19-12.63-133.86-106.24-133.86z"/></svg>