<svg width="18" height="18" viewBox="0 0 18 18" fill="none" xmlns="http://www.w3.org/2000/svg"><g clip-path="url(#a)" fill="#fff"><path d="M4.19 5.791H.576a.29.29 0 0 0-.29.29v11.61c0 .16.13.29.29.29H4.19c.16 0 .29-.13.29-.29V6.08a.29.29 0 0 0-.29-.29ZM2.384.02A2.386 2.386 0 0 0 0 2.402a2.386 2.386 0 0 0 2.384 2.383 2.385 2.385 0 0 0 2.383-2.383A2.385 2.385 0 0 0 2.384.02Zm10.997 5.482c-1.451 0-2.524.624-3.175 1.333v-.754a.29.29 0 0 0-.29-.29h-3.46a.29.29 0 0 0-.291.29V17.69c0 .16.13.29.29.29h3.606c.16 0 .29-.13.29-.29v-5.744c0-1.935.526-2.69 1.875-2.69 1.47 0 1.586 1.21 1.586 2.79v5.644c0 .16.13.29.29.29h3.608c.16 0 .29-.13.29-.29v-6.368c0-2.877-.549-5.82-4.619-5.82Z"/></g><defs><clipPath id="a"><path fill="#fff" d="M0 0h18v18H0z"/></clipPath></defs></svg>