<svg xmlns="http://www.w3.org/2000/svg" viewBox="0 0 692 692" style="enable-background:new 0 0 692 692" xml:space="preserve"><path d="M609.78 46.82c.56.41 1.51.74 1.6 1.23.23 1.27.09 2.62.09 3.93v523.79H81.65c-.07-1.6-.21-3.17-.21-4.74-.01-54.96.01-109.92-.07-164.88 0-3.11.92-5.01 3.55-6.77C257.96 283.41 430.95 167.37 603.93 51.32c2.04-1.37 3.91-2.99 5.86-4.5h-.01zm-48.79 434.6c2.59-1.02 4.72-1.79 6.81-2.68 14.44-6.18 20.97-16.6 20.59-32.79-.34-14.48-7.59-25.2-22.01-29.82-7.93-2.54-16.55-3.83-24.89-3.96-28.62-.47-57.26-.19-85.89-.18-1.42 0-2.85.13-4.48.21v140.91c1.37.11 2.5.28 3.63.28 27.9 0 55.81.17 83.7-.16 8.27-.1 16.67-.95 24.74-2.7 16.09-3.5 25.91-14.6 27.44-29.6 1.66-16.35-5.18-29.09-19.42-35.78-3.09-1.46-6.42-2.37-10.22-3.73zm-262.99 71c0-9.99-.17-19.48.08-28.96.1-3.91-.87-5.26-5.04-5.22-20.02.22-40.03.1-60.05.09-1.68 0-3.36-.17-4.98-.26v-18.36h65.29v-34.23H228v-19.32h68.47v-33.81H174.99v140.06c41.01.01 81.71.01 123.01.01zm128.64-136.55c-1.14-.31-1.96-.6-2.81-.77-18.74-3.61-37.64-5.02-56.68-3.71-12.27.85-24.4 2.73-35.53 8.47-15.66 8.07-22.94 20.9-22.04 38.53.87 17 9.16 28.7 24.98 34.62 7.75 2.9 15.92 4.65 23.91 6.91 6.44 1.82 12.99 3.31 19.26 5.6 1.84.67 4 3.6 3.95 5.45-.05 2.1-1.96 4.9-3.87 6.02-2.79 1.64-6.24 2.52-9.5 2.9-18.02 2.09-35.49-.74-52.56-6.53-1.47-.5-2.94-1.01-4.74-1.63v35.97c1.03.29 1.84.56 2.68.75 21.34 4.9 42.97 6.95 64.82 5.57 13.33-.84 26.39-3.38 37.96-10.7 15.25-9.65 20.69-23.88 18.98-41.33-1.52-15.51-10.52-25.45-24.45-30.8-7.83-3.01-16.28-4.43-24.45-6.58-6.34-1.67-12.79-3-18.93-5.23-1.91-.69-4.05-3.77-4.09-5.8-.04-2.02 2.04-4.59 3.88-6.01 1.71-1.32 4.3-1.75 6.58-2.08 13.19-1.9 26.22-.52 39.13 2.34 4.46.99 8.86 2.26 13.54 3.46-.02-11.99-.02-23.51-.02-35.42zm-271.01-2.47h-53.38v139.71h53.38V413.4z"/><path d="M609.8 46.82c-14.15 4.58-28.34 9.05-42.45 13.75C407.16 113.92 246.98 167.31 86.8 220.68c-1.5.5-3.04.88-4.99 1.43V46.49h4.99c172.28 0 344.57 0 516.85.01 2.04 0 4.08.2 6.13.31 0 .01.02.01.02.01zM274.24 604.43h10.03c0 7.66-.02 15.06.01 22.46.01 2.04-.35 4.29.4 6.05.67 1.57 2.64 3.62 4.01 3.61 1.62-.02 3.89-1.72 4.63-3.28.93-1.97.77-4.54.79-6.85.08-7.25.03-14.5.03-21.99h9.35c0 10.27.68 20.48-.24 30.54-.62 6.8-7.23 9.99-15.99 9.48-7.27-.42-12.45-4.56-12.9-11.79-.56-9.28-.12-18.61-.12-28.23zm-162.8 9.06c-7.25-2.26-13.17-3.88-16.95 2.19-3.21 5.16-3.19 11 .26 16.16 4.05 6.06 9.96 4.73 15.72 2.92 1.17 8.99.65 9.57-8.2 9.72-8.03.14-14.97-2.23-18.32-10.03-3.57-8.31-3.6-16.85 2.1-24.46 5.42-7.25 16.55-8.04 23.13-5.1 1.46.65 1.35 4.85 2.26 8.6zm142.4 15.65c-.01 9.83-5.21 15.32-14.53 15.34-9.37.02-14.61-5.42-14.66-15.24-.05-10.09 5.16-15.55 14.77-15.5 9.36.04 14.43 5.47 14.42 15.4zm-10.21.36c-.25-2.08-.09-4.11-.81-5.76-.6-1.38-2.4-3.34-3.38-3.18-1.45.23-3.58 1.97-3.76 3.29-.5 3.54-.41 7.25.09 10.8.17 1.18 2.24 2.73 3.6 2.9 1 .13 2.72-1.48 3.28-2.7.75-1.65.71-3.66.98-5.35zm338.24-.65c.05-9.76 5.23-15.12 14.61-15.11 9.48.01 14.74 5.6 14.63 15.57-.1 9.75-5.35 15.18-14.66 15.17-9.44-.02-14.64-5.59-14.58-15.63zm10.11.21c.36 1.96.46 4.2 1.26 6.16.44 1.09 2.12 2.45 3.1 2.35 1.27-.13 3.34-1.5 3.44-2.49.39-3.98.39-8.05-.02-12.03-.1-1.02-2.24-2.58-3.41-2.54-1.16.04-2.7 1.56-3.28 2.81-.75 1.63-.73 3.63-1.09 5.74zm-272.76-14.29c.19.79.45 1.85.75 3.07.53-.31.99-.43 1.23-.73 2.98-3.84 7.01-4.14 11.08-2.73 3.99 1.38 5.01 4.93 4.98 8.88-.05 6.56-.01 13.13-.01 20.1h-9.77c0-4.76.01-9.53-.01-14.29-.01-1.46.24-3.04-.25-4.34-.44-1.17-1.67-2.73-2.67-2.82-1.04-.1-2.86 1.15-3.2 2.19-.71 2.15-.82 4.54-.89 6.84-.12 4.06-.03 8.12-.03 12.51h-9.55v-28.67c2.3-.01 5.19-.01 8.34-.01zM157.44 643.5h-9.62v-28.56c5.79-1.8 7.99-1.2 8.88 1.8 3.3-.99 6.53-2.55 9.86-2.82 4.16-.33 7.11 2.32 7.38 6.47.45 6.97.37 13.97.27 20.96-.01.8-1.42 2.13-2.31 2.26-2.26.33-4.59.11-7.47.11 0-5.72.24-11.09-.13-16.41-.13-1.92-1.54-5.18-2.71-5.34-3.47-.48-4 2.78-4.1 5.4-.19 5.23-.05 10.46-.05 16.13zm379.52.18c-3.53-.66-7.59 2.41-9.27-3.11-1.69 1.1-3.16 2.31-4.83 3.09-4.62 2.16-9.89.25-11.88-4.14-2.33-5.14-.34-10.68 4.77-12.74 1.86-.75 3.92-1.16 5.92-1.4 1.98-.23 4.01-.05 6.07-.05-.5-5.98-2.21-6.38-13.82-3.68v-7.16c5.24-.13 10.57-.72 15.82-.27 4.45.39 7.01 3.82 7.16 8.63.22 6.7.06 13.41.06 20.83zm-9.02-13.83c-5.76-.6-9.29 1.1-8.85 4.51.19 1.47 2.11 3.56 3.54 3.84 3.43.67 5.37-2.59 5.31-8.35zm-385.81 1.82h-16.92c-.21 6.64 3.47 7.79 14.73 5.04 1.67 5.79 1.34 6.34-4.36 7.39-13.48 2.48-21.43-4.38-20.26-17.51.66-7.34 5.69-12.5 12.5-12.83 7.66-.37 12.81 3.59 14.26 11.2.36 1.94.05 4 .05 6.71zm-17.92-5.19h9.31c-.43-3.19.06-6.5-4.1-6.73-4.11-.23-4.77 2.85-5.21 6.73zm293.49 5.11h-16.96c-.2 6.54 3.02 7.6 14.74 5.26 1.67 5.57 1.32 6.18-4.14 7.21-14.27 2.69-23.44-6.19-20.08-19.45 2-7.91 7.44-11.68 15.51-10.75 6.4.73 10.85 6.16 11.11 13.6.04 1.14-.09 2.29-.18 4.13zm-17.59-4.79c2.14 0 3.98-.07 5.81.02 3.31.16 3.91-1.83 2.61-4.06-.82-1.4-2.96-2.93-4.44-2.86-3.41.18-4.07 3-3.98 6.9zm-42.6-12.12c9.96-1.34 9.95-1.34 12.26 7.6.94 3.64 1.91 7.26 3.84 11.04 1.01-3.9 2.07-7.79 3.03-11.71 2.04-8.34 2.02-8.34 11.35-6.87-2.94 9.15-5.81 18.24-8.86 27.27-.26.78-1.61 1.55-2.54 1.68-9.12 1.22-9.66.83-12.42-7.93-2.18-6.92-4.37-13.82-6.66-21.08zm133.51 6.53c-1.77-.26-3.02-.44-4.64-.68v-5.74c1.27-.29 2.62-.61 3.98-.92 1.75-6.98 2.18-7.33 10.63-8.54v8.07c6.21 1.7 6.21 1.7 5.49 7.08-1.57.21-3.23.42-5.37.71 0 4.43-.44 8.83.22 13.05.27 1.71 2.94 3.05 4.52 4.56.33-.24.66-.47.99-.71.11 1.71.21 3.41.32 5.03-9.32 4.19-16.08.06-16.13-9.62-.03-4.03-.01-8.08-.01-12.29zm-308.36-.12c-1.39-.17-2.64-.33-4.09-.5-.77-3.71-1.33-6.98 3.99-6.59 1.21-6.94 2.15-7.7 10.67-8.61v8.17c6.32 1.42 6.32 1.42 5 7.06-1.46.15-3 .32-4.97.53 0 4.53-.4 8.92.21 13.17.23 1.59 2.79 2.86 4.61 3.94 2.07 5.56 1.64 6.16-4.42 6.21-7.39.07-10.41-2.82-10.54-10.18-.07-3.94-.05-7.88-.09-11.82-.01-.28-.15-.56-.37-1.38zm282.04.3c-2.42-.38-4.84-1-7.26-1.05-1.06-.02-2.15 1.12-3.22 1.73.72.95 1.27 2.2 2.22 2.78 1.47.9 3.19 1.39 4.84 1.96 4.02 1.37 5.71 4.24 5.57 8.37-.15 4.27-2.07 7.73-6.3 8.29-4.89.65-9.94.15-15.04.15v-7.07c3.2.35 6.15.83 9.11.9.88.02 1.79-1.13 2.68-1.75-.65-.84-1.14-1.96-2-2.47-1.35-.81-2.93-1.27-4.44-1.8-4.32-1.52-6.18-4.56-5.82-9.09.33-4.16 2.85-7.24 7.26-8.16 2.11-.44 4.35-.44 6.53-.37 6.61.21 6.96.72 5.87 7.58zm78.18-7.37c3.3 1.5 8.07-2.82 9.39 3.07 2.62-1.28 5.42-2.66 8.99-4.41v9.08c-7.46 1.06-8.47 2.24-8.48 9.97-.01 3.77 0 7.53 0 11.66h-9.91c.01-9.58.01-19 .01-29.37zm-329.59 29.35c-1.26.17-2.09.35-2.93.37-2.17.04-4.33.02-6.89.02v-28.94c6.55-1.51 8.34-.99 9.39 2.22 2.68-1.28 5.45-2.6 8.97-4.28v9.16c-7.15.58-8.47 1.99-8.53 9.16-.04 4.04-.01 8.08-.01 12.29zm219.37-26.45c2.87-1.34 5.44-2.53 8.76-4.08v8.84c-7.17 1.24-8.34 2.65-8.42 10.11-.04 3.76-.01 7.53-.01 11.63h-9.64V615.3c4.54-2.34 7.9-1.6 9.31 1.62zm-79.2 26.57h-9.67v-28.91h9.67v28.91zm222.87-28.94v28.9h-9.8v-28.91c3.12.01 6.23.01 9.8.01zm-94.55 28.78c-9.94 1.26-9.94 1.26-9.94-7.73 0-5.53.23-11.08-.08-16.6-.22-3.95 1.23-5.32 5-4.8 1.54.21 3.12.17 5.02.25v28.88zm84.54-34.34v-7.61h9.72v7.61h-9.72zm-222.51-7.68h9.61v7.74h-9.61v-7.74zm128.55 8.04c-1.31-8.6-.48-9.28 9.12-7.81v7.81h-9.12zm48.34-.18c1.93-8.29 1.93-8.29 9.64-7.06-3.34 7.35-3.99 7.84-9.64 7.06zm-18.42-86.09V494.9c8.62.68 17.14.86 25.47 2.19 4.91.79 7.79 4.85 8.4 10.02.66 5.52-.83 10.21-5.81 13.13-2.22 1.3-4.8 2.57-7.27 2.71-6.77.38-13.58.13-20.79.13zm.12-58.03v-25.93c8.59.45 17.24-1.34 25.64 2.12 4.78 1.97 6.75 5.79 6.89 10.67.14 4.69-1.48 8.64-5.84 10.91-1.91.99-4.04 2.05-6.11 2.13-6.77.27-13.56.1-20.58.1z"/></svg>