<svg width="18" height="27" viewBox="0 0 18 27" fill="none" xmlns="http://www.w3.org/2000/svg"><g clip-path="url(#a)" fill="#000"><path d="M0 9.178c.14 4.713 3.97 8.505 8.73 8.644V9.178H0Zm8.73-.534V0C3.97.139.14 3.931 0 8.644h8.73ZM18 17.822c-.14-4.713-3.97-8.505-8.73-8.644v8.644H18Zm-8.73.534V27c4.76-.139 8.59-3.931 8.73-8.644H9.27Zm4.428-9.501c2.376 0 4.302-1.907 4.302-4.26C18 2.244 16.074.337 13.698.337c-2.376 0-4.302 1.907-4.302 4.26 0 2.352 1.926 4.26 4.302 4.26Zm-9.1 17.724c2.376 0 4.302-1.907 4.302-4.26 0-2.352-1.926-4.26-4.302-4.26-2.376 0-4.302 1.908-4.302 4.26 0 2.353 1.926 4.26 4.302 4.26Z"/></g><defs><clipPath id="a"><path fill="#fff" d="M0 0h18v27H0z"/></clipPath></defs></svg>