<svg width="46" height="46" viewBox="0 0 46 46" fill="none" xmlns="http://www.w3.org/2000/svg">
<path d="M39.9082 32.0139L23.2792 40.5454C23.2622 40.5544 23.2447 40.5625 23.2267 40.5695C23.212 40.5772 23.1969 40.5842 23.1815 40.5904C23.1241 40.6145 23.0624 40.627 23.0002 40.627C22.9379 40.627 22.8763 40.6145 22.8189 40.5904C22.8034 40.5842 22.7883 40.5772 22.7736 40.5695C22.7557 40.5625 22.7381 40.5544 22.7211 40.5454L6.09211 32.0139C6.00719 31.9705 5.9359 31.9046 5.88611 31.8233C5.83633 31.742 5.80999 31.6485 5.81 31.5532H5.80785V14.4469C5.80854 14.3929 5.81775 14.3392 5.83516 14.2881C5.85549 14.2253 5.8877 14.1669 5.93003 14.1163V14.1141C5.98335 14.0499 6.05141 13.9994 6.12841 13.9671L14.4282 9.70711L22.7657 5.43055C22.8386 5.39324 22.9193 5.37378 23.0012 5.37378C23.0832 5.37378 23.1639 5.39324 23.2368 5.43055L31.5743 9.70711L39.8694 13.9646C39.9837 14.0122 40.0772 14.099 40.1332 14.2094C40.1642 14.2702 40.1828 14.3367 40.1878 14.4049V14.4085C40.1878 14.4207 40.1914 14.4322 40.1914 14.4444V31.5532H40.1892C40.1894 31.6484 40.1632 31.7418 40.1136 31.8231C40.064 31.9044 39.9929 31.9704 39.9082 32.0139ZM39.1535 15.2932L31.5707 19.1828L23.5186 23.3156V39.2607L39.1514 31.2398L39.1535 15.2932ZM22.481 39.2589V23.3138L17.2683 20.6393V23.6757C17.2683 23.7865 17.2329 23.8945 17.1671 23.9838C17.1014 24.073 17.0088 24.1389 16.903 24.1719C16.7971 24.2048 16.6835 24.203 16.5787 24.1667C16.4739 24.1305 16.3835 24.0617 16.3206 23.9703L14.293 21.4745L12.9217 22.0513C12.843 22.0844 12.7573 22.0976 12.6723 22.0896C12.5873 22.0816 12.5056 22.0527 12.4345 22.0055C12.3633 21.9583 12.305 21.8942 12.2646 21.819C12.2242 21.7438 12.203 21.6598 12.2029 21.5744H12.2008V18.0407L6.84608 15.294V31.238L22.481 39.2589ZM16.2279 20.1063L14.4278 19.1828L13.239 18.5718V20.7938L14.2262 20.3802C14.3311 20.33 14.4498 20.3166 14.5632 20.3421C14.6766 20.3676 14.7782 20.4305 14.8515 20.5207L16.2283 22.2152L16.2279 20.1063ZM23 6.47238L14.8993 10.6285L7.46025 14.4451L12.5781 17.0703L28.1189 9.09869L23 6.47238ZM31.101 10.6285L29.2531 9.68016L13.74 17.6389L16.7497 19.2086L32.287 11.2373L31.101 10.6285ZM33.4219 11.8188L17.8825 19.7912L23 22.4175L31.101 18.2613L38.5401 14.4451L33.4219 11.8188Z" fill="#DBC19C"/>
</svg>
