<svg width="14" height="16" viewBox="0 0 14 16" fill="none" xmlns="http://www.w3.org/2000/svg">
<g clip-path="url(#clip0_7_85)">
<path d="M7.2175 15.5C4.85347 15.5 2.88018 13.969 1.63919 12.6862C0.862647 11.8827 0.435059 10.8186 0.435059 9.69066V3.48326C0.435059 2.10465 1.46963 0.974245 2.84332 0.851374L6.33037 0.539284C6.91769 0.487678 7.51484 0.487678 8.10462 0.539284L11.5917 0.851374C12.9654 0.974245 13.9999 2.10711 13.9999 3.48571V9.69066C13.9999 10.8186 13.5723 11.8827 12.7983 12.6862C11.5573 13.969 9.58152 15.5 7.21995 15.5H7.2175ZM7.2175 1.36743C6.94718 1.36743 6.67687 1.37972 6.40901 1.40429L2.92195 1.71638C1.99797 1.79993 1.30252 2.55927 1.30252 3.48571V9.69066C1.30252 10.5925 1.6441 11.4428 2.26337 12.0842C3.3864 13.2465 5.16065 14.635 7.2175 14.635C9.27434 14.635 11.0486 13.249 12.1716 12.0842C12.7909 11.4428 13.13 10.595 13.13 9.69066V3.48326C13.13 2.55681 12.4346 1.79502 11.5106 1.71392L8.02352 1.40183C7.75567 1.37726 7.48535 1.36497 7.21258 1.36497L7.2175 1.36743Z" fill="#D1A862"/>
<path d="M6.26906 10.4721C6.15356 10.4721 6.04298 10.4254 5.96188 10.3444L3.75022 8.13269C3.58066 7.96313 3.58066 7.6879 3.75022 7.51834C3.91978 7.34878 4.19501 7.34878 4.36457 7.51834L6.26906 9.42283L10.0707 5.62122C10.2402 5.45166 10.5155 5.45166 10.685 5.62122C10.8546 5.79078 10.8546 6.06601 10.685 6.23557L6.57623 10.3444C6.49514 10.4254 6.38456 10.4721 6.26906 10.4721Z" fill="#D1A862"/>
</g>
<defs>
<clipPath id="clip0_7_85">
<rect width="13.5649" height="15" fill="white" transform="translate(0.435059 0.5)"/>
</clipPath>
</defs>
</svg>
