<svg width="32" height="56" viewBox="0 0 32 56" fill="none" xmlns="http://www.w3.org/2000/svg">
<g clip-path="url(#clip0_281_533)">
<mask id="mask0_281_533" style="mask-type:luminance" maskUnits="userSpaceOnUse" x="0" y="0" width="129" height="56">
<path d="M129 0H0V55.88H129V0Z" fill="white"/>
</mask>
<g mask="url(#mask0_281_533)">
<path fill-rule="evenodd" clip-rule="evenodd" d="M11.1334 34.2617C11.1334 34.4215 11.1888 34.4971 11.3697 34.4971C11.3931 34.5988 11.5098 34.7412 11.5215 34.7848C11.5361 34.8371 11.4281 35.0377 11.5856 35.1597C11.6499 35.2091 11.6907 35.2004 11.7957 35.2004C11.8074 35.244 11.9299 35.3486 11.9708 35.3748C11.857 35.5463 11.5127 35.6422 11.8687 35.8282C11.822 35.9009 11.749 35.9561 11.679 36.0026C11.6557 35.9852 11.6352 35.9765 11.609 35.9532C11.5828 35.9328 11.5711 35.9183 11.5419 35.9009C11.4515 35.8457 11.3697 35.927 11.2531 36.0201C11.0897 36.1537 11.1014 36.1537 11.3639 36.3717L11.7169 36.6944C11.7607 36.7379 11.7986 36.7786 11.857 36.767C11.9357 36.7496 12.105 36.642 12.105 36.5607C12.105 36.4909 11.9824 36.4793 11.9591 36.3863C11.997 36.3746 12.0437 36.3369 12.0758 36.3136C12.1487 36.3514 12.2713 36.4938 12.4142 36.299C12.4639 36.3311 12.5134 36.3688 12.5455 36.4154C12.4901 36.4444 12.4142 36.5025 12.4142 36.5752C12.4142 36.6304 12.5222 36.6972 12.5601 36.7205L12.4463 36.8397C12.3034 36.7409 12.3179 36.7903 12.1867 36.8891C12.032 37.0054 12.1692 37.0518 12.4172 37.2727C12.4405 37.293 12.4522 37.3105 12.4755 37.3309C12.6243 37.4558 12.5922 37.5344 12.951 37.1856L13.2661 36.9007C13.3216 36.8484 13.4179 36.7845 13.4675 36.706C13.5112 36.7351 13.6571 36.8804 13.7038 36.8804C13.8 36.8804 13.7767 36.828 13.8117 36.7699C13.9022 36.6217 14.1735 36.5141 14.1735 36.4269C14.1735 36.3746 13.6425 35.9241 13.5521 35.8457C13.3653 35.68 13.4032 35.709 13.0415 35.709C12.8519 35.709 12.9715 36.0026 12.9832 36.1479C12.954 36.1276 12.954 36.1247 12.9277 36.1014C12.8752 36.0549 12.7818 35.9677 12.7468 35.959C12.776 35.9009 12.7556 35.7875 12.7322 35.7381C12.7293 35.7352 12.6097 35.6858 12.5105 35.7381C12.4551 35.6538 12.3734 35.6277 12.3209 35.5492C12.7235 35.5492 12.6885 35.584 12.6885 35.3893C12.6885 34.9708 12.493 34.9476 12.3267 34.7702C12.2888 34.7295 12.3121 34.7237 12.2333 34.715C12.2333 34.6017 12.1925 34.5116 12.1021 34.465C11.997 34.4098 11.9154 34.4447 11.822 34.4941C11.749 34.4447 11.6411 34.3721 11.5273 34.3633C11.574 34.2675 11.5098 34.0931 11.3697 34.0843H11.3523C11.3085 34.0843 11.2618 34.1046 11.2064 34.1425C11.1684 34.1686 11.1334 34.1947 11.1334 34.2587V34.2617Z" fill="#D9D9D9"/>
<path fill-rule="evenodd" clip-rule="evenodd" d="M20.3613 34.3633C20.2738 34.3721 20.0988 34.5029 20.0375 34.4825C19.9908 34.468 19.8245 34.3633 19.7253 34.5232C19.6844 34.59 19.6932 34.6366 19.6669 34.6831C19.6494 34.715 19.6465 34.7034 19.6115 34.7295L19.4336 34.8865C19.3256 34.9766 19.2906 34.9795 19.2527 35.1452C19.2293 35.2557 19.1943 35.4184 19.2177 35.5201C19.311 35.5637 19.451 35.5492 19.5853 35.5492C19.5298 35.6306 19.451 35.6538 19.3956 35.7381C19.3373 35.7236 19.171 35.6567 19.1476 35.7991C19.1418 35.8311 19.1476 35.866 19.1476 35.898C19.1534 35.9648 19.1739 35.9154 19.1359 35.9619C19.1009 36.0084 18.9726 36.116 18.9259 36.1479C18.9522 35.8224 19.0718 35.709 18.8238 35.709C18.4883 35.709 18.4649 35.7265 18.3219 35.866L18.0798 36.0781C17.4875 36.6013 17.7326 36.3514 18.0564 36.7379C18.2315 36.9472 18.179 36.8542 18.427 36.6885L19.1039 37.3193C19.1506 37.3541 19.2293 37.4501 19.2993 37.4268C19.3577 37.4064 19.5706 37.2029 19.6553 37.1361C19.9383 36.9181 19.7195 36.8687 19.6494 36.8164C19.559 36.7496 19.5531 36.7903 19.4715 36.8338C19.4365 36.8106 19.3635 36.7525 19.3402 36.7176C19.3869 36.706 19.4977 36.6042 19.5007 36.5723C19.4773 36.4734 19.3927 36.4676 19.3694 36.3833C19.4219 36.3688 19.451 36.3281 19.486 36.2962C19.5182 36.3165 19.629 36.4124 19.6611 36.4124C19.7048 36.4124 19.769 36.3281 19.8361 36.3107C19.874 36.3368 19.9149 36.3717 19.9528 36.3979C19.912 36.4589 19.807 36.5083 19.807 36.5868C19.807 36.6304 19.9587 36.7612 20.0871 36.7612C20.125 36.7612 20.2183 36.6536 20.2563 36.6246C20.3321 36.5665 20.7318 36.2061 20.7318 36.1625C20.7318 36.0781 20.7027 36.0781 20.6268 36.0171C20.5188 35.9299 20.4517 35.8398 20.3642 35.898C20.3234 35.9241 20.2767 35.9707 20.2329 36.0026C20.1133 35.9241 20.1016 35.8718 20.0433 35.8573C20.0724 35.7468 20.1892 35.7642 20.1892 35.651C20.1892 35.5957 19.9703 35.4387 19.9237 35.3719C19.9674 35.305 20.09 35.2063 20.1717 35.1946C20.3263 35.1742 20.408 35.1307 20.408 34.9621C20.408 34.7325 20.2738 34.9563 20.4926 34.5784C20.583 34.4244 20.5305 34.5406 20.6618 34.4709C20.8544 34.3691 20.7785 34.0843 20.5684 34.0843H20.5655C20.4955 34.0843 20.4313 34.1192 20.3992 34.1628C20.3438 34.2413 20.3642 34.2936 20.3642 34.3633H20.3613Z" fill="#D9D9D9"/>
<path fill-rule="evenodd" clip-rule="evenodd" d="M17.8029 37.1739C17.8729 37.1739 17.9691 37.0954 18.0013 37.0489C18.1325 36.8658 17.6337 36.5432 17.5666 36.5432C17.5286 36.5432 17.4149 36.6274 17.4002 36.671C17.3682 36.7786 17.5636 36.8396 17.6774 36.9878C17.7387 37.0693 17.7533 37.1739 17.7999 37.1739H17.8029Z" fill="#D9D9D9"/>
<path fill-rule="evenodd" clip-rule="evenodd" d="M14.0129 37.1885C14.1062 37.1885 14.1441 36.9938 14.3892 36.831C14.5818 36.7002 14.4767 36.6421 14.4038 36.5927C14.3542 36.5607 14.328 36.5317 14.2667 36.5607L14.045 36.738C13.9049 36.8804 13.8028 36.9647 13.8991 37.0955C13.9253 37.1275 13.9632 37.1885 14.0099 37.1885H14.0129Z" fill="#D9D9D9"/>
<path fill-rule="evenodd" clip-rule="evenodd" d="M12.881 35.3457C12.811 35.6393 13.0881 35.555 13.0881 35.491C13.0881 35.398 12.9772 35.3079 12.881 35.3457Z" fill="#D9D9D9"/>
<path fill-rule="evenodd" clip-rule="evenodd" d="M18.818 35.4474C18.818 35.5637 18.9289 35.555 19.0077 35.5347C19.0368 35.4155 19.0631 35.2643 18.8705 35.3835C18.8413 35.4009 18.818 35.4097 18.818 35.4474Z" fill="#D9D9D9"/>
<path fill-rule="evenodd" clip-rule="evenodd" d="M3.2707 30.4427H3.67915C4.11677 30.495 4.56606 30.6898 4.83739 30.8932C5.36254 31.2885 5.35087 31.4193 5.35087 32.0238C5.21375 31.925 4.59232 31.1171 3.85128 31.1171C3.30571 31.1171 3.46325 31.1693 3.05772 31.2624C3.05772 32.0848 3.24152 32.4802 3.06064 33.3754C3.00812 33.6427 2.90309 33.8956 2.87975 34.163C3.05772 34.1601 3.16567 34.1049 3.37864 34.1049C4.23639 34.1049 4.72069 34.4188 5.34795 34.8373V35.3053C5.20499 35.2674 5.31294 35.2558 5.1729 35.2181C4.9716 35.5174 4.68569 35.7267 4.39977 35.9417C4.30057 36.0173 4.21305 36.0609 4.11385 36.1249C4.00882 36.1946 3.90963 36.2383 3.79584 36.3051C3.48659 36.494 3.15399 36.6277 2.84766 36.8253C2.64927 36.9561 2.46547 37.0986 2.26708 37.2439C2.15329 37.3282 2.09495 37.395 1.99284 37.4706C1.90531 37.5375 1.82653 37.6101 1.7536 37.7002C1.46768 38.0548 1.11175 38.4821 1.11175 38.9936C1.11175 39.2929 1.49103 39.9615 1.65148 40.2433C1.73026 40.3829 1.75068 40.534 1.90531 40.5747C1.96074 40.3713 2.44213 39.9818 2.61426 39.8452C3.39907 39.2203 4.24514 38.9006 4.98326 38.2786C5.05912 38.2146 5.08538 38.1652 5.16707 38.1129C5.28085 38.1885 5.48799 38.5634 5.57844 38.7C5.4559 38.8831 5.02119 39.1767 4.8053 39.3075C4.02341 39.7696 3.84544 39.8248 3.14233 40.3451C2.88851 40.534 2.6376 40.7549 2.46255 41.0135C2.50923 41.1851 2.74263 41.3653 2.86808 41.4903C3.01687 41.6385 3.14524 41.7779 3.31738 41.8943C3.7054 41.6356 3.89796 40.5834 4.26556 40.1445C4.45812 39.9149 4.71486 39.8423 5.02119 39.8423C5.52592 39.8423 5.90812 40.4817 6.11817 40.8595C6.20278 41.0077 6.26113 41.156 6.33115 41.3217C6.97884 42.8592 6.89422 43.7456 7.84243 45.382C7.93287 45.5419 8.00869 45.6727 8.10793 45.8209C8.44635 46.3237 8.8869 46.9399 9.32161 47.3671L10.4244 48.3466C10.6636 48.5443 10.9642 48.7477 11.2384 48.9134C12.7351 49.826 14.4126 50.3434 16.166 50.4218C17.9194 50.3405 19.597 49.826 21.0937 48.9134C21.3679 48.7477 21.6684 48.5443 21.9077 48.3466L23.0105 47.3671C23.4452 46.9399 23.8857 46.3237 24.2241 45.8209C24.3234 45.6727 24.3992 45.5419 24.4896 45.382C25.4378 43.7456 25.3532 42.8592 26.0009 41.3217C26.0709 41.156 26.1293 41.0107 26.2139 40.8595C26.424 40.4846 26.8062 39.8423 27.3108 39.8423C27.6172 39.8423 27.874 39.9149 28.0665 40.1445C28.4341 40.5805 28.6266 41.6356 29.0147 41.8943C29.1868 41.7779 29.3152 41.6385 29.464 41.4903C29.5895 41.3653 29.8228 41.1851 29.8695 41.0135C29.6945 40.752 29.4436 40.5311 29.1898 40.3451C28.4896 39.8248 28.3087 39.7696 27.5267 39.3075C27.3108 39.1796 26.8761 38.886 26.7536 38.7C26.8441 38.5634 27.0512 38.1885 27.165 38.1129C27.2467 38.1681 27.2729 38.2146 27.3488 38.2786C28.0898 38.9006 28.933 39.2203 29.7178 39.8452C29.8899 39.9818 30.3743 40.3713 30.4267 40.5747C30.5814 40.534 30.6047 40.3829 30.6805 40.2433C30.8381 39.9615 31.2203 39.2929 31.2203 38.9936C31.2203 38.4821 30.8644 38.0548 30.5784 37.7002C30.5055 37.6101 30.4267 37.5375 30.3392 37.4706C30.24 37.395 30.1787 37.3282 30.0649 37.2439C29.8695 37.0986 29.6857 36.9561 29.4844 36.8253C29.181 36.6248 28.8484 36.4911 28.5362 36.3051C28.4224 36.2353 28.3232 36.1946 28.2182 36.1249C28.119 36.0609 28.0315 36.0173 27.9323 35.9417C27.6464 35.7267 27.3605 35.5174 27.1591 35.2181C27.0162 35.2558 27.1241 35.2674 26.9841 35.3053V34.8373C27.6114 34.4188 28.0956 34.1049 28.9534 34.1049C29.1664 34.1049 29.2773 34.1601 29.4523 34.163C29.429 33.8927 29.3268 33.6427 29.2714 33.3754C29.0905 32.4802 29.2743 32.0848 29.2743 31.2624C28.8688 31.1693 29.0263 31.1171 28.4808 31.1171C27.7397 31.1171 27.1183 31.925 26.9812 32.0238C26.9812 31.4193 26.9666 31.2885 27.4947 30.8932C27.7689 30.6869 28.2182 30.4922 28.6529 30.4427H29.0613C29.2218 30.4631 29.3706 30.5154 29.4961 30.5997C30.0212 30.96 29.744 31.646 29.744 32.1982C29.744 32.7505 29.7615 33.2591 29.8899 33.7503C29.9629 34.0293 30.1146 34.3868 30.1233 34.7181C30.1437 35.3866 29.2394 35.6714 28.6821 35.6831L28.79 35.7528C29.4027 36.0755 30.0533 36.369 30.5872 36.805C31.8913 37.8688 31.5471 38.7552 31.5938 40.3161C31.6171 41.1095 31.8184 42.182 32.0547 42.9028C32.2094 43.3765 32.3289 43.8445 32.3289 44.356C32.3289 44.8356 31.8826 45.4692 31.4187 45.4692C30.9548 45.4692 30.7681 45.3065 30.4559 44.9926C30.2925 44.8298 29.9658 44.4374 29.744 44.3851C29.7178 44.7135 29.4873 45.1989 29.3794 45.5157C28.8805 46.9922 27.6347 49.0471 26.5144 50.1632C26.4502 50.2271 26.3977 50.2736 26.3364 50.3375C26.2168 50.4654 26.1059 50.6166 25.9688 50.7328L25.5574 51.0845C24.9769 51.6454 24.3292 52.1134 23.6611 52.5639C22.8851 53.0842 22.0448 53.4852 21.1521 53.8428C19.6437 54.4444 17.8757 54.8717 16.1573 54.8717C14.4389 54.8717 12.6709 54.4444 11.1625 53.8428C10.2698 53.4852 9.42956 53.0842 8.65347 52.5639C7.98246 52.1163 7.33479 51.6484 6.7571 51.0845L6.34574 50.7328C6.20861 50.6166 6.09483 50.4654 5.97814 50.3375C5.91686 50.2736 5.86435 50.2271 5.80017 50.1632C4.67985 49.0471 3.43408 46.9922 2.93518 45.5157C2.82723 45.196 2.59967 44.7135 2.5705 44.3851C2.34877 44.4374 2.02201 44.8298 1.85862 44.9926C1.54646 45.3065 1.37724 45.4692 0.895853 45.4692C0.414468 45.4692 -0.0144043 44.8356 -0.0144043 44.356C-0.0144043 43.8445 0.105213 43.3765 0.262758 42.9028C0.499075 42.182 0.700382 41.1066 0.72372 40.3161C0.770405 38.7582 0.42322 37.8717 1.73026 36.805C2.26416 36.369 2.91476 36.0755 3.52744 35.7528L3.63538 35.6831C3.08106 35.6714 2.17372 35.3866 2.19414 34.7181C2.20581 34.3868 2.3546 34.0293 2.42754 33.7503C2.55591 33.2591 2.57341 32.7388 2.57341 32.1982C2.57341 31.6576 2.29625 30.9572 2.8214 30.5997C2.94685 30.5125 3.09565 30.4631 3.25611 30.4427H3.2707ZM15.2499 53.8631C15.3083 53.7556 15.6175 51.4973 15.5212 51.4013C15.5184 51.3984 15.1945 51.2095 15.0749 51.5031C15.0078 51.6687 14.9436 51.8286 14.8736 52L14.5176 52.8662C14.4856 52.9301 14.5206 52.8662 14.4797 52.9273L14.4447 52.9679C14.401 52.6395 14.2463 51.4304 14.153 51.2095C14.0421 51.1804 13.8845 51.1543 13.7707 51.1775C13.7095 51.3287 13.4469 53.4591 13.4848 53.6074C13.5666 53.6858 13.6861 53.7033 13.7795 53.6626C13.8583 53.6132 13.8437 53.5957 13.8641 53.3923L13.9925 52.468L14.1938 53.7294C14.293 53.7643 14.3747 53.7876 14.5148 53.7672C14.5819 53.6917 15.0107 52.6976 15.037 52.5785C15.0778 53.2702 14.6081 53.9678 15.2529 53.8573L15.2499 53.8631ZM17.0383 52.375C17.1259 52.5668 17.724 53.6858 17.8173 53.7788C17.9428 53.7991 18.0624 53.7846 18.1412 53.7323C18.2171 53.5928 18.0828 52.7412 18.0537 52.4971C18.0245 52.2326 17.9953 51.4275 17.8757 51.2763C17.4468 51.1834 17.5606 51.4769 17.6073 51.9071C17.6394 52.1977 17.6773 52.4884 17.6948 52.7732L16.9712 51.4507C16.9071 51.3694 16.8691 51.3578 16.732 51.3781C16.6007 51.3984 16.6328 51.3868 16.5832 51.4682C16.5249 51.5525 16.7466 53.2789 16.7787 53.6306C16.7816 53.6742 16.7875 53.7469 16.7962 53.7876C16.8546 53.9939 17.0997 53.8834 17.1376 53.834C17.2338 53.7033 17.0325 52.6424 17.0383 52.375ZM11.1509 50.5497C11.6293 50.7066 11.4455 51.2328 11.2676 51.599C10.9642 52.2297 10.8504 52.2675 10.439 52.128L11.1509 50.5497ZM11.8365 51.0961C11.8832 50.7387 11.749 50.4567 11.5389 50.3085C11.4513 50.2474 11.2851 50.1748 11.18 50.1224C11.0049 50.0382 10.9437 50.0295 10.8532 50.2242C10.6199 50.7329 10.4157 51.2502 10.1764 51.7588C9.90506 52.3372 9.9109 52.2994 10.2056 52.4389C10.4886 52.5727 10.7162 52.7092 11.0458 52.5203C11.3989 52.3169 11.7606 51.6687 11.8365 51.0961ZM12.6855 51.2414C13.1027 51.0264 13.0764 51.692 12.9801 52.0611C12.668 53.2557 12.2157 53.0115 12.1662 52.686C12.1165 52.3604 12.3295 51.4217 12.6855 51.2414ZM13.4236 51.8344C13.5578 50.9131 12.8809 50.6572 12.4754 50.884C12.1165 51.0845 11.8715 51.724 11.7927 52.2878C11.6439 53.3341 12.4083 53.4736 12.7438 53.2556C13.1114 53.0174 13.336 52.4477 13.4265 51.8344H13.4236ZM24.0841 48.4164C24.2767 48.2013 24.405 48.2216 24.583 48.428C24.761 48.6373 24.7639 48.8087 24.5392 48.957C24.4809 48.9075 24.1162 48.4803 24.0871 48.4134L24.0841 48.4164ZM25.1023 50.2213C25.2394 50.2155 25.3182 50.137 25.362 50.0382C25.3912 49.8696 24.8864 49.4714 24.7989 49.2505C24.8952 49.204 25.0031 49.2854 25.1199 49.3464C25.2277 49.4017 25.6946 49.6574 25.7792 49.6487C25.8842 49.6371 26.0038 49.5063 26.0009 49.3639C25.9338 49.2883 25.2132 48.9366 25.0702 48.893C25.1111 48.6053 25.0935 48.4687 24.9477 48.2565C24.6793 47.8671 24.3146 47.7072 23.9149 48.0327C23.4189 48.4367 23.5269 48.3815 23.9733 48.9192C24.1016 49.0732 24.2329 49.2011 24.3467 49.3552C24.4604 49.5092 24.5976 49.6371 24.7201 49.7911C24.7989 49.89 25.0177 50.1806 25.1052 50.2242L25.1023 50.2213ZM7.4106 47.6171C7.6178 47.5735 7.77238 47.7043 7.72864 47.9339C7.69361 48.1054 7.54479 48.2594 7.45147 48.3554C7.27642 48.5356 6.973 48.864 6.64624 48.9308C6.36616 48.9861 6.08316 48.7361 6.58206 48.1838C6.73377 48.0182 7.1072 47.6811 7.41356 47.6171H7.4106ZM7.26474 47.2334C6.77752 47.3846 6.2903 47.8613 6.06857 48.21C5.69514 48.8029 6.10066 49.5121 6.80379 49.3C7.26186 49.1604 7.78701 48.6547 7.98246 48.3205C8.37047 47.6578 7.85699 47.0503 7.26474 47.2334ZM4.82572 47.2102C5.02703 47.2102 5.50258 46.7684 5.73015 46.6754L6.01315 47.1201C5.73889 47.2886 5.44715 47.495 5.16707 47.6985C5.16707 47.8555 5.22542 47.9456 5.33337 48.0124C5.4384 48.0357 7.29977 46.7219 7.30265 46.7074C7.30265 46.5708 7.25307 46.472 7.13929 46.4051C6.93799 46.4225 6.54705 46.8062 6.31072 46.8934C6.24946 46.7248 6.11234 46.6115 6.06274 46.4399C6.23196 46.283 6.72209 46.0418 6.80962 45.879C6.79211 45.7424 6.71334 45.5709 6.55871 45.6203L4.70319 46.8788C4.60691 46.9922 4.73236 47.1521 4.81989 47.2073L4.82572 47.2102ZM9.01229 50.2416C9.10858 50.1283 9.14656 50.0934 9.26035 50.0178L9.13776 50.3405L9.00941 50.2416H9.01229ZM8.98023 50.7038C8.94232 50.8607 8.67682 51.413 8.71768 51.5147C8.7352 51.5554 8.81397 51.6251 8.86939 51.6542C9.05611 51.7472 9.08234 51.5292 9.19614 51.2386C9.40038 50.7154 9.59878 50.1922 9.8059 49.6662C9.86132 49.5266 9.9576 49.3813 9.8526 49.2738C9.68043 49.0965 9.59582 49.1895 9.52289 49.2534C9.33912 49.4162 7.85115 50.7096 7.84243 50.8055C7.86283 50.9014 7.95327 50.9915 8.03499 51.0206C8.18669 51.0729 8.58638 50.6166 8.69722 50.5207C8.79934 50.5671 8.87811 50.6572 8.97734 50.7067L8.98023 50.7038ZM25.9922 47.8206C25.8288 47.777 25.0673 47.3003 24.8077 47.1637C24.6238 47.0678 24.5013 47.2306 24.4809 47.3875C24.5013 47.5183 26.1176 48.3495 26.3802 48.5035C26.564 48.6111 26.6369 48.6315 26.7507 48.4571C26.8674 48.2711 26.5874 48.0008 26.3773 47.6839L25.6392 46.5969C25.5691 46.4952 25.47 46.2394 25.3036 46.3528C25.0206 46.5446 25.2657 46.7335 25.502 47.0939C25.6741 47.3555 25.8405 47.5793 25.9951 47.8264L25.9922 47.8206ZM23.0134 49.3871C23.1242 49.2651 23.2293 49.1982 23.3518 49.0907C23.5123 48.9512 23.4073 48.521 23.0484 48.832C22.3773 49.4191 22.2695 49.1168 23.2264 50.3143C23.3256 50.4393 23.9091 51.2328 24.0025 51.2386C24.0958 51.2153 24.6705 50.727 24.7347 50.6572C24.7376 50.4974 24.6501 50.3928 24.5392 50.3579C24.405 50.3841 24.1891 50.634 24.0579 50.7154C23.9878 50.6718 23.6407 50.2126 23.6173 50.1719C23.7223 50.0265 23.9411 49.9481 24.0287 49.7679C24.0083 49.6022 23.8653 49.4482 23.7194 49.5586L23.3897 49.8521C23.311 49.7969 23.0484 49.4714 23.0134 49.3843V49.3871ZM22.424 49.8987C22.567 49.2476 21.858 49.6284 21.7122 49.7999C21.4438 50.1196 21.5809 50.5846 21.8172 50.8113C22.1585 51.1398 22.6662 50.8637 22.8588 51.0787C22.955 51.1862 23.0455 51.4449 22.9083 51.5757C22.7713 51.7094 22.5729 51.6949 22.427 51.7821C22.4065 51.8693 22.4182 51.9157 22.4474 51.9768C22.6808 52.468 23.9207 51.5874 23.0805 50.7561C22.745 50.4248 22.3044 50.7183 22.0769 50.5061C21.9806 50.416 21.8727 50.2067 21.9981 50.0644C22.0886 49.9626 22.2986 49.9394 22.424 49.8928V49.8987ZM3.83669 43.6759C3.6879 43.6468 3.5887 43.702 3.5041 43.7631C3.34072 44.6815 4.22763 45.0855 4.74695 44.5333C4.9891 44.2746 4.92492 43.7922 5.12914 43.6643C5.26626 43.5771 5.45298 43.5597 5.54635 43.6904C5.67179 43.8706 5.55218 44.048 5.64262 44.1787C5.64846 44.1845 6.00731 44.4112 6.00147 43.9695C6.00147 43.766 5.94313 43.5597 5.84393 43.4376C5.61928 43.1644 5.19041 43.0946 4.8724 43.3649C4.51355 43.673 4.65942 44.1381 4.41727 44.3037C4.25681 44.4112 4.02341 44.3967 3.9388 44.2485C3.83377 44.0625 3.9213 43.8415 3.84252 43.6788L3.83669 43.6759ZM20.1105 51.1019C20.1455 51.0118 20.1717 50.9014 20.1513 50.7822C20.1076 50.7096 19.4628 50.5585 19.2148 51.1746C18.9785 51.7617 19.349 53.0289 19.9821 53.2295C20.3526 53.3487 20.9799 53.0726 20.6386 52.6976C20.408 52.686 20.2797 53.0115 19.9938 52.779C19.6962 52.5378 19.4511 51.7937 19.5561 51.381C19.6495 51.009 19.8683 51.1717 20.1134 51.1049L20.1105 51.1019ZM4.74403 46.3382C4.75862 46.1348 4.67985 46.1696 4.59232 46.0069C4.52522 45.882 4.5223 45.7686 4.59232 45.6378C4.68569 45.4663 4.88699 45.321 5.0883 45.2134C5.2721 45.1146 5.54635 44.9984 5.78558 45.0042C6.17652 45.0129 6.11234 45.2192 6.18528 45.5274C6.74543 45.8325 6.59081 44.9896 6.23779 44.7309C5.6893 44.3299 4.39685 44.9199 4.18679 45.5971C4.08176 45.9342 4.30349 46.6667 4.74403 46.3382ZM25.9776 45.7366C26.0768 45.6581 26.1205 45.507 26.1789 45.3878C26.4823 45.5128 27.8039 46.2801 28.011 46.2569C28.0665 46.1958 28.1599 46.0709 28.1278 45.9779C28.0869 45.8761 28.0665 45.8906 27.9439 45.8325C27.8623 45.7919 27.7952 45.7598 27.7135 45.7192L26.3481 45.0245C26.3918 44.8995 26.4764 44.7833 26.4881 44.6438C26.4035 44.5101 26.2256 44.4054 26.1205 44.5886C26.0505 44.7077 25.9893 44.8763 25.9279 45.0071C25.8608 45.1553 25.7996 45.2832 25.7325 45.4256C25.6392 45.632 25.7704 45.7482 25.9746 45.7395L25.9776 45.7366ZM7.49817 50.0208C7.55063 49.8928 7.60029 49.8521 7.69073 49.7592C7.76654 49.6807 7.81029 49.6022 7.88617 49.5208L8.66803 48.5995C8.72352 48.5298 8.83148 48.4571 8.76727 48.3408C8.74103 48.2914 8.62429 48.1664 8.53096 48.1926C8.45507 48.2129 7.84243 48.9745 7.72864 49.0936L7.13638 49.8027C6.8242 50.1283 7.09845 50.0963 7.504 50.5381C7.78701 50.8433 7.8949 50.4276 7.8949 50.4218C7.84827 50.294 7.59149 50.0847 7.49233 50.0208H7.49817ZM28.7521 44.2165C28.8542 44.1467 28.8776 44.0101 28.8542 43.8794C28.7171 43.7893 26.7711 43.1644 26.6019 43.1789C26.2897 43.5858 26.7186 43.5945 27.4597 43.8358C27.6668 43.9026 28.6296 44.2398 28.7521 44.2165ZM16.2186 53.8689C16.2681 53.2149 16.2448 52.25 16.2477 51.567C16.2477 51.3025 15.9823 51.3229 15.8977 51.4246C15.8363 51.5031 15.8072 53.7846 15.8977 53.8661C15.9939 53.9183 16.1223 53.898 16.2186 53.8661V53.8689ZM18.573 51.1368C18.1266 51.0526 18.2608 51.3781 18.3221 51.6629C18.3775 51.9245 18.43 52.1715 18.4884 52.4331C18.7072 53.4533 18.6546 53.7876 19.0835 53.5434C19.1127 53.3545 18.6518 51.2531 18.573 51.1368ZM20.3409 50.5468C20.3293 50.7154 20.7581 51.6484 20.8457 51.8663C20.8953 51.9885 21.1753 52.7732 21.2746 52.8081C21.3884 52.8488 21.5226 52.7412 21.5693 52.6918C21.6072 52.5988 20.7115 50.5119 20.6444 50.4335C20.4985 50.4248 20.4168 50.477 20.3409 50.5468ZM28.4633 45.1437C28.542 45.0594 28.5829 44.978 28.5683 44.8269C28.4312 44.7164 27.6551 44.4461 27.4159 44.3531C27.2146 44.2746 27.0133 44.1991 26.8178 44.1235C26.6223 44.048 26.3773 43.8619 26.278 44.109C26.1701 44.3822 26.4065 44.3967 26.6398 44.4839C26.9695 44.6089 28.3057 45.164 28.4604 45.1437H28.4633ZM27.48 47.3235C27.7368 46.9661 27.588 47.001 26.7419 46.469C26.5319 46.3382 25.7325 45.7831 25.5429 45.7947C25.3153 46.0941 25.4349 46.1202 25.7004 46.2888C25.9017 46.4167 26.0855 46.5272 26.2868 46.6522C26.4881 46.78 26.6545 46.8846 26.8499 47.0068C27.0016 47.1026 27.305 47.341 27.48 47.3265V47.3235ZM31.2874 44.7688C31.6229 44.7688 31.7572 44.4548 31.7572 44.1235C31.7572 43.8706 31.6434 43.5277 31.5879 43.3271C31.5121 43.0568 31.445 42.8156 31.3749 42.5423C31.2582 42.0803 31.1386 41.3827 31.1386 40.813C31.0715 40.8363 31.1153 40.816 31.0686 40.8595L30.8731 41.1066C30.7915 41.2112 30.7156 41.3071 30.6164 41.406C30.2342 41.7809 29.1839 42.7807 28.6967 42.8912L29.4086 43.2952C29.8316 43.5481 30.3363 43.9085 30.6747 44.2601C30.8148 44.4026 31.0453 44.7658 31.2845 44.7658L31.2874 44.7688ZM28.5567 42.2401C28.3028 42.0424 27.9469 41.1473 27.8418 40.7927C27.5763 41.1299 27.1825 41.8303 27.2788 42.5453C27.7048 42.6412 28.2094 42.5308 28.5567 42.2401ZM28.8163 34.7181C28.6442 34.7181 28.189 34.8257 28.0169 34.8897C27.9177 34.9245 27.8856 34.9594 27.7864 34.9826C27.8593 35.2558 28.4312 35.5261 28.6675 35.686C28.6675 35.3808 28.8075 35.0204 28.8134 34.7181H28.8163ZM1.05924 44.7688C0.72372 44.7688 0.589517 44.4548 0.589517 44.1235C0.589517 43.8706 0.7033 43.5277 0.758731 43.3271C0.834588 43.0568 0.90169 42.8156 0.97171 42.5423C1.08841 42.0803 1.20803 41.3827 1.20803 40.813C1.27513 40.8363 1.23137 40.816 1.27805 40.8595L1.47352 41.1066C1.55521 41.2112 1.63107 41.3071 1.73026 41.406C2.11245 41.7809 3.16275 42.7807 3.64997 42.8912L2.9381 43.2952C2.51506 43.5481 2.01034 43.9085 1.67191 44.2601C1.53187 44.4026 1.30139 44.7658 1.06215 44.7658L1.05924 44.7688ZM3.79001 42.2401C4.04383 42.0424 4.39977 41.1473 4.5048 40.7927C4.77029 41.1299 5.16415 41.8303 5.06787 42.5453C4.639 42.6412 4.13719 42.5308 3.79001 42.2401ZM3.52744 34.7181C3.69957 34.7181 4.1547 34.8257 4.32683 34.8897C4.42603 34.9245 4.45812 34.9594 4.55731 34.9826C4.48437 35.2558 3.91254 35.5261 3.67623 35.686C3.67623 35.3808 3.53619 35.0204 3.53036 34.7181H3.52744Z" fill="#D9D9D9"/>
<path fill-rule="evenodd" clip-rule="evenodd" d="M16.6504 6.21415C16.7554 6.46411 16.7058 6.34785 17.2339 6.49026C18.3747 6.79835 19.2091 7.51916 19.4249 8.69631C19.5387 9.31826 19.4716 9.46939 19.4162 10.0682C19.775 9.66999 20.1689 9.59726 20.3906 10.1524C20.4286 10.2454 20.4111 10.26 20.5132 10.2861C20.6794 10.135 20.7524 8.94041 20.732 8.62652C20.6853 7.97836 20.4957 7.44356 20.1835 7.03378C19.5767 6.23449 18.4534 5.82759 17.0297 5.8334C16.9684 5.85374 16.9363 6.00198 16.7612 6.12695L16.6504 6.21706V6.21415Z" fill="#D9D9D9"/>
<path fill-rule="evenodd" clip-rule="evenodd" d="M11.9414 10.0972H11.9763C12.3177 9.27461 12.872 9.95185 12.9566 10.0158L13.0937 9.99543C13.0471 9.41124 12.9887 9.32401 13.1025 8.71081C13.2688 7.8156 13.759 7.17034 14.5787 6.76053C14.8588 6.62102 15.2118 6.49604 15.5299 6.4321C15.6524 6.40885 15.6349 6.44663 15.7399 6.21411C15.664 6.15889 15.5882 6.11529 15.5269 6.05716C15.492 6.02228 15.4656 5.99322 15.4365 5.95253C15.4161 5.92347 15.4219 5.93218 15.4015 5.90312L15.3519 5.83627C14.8238 5.80139 14.0186 5.96706 13.5751 6.14436C13.0208 6.36525 12.6648 6.64718 12.3702 7.00758C11.8392 7.66734 11.7254 8.61489 11.8217 9.48684C11.8538 9.79778 11.9063 9.80654 11.9472 10.0972H11.9414Z" fill="#D9D9D9"/>
<path fill-rule="evenodd" clip-rule="evenodd" d="M20.8631 14.7969C20.7406 15.0759 20.3204 14.9248 20.4313 14.6167C20.5363 14.3232 20.9944 14.4947 20.8631 14.7969ZM11.4366 14.7097C11.3958 14.39 11.8422 14.3522 11.8947 14.6254C11.9647 14.9684 11.4717 15.0004 11.4366 14.7097ZM17.6101 14.5324C17.5546 14.1923 18.039 14.1371 18.071 14.4452C18.1031 14.7533 17.6538 14.8144 17.6101 14.5324ZM17.2542 14.576C17.1841 14.7504 16.7552 14.6807 16.5423 14.6807H15.7225C15.4978 14.6807 15.1098 14.7592 15.0777 14.5092C15.066 14.4104 15.066 13.7825 15.0952 13.7157C15.1652 13.5588 15.6087 13.6227 15.8099 13.6227H16.6298C16.8778 13.6227 17.2367 13.5529 17.2658 13.7913C17.2774 13.8901 17.2775 14.515 17.2512 14.576H17.2542ZM14.36 14.5121C14.2987 14.1865 14.7509 14.111 14.8151 14.3842C14.8502 14.5324 14.7655 14.6487 14.6576 14.6836C14.5117 14.7301 14.3833 14.6284 14.3629 14.5121H14.36ZM18.4854 14.2505C18.5233 14.1953 19.2497 13.8087 19.3168 13.7971C19.4044 13.7825 20.0724 14.2389 20.1016 14.2708C20.0666 14.3639 19.7924 14.4889 19.7078 14.5353C19.1651 14.8463 19.4393 14.8463 18.675 14.39C18.5962 14.3435 18.5233 14.3087 18.4824 14.2476L18.4854 14.2505ZM12.201 14.2708C12.2448 14.1865 12.4957 14.0587 12.5774 14.0063C13.0471 13.7157 12.8837 13.7128 13.3972 13.9889C13.5285 14.0587 13.7298 14.1226 13.8232 14.2272C13.7911 14.2883 13.5168 14.4481 13.4468 14.4917C12.8954 14.826 13.1055 14.8144 12.6095 14.5266C12.4986 14.4627 12.2565 14.3522 12.2039 14.2708H12.201ZM20.9681 14.2505C20.866 14.5383 20.3933 14.4016 20.5363 14.0645C20.6443 13.8174 21.076 13.9424 20.9681 14.2505ZM11.352 14.1633C11.3141 13.8204 11.7751 13.8087 11.8159 14.0964C11.8626 14.4365 11.3842 14.4568 11.352 14.1633ZM18.071 13.9889C17.9689 14.2999 17.5255 14.1459 17.6275 13.8407C17.7209 13.5617 18.1732 13.6779 18.071 13.9889ZM14.36 13.922C14.2958 13.5965 14.7509 13.518 14.8151 13.7942C14.8909 14.1284 14.4183 14.2156 14.36 13.922ZM10.859 13.8349C10.9348 13.9105 11.0224 13.9976 11.0545 14.0296C11.2674 14.2272 11.3754 14.8812 11.2529 15.1922H11.2937C12.7729 15.0295 14.1907 14.9336 15.6116 14.9132C17.0295 14.8928 18.4503 14.9452 19.9353 15.0847L19.9849 15.0905C20.3788 15.1283 20.8048 15.166 21.1957 15.2242C21.0615 15.0265 21.006 14.7271 21.1286 14.4104C21.2073 14.204 21.3532 14.0035 21.5049 13.8552C21.3912 13.8436 21.2511 13.8232 21.1257 13.8029C21.044 13.7913 20.9681 13.7797 20.9156 13.7739C19.8682 13.646 18.7829 13.5471 17.6947 13.4948C16.7144 13.4454 15.7283 13.4338 14.7684 13.4658C14.1178 13.489 13.5168 13.5239 12.9188 13.5791C12.3236 13.6344 11.7313 13.707 11.0982 13.8087C11.0194 13.8204 10.9378 13.8349 10.859 13.8407V13.8349Z" fill="#D9D9D9"/>
<path fill-rule="evenodd" clip-rule="evenodd" d="M15.3987 15.4859C16.3294 15.4597 17.2834 15.4772 18.2316 15.5324C19.2148 15.5905 20.1892 15.6864 21.1257 15.8172C21.327 15.8463 21.4437 15.8143 21.4962 15.759C21.5108 15.7445 21.5167 15.7271 21.5196 15.7096C21.5196 15.6893 21.5196 15.6661 21.5079 15.6428C21.4758 15.5673 21.3882 15.4975 21.2541 15.4742C20.8427 15.4103 20.3846 15.3667 19.9616 15.326L19.912 15.3202C18.4358 15.1836 17.0237 15.1313 15.6145 15.1517C14.2054 15.172 12.7933 15.2679 11.3171 15.4248L11.2412 15.4307C11.1654 15.4365 11.1158 15.4423 11.0603 15.483C11.0049 15.5266 10.9699 15.5701 10.9553 15.6109C10.9466 15.6399 10.9436 15.669 10.9553 15.6951C10.964 15.7213 10.9845 15.7475 11.0166 15.7707C11.0662 15.8056 11.1362 15.8288 11.2267 15.8318C11.3346 15.8376 11.533 15.8056 11.6993 15.7794C11.7635 15.7678 11.8247 15.759 11.8802 15.7533C12.4666 15.6748 13.0501 15.6167 13.6307 15.5731C14.2112 15.5294 14.8006 15.5004 15.3957 15.4859H15.3987Z" fill="#D9D9D9"/>
<path fill-rule="evenodd" clip-rule="evenodd" d="M15.46 9.82104L15.6497 9.80072C15.7722 9.65246 15.9968 9.38216 16.2623 9.38216C16.5074 9.38216 16.7787 9.66122 16.8634 9.83561L17.0209 9.85306C17.0588 9.72225 17.1317 9.58275 17.1784 9.41999C17.4118 8.58868 17.2135 7.8708 16.9158 7.08897C16.8021 6.7867 16.6212 6.44374 16.5512 6.25191C16.2331 6.32457 16.1894 6.35363 15.8568 6.26644C15.6322 6.4728 15.2966 7.59762 15.2295 7.99867C15.1711 8.35039 15.1654 8.52184 15.212 8.88519C15.2821 9.46063 15.39 9.51297 15.46 9.82104Z" fill="#D9D9D9"/>
<path fill-rule="evenodd" clip-rule="evenodd" d="M9.25453 10.6727C9.53458 10.6669 9.51714 10.6699 9.72426 10.7716C9.62502 9.9578 9.60758 9.53055 10.0102 8.76615C10.0977 8.59757 10.2728 8.3534 10.3923 8.24585C10.7687 7.9087 10.9059 7.76045 11.4748 7.54542C11.5827 7.50471 11.6906 7.46695 11.8074 7.43493C12.1458 7.33901 11.9007 7.4495 12.2508 6.97863L12.4667 6.70833C11.5302 6.7868 10.6229 7.06002 9.90219 7.60932C9.44997 7.95228 9.10283 8.53942 9.03278 9.21659C8.98903 9.63803 9.0678 10.3734 9.25748 10.6785L9.25453 10.6727Z" fill="#D9D9D9"/>
<path fill-rule="evenodd" clip-rule="evenodd" d="M22.85 10.1669L22.8353 10.7599C22.9929 10.7338 22.8908 10.6495 23.3196 10.664C23.4334 10.0768 23.5793 9.96929 23.4947 9.1962C23.4218 8.52477 23.0775 7.94352 22.6282 7.60925C22.2985 7.3622 22.1118 7.24302 21.6859 7.07738C21.3095 6.93206 20.5043 6.70826 20.0637 6.71116C20.1104 6.79254 20.1658 6.83323 20.2329 6.91752C20.6881 7.50751 20.338 7.31281 20.8602 7.47556C21.2482 7.59762 21.6333 7.80403 21.8872 8.01324C22.1556 8.23415 22.4006 8.49577 22.5757 8.88518C22.7507 9.26886 22.847 9.69324 22.847 10.1669H22.85Z" fill="#D9D9D9"/>
<path fill-rule="evenodd" clip-rule="evenodd" d="M16.9682 5.53711H15.3899C15.5358 6.40033 16.8282 6.40615 16.9682 5.53711Z" fill="#D9D9D9"/>
<path fill-rule="evenodd" clip-rule="evenodd" d="M15.4163 5.17062H16.945C16.8779 4.87706 16.5628 4.61839 16.1894 4.61548C15.7897 4.61548 15.5009 4.86253 15.4163 5.17062Z" fill="#D9D9D9"/>
<path fill-rule="evenodd" clip-rule="evenodd" d="M11.7227 10.7337C11.7227 11.0156 11.8336 10.7599 11.7519 11.0825C11.6469 11.4952 11.5127 11.3325 11.4689 11.6231C11.4426 11.8149 11.5973 11.9225 11.7227 11.9923C11.9269 12.1027 11.7665 12.1404 11.9065 12.2799C12.1195 12.495 12.5163 12.0649 12.5163 11.937C12.5163 11.8091 12.28 11.8207 12.28 11.5272C12.28 11.4633 12.3062 11.3935 12.3296 11.3411C12.3383 11.3208 12.4259 11.1813 12.4317 11.1784C12.493 11.1174 12.7526 11.0593 12.8401 11.0593C12.9335 11.0593 13.056 11.1668 13.1144 11.2249C13.196 11.3005 13.2194 11.315 13.2194 11.5882C13.2194 11.6871 13.1319 11.6463 13.1319 11.8818C13.2427 11.9108 13.6454 12.2277 13.7796 11.9428C13.8291 11.8382 13.7825 11.7975 13.8321 11.7045C13.8992 11.5766 14.0422 11.5592 14.0422 11.3295C14.0422 11.0999 13.8496 11.036 13.7183 10.9488C13.5578 10.8442 13.6045 10.5448 13.307 10.6843C13.307 10.3849 13.2865 10.3849 12.9539 10.3326C12.7147 10.2948 12.8168 10.0972 12.4259 10.0972C12.0816 10.0972 12.1516 10.4547 11.9007 10.5709C11.8307 10.603 11.7198 10.6407 11.7198 10.7424L11.7227 10.7337Z" fill="#D9D9D9"/>
<path fill-rule="evenodd" clip-rule="evenodd" d="M15.4252 10.2078C15.4252 10.4462 15.5243 10.2456 15.3639 10.5856C15.2413 10.8443 14.9846 10.7338 14.9846 11.1146C14.9846 11.3355 15.1567 11.3559 15.2093 11.4779C15.2413 11.5535 15.2355 12.0388 15.7694 11.6901C15.8774 11.6204 15.9445 11.5942 15.9562 11.4372C15.6264 11.35 15.8803 10.7338 16.102 10.7338C16.3909 10.7338 16.4667 10.6903 16.6155 10.8676L16.6943 10.9664C16.7876 11.0972 16.7526 11.257 16.6943 11.3529C16.6564 11.4139 16.5718 11.4518 16.5718 11.5535C16.5718 11.6029 17.021 12.2307 17.2281 11.6814C17.304 11.4779 17.3361 11.5942 17.4761 11.4314C17.7008 11.1669 17.4936 10.9722 17.3566 10.8327C17.1669 10.6409 17.3478 10.4171 16.9831 10.5014C17.0006 10.4287 17.1348 10.2456 16.9247 10.1206C16.7847 10.0363 16.773 10.1119 16.6709 10.0218C16.6242 9.98106 16.5921 9.88809 16.5192 9.82125C16.4492 9.75728 16.3762 9.72239 16.3004 9.7137H16.2012C16.0699 9.73115 15.9386 9.8183 15.8365 9.94911C15.7227 10.0974 15.7898 9.99851 15.6119 10.0479C15.5535 10.0654 15.4222 10.1642 15.4222 10.2107L15.4252 10.2078Z" fill="#D9D9D9"/>
<path fill-rule="evenodd" clip-rule="evenodd" d="M19.4217 10.3531C19.2 10.3531 19.0892 10.2746 19.0775 10.6292C19.0745 10.7252 19.0949 10.635 18.9607 10.8327C18.8353 11.0187 18.3918 11.01 18.5143 11.4024C18.6048 11.696 18.6865 11.4431 18.6865 11.9633C18.8061 12.0418 18.7215 12.0506 18.9228 12.0506C19.0453 12.0506 19.3926 11.911 19.3926 11.8471C19.3926 11.6727 19.2554 11.7279 19.3138 11.4169C19.3138 11.4082 19.3313 11.353 19.3313 11.3472C19.3575 11.2803 19.4772 11.1815 19.5384 11.1408C19.6726 11.0565 20.0781 11.0856 20.1774 11.3123C20.3583 11.7366 20.1161 11.8064 19.979 11.9605C20.0723 12.1348 20.2298 12.3324 20.3786 12.3703H20.4691C20.5158 12.3557 20.5595 12.3209 20.5974 12.2511C20.6704 12.1203 20.5916 12.1523 20.7433 12.0737C21.3327 11.7802 20.9563 11.507 20.8571 11.3181C20.7579 11.1263 20.9184 10.9635 20.5974 10.9635C20.6208 10.8589 20.7608 10.6903 20.507 10.5566C20.3758 10.4869 20.3903 10.5508 20.3116 10.3996C19.9498 9.7137 19.4684 10.3502 19.4217 10.3502V10.3531Z" fill="#D9D9D9"/>
<path fill-rule="evenodd" clip-rule="evenodd" d="M9.10847 11.0275C9.10847 11.3443 9.49064 11.8413 9.6657 11.9924C9.9108 11.9285 9.86705 11.7105 10.2842 11.8732C10.5322 11.9691 10.4885 12.2482 10.5176 12.3732C11.4571 12.3732 11.1595 12.0506 11.1011 11.9111C11.0311 11.7483 11.1653 11.3588 10.8356 11.2978C10.6022 11.2542 10.506 11.3472 10.3193 11.228C10.1501 11.1205 10.2375 10.9112 10.0188 10.9112C9.83203 10.9112 9.9575 11.0682 9.60739 10.9693C9.40899 10.9141 9.28648 10.9868 9.10559 11.0303L9.10847 11.0275Z" fill="#D9D9D9"/>
<path fill-rule="evenodd" clip-rule="evenodd" d="M21.9484 11.2598C21.3416 11.2598 21.5284 11.5476 21.4758 11.8411C21.4729 11.8586 21.1753 12.341 21.7151 12.341C22.3773 12.341 21.8522 12.3149 22.1468 11.9515C22.1964 11.8905 22.1819 11.8905 22.2548 11.8556C22.6019 11.6871 22.6895 11.8731 22.8616 11.9632C23.1154 11.8295 23.4481 11.2773 23.4481 10.9983C23.235 10.9489 23.2846 10.9401 23.0366 10.9401C22.8442 10.9401 22.8762 11.0273 22.7245 10.9634C22.2577 10.7628 22.4386 11.0593 22.2635 11.1959C22.0885 11.3325 21.9835 11.2656 21.9514 11.2656L21.9484 11.2598Z" fill="#D9D9D9"/>
<path d="M13.9285 12.2509C13.9985 12.1463 14.051 12.0126 14.0744 11.8905C14.0861 11.8382 14.1181 11.7917 14.1707 11.7684L14.2027 11.7539C14.2873 11.7103 14.3923 11.7451 14.4362 11.8294C14.4945 11.9399 14.6054 12.0852 14.7366 12.2015C14.8358 12.2886 14.9438 12.3614 15.043 12.3846H15.0488C15.3376 12.4515 15.5419 12.2073 15.6498 12.0765C15.6965 12.0213 15.7344 11.9747 15.7811 11.9486C15.7724 11.8876 15.8074 11.8556 15.9241 11.8556H16.455C16.5513 11.8556 16.6038 11.8934 16.6126 11.9341C16.6534 11.9515 16.6855 11.9835 16.703 12.0271C16.7351 12.1085 16.7614 12.1637 16.7935 12.2043C16.8227 12.2392 16.8606 12.2683 16.9189 12.3003C17.0618 12.3759 17.1961 12.3933 17.3186 12.37C17.447 12.3439 17.5724 12.2683 17.6921 12.1637C17.7475 12.1142 17.7942 12.0474 17.8438 11.9777C17.8788 11.9312 17.9138 11.8788 17.9576 11.8236C17.9634 11.8149 17.9721 11.8033 17.9838 11.7945C18.0539 11.7306 18.1647 11.7365 18.2289 11.8062C18.258 11.8382 18.2843 11.8876 18.3193 11.9486C18.366 12.03 18.4272 12.1463 18.506 12.2451C18.6373 12.4108 18.8357 12.5358 19.107 12.3207L19.1304 12.3032L19.1596 12.2799C19.1479 12.2596 19.1449 12.2364 19.1596 12.2073C19.2092 12.0707 19.9064 12.2509 19.9823 12.3003L19.9473 12.3933C19.9589 12.4108 19.9735 12.4282 19.9852 12.4515C19.9969 12.4688 20.0085 12.4892 20.0348 12.5154C20.0611 12.5416 20.0873 12.5648 20.1194 12.5793H20.1253C20.1515 12.5938 20.1865 12.5968 20.2303 12.5851C20.4987 12.6374 20.5687 12.5328 20.6416 12.4718C20.7379 12.3904 20.8167 12.2974 20.8488 12.2364C20.8575 12.2189 20.8721 12.2015 20.8867 12.187C20.9597 12.123 21.0676 12.1317 21.1318 12.2043C21.1843 12.2654 21.2076 12.3497 21.2368 12.4573C21.2923 12.6549 21.1872 12.9572 21.476 12.8816C21.5111 12.8729 21.5402 12.8525 21.5665 12.8351C21.5928 12.8176 21.6161 12.8031 21.6365 12.7886C21.6394 12.588 21.7532 12.6432 21.8757 12.7101C21.9399 12.745 22.1617 12.8292 22.1821 12.8903C22.2025 12.9542 22.1821 13.056 22.0245 12.995C22.0187 13.024 22.007 13.0531 21.9866 13.0763C21.9691 13.0967 21.9516 13.117 21.9341 13.1344C21.7941 13.0211 21.6073 12.9978 21.3914 12.9717H21.371C20.7671 12.8961 20.1427 12.838 19.5184 12.7886C18.8853 12.7391 18.2435 12.7043 17.6162 12.6839C16.5688 12.6462 15.5244 12.649 14.4828 12.6811C13.4413 12.713 12.4026 12.7799 11.3698 12.8729L11.2736 12.8816C11.0693 12.899 10.6872 12.931 10.5996 12.963C10.5704 12.9746 10.5413 12.9891 10.5121 13.0095C10.4684 13.0415 10.4217 13.0821 10.3838 13.1316C10.3721 13.1112 10.3662 13.0879 10.3662 13.0647H10.3604C10.3166 13.056 10.2641 12.9978 10.2904 12.931C10.3108 12.87 10.7105 12.6898 10.7746 12.6898C10.8155 12.7305 10.8359 12.7595 10.8389 12.7857C10.8797 12.7886 10.9205 12.7973 10.9585 12.806C11.0285 12.8206 11.1014 12.8351 11.1948 12.7857C11.2298 12.7682 11.2589 12.7246 11.2852 12.6723C11.3203 12.6026 11.294 12.5241 11.3115 12.4543L11.3319 12.3672C11.3319 12.3672 11.3378 12.3468 11.3436 12.3352L11.3902 12.2364C11.4078 12.1986 11.4369 12.1695 11.4778 12.1521C11.5653 12.1143 11.6674 12.1521 11.7053 12.2392C11.7345 12.3061 11.86 12.4078 11.9475 12.495C12.0117 12.5589 12.0788 12.6113 12.1313 12.6259C12.1809 12.6404 12.2276 12.6316 12.2685 12.6142C12.3297 12.5851 12.3851 12.5241 12.426 12.463C12.4522 12.4253 12.4726 12.3962 12.4901 12.3729C12.4814 12.3555 12.4814 12.3352 12.4931 12.309C12.5339 12.216 12.7878 12.216 12.9103 12.1986C13.0882 12.1724 13.2925 12.0823 13.2954 12.2741C13.31 12.2858 13.3246 12.2974 13.3392 12.3119C13.3625 12.3323 13.3975 12.3614 13.4646 12.3933C13.5112 12.4166 13.5638 12.434 13.6134 12.4427C13.6572 12.4485 13.7038 12.4427 13.7505 12.4282C13.8147 12.4049 13.876 12.341 13.9314 12.2596L13.9285 12.2509Z" fill="#D9D9D9"/>
<path fill-rule="evenodd" clip-rule="evenodd" d="M6.18523 37.1363H6.1794C6.25525 37.0665 6.61702 36.8283 6.71913 36.8079L6.73955 36.7846C6.84167 36.6916 14.7189 31.8494 15.67 31.2507C15.7926 31.1723 16.1747 30.9165 16.2885 30.8874C16.3731 30.9688 18.6166 32.3551 18.7567 32.4394C19.594 32.9452 20.4139 33.48 21.2512 33.9973L24.9943 36.3312C25.1693 36.4416 26.1789 37.052 26.2284 37.1189C26.3218 37.1421 26.3656 37.206 26.4676 37.2381C26.4531 37.4008 26.3306 37.8658 26.2547 37.9676L26.2284 38.0664C26.1292 38.3687 25.8375 38.979 25.7325 39.1127C25.712 39.1389 25.715 39.1331 25.6945 39.1534L25.6858 39.1795C25.6304 39.3366 25.3882 39.6795 25.2919 39.8103L24.2416 41.0659C23.8974 41.4292 23.7048 41.6007 23.3255 41.9523L22.7624 42.4232C21.7092 43.3039 20.2271 44.1961 19.0193 44.8646C18.7217 45.0303 16.4285 46.2162 16.2126 46.1551C15.7459 46.0214 13.8145 45.0564 13.4089 44.8356C12.2857 44.231 11.2179 43.58 10.2376 42.8534C10.0305 42.6993 9.85834 42.554 9.6541 42.4028C9.46161 42.2575 8.6768 41.5919 8.55133 41.4379C8.46089 41.3274 8.09616 40.9961 7.92111 40.7956L7.55645 40.3683C7.40475 40.1852 7.25888 39.9846 7.11299 39.7812C7.00505 39.63 6.78915 39.3191 6.7133 39.1389L6.71913 39.1331L6.4303 38.6012C6.35153 38.4239 6.23774 38.1914 6.19107 37.9966C6.15314 37.924 6.15314 37.921 6.15606 37.8455C6.07145 37.7699 5.99851 37.3776 5.98392 37.2409C6.07145 37.2119 6.09187 37.1741 6.18815 37.1392L6.18523 37.1363ZM8.02906 25.1355C8.02906 25.9086 7.92111 26.5509 7.92694 27.2311C8.06409 27.263 8.15453 27.356 8.22746 27.3444C8.31791 27.3299 8.385 27.2194 8.51919 27.1846C8.53087 27.388 8.42586 27.4054 8.34421 27.545C8.26833 27.6757 8.21291 27.7455 8.1283 27.8559C8.01451 28.007 7.81611 28.3995 7.60603 28.3762C7.6177 28.289 7.65273 28.2251 7.6848 28.1582C7.5594 27.9082 7.41347 27.9867 7.28223 27.7542C7.08382 27.4055 7.20052 26.9869 7.20052 26.8648L7.15092 26.2893C7.13633 25.6209 7.04006 25.2546 7.2676 24.6414C7.14217 24.4118 7.03714 24.4553 6.87668 24.313C6.88834 24.1967 6.89418 24.2054 6.9642 24.1531C7.0313 24.1007 7.06631 24.0862 7.1305 24.0427C7.4281 23.8363 7.50103 23.598 7.80155 23.8101C7.90367 23.8828 7.99699 24.0048 8.1283 24.0455C8.24498 23.999 8.41419 23.7985 8.49296 23.8711C8.6505 24.0165 8.35877 24.1734 8.28288 24.2199C7.93278 24.435 8.02906 24.4204 8.02906 25.1384V25.1355ZM13.5111 21.889C13.4089 21.8686 13.4089 21.8541 13.3506 21.8017C13.3506 21.4501 14.0333 21.5489 13.9778 21.8395C13.9603 21.9267 13.9603 21.9907 13.9195 22.2232C13.8757 22.4702 13.3622 22.5226 13.3185 22.5196C13.1726 22.5022 12.8604 22.3772 12.808 22.2726C12.7788 22.2115 12.8313 22.0779 12.4316 22.1418C12.1136 22.1941 11.9677 22.5574 12.0961 22.8888C12.2041 23.1678 12.4695 23.5195 12.8196 23.2986C12.8546 23.2753 12.9422 23.1852 12.9889 23.1387C13.056 23.0748 13.0822 23.0311 13.1522 22.9701C13.4177 22.7405 14.0712 22.851 14.29 23.0951C14.5205 23.3538 14.1821 23.8799 14.0304 24.0921C13.9662 24.1822 13.7766 24.3769 13.6919 24.4437C13.1872 24.8361 13.1084 24.3303 12.7933 24.2257C12.7525 24.4321 12.63 24.8216 12.808 25.1035C12.8926 25.2401 12.9275 25.307 13.056 25.3825C13.5694 25.6819 13.4089 25.3622 13.6511 25.2633C13.867 25.1762 14.1063 25.3273 14.2346 25.4814C14.2871 25.5453 14.3192 25.6761 14.3571 25.772C14.5759 26.3097 14.5322 26.58 14.2113 26.9985C13.8203 27.5101 13.6249 27.5333 13.1989 28.0594C13.0851 28.1989 12.7262 28.5855 12.5278 28.6145C12.4987 28.4343 12.4608 28.4605 12.557 28.3384C12.5804 28.3064 12.5921 28.2745 12.6037 28.2542C12.5162 28.1582 12.4987 28.1378 12.3645 28.0652C12.1457 27.9431 12.1194 27.9809 11.8802 27.9257C11.9123 27.8181 11.8889 27.8705 11.9823 27.7949C12.2041 27.6234 12.6592 27.0741 12.7204 27.0392C12.7262 27.0363 12.7466 27.0276 12.7525 27.0276C12.7963 27.0188 12.7788 27.0218 12.8021 27.0276C12.8459 27.1846 12.6942 27.1468 12.9217 27.3706C13.123 27.6118 13.2397 27.5595 13.4585 27.3037C13.5519 27.1962 13.6832 26.9898 13.7036 26.8241C13.724 26.673 13.724 26.6614 13.6948 26.5015C13.6628 26.3126 13.5665 26.2719 13.4615 26.1527C13.3681 26.0423 13.3418 25.9319 13.1406 25.8912C12.9713 25.8592 12.9071 25.9987 12.7613 26.0656C12.4695 26.1964 12.134 25.8563 12.1194 25.6034C12.1048 25.336 12.0348 24.7664 12.1544 24.5862C12.2711 24.4059 13.3302 23.6299 13.5023 23.595C13.6686 23.8246 13.7999 24.0078 14.0012 23.6067C14.2375 23.1387 13.7824 23.1184 13.5052 23.1852C13.3448 23.223 13.2456 23.223 13.1172 23.3684C13.018 23.4817 12.9159 23.5863 12.7234 23.6241C12.0698 23.7549 11.9414 23.2811 11.7927 22.819C11.6409 22.3423 12.3353 21.607 12.8926 21.8424C13.2281 21.9819 13.1084 22.2988 13.5811 22.2958C13.6948 22.1883 13.7999 22.011 13.7123 21.7959C13.5315 21.7582 13.619 21.7959 13.4994 21.889H13.5111ZM9.97214 24.4176C10.0771 24.403 10.4594 24.0427 10.5585 23.9642C10.6899 23.8595 11.0253 23.5601 11.1596 23.5195C11.1041 23.7927 10.7541 23.6851 11.2529 24.0833C11.5009 24.281 11.4542 24.839 11.463 25.0279C11.4717 25.2111 11.4834 25.3941 11.4892 25.5773C11.5272 26.6352 11.6234 26.6991 11.107 27.449C10.9349 27.699 10.8503 27.9024 10.6228 28.0826C10.3631 28.2861 10.1589 29.2801 10.9553 29.2249C11.1741 29.2104 11.3929 29.1755 11.4513 29.0534C11.5038 28.9401 11.6759 28.8209 11.5622 28.6785C11.4542 28.5476 11.25 28.4866 11.107 28.5709C11.1654 28.7337 11.2208 28.6087 11.145 28.847C10.7074 29.0156 10.6752 28.4605 11.072 28.3326C12.1019 28.0652 12.1253 29.3092 11.3871 29.4516C11.2967 29.4719 10.8911 29.6376 10.5002 29.44C10.1268 29.3411 10.0888 28.5448 10.2026 28.2512C10.2289 28.1814 10.6607 27.7194 10.7482 27.4984C10.8736 27.1787 10.7745 25.5831 10.7453 25.1645C10.7249 24.9088 10.6927 24.9088 10.5994 24.7082C10.5148 24.5222 10.5118 24.4088 10.3047 24.3652C10.1326 24.4612 9.96342 24.6646 9.9459 24.9436C9.91672 25.4087 9.94295 26.7369 10.0188 27.202C10.0567 27.4228 10.1005 27.3822 10.1676 27.5275C10.1238 27.6147 9.84962 27.949 9.77373 28.0245C9.65122 28.1437 9.46738 28.4896 9.35654 28.4314C9.31568 28.3471 9.54326 28.1262 9.5958 28.0274C9.51408 27.9518 9.4441 27.8792 9.35949 27.7949C9.32151 27.7571 9.27193 27.7019 9.22819 27.6757C9.07065 27.5856 8.93646 27.6931 9.199 27.2601C9.29528 27.1003 9.304 27.0712 9.30112 26.8386C9.29816 26.5277 9.2457 26.7282 9.27193 26.176C9.28656 25.8563 9.25154 25.711 9.23691 25.4377C9.22819 25.2691 9.26026 25.118 9.24274 24.9146C9.18444 24.1967 9.24274 24.5077 9.26609 24.2519C9.27489 24.1734 9.25154 24.0949 9.24858 24.0106C9.23986 23.6851 9.38277 22.4615 9.52575 22.2551C9.6629 22.0575 9.83795 21.9791 10.0655 21.7727C10.3397 21.5256 10.4389 21.5838 10.6957 21.3745C10.541 21.0315 10.8299 21.078 10.8824 21.1274C11.0428 21.2815 10.8095 21.7872 10.7249 21.8424C10.4652 22.0168 10.1968 22.1069 10.0771 22.415C9.99548 22.6301 9.96341 24.0775 9.97509 24.4204L9.97214 24.4176ZM10.4798 20.2991C7.67608 20.5577 5.67175 22.9992 5.94016 25.6964C6.19398 28.257 8.49591 30.4224 11.4104 30.1434C14.0158 29.8934 16.1894 27.6321 15.918 24.7547C15.6788 22.1999 13.3739 20.0346 10.4798 20.2991ZM17.3038 17.5379H25.9658H26.4735V36.3922C26.3772 36.3632 25.9892 36.1045 25.8842 36.0348L25.7295 35.933C25.5107 35.8313 25.2948 35.6395 25.076 35.5377L24.9943 35.4796C24.8864 35.4099 24.7843 35.3488 24.6792 35.2849C24.5625 35.2152 24.4604 35.1396 24.3408 35.0844L24.2591 35.0262L22.8471 34.1426L22.8295 34.1252C22.7099 34.0729 22.567 33.9712 22.4561 33.8985C22.3394 33.8229 22.1877 33.7503 22.0914 33.6602L22.0535 33.6457L17.5723 30.8554C17.3914 30.745 16.7845 30.3468 16.6707 30.3003V17.5379H17.3038ZM5.15244 16.6166C5.10576 16.8607 5.14369 17.6193 5.14369 17.9187V37.3078C5.14369 39.2086 6.76873 41.1502 8.00283 42.2633C8.06993 42.3244 8.09911 42.3679 8.17204 42.4232C8.4317 42.6296 8.7351 42.9115 9.06186 43.1614C11.072 44.7077 13.4061 45.9139 15.7605 46.8818C16.3498 47.123 16.1718 47.1317 16.6795 46.9166L18.0478 46.3208C19.7662 45.5389 22.3511 44.0944 23.7252 42.8621C23.8361 42.7604 23.9703 42.6703 24.0811 42.5569L25.6654 40.9089C26.3276 40.0661 27.2204 38.761 27.2204 37.2845V19.183C27.2204 18.6627 27.1941 16.9974 27.2204 16.6166H5.15244Z" fill="#D9D9D9"/>
<path fill-rule="evenodd" clip-rule="evenodd" d="M19.7224 25.7547L19.5794 25.7489C19.5386 25.6792 19.5561 25.6559 19.5386 25.5774C19.419 25.0339 18.9697 24.2172 18.3366 24.3596C17.6714 24.5108 17.5693 25.3827 17.9923 25.5949C18.0944 25.6443 18.1907 25.6152 18.2491 25.6908C18.3132 25.778 18.2636 25.8564 18.2549 25.9437C18.3891 25.8855 18.5116 25.6966 18.4591 25.4815C18.4416 25.4089 18.3132 25.1327 18.6867 25.095C19.0601 25.0572 19.3693 25.3711 19.4452 25.6792C19.3693 25.6617 19.3957 25.7489 19.3169 25.7663C19.311 26.0163 19.5065 25.9844 19.7166 26.0308C19.6844 26.057 19.381 26.4377 19.133 26.0599C19.0689 25.9611 19.0893 25.8943 19.0397 25.8245C18.888 25.9931 18.8325 26.2314 19.0105 26.4203C19.2293 26.6528 19.4219 26.461 19.5853 26.3563C19.5532 26.5279 19.3344 26.7051 19.7136 26.9057C19.8304 26.9667 19.7865 26.958 19.8595 27.0685C19.9354 26.9987 19.8799 26.9871 19.9937 26.9173C20.0696 26.8708 20.1221 26.8447 20.1717 26.7894C20.2913 26.6499 20.1775 26.4871 20.1338 26.3593C20.2213 26.4 20.2826 26.4813 20.3817 26.5133C20.7844 26.6441 20.9769 26.0308 20.6793 25.8274C20.6035 26.0047 20.6181 26.1297 20.4401 26.2023C20.2417 26.2808 20.1075 26.1384 20.0141 26.0512C20.0462 26.0279 20.0141 26.0424 20.0667 26.0279C20.1892 25.9931 20.4168 26.0541 20.4138 25.7576L20.2504 25.6792C20.4109 25.1095 21.009 24.9089 21.2716 25.1996C21.3562 25.2926 21.3154 25.342 21.2832 25.4524C21.2249 25.6501 21.3154 25.8913 21.4816 25.9407C21.3708 25.5746 21.6363 25.6617 21.7617 25.5774C22.211 25.2752 21.9834 24.4671 21.3737 24.3538C20.6968 24.2259 20.1892 25.0833 20.1425 25.746C20.0696 25.7518 20.0404 25.7634 19.9762 25.7431C19.8858 25.3013 20.1629 24.6619 20.2825 24.2695C20.4955 23.5923 20.0229 22.8831 19.8653 22.8861C19.7166 22.8889 19.241 23.5894 19.4511 24.2637C19.5824 24.6822 19.8099 25.281 19.7253 25.7547H19.7224Z" fill="#D9D9D9"/>
<path fill-rule="evenodd" clip-rule="evenodd" d="M22.8966 30.7914L22.9257 30.7682L22.9199 30.7885C22.879 30.9455 22.7711 31.0588 22.8994 31.207C23.0337 31.3611 22.9695 31.1867 23.2029 31.4831C23.2204 31.4628 23.2058 31.4831 23.2321 31.4425C23.2817 31.3727 23.2671 31.3698 23.3371 31.3262C23.6872 31.114 23.5676 31.1024 23.483 30.7827C23.6522 30.8467 23.8127 31.085 24.0548 30.835C24.2299 30.6548 24.1832 30.3874 24.0198 30.2392C23.9323 30.402 23.976 30.5357 23.7835 30.6112C23.5822 30.6897 23.4072 30.5415 23.3575 30.4368C23.588 30.4252 23.763 30.4194 23.7485 30.1723L23.6055 30.0619C23.7397 29.5358 24.3232 29.3178 24.6062 29.6114C24.6908 29.6986 24.6471 29.7654 24.615 29.8759C24.5537 30.088 24.6704 30.3089 24.8192 30.3555C24.7346 29.9747 24.8805 30.1259 25.0905 29.995C25.2043 29.9224 25.3268 29.748 25.3356 29.5533C25.3531 29.1609 25.0439 28.8383 24.7258 28.7714C24.3028 28.6842 23.9848 29.0504 23.8447 29.2481C23.5267 29.7015 23.5792 29.8817 23.4801 30.1317L23.3254 30.1404C23.2116 29.1056 23.8827 28.7278 23.6026 27.8733C23.5355 27.6699 23.3721 27.3559 23.2029 27.2979C23.0571 27.2979 22.5785 27.9925 22.7886 28.6755C22.9316 29.1464 23.1417 29.5881 23.0833 30.1345H22.9286C22.8323 29.8759 22.8645 29.6492 22.564 29.2451C22.4151 29.0446 22.103 28.6697 21.6625 28.7743C21.3474 28.8499 21.041 29.1725 21.0731 29.5736C21.0877 29.7538 21.2044 29.9369 21.3269 30.0037C21.4962 30.091 21.677 29.9892 21.5866 30.3555C21.7325 30.3119 21.8492 30.0996 21.7937 29.8904C21.782 29.8497 21.6333 29.5445 22.0271 29.5068C22.4035 29.469 22.7157 29.7538 22.8003 30.0619L22.6573 30.1636C22.6399 30.4107 22.8236 30.4223 23.0454 30.431C22.9987 30.5385 22.8323 30.681 22.634 30.6112C22.4268 30.5385 22.4648 30.3671 22.3802 30.2334C22.2255 30.3496 22.1993 30.649 22.3277 30.803C22.5261 31.0443 22.7069 30.9077 22.8937 30.7856L22.8966 30.7914Z" fill="#D9D9D9"/>
<path fill-rule="evenodd" clip-rule="evenodd" d="M24.0374 21.4064C24.0141 21.4238 24.0141 21.4122 23.9994 21.4412C23.9382 21.8772 23.5006 21.9033 23.3518 21.6069C23.4481 21.6011 23.8361 21.5894 23.7339 21.3424L23.5998 21.2785C23.6202 21.1971 23.6581 21.1942 23.699 21.1215C23.839 20.8628 24.2796 20.485 24.5946 20.7785C24.6938 20.8716 24.6501 20.921 24.6122 21.0401C24.5509 21.2407 24.6472 21.4732 24.8164 21.5284C24.6996 21.168 24.9127 21.2697 25.0936 21.1651C25.2044 21.1012 25.3269 20.9181 25.3328 20.7146C25.3503 20.1391 24.5567 19.4387 23.8449 20.4152C23.6406 20.6972 23.5356 20.9355 23.486 21.3482L23.3284 21.357C23.203 21.0227 23.5152 20.1682 23.6114 19.8572C23.8273 19.1684 23.3489 18.4708 23.1972 18.4679C23.0571 18.4679 22.5728 19.1626 22.7799 19.8397C22.9317 20.3397 23.1242 20.767 23.0776 21.3482H22.9083C22.8645 20.9558 22.742 20.671 22.5524 20.4124C21.8317 19.4329 21.0324 20.1566 21.0674 20.7379C21.0791 20.9326 21.2074 21.1128 21.3183 21.1709C21.5021 21.2697 21.6917 21.1854 21.5809 21.5255C21.7442 21.479 21.8434 21.2436 21.7822 21.0372C21.7471 20.9239 21.7092 20.8832 21.7909 20.7901C22.0768 20.4618 22.6924 20.7901 22.7946 21.2785C22.7303 21.2639 22.6837 21.3075 22.6574 21.3598C22.6341 21.4064 22.6749 21.479 22.7012 21.511C22.7682 21.5924 22.9112 21.5982 23.0513 21.6069C23.0017 21.7116 22.8266 21.8656 22.6253 21.7842C22.4532 21.7174 22.459 21.572 22.3861 21.4005C22.2198 21.543 22.179 21.8307 22.354 22.0051C22.5845 22.2347 22.7508 22.0371 22.9287 21.9382C22.8237 22.2376 22.7537 22.3248 23.0571 22.4905C23.168 22.5515 23.133 22.5602 23.2001 22.6503C23.2701 22.5719 23.2263 22.5515 23.3284 22.4963C23.699 22.2928 23.556 22.2027 23.4743 21.9382C23.6261 22.0341 23.8332 22.2115 24.0374 22.0167C24.2329 21.8307 24.1803 21.604 24.0374 21.4034V21.4064Z" fill="#D9D9D9"/>
<path fill-rule="evenodd" clip-rule="evenodd" d="M16.1136 44.3474C16.1136 44.3474 16.1194 44.3474 16.1194 44.3532C16.1194 44.3532 16.1136 44.3503 16.1136 44.3474ZM21.0967 41.2375V41.2665C21.0908 41.9234 20.8603 42.0338 20.8165 42.1966C21.0296 42.214 21.12 42.5018 20.9653 42.6384C20.834 42.7546 20.554 42.7081 20.5365 42.4901L20.3585 42.6035C19.9617 42.8447 19.3753 42.868 18.9465 42.6849C18.8881 42.6587 18.8064 42.6035 18.7597 42.5919C18.7568 42.7227 18.6547 42.8302 18.5351 42.836C18.4096 42.8447 18.2988 42.7401 18.2725 42.6354C18.182 42.6354 18.1558 42.6354 18.0974 42.6064C18.0887 42.711 18.0041 42.6994 17.9224 42.6791C17.8728 42.7808 17.8495 42.7924 17.7473 42.7372C17.7123 42.8854 17.6569 42.836 17.5402 42.8098C17.5314 42.932 17.4089 42.8709 17.3506 42.8389C17.3389 42.8825 17.3273 42.8941 17.3068 42.9261C17.1988 42.9261 17.2018 42.9203 17.1317 42.8825C17.1142 42.9145 17.1084 42.9261 17.088 42.9552C17.0005 42.9552 16.98 42.9639 16.9421 42.9116C16.8429 43.0366 16.8371 42.9872 16.7058 42.9552C16.6678 43.0918 16.5541 43.0075 16.4841 42.9697C16.5103 43.0831 16.4928 43.1383 16.4403 43.2196C16.5541 43.2952 16.4607 43.3767 16.4782 43.4609C16.487 43.5132 16.5161 43.5045 16.4958 43.5946C16.4841 43.644 16.4637 43.6702 16.4432 43.7022C16.5512 43.7748 16.4724 43.8359 16.487 43.9085C16.5278 44.0945 16.5249 43.9986 16.487 44.1556C16.5541 44.173 16.5687 44.2689 16.5745 44.3328C16.5832 44.4869 16.5745 44.4171 16.6416 44.516C16.7233 44.641 16.7963 45.2891 16.7408 45.4024C16.7204 45.4431 16.6854 45.4403 16.6533 45.478C16.5774 45.571 16.5337 45.5623 16.3995 45.5623C16.3616 45.6408 16.4053 45.635 16.3265 45.6931C16.277 45.7279 16.2886 45.7658 16.2331 45.7919C16.2099 45.8035 16.1573 45.8094 16.0961 45.8122H15.9385C15.9093 45.8122 15.8831 45.8094 15.8626 45.8035C15.7664 45.7831 15.7839 45.7861 15.7285 45.7309C15.6847 45.6844 15.6614 45.7018 15.6351 45.635C15.603 45.5623 15.6205 45.3588 15.6176 45.2542C15.6176 45.074 15.6438 44.8996 15.7197 44.7572C15.7635 44.6787 15.7664 44.7165 15.7693 44.638L15.8451 44.3386C15.8393 44.3038 15.7664 44.112 15.9414 44.0974C15.9122 44.0538 15.8656 43.9812 15.8685 43.9056C15.8685 43.8417 15.8947 43.8445 15.9035 43.8126C15.9093 43.7806 15.8918 43.7719 15.8802 43.7196C15.851 43.6149 15.9152 43.6353 15.8831 43.5103C15.8714 43.4667 15.8656 43.4522 15.8831 43.4086C15.9005 43.3563 15.9005 43.3767 15.9297 43.336L15.8802 43.2371C15.8626 43.1674 15.8656 43.1819 15.886 43.115C15.9122 43.0191 15.8393 43.0162 15.7985 42.9552C15.746 42.9697 15.7401 42.9988 15.6555 42.9814C15.6118 42.9726 15.5943 42.9523 15.5651 42.9116C15.5213 42.9697 15.4279 42.9406 15.39 42.8825C15.2675 42.9639 15.2733 42.8971 15.1829 42.8389C15.1596 42.9232 15.0282 42.9058 15.0079 42.8244C14.9728 42.8331 14.8415 42.9029 14.8007 42.7372C14.7511 42.7692 14.7452 42.807 14.684 42.7837C14.6402 42.7663 14.6081 42.7401 14.5964 42.6936C14.4418 42.7052 14.471 42.7256 14.3893 42.6064C14.2989 42.6675 14.2493 42.6413 14.1997 42.5483C14.1443 42.5599 14.1588 42.5716 14.0976 42.5774C14.0976 42.8098 13.8933 42.8854 13.7387 42.8012C13.6541 42.7546 13.6074 42.6965 13.5987 42.5919C13.091 42.8592 12.5163 42.8941 11.9999 42.5861C11.9328 42.5453 11.892 42.5105 11.8336 42.4727C11.8278 42.6907 11.5419 42.7779 11.396 42.6296C11.2384 42.4727 11.3551 42.2111 11.571 42.2082C11.393 41.9408 11.2792 41.7229 11.2764 41.281V41.2461C11.2792 40.8596 11.4018 40.6561 11.6002 40.3626C11.4952 40.3132 11.4485 40.319 11.3989 40.1969C11.3172 39.9935 11.5331 39.7929 11.7315 39.8656C11.8219 39.9005 11.8803 39.9586 11.8803 40.0836C11.9474 40.0691 12.0086 40.008 12.0757 39.9702C12.2975 39.854 12.5134 39.79 12.7905 39.79C13.1464 39.79 13.4732 39.9412 13.6862 40.0836C13.6862 39.8453 13.8058 39.8104 14.0392 39.8627C14.045 39.6272 14.2055 39.5285 14.328 39.4064L15.0574 38.6681C15.1012 38.6274 15.107 38.6042 15.1449 38.5635C15.1829 38.5228 15.2091 38.517 15.2442 38.4851L15.3433 38.3513C15.3433 38.3513 15.358 38.3252 15.358 38.3222C15.3754 38.2903 15.3725 38.2932 15.39 38.267C15.2879 38.2002 15.1129 38.0432 15.0195 37.9473C14.8474 37.7759 14.6461 37.6363 14.4681 37.4707C14.4156 37.4213 14.3135 37.3748 14.3193 37.2875C14.328 37.1626 14.7102 36.7237 14.859 36.8632C14.9174 36.9184 14.9728 36.9708 15.0341 37.026L15.2179 37.18C15.2529 37.212 15.2675 37.2353 15.3083 37.2643L15.6759 37.5869C15.7197 37.6189 15.7255 37.6247 15.7605 37.6625C15.886 37.7875 15.8393 37.6945 15.9998 37.7293C16.0698 37.7439 16.2099 37.7468 16.2857 37.7817C16.3411 37.6974 16.4666 37.6044 16.5453 37.5288C16.5774 37.4968 16.5862 37.4968 16.6183 37.4707L16.7583 37.3457C16.8662 37.2439 16.9917 37.1568 17.0967 37.0521C17.1347 37.0143 17.3389 36.8225 17.371 36.8138C17.4731 36.7876 17.8524 37.1335 17.8495 37.2527C17.8495 37.3108 17.6015 37.5114 17.5461 37.5578L17.0646 37.9997C17.1113 38.0113 17.1347 38.0432 17.1464 38.0926C17.2018 38.3077 17.0471 38.3049 16.9917 38.4095C17.0501 38.424 17.0179 38.424 17.0443 38.4444C17.0938 38.4821 17.1609 38.4879 17.2135 38.5373L17.9049 39.2552C18.1179 39.4674 18.3192 39.5924 18.3425 39.8598C18.4008 39.8307 18.5468 39.8133 18.6139 39.854C18.678 39.8917 18.6955 39.9848 18.6955 40.0807L18.8852 39.9644C18.9523 39.9324 19.0136 39.9005 19.0894 39.8743C19.2353 39.822 19.4191 39.7842 19.5912 39.7871C19.7517 39.7871 19.9763 39.8337 20.0989 39.883C20.2389 39.9354 20.3614 40.0167 20.4869 40.0807C20.5044 39.8772 20.7757 39.7755 20.9245 39.9238C20.9857 39.9848 21.0237 40.0894 20.9799 40.1941C20.9303 40.319 20.8837 40.3103 20.7786 40.3597C20.9625 40.63 21.0967 40.8742 21.1025 41.2288L21.0967 41.2375ZM16.2011 43.147C16.2011 43.3011 16.1982 43.2371 16.2448 43.3069C16.169 43.3621 16.2099 43.458 16.2127 43.5423L16.2011 43.6876C16.2011 43.7952 16.239 43.6498 16.204 43.8533C16.1982 43.8911 16.204 43.8998 16.204 43.9318C16.204 44.051 16.1194 43.9609 16.2303 44.1265C16.2011 44.173 16.1865 44.1584 16.1719 44.2137L16.1136 44.1411C16.1602 44.0741 16.1573 44.1294 16.1573 43.9957C16.1573 43.8939 16.0989 43.9521 16.1398 43.8475C16.1836 43.737 16.1428 43.7428 16.1369 43.6702C16.1311 43.6237 16.1573 43.6121 16.1573 43.5568C16.1573 43.4696 16.1281 43.4696 16.1136 43.4115C16.1602 43.3446 16.1573 43.4028 16.1573 43.2662C16.1573 43.2023 16.1369 43.2284 16.1398 43.1819C16.1398 43.147 16.1573 43.1499 16.1573 43.0773H16.2157C16.2069 43.1092 16.2011 43.1122 16.2011 43.1499V43.147ZM13.9983 42.1966V42.2024C13.9983 42.2024 13.9983 42.2024 13.9983 42.1966ZM19.3461 40.9236C19.3461 41.0224 19.4395 41.1445 19.5679 41.1445C19.8012 41.1445 19.8742 40.8654 19.6991 40.7492C19.7575 40.6416 19.7925 40.5225 19.9209 40.444C20.1222 40.3248 20.5015 40.412 20.5278 40.7986C20.5423 40.9875 20.3964 41.1677 20.1805 41.2171C20.166 41.2055 20.0172 40.9672 19.81 41.1532C19.6875 41.2636 19.7225 41.5223 19.9763 41.5223C20.1251 41.5223 20.1163 41.4526 20.1835 41.406C20.7057 41.5281 20.5627 42.2111 20.1835 42.2111H20.0814C19.918 42.2111 19.7138 42.0193 19.7138 41.8594C19.7138 41.813 19.8012 41.7839 19.8012 41.6705C19.8012 41.3566 19.3461 41.377 19.3461 41.6705C19.3461 41.7984 19.4453 41.7955 19.4395 41.8798C19.4191 42.2228 19.0077 42.2896 18.8472 42.2111C18.8764 42.1297 19.0311 42.153 18.8502 41.9583C18.7597 41.8594 18.8356 41.8449 18.6401 41.7432C18.6547 41.563 18.8356 41.4584 18.9931 41.4205C19.1273 41.6211 19.4045 41.499 19.4045 41.3334C19.4045 41.0253 19.1069 41.0398 19.0077 41.1881C18.9114 41.1357 18.8531 41.1503 18.7539 41.0747C18.5788 40.9352 18.5788 40.6213 18.7539 40.4847C19.0369 40.2609 19.3607 40.3626 19.4483 40.7376C19.4074 40.7957 19.3461 40.8277 19.3461 40.9264V40.9236ZM12.5571 40.909C12.5571 41.2752 13.1085 41.1735 12.9918 40.8422C12.9714 40.7869 12.9393 40.7783 12.9101 40.7346C12.9306 40.6416 12.9919 40.5399 13.0473 40.4759C13.2836 40.1998 13.7328 40.4701 13.7328 40.7492C13.7328 41.0863 13.514 41.1096 13.3653 41.1881C13.342 41.1706 13.3478 41.1706 13.3361 41.159L13.2953 41.1241C13.1406 41.0165 12.9539 41.1502 12.9539 41.2752C12.9539 41.5804 13.2602 41.5804 13.3653 41.4205C13.4674 41.47 13.6687 41.499 13.7183 41.7141C13.6482 41.7199 13.5841 41.7868 13.5666 41.8275C13.5462 41.8827 13.5666 41.8652 13.5578 41.9031C13.5549 41.9321 13.5666 41.8973 13.5491 41.9292C13.5345 41.9583 13.4441 42.06 13.5082 42.1966C13.4207 42.217 13.4003 42.2402 13.2865 42.2402C13.1961 42.2402 13.0648 42.1646 13.0152 42.1152C12.9539 42.0513 12.9335 41.9263 12.8897 41.8449C13.1377 41.7781 12.9452 41.2491 12.633 41.502C12.4375 41.6589 12.6388 41.8362 12.6534 41.8594C12.6154 41.9292 12.5775 42.0658 12.5221 42.1094C12.1458 42.4146 11.5798 42.0019 11.9269 41.5455C12.0174 41.4264 12.1108 41.4293 12.1837 41.3915C12.2421 41.6095 12.6096 41.5455 12.6096 41.3189C12.6096 41.2084 12.5163 41.0834 12.4025 41.0834C12.2479 41.0834 12.1807 41.2142 12.1662 41.2142C12.0232 41.2142 11.7898 41.034 11.8219 40.7986C11.8628 40.4847 12.1575 40.2144 12.5017 40.5021C12.595 40.5806 12.5922 40.6416 12.6534 40.7317C12.6184 40.7841 12.5513 40.8218 12.5513 40.9061L12.5571 40.909ZM15.7605 39.9557C15.8189 39.9238 15.8159 39.9121 15.8626 39.883C15.9005 40.04 15.9152 39.979 15.921 40.0574L15.8626 40.0749C15.8626 40.1185 15.8626 40.1417 15.8685 40.1853C15.8802 40.2754 15.8276 40.3103 15.9064 40.4556C15.8539 40.5341 15.8481 40.4876 15.8802 40.6445C15.9035 40.7462 15.8626 40.6736 15.8626 40.7637C15.8626 40.8422 15.9064 40.8916 15.9005 40.9352C15.8977 40.9672 15.8889 40.9497 15.8743 41.0107C15.8626 41.0544 15.8626 41.0573 15.8743 41.1008C15.9122 41.2346 15.9005 41.127 15.8714 41.2578C15.8568 41.3246 15.8831 41.3683 15.9181 41.4235C15.8159 41.4496 15.8889 41.5862 15.8831 41.6531C15.8714 41.7548 15.8276 41.7229 15.9181 41.8914C15.8685 41.9612 15.8218 41.9234 15.8889 42.0978C15.9152 42.1646 15.9005 42.1269 15.8802 42.1908C15.8422 42.3099 15.8889 42.342 15.9005 42.3884C15.8276 42.4989 15.8598 42.4582 15.8802 42.589C15.8977 42.7081 15.8802 42.589 15.7401 42.682C15.6701 42.5483 15.6147 42.6238 15.5504 42.6675C15.4746 42.5541 15.4892 42.6471 15.3288 42.5512C15.2587 42.5105 15.2646 42.5308 15.2033 42.5395C15.1216 42.5512 15.1946 42.5047 15.0516 42.5047C14.9757 42.5047 15.0311 42.5222 14.9874 42.5047C14.9728 42.4989 14.9815 42.4436 14.789 42.4873C14.7365 42.4117 14.719 42.4146 14.5994 42.4146C14.5702 42.3071 14.4827 42.3157 14.4098 42.3565C14.3484 42.2664 14.3543 42.2838 14.2026 42.2838C14.1822 42.1966 14.1296 42.1966 14.0275 42.1966C14.2114 41.9263 14.1296 42.0135 14.2172 41.8304C14.3047 41.8507 14.3193 41.871 14.3776 41.7577C14.5148 41.8217 14.5264 41.6792 14.5848 41.6444C14.6373 41.6124 14.6227 41.6502 14.6606 41.5891C14.6753 41.5659 14.684 41.5281 14.6985 41.5136C14.7424 41.4729 14.8561 41.531 14.859 41.3334C14.9174 41.3334 14.9232 41.3276 14.9524 41.2927C14.9728 41.2636 14.9903 41.2288 14.9932 41.1851C15.1245 41.1735 15.1187 41.0195 15.1508 40.9758C15.1771 40.941 15.1887 40.9613 15.2237 40.9178C15.247 40.8858 15.247 40.8654 15.2558 40.8335C15.2792 40.755 15.2529 40.7986 15.3141 40.7608C15.3871 40.7172 15.39 40.6968 15.39 40.5864C15.5534 40.6242 15.5125 40.5021 15.5388 40.412C15.5563 40.3539 15.5796 40.38 15.6147 40.3132C15.6789 40.1969 15.5971 40.2493 15.7138 40.1504C15.778 40.0952 15.7576 40.0197 15.7547 39.9586L15.7605 39.9557ZM15.8626 39.854V39.8598C15.8626 39.8598 15.8626 39.8598 15.8626 39.854ZM15.8773 39.7522C15.8947 39.7784 15.8947 39.7203 15.8889 39.7813C15.8889 39.8133 15.8889 39.7958 15.8773 39.8104V39.7522ZM16.7612 39.636C16.8108 39.6476 17.2834 40.0952 17.3768 40.165C17.4965 40.2551 17.6861 40.3946 17.8495 40.3975C17.8232 40.4498 17.7852 40.6329 17.9516 40.662C18.0858 40.6852 18.0712 40.6765 18.2025 40.6591C18.1733 40.7928 18.042 40.9294 18.042 41.3362C18.042 41.4089 18.0566 41.4031 18.0566 41.4671C17.9633 41.3973 18.1091 41.4554 17.9282 41.3595C17.8728 41.3304 17.899 41.3131 17.8582 41.284C17.7707 41.22 17.8174 41.3188 17.7532 41.1997C17.724 41.1445 17.7065 41.1329 17.6307 41.1299C17.6307 41.0689 17.6307 41.0514 17.5986 41.0165C17.5694 40.9846 17.5373 40.973 17.5169 40.9497C17.4673 40.8887 17.5256 40.8567 17.3797 40.7783C17.3797 40.5602 17.2776 40.6358 17.2397 40.4789C17.2222 40.4062 17.2076 40.3771 17.1434 40.3597C17.1434 40.3597 17.1376 40.3597 17.1347 40.3597H17.1201C17.0851 40.351 17.1289 40.2987 17.0413 40.2086C17.0179 40.1853 17.0238 40.1999 17.0121 40.165C16.983 40.0836 17.0005 39.9848 16.8926 39.976C16.8926 39.79 16.8167 39.8365 16.7875 39.729C16.7758 39.6883 16.7788 39.6767 16.7612 39.6389V39.636ZM15.6292 39.8249C15.5097 39.8337 15.5709 39.9266 15.4863 39.9906C15.4367 40.0284 15.4426 40.0022 15.4134 40.0778C15.3959 40.1272 15.3929 40.1562 15.3929 40.2202C15.2821 40.2784 15.2908 40.3045 15.2908 40.4265C15.1916 40.4265 15.1304 40.5021 15.1304 40.6009C15.0633 40.6009 15.0516 40.6097 15.0341 40.6649C15.0195 40.7085 15.0137 40.7695 15.0137 40.8189C14.8707 40.8218 14.964 40.8858 14.8298 40.973C14.7744 41.0079 14.7831 41.0137 14.7656 41.0718C14.7365 41.1764 14.7511 41.098 14.6606 41.1415C14.6519 41.159 14.6344 41.2171 14.6286 41.2288C14.5907 41.2898 14.6227 41.2403 14.5498 41.2665C14.4885 41.2898 14.4681 41.3479 14.4535 41.406C14.3718 41.406 14.3689 41.3886 14.3514 41.4496H14.293C14.293 41.2985 14.3252 41.281 14.2813 41.0224C14.2434 40.7928 14.2055 40.7811 14.1763 40.6591C14.471 40.6591 14.576 40.662 14.5148 40.3946C14.6373 40.3946 14.8007 40.2842 14.8824 40.2318C14.9116 40.2144 14.9261 40.1998 14.9582 40.1766C14.9874 40.1562 15.0079 40.1475 15.037 40.1243L15.7343 39.5023V39.575C15.6235 39.5837 15.6322 39.7057 15.6322 39.8249H15.6292ZM16.4666 39.386L16.487 39.4093C16.522 39.4442 16.5133 39.4296 16.5512 39.447C16.5541 39.447 16.557 39.447 16.5628 39.45C16.5658 39.45 16.5687 39.4529 16.5716 39.4558C16.6095 39.4761 16.6504 39.511 16.6737 39.5459C16.6008 39.5808 16.5278 39.5546 16.5278 39.7522C16.5278 39.8976 16.6008 39.8627 16.6329 39.9557C16.665 40.0574 16.6329 40.1359 16.7496 40.162C16.7496 40.3422 16.8167 40.2899 16.8517 40.383C16.8896 40.4876 16.8459 40.5544 17.0005 40.5573C17.0005 40.63 17.0209 40.694 17.0734 40.7346C17.1172 40.7695 17.1055 40.7085 17.1347 40.8335C17.1434 40.8625 17.1347 40.8567 17.1522 40.8887C17.1756 40.9264 17.2047 40.941 17.2514 40.9526C17.2514 41.0573 17.2893 41.1502 17.3827 41.159C17.3856 41.3334 17.4702 41.2578 17.5285 41.3799C17.5431 41.4118 17.5665 41.4496 17.6073 41.4758C17.6802 41.5223 17.6657 41.4729 17.7094 41.563C17.7678 41.6792 17.762 41.5717 17.8436 41.6938C17.899 41.7781 17.9253 41.7519 17.9661 41.7606C18.0479 41.7839 18.0449 41.8856 18.1587 41.8304C18.1967 41.9874 18.3863 42.2024 18.3337 42.2547H18.3279C18.3192 42.2809 18.255 42.1704 18.1733 42.3274C18.0799 42.3187 18.0303 42.2954 17.9836 42.3855C17.9078 42.3681 17.8203 42.342 17.794 42.4436C17.6394 42.4088 17.6598 42.4321 17.619 42.5163C17.5344 42.496 17.479 42.4785 17.4585 42.5599C17.4002 42.5453 17.2981 42.5163 17.2689 42.6326C17.1988 42.5948 17.0967 42.5395 17.0618 42.6617C16.9859 42.6093 16.8692 42.5453 16.8546 42.7052C16.7875 42.6617 16.665 42.6006 16.6329 42.7197C16.56 42.7023 16.5745 42.6791 16.487 42.6762C16.5278 42.4989 16.4578 42.5628 16.4666 42.4901C16.4724 42.4378 16.5249 42.4233 16.4841 42.3129C16.4374 42.1937 16.5045 42.246 16.5045 42.1327C16.5045 42.0716 16.4812 42.0396 16.4462 42.0164C16.4812 41.9641 16.5074 41.8973 16.4928 41.8362C16.4812 41.7839 16.4607 41.7751 16.4666 41.7403C16.4724 41.6822 16.5278 41.688 16.4812 41.5543C16.4374 41.4322 16.5745 41.4729 16.4462 41.284C16.4637 41.2636 16.4462 41.2927 16.4666 41.2578C16.5453 41.1329 16.4841 41.0631 16.4841 41.034C16.4812 40.9323 16.5628 40.973 16.4462 40.8015C16.5016 40.7608 16.5161 40.691 16.4899 40.6242C16.4724 40.5777 16.4695 40.6009 16.4695 40.569C16.4695 40.5399 16.5016 40.505 16.5016 40.4353C16.5016 40.3539 16.4607 40.3742 16.4637 40.319C16.4637 40.287 16.5016 40.2435 16.5016 40.1853C16.5016 40.1068 16.487 40.1708 16.4812 40.1098C16.4782 40.0719 16.5016 40.0574 16.5016 40.0255C16.5016 39.9702 16.4695 39.9383 16.4666 39.9034C16.4607 39.8598 16.5016 39.822 16.5016 39.7755C16.5016 39.7464 16.4724 39.7028 16.4666 39.6767C16.452 39.6127 16.487 39.668 16.487 39.511C16.487 39.4267 16.4462 39.4761 16.4724 39.3802L16.4666 39.386ZM16.1428 39.2088H16.2011C16.2186 39.4151 16.2011 39.2668 16.2011 39.4297C16.2011 39.5052 16.2157 39.4442 16.2186 39.5052C16.2186 39.5517 16.2011 39.5285 16.2011 39.5895V39.6912C16.2011 39.7552 16.2331 39.6912 16.2215 39.7697C16.2157 39.8104 16.1632 39.9238 16.2448 39.9848C16.1719 40.0923 16.2069 40.101 16.2099 40.2056C16.2099 40.2784 16.1807 40.2957 16.2186 40.38C16.2331 40.412 16.2361 40.3858 16.2361 40.4207C16.2361 40.4817 16.204 40.4062 16.204 40.5981C16.204 40.6649 16.2303 40.5922 16.2244 40.6649C16.2186 40.7404 16.204 40.6271 16.204 40.816C16.204 40.8509 16.2274 40.8596 16.2478 40.8887C16.1573 40.9933 16.2274 41.1241 16.2244 41.1474C16.2186 41.223 16.204 41.1038 16.204 41.3131C16.204 41.3711 16.2303 41.3189 16.2274 41.3828C16.2274 41.438 16.204 41.377 16.204 41.531C16.204 41.6066 16.2186 41.5455 16.2215 41.6066C16.2215 41.6153 16.1807 41.7432 16.2127 41.7984C16.2331 41.8275 16.2127 41.813 16.2448 41.8246C16.2215 41.9089 16.2011 41.8536 16.2011 42.0135C16.2011 42.0484 16.2244 42.0571 16.2448 42.0861C16.1894 42.1676 16.2011 42.1501 16.2011 42.275C16.2011 42.3099 16.2244 42.3187 16.2448 42.3477C16.1515 42.4175 16.2331 42.5483 16.2157 42.6093C16.1982 42.6733 16.2011 42.6733 16.2011 42.7576C16.0931 42.7052 16.1369 42.7604 16.1573 42.6413C16.1836 42.4873 16.0961 42.5279 16.1428 42.4204C16.1602 42.3768 16.1602 42.4524 16.1602 42.3187C16.1602 42.2722 16.134 42.2344 16.1165 42.2024C16.1602 42.1385 16.1602 42.1879 16.1602 42.0716C16.1602 42.0251 16.134 41.9874 16.1165 41.9553C16.2215 41.8013 16.1456 41.7984 16.1428 41.7345C16.1428 41.7025 16.204 41.6182 16.1165 41.4874C16.204 41.3566 16.1398 41.3072 16.1369 41.252C16.134 41.1822 16.2069 41.1764 16.1165 41.0049C16.1632 40.9381 16.1602 40.9962 16.1602 40.8596C16.1602 40.7841 16.1456 40.8422 16.1428 40.7841C16.1428 40.7492 16.1544 40.755 16.169 40.7056C16.1836 40.6475 16.1428 40.5835 16.1194 40.5399C16.1982 40.4237 16.1573 40.4701 16.1573 40.319L16.1632 40.2463C16.1632 40.1737 16.1369 40.162 16.1311 40.1213C16.1223 40.0603 16.1632 40.1213 16.1632 39.9848C16.1632 39.9092 16.1515 39.9441 16.1456 39.8889C16.1398 39.8365 16.1632 39.8743 16.1632 39.7348C16.1632 39.6331 16.1019 39.6912 16.1456 39.5895C16.1632 39.5459 16.1632 39.6214 16.1632 39.4877C16.1632 39.4296 16.1428 39.4412 16.1428 39.4006C16.1428 39.386 16.1894 39.2959 16.1485 39.2116L16.1428 39.2088Z" fill="#D9D9D9"/>
<path fill-rule="evenodd" clip-rule="evenodd" d="M14.7599 13.2215C15.7285 13.1867 16.7204 13.2012 17.7065 13.2477C18.8064 13.3029 19.8976 13.4017 20.9449 13.5297C21.0004 13.5355 21.0792 13.5471 21.1609 13.5616C21.3417 13.5907 21.5605 13.6226 21.6451 13.6198C21.6918 13.6198 21.7385 13.6023 21.7765 13.5761C21.8027 13.5587 21.8232 13.5384 21.8377 13.5122C21.8494 13.489 21.8523 13.4686 21.8523 13.4512C21.8523 13.4308 21.8435 13.4105 21.829 13.3872C21.7414 13.2564 21.5664 13.2361 21.3476 13.2099H21.3272C20.7261 13.1344 20.1047 13.0762 19.4862 13.0298C18.8473 12.9803 18.2113 12.9455 17.5927 12.9251C16.5512 12.8873 15.5096 12.8902 14.474 12.9222C13.4353 12.9542 12.4025 13.021 11.3726 13.114L11.2764 13.1227C11.0839 13.1372 10.7279 13.1693 10.6724 13.1896C10.6608 13.1954 10.6462 13.2012 10.6345 13.2099C10.5908 13.239 10.5499 13.2855 10.5237 13.3407C10.5003 13.3872 10.4945 13.4396 10.512 13.489C10.5179 13.5006 10.5237 13.5151 10.5324 13.5267C10.5674 13.5761 10.6345 13.5965 10.7163 13.6023C10.8184 13.6081 10.9438 13.5907 11.0547 13.5732C11.6907 13.4715 12.2859 13.3989 12.8898 13.3407C13.4937 13.2855 14.1005 13.2506 14.7511 13.2245L14.7599 13.2215Z" fill="#D9D9D9"/>
<path fill-rule="evenodd" clip-rule="evenodd" d="M15.4456 3.54021V3.96165L15.959 3.90061V3.87445C15.9386 3.83667 15.927 3.79598 15.927 3.74947C15.927 3.68844 15.9474 3.63322 15.9853 3.58962L15.4456 3.53731V3.54021ZM16.3909 2.99379H15.9882L16.0349 3.53149H16.0612C16.0962 3.51405 16.137 3.50243 16.1808 3.50243C16.2304 3.50243 16.2741 3.51696 16.3121 3.54021L16.3909 2.99379ZM15.9853 4.50516H16.3937L16.3296 3.96456H16.3063C16.2683 3.9878 16.2245 3.99943 16.1808 3.99943C16.1487 3.99943 16.1166 3.99362 16.0875 3.982H16.0408L15.9882 4.50516H15.9853ZM16.9072 3.96165L16.3879 3.89189C16.4142 3.8512 16.4317 3.80179 16.4317 3.75238C16.4317 3.69425 16.4113 3.63903 16.3762 3.59543L16.9131 3.54311L16.9043 3.96456L16.9072 3.96165Z" fill="#D9D9D9"/>
</g>
</g>
<defs>
<clipPath id="clip0_281_533">
<rect width="32" height="56" fill="white"/>
</clipPath>
</defs>
</svg>
