<?xml version="1.0" encoding="utf-8"?><svg xmlns="http://www.w3.org/2000/svg" xmlns:xlink="http://www.w3.org/1999/xlink"><symbol viewBox="0 0 692 692" style="enable-background:new 0 0 692 692" xml:space="preserve" id="aela-logo" xmlns="http://www.w3.org/2000/svg"><path d="M599.27 242.22 244.19 46.4l38.18 21.06c-24.98-7.67-51.97-4.57-75.14 9.25-23.47 14-39.15 36.67-44.06 62.72l.27.08c1.43-11.73 9.53-17.87 13.23-20.08 4.09-2.44 14.97-7.37 27.49-.47l355.08 195.82c13.18 7.27 14.73 19.71 14.78 24.72.06 5.01-1.22 17.49-14.24 25.04l-83.27 48.34c-19.79 11.49-26.52 36.85-15.03 56.64s36.85 26.52 56.64 15.03l83.27-48.34c35.19-20.43 55.94-56.92 55.49-97.62-.43-40.69-21.97-76.71-57.61-96.37z" style="fill:#515151"/><path d="m289.74 521.33-86.46 50.2c-10.9 6.33-20.56 2.18-24.21.1-3.65-2.08-12.14-8.27-12.26-20.87l-3.6-407.35c-.01-1.37.09-2.65.24-3.89l-.27-.08c4.91-26.05 20.59-48.71 44.06-62.72 23.17-13.82 50.16-16.92 75.14-9.25L244.19 46.4c-34.76-19.17-75.87-18.48-109.96 1.86C100.14 68.6 80 104.44 80.35 144.13l3.6 407.35c.34 38.59 20.56 73.03 54.09 92.14 16.64 9.48 34.85 14.22 53.06 14.22 18.49 0 36.97-4.88 53.78-14.64l86.46-50.2c19.79-11.49 26.52-36.85 15.03-56.64-11.48-19.79-36.84-26.52-56.63-15.03z"/></symbol><symbol id="dtg-logo" viewBox="0 0 692 692" style="enable-background:new 0 0 692 692" xml:space="preserve" xmlns="http://www.w3.org/2000/svg"><style>.bst0{fill:#fefefe}.bst1{fill:#fdfdfd}</style><path id="bshape" d="M346.04.85h149.29c10.96 0 14.64 3.71 14.64 14.67 0 79.72-.05 159.44.07 239.16.01 9.81-4.18 16.3-12.79 20.63-37.45 18.82-74.83 37.78-112.24 56.67-3.83 1.94-7.69 3.96-7.2 9.06.48 4.98 4.28 7.26 8.5 8.8 4.23 1.54 8.41 1.19 12.69-.23 10.32-3.44 15.28-1.4 20.51 8.05 4.37 7.9 10.73 11.18 19.83 10.22 8.53-.9 14.34 2.81 16.17 11.2 2.16 9.85 7.86 15.21 17.82 16.78 8.4 1.33 12.24 5.99 12.05 14.43-.23 10.19 3.92 17.09 13.46 21.05 7.19 2.99 10.34 9.22 8.06 16.63-3.18 10.34-.41 18.08 8.16 24.43 5.61 4.16 7.08 11.36 3.26 17.43-5.89 9.36-5.06 17.63 1.77 26.1 4.45 5.52 3.9 12.73-1.32 17.68-7.81 7.41-9.32 15.45-4.85 25.24 3.08 6.73.79 13.55-5.71 17.2-9.44 5.3-12.73 12.87-10.72 23.37 1.27 6.63-2.49 12.9-9.14 14.68-10.74 2.87-16.15 9.36-17.08 20.47-.62 7.4-5.46 11.59-13.06 11.83-10.64.34-17.38 5.09-20.78 15.3-2.28 6.84-8.53 10.25-15.45 8.54-10.39-2.57-18.08.36-24.02 9.31-4.37 6.58-10.86 8.11-17.94 4.41-9.12-4.76-17.05-3.84-24.68 3.14-5.91 5.4-12.81 5.38-18.88-.09-7.69-6.92-15.63-7.76-24.73-3.01-7 3.65-13.58 2-17.9-4.54-5.79-8.78-13.35-11.72-23.57-9.3-7.56 1.79-13.49-1.59-16.06-9.03-3.29-9.52-9.66-14.17-19.66-14.69-9.29-.48-13.37-4.73-14.3-13.96-.91-9.11-5.58-14.94-14.5-17.54-9.28-2.71-12.65-8.04-11.13-17.65 1.46-9.21-1.96-15.76-9.8-20.48-8.08-4.86-10.06-10.73-6.34-19.44 3.72-8.71 2.26-16.09-4.41-22.76-6.34-6.33-6.84-12.97-1.36-20.05 5.92-7.65 6.4-15.26 1.44-23.56-4.52-7.55-3.36-14.04 3.54-19.35 7.82-6.01 10.3-13.35 7.48-22.84-2.48-8.35.35-14.18 8.45-17.75 8.77-3.86 13.02-10.25 12.8-19.91-.21-9.45 3.73-14.03 13.22-15.55 8.96-1.43 14.24-6.49 16.39-15.17 2.5-10.08 7.32-13.39 17.63-12.43 7.68.72 13.69-2.23 17.75-8.75 7.45-11.98 9.73-12.96 23.03-9.13 5.08 1.46 9.92.89 14.42-1.8 7.27-4.34 7.17-11.54-.37-15.47-11.65-6.08-23.42-11.93-35.14-17.85-26.13-13.2-52.22-26.47-78.43-39.52-8.83-4.4-13.07-10.93-13.05-20.97.14-79.72.08-159.44.08-239.16 0-10.91 3.66-14.49 14.81-14.5h149.29z"/><g id="btype"><path class="bst0" d="M322.95 203.1c22.13 0 44.27-.1 66.4.09 4.08.03 5.58-1.02 5.35-5.26-.34-6.31.05-12.65-.14-18.96-.1-3.23.94-4.28 4.26-4.23 12.31.19 24.63.27 36.94-.03 4.32-.1 5.62.95 5.58 5.45-.22 29.29-.11 58.58-.11 87.87 0 3.99-.28 8.01.08 11.97.36 3.93-1.22 4.65-4.79 4.59-12.48-.21-24.96-.2-37.44-.01-3.41.05-4.68-.79-4.54-4.38.27-6.65-.17-13.32.16-19.96.21-4.21-1.23-5.29-5.33-5.27-44.1.14-88.2.1-132.3.07-7.76 0-6.55.5-6.58-6.73-.06-13.15.16-26.3-.12-39.44-.1-4.45.97-5.93 5.69-5.88 22.29.25 44.59.11 66.89.11zm109.81 284.89c3.94-4.27 8.72-6.44 14.66-5.78 6.11.68 9.4 3.65 9.91 9.76.33 3.96.21 7.97.21 11.96-.01 2.96-.06 5.85 3.98 6.13 1.27.09 1.72.83 1.56 2-.19 1.37-1.31 1.29-2.27 1.3-5.32.02-10.64.02-15.96.01-1.01 0-2.04-.06-2.17-1.43-.11-1.25.59-1.8 1.72-2 3.28-.57 3.53-3 3.5-5.65-.03-3.32.09-6.65-.04-9.97-.12-2.86-.4-5.92-3.83-6.8-3.75-.96-7.03.23-9.07 3.57-3.17 5.2-1.79 10.97-1.55 16.55.06 1.45 1.73 1.91 3.02 2.23 1.25.3 2.29.69 1.99 2.24-.32 1.68-1.75 1.24-2.81 1.25-4.82.05-9.64.05-14.46 0-1.07-.01-2.49.36-2.78-1.31-.27-1.56.91-1.92 2.05-2.27.32-.1.73-.15.91-.38 3.99-4.97 1.05-10.76 1.87-16.12.34-2.23-.37-4.2-2.75-5.32-4.49-2.12-10.43.96-11.44 6.19-.76 3.94-.4 7.95-.26 11.93.09 2.45 1.52 3.55 3.72 3.9 1.22.2 1.69.88 1.57 2.05-.15 1.41-1.25 1.34-2.22 1.35-5.15.02-10.31.02-15.46 0-.97 0-2.09.08-2.29-1.29-.17-1.15.32-1.89 1.52-2.12 3.29-.62 3.45-3.05 3.38-5.7-.08-2.82-.03-5.65-.01-8.48.02-3.37.55-7.02-4.71-6.76-1.28.06-1.52-1.05-1.55-2.11-.04-1.26.8-1.71 1.85-1.94 3.9-.84 7.79-1.69 11.69-2.46.58-.11 1.74.08 1.78.3 1.15 6.3 3.96 1.65 5.85.77 6.53-3.09 13.65-1.57 18.89 4.4z"/><path class="bst1" d="M485.17 503.68c2.1-4.2 3.82-7.58 5.47-10.99 1.09-2.25 2.65-4.65-1.38-5.77-1.21-.34-1.13-1.53-.97-2.51.23-1.39 1.44-1.11 2.35-1.13 2.49-.05 4.98-.03 7.47-.01.97.01 2.11-.11 2.26 1.28.11.98.17 2.11-.97 2.57-3.35 1.35-4.08 4.63-5.44 7.39-5.06 10.26-9.99 20.59-15.04 30.86-1.32 2.69-2.78 5.35-5.99 6.29-2.56.74-4.81.18-5.79-2.36-.91-2.33.2-4.21 2.53-5.21 1.37-.59 2.81-1.02 4.13-1.69 5.34-2.71 6.8-7.41 3.91-12.52-3.43-6.07-6.9-12.11-10.36-18.16-.58-1.01-1.28-1.95-1.77-3-.8-1.67-4.43-1.6-3.17-4.27 1.14-2.41 3.81-.99 5.78-1.13 3.14-.21 6.31-.08 9.46-.03.92.01 2.13-.29 2.38 1.09.21 1.16.26 2.44-1.36 2.67-1.98.27-2.06 1.46-1.31 2.82 2.44 4.44 4.99 8.84 7.81 13.81zm-240.65-7.87c-.15 3.76.35 6.22 1.27 8.53 2.71 6.78 10.21 8.18 15.2 2.86 1.23-1.32 2.43-3.52 4.29-1.65 1.77 1.77-.56 3.25-1.6 4.43-5.86 6.64-19.12 6.26-25.59-.63-6.05-6.44-5.11-17.03 2.27-22.92 6.43-5.15 13.63-5.51 21.1-2.51 1.88.76 3.48 1.98 3.99 4.13.54 2.32.25 4.41-2.3 5.3-2.36.82-4.35.22-5.09-2.41-.88-3.12-2.15-5.73-6.04-5.08-3.81.63-6.28 2.81-6.97 6.75-.26 1.47-.48 2.94-.53 3.2z"/><path class="bst0" d="M441.32 32.81c.17-4.35-1.34-5.1-5.32-5.08-30.11.17-60.22.09-90.33.09s-60.22-.01-90.33.01c-2.34 0-5.04-.88-4.93 3.38.46 18.95-.96 37.95.96 56.85 3.13 30.92 17.86 53.64 47.95 64.38 23.7 8.46 48.23 9.35 72.83 4.98 38.93-6.92 63.31-33.01 68.09-72.27 2.1-17.4.42-34.91 1.08-52.34zm-48.16 51.13c-1.68 8.68-7.35 13.9-14.97 17.35-6.41 2.9-13.25 4.32-20.22 4.93-15.16 1.33-30.23 1.37-44.65-4.54-7.9-3.24-13.89-8.41-15.98-17.14-.79-3.31-.39-4.99 3.92-4.9 14.62.31 29.24.12 43.87.12 14.79 0 29.58.11 44.37-.08 3.49-.05 4.27 1.11 3.66 4.26z"/><path class="bst1" d="M352.08 509.56c-5.32-.39-4.02-4.33-4.04-7.42-.07-11.79-.02-23.59-.05-35.38 0-1.71.55-4.06-2.55-3.5-3.75.68-7.49 1.47-11.22 2.26-1.04.22-1.74.87-1.81 2.05-.07 1.29.69 1.79 1.79 1.9 3.55.37 4.07 2.77 4 5.71-.08 3.3-.02 6.61-.02 10.68-1.4-.9-1.93-1.27-2.49-1.58-6-3.4-13.79-2.78-18.6 1.49-5.14 4.55-6.74 12-4.02 18.71 2.7 6.65 8.58 10.39 15.55 10.28 4.1-.06 7.64-3.45 12.45-.71 2.45 1.4 6.75-.46 10.22-.83.82-.09 1.72-.07 1.79-1.2.07-.99.23-2.37-1-2.46zm-18.07-.12c-3.19 1.31-6.07 1.47-8.69-1.08-3.33-3.25-4.41-13.23-1.82-17.88 1.56-2.81 3.95-4.45 7.34-3.96 5.26.76 7.34 4.31 7.33 12.38 0 4.06.97 8.43-4.16 10.54zm-103.7-3.88c-1.15-.42-1.77.31-2.16 1.41-.42 1.17-1.3 2.13-2.63 1.72-1.32-.41-1.34-1.76-1.35-2.94-.01-3.16-.01-6.32-.02-9.48-.01-11.11-3.01-14.1-14.24-14.16-4.17.11-8.39.18-11.91 2.83-2.18 1.64-4 3.69-3.21 6.75.48 1.84 1.97 2.47 3.82 2.58 3.36.19 4.19-2.05 4.71-4.66.03-.16.06-.33.12-.48 1.21-3.05 3.71-3.53 6.55-3.21 2.75.31 4 2.04 4.3 4.67.43 3.71-2.67 3.1-4.63 3.77-4.55 1.56-9.31 2.72-12.93 6.17-2.55 2.43-3.92 5.38-2.61 8.97 1.25 3.44 4.1 4.56 7.45 4.85 3.42.29 6.67-.39 9.58-2.14 2.25-1.36 3.66-1.95 6.16.38 4.47 4.17 12.52 1.5 13.73-4.04.26-1.08.81-2.43-.73-2.99zm-20.47 3.06c-1.91.54-3.71.64-5.01-.93-1.46-1.77-.98-3.72.29-5.46 2.2-3.03 5.6-3.74 9.1-5.04-.11 4.7 1.95 9.63-4.38 11.43zm98.08-3.04c-.94-.36-1.52.2-2.02.96-.69 1.05-1.14 2.76-2.86 2.09-1.66-.65-1.61-2.37-1.62-3.87-.03-4.32.02-8.65-.04-12.97-.06-4.79-2.45-7.84-7.13-8.89-2.25-.5-4.59-.64-5.72-.79-5.2.08-9.2.26-12.71 2.56-2.37 1.55-4.04 3.57-3.58 6.6.32 2.15 1.86 2.89 3.94 3.01 3.47.2 3.93-2.39 4.7-4.77.1-.32.19-.64.33-.94 1.43-3.11 4.13-2.91 6.82-2.54 2.64.37 3.43 2.29 3.64 4.64.29 3.27-2.4 3.05-4.32 3.66-4.6 1.45-9.27 2.75-12.98 6.06-2.71 2.42-3.94 5.55-2.82 8.99 1.16 3.6 4.3 4.78 7.89 4.98 3.61.2 6.98-.62 9.96-2.59 1.93-1.28 2.99-1.29 4.94.45 5.08 4.53 13.23 1.99 14.25-4.1.16-.96.65-2.04-.67-2.54zm-16.14-4.21c.02 4.86-2.66 7.87-6.56 7.65-2.23-.13-3.75-1.23-3.88-3.63-.16-3.03 4.82-7.53 8.68-7.6 3.22-.05.85 2.77 1.76 3.58zm94.58-14.3c-1.79-2.08-4.01-3.45-6.62-4.25-8.01-2.47-16.97.91-20.74 7.84-3.84 7.06-2.25 15.47 3.82 20.25 6.39 5.04 18.16 5.23 23.76.28 1.11-.98 3.31-1.95 2.02-3.88-1.57-2.36-2.99-.51-4.44.62-3.24 2.53-6.95 3.17-10.82 1.84-3.54-1.22-7.07-7.29-5.86-10.64 1.26-3.49 4.6-1.15 6.95-1.67 1.27-.28 2.65-.05 3.98-.05 1.16 0 2.36.18 3.49-.04 2.62-.49 6.6 1.66 7.61-1.25 1.01-2.91-.88-6.41-3.15-9.05zm-6.25 4.4c-.38 4.56-4.52 1.12-6.66 2.63-1.7-1.46-5.58 1.84-5.52-2.51.05-3.46 2.43-5.77 6.14-5.78 3.66-.02 6.34 2.02 6.04 5.66z"/></g></symbol><symbol fill="none" viewBox="0 0 25 29" id="grupo108-logo" xmlns="http://www.w3.org/2000/svg"><g clip-path="url(#ca)" fill="#000"><path d="M14.322 26.135c1.228-.34 2.497-.754 3.643-1.334.407-.173.78-.405 1.188-.596.69-.34 1.317.613.764 1.135-1.106 1.06-2.57 1.631-4.042 1.863-.594.017-2 .43-2.017-.555a.578.578 0 0 1 .456-.513h.008Zm1.569 1.755c.903-.232 1.855-.521 2.7-.944.301-.132.586-.306.895-.447.545-.281 1.09.489.659.92-1.098 1.125-2.684 1.689-4.237 1.573a.553.553 0 0 1-.488-.605.567.567 0 0 1 .463-.497h.008ZM8.214 9.11c-1.017.628-1.944 1.655-2.22 2.864-.081.39-.683.282-.635-.107.106-1.127.667-2.145 1.391-2.973.39-.39 1.066-1.342 1.643-.68.22.29.138.721-.179.895Z"/><path d="M7.523 1.052C-4.757 6.848-1.155 23.949 12.19 24.18c0 0 1.26-.828 0-.828s-5.083-1.507-6.49-3.461c-2.895-3.909-2.546-9.548.78-12.869 5.303-5.117 14.176-1.424 14.396 6.029.138 2.931-1.31 5.739-3.432 7.784 0 0 2.285-1.441 2.228-1.035-.057.405-1.147 2.103-1.147 2.103s2.31-1.051 1.977-.53l-.96 1.524c3.31-2.02 5.4-5.838 5.465-9.846.325-9.093-9.328-15.71-17.485-12Z"/></g><defs><clipPath id="ca"><path fill="#fff" d="M0 0h25v29H0z"/></clipPath></defs></symbol><symbol fill="none" viewBox="0 0 25 33" id="hotmart-logo" xmlns="http://www.w3.org/2000/svg"><g clip-path="url(#da)"><path fill-rule="evenodd" clip-rule="evenodd" d="M12.446 26.598c-3.2-.025-5.773-2.525-5.747-5.584.026-3.059 2.642-5.518 5.842-5.493 3.2.025 5.774 2.526 5.747 5.584-.026 3.059-2.642 5.518-5.842 5.493Zm12.539-5.547c.157-2.941-.898-7.756-3.48-11.691-.07-.102-.186-.062-.161.046.172.6.214 1.684-.784 1.62-1.768-.114.062-3.73-3.821-6.238-.078-.05-.17.017-.128.097.266.483.424 1.992-.19 2.506-.494.412-1.4.301-2.271-1.057-1.452-2.264-.9-4.684.086-6.195.074-.113-.028-.158-.112-.131-5.341 1.684-6.408 7.7-7.544 9.895-.19.367-.356.56-.682.539-.973-.062-.272-2.046.065-2.736.047-.098-.07-.151-.133-.089C3.08 10.364.591 15.04.118 19.386c.015-.103-.044.359-.073.697v.001a14.497 14.497 0 0 0-.045.877C-.056 27.556 5.491 32.945 12.391 33c6.9.054 12.539-5.248 12.596-11.842l-.002-.107Z" fill="#000"/></g><defs><clipPath id="da"><path fill="#fff" d="M0 0h25v33H0z"/></clipPath></defs></symbol><symbol viewBox="0 0 692 692" style="enable-background:new 0 0 692 692" xml:space="preserve" id="how-logo" xmlns="http://www.w3.org/2000/svg"><path d="M584.71 295.74c-.96.01-2.33 1.99-2.76 3.3-8.24 25.1-16.37 50.23-24.52 75.36-2.76 8.5-5.51 17-8.63 26.63-2.74-8.23-5.1-15.26-7.43-22.31-8.76-26.5-17.55-53-26.2-79.54-.87-2.67-2.09-3.72-4.91-3.68-9.5.14-19 .12-28.49.01-2.58-.03-3.76.85-4.58 3.37-9.95 30.32-20.03 60.61-30.1 90.89-1.05 3.16-2.32 6.25-3.91 10.51-2.35-7.29-4.29-13.25-6.21-19.22-8.81-27.37-17.65-54.73-26.36-82.13-.89-2.79-2.39-3.45-5.08-3.42-11.83.12-23.66.05-35.49.05h-5.8c1.84 5.86 3.45 10.99 5.31 16.9-46.99-36.53-114.52-22.83-142.08 20.49-9.6-23.52-26.69-38.01-51.85-41.62-24.21-3.47-46.48 1.57-65.96 19.28v-90.38H64.31c-.09 1.39-.21 2.37-.21 3.35-.01 79.65.01 159.3-.08 238.95 0 3.65.97 4.96 4.77 4.89 12.33-.21 24.66-.06 36.99-.1 1.26 0 2.52-.31 4.2-.53v-5.71c0-25.33-.18-50.66.08-75.98.15-13.8 2.66-27.11 10.94-38.76 11.82-16.63 40.65-19.09 54.92-4.53 8.63 8.8 11.08 19.96 11.16 31.67.21 29.33.07 58.66.07 87.98v5.5h45.23v-29.91c25.95 29.15 57.89 39.72 94.98 32.59 37.66-7.24 61.49-30.41 71.67-68.79 7.67 22.99 14.96 44.88 22.33 66.96 12.06 0 23.88-.17 35.69.1 3.77.09 5.61-.96 6.82-4.6 7.6-23.04 15.4-46.02 23.14-69.01 2.95-8.76 5.93-17.51 9.27-27.38 3.95 11.73 7.51 22.19 11 32.68 7.18 21.61 14.27 43.26 21.62 64.81.5 1.47 2.89 3.22 4.44 3.25 11.49.27 22.99.24 34.49.02 1.33-.02 3.41-1.45 3.83-2.68 6.63-19.34 13.06-38.76 19.51-58.16 9.16-27.58 18.28-55.16 27.42-82.75 3.06-9.25 6.12-18.51 9.42-28.5-15.07 0-29.19-.07-43.3.15zM329.43 427.28c-28.4 14.33-62.66-2.04-69.36-33.24-.9-4.21-1.14-8.55-1.42-10.75.35-29.4 18.14-49.41 44.91-52.62 22.2-2.66 44.5 13.03 50.69 35.67 6.84 25.01-3.39 50.12-24.82 60.94z"/></symbol><symbol fill="none" viewBox="0 0 18 18" id="icon-behance" xmlns="http://www.w3.org/2000/svg"><path d="M5.204 3.377c.526 0 1.005.045 1.44.141a3.25 3.25 0 0 1 1.113.458c.308.21.55.487.72.84.169.352.255.787.255 1.297 0 .555-.127 1.02-.38 1.395-.254.375-.628.675-1.127.915.68.195 1.183.54 1.517 1.028.336.495.499 1.087.499 1.77 0 .562-.098 1.042-.308 1.447-.21.413-.502.75-.87 1.013-.36.26-.787.45-1.252.575-.458.124-.94.19-1.433.19H0V3.384h5.204v-.006Zm7.501 9.122c.33.32.805.482 1.42.482.443 0 .825-.11 1.148-.335.318-.218.51-.458.585-.705h1.941c-.302.96-.786 1.65-1.425 2.062-.637.42-1.413.623-2.31.623a4.597 4.597 0 0 1-1.704-.3 3.71 3.71 0 0 1-1.29-.855 3.826 3.826 0 0 1-.808-1.328 4.922 4.922 0 0 1-.28-1.702c0-.602.102-1.155.303-1.673.202-.525.483-.96.84-1.342a4.077 4.077 0 0 1 1.302-.896c.505-.224 1.05-.324 1.665-.324.682 0 1.267.123 1.785.392a3.6 3.6 0 0 1 1.245 1.05c.33.44.562.945.705 1.515.142.562.187 1.155.157 1.785h-5.767c0 .63.21 1.224.532 1.549l-.06.022.016-.02Zm-7.68.037c.238 0 .465-.022.68-.07a1.74 1.74 0 0 0 .572-.224c.157-.102.292-.246.39-.438.097-.18.142-.427.142-.72 0-.562-.165-.967-.48-1.215-.322-.24-.742-.36-1.267-.36H2.43v3.038h2.595v-.023.012ZM15.23 8.3c-.264-.289-.705-.444-1.242-.444-.351 0-.642.055-.875.178a1.616 1.616 0 0 0-.555.443 1.56 1.56 0 0 0-.294.562 2.63 2.63 0 0 0-.101.533h3.571c-.052-.563-.247-.975-.51-1.268v.008l.006-.012ZM4.89 7.838c.43 0 .788-.1 1.069-.31.28-.202.415-.54.415-1.003 0-.258-.052-.469-.135-.634a1.096 1.096 0 0 0-.375-.384 1.588 1.588 0 0 0-.54-.193 3.32 3.32 0 0 0-.63-.056H2.422v2.58H4.89Zm6.824-3.719h4.475v1.09h-4.476V4.11v.01Z" fill="#fff"/></symbol><symbol fill="none" viewBox="0 0 18 18" id="icon-github" xmlns="http://www.w3.org/2000/svg"><g clip-path="url(#ga)"><path d="M9 0C3.937 0 0 3.938 0 9c0 5.906 5.344 8.438 6.188 8.438.562 0 .562-.282.562-.563v-1.406c-1.969.562-2.813-.563-3.094-1.406 0 0 0-.282-.562-.844-.281-.281-1.406-.844-.281-.844.843 0 1.406 1.125 1.406 1.125.843 1.125 1.968.844 2.531.563 0-.563.563-1.126.563-1.126-2.25-.28-3.938-1.124-3.938-4.218 0-1.125.281-1.969.844-2.531 0 0-.563-1.125 0-2.532 0 0 1.406 0 2.531 1.125.844-.562 3.656-.562 4.5 0 1.125-1.125 2.531-1.125 2.531-1.125.563 1.969 0 2.531 0 2.531.563.563.844 1.407.844 2.532 0 3.094-1.969 3.937-3.938 4.219.282.28.563.843.563 1.687v2.25c0 .281 0 .563.563.563C12.655 17.438 18 14.905 18 9c0-5.063-3.938-9-9-9Z" fill="#fff"/></g><defs><clipPath id="ga"><path fill="#fff" d="M0 0h18v18H0z"/></clipPath></defs></symbol><symbol fill="none" stroke="currentColor" stroke-width="2" stroke-linecap="round" stroke-linejoin="round" class="hfeather hfeather-instagram" viewBox="0 0 24 24" id="icon-instagram" xmlns="http://www.w3.org/2000/svg"><rect x="2" y="2" width="20" height="20" rx="5" ry="5"/><path d="M16 11.37A4 4 0 1 1 12.63 8 4 4 0 0 1 16 11.37zm1.5-4.87h.01"/></symbol><symbol fill="none" viewBox="0 0 18 18" id="icon-linkedin" xmlns="http://www.w3.org/2000/svg"><g clip-path="url(#ia)" fill="#fff"><path d="M4.19 5.791H.576a.29.29 0 0 0-.29.29v11.61c0 .16.13.29.29.29H4.19c.16 0 .29-.13.29-.29V6.08a.29.29 0 0 0-.29-.29ZM2.384.02A2.386 2.386 0 0 0 0 2.402a2.386 2.386 0 0 0 2.384 2.383 2.385 2.385 0 0 0 2.383-2.383A2.385 2.385 0 0 0 2.384.02Zm10.997 5.482c-1.451 0-2.524.624-3.175 1.333v-.754a.29.29 0 0 0-.29-.29h-3.46a.29.29 0 0 0-.291.29V17.69c0 .16.13.29.29.29h3.606c.16 0 .29-.13.29-.29v-5.744c0-1.935.526-2.69 1.875-2.69 1.47 0 1.586 1.21 1.586 2.79v5.644c0 .16.13.29.29.29h3.608c.16 0 .29-.13.29-.29v-6.368c0-2.877-.549-5.82-4.619-5.82Z"/></g><defs><clipPath id="ia"><path fill="#fff" d="M0 0h18v18H0z"/></clipPath></defs></symbol><symbol fill="none" viewBox="0 0 18 18" id="icon-medium" xmlns="http://www.w3.org/2000/svg"><path d="M5.077 3.867c2.803 0 5.076 2.289 5.076 5.112s-2.273 5.11-5.076 5.11C2.273 14.09 0 11.803 0 8.98s2.273-5.112 5.077-5.112Zm8.107.3c1.402 0 2.538 2.154 2.538 4.812 0 2.657-1.136 4.812-2.538 4.812s-2.538-2.155-2.538-4.812c0-2.657 1.136-4.812 2.538-4.812Zm3.923.5c.493 0 .893 1.93.893 4.312 0 2.38-.4 4.31-.893 4.31s-.892-1.93-.892-4.31c0-2.381.4-4.311.892-4.311Z" fill="#fff"/></symbol><symbol viewBox="0 0 692 692" style="enable-background:new 0 0 692 692" xml:space="preserve" id="iesb-logo" xmlns="http://www.w3.org/2000/svg"><path d="M609.78 46.82c.56.41 1.51.74 1.6 1.23.23 1.27.09 2.62.09 3.93v523.79H81.65c-.07-1.6-.21-3.17-.21-4.74-.01-54.96.01-109.92-.07-164.88 0-3.11.92-5.01 3.55-6.77C257.96 283.41 430.95 167.37 603.93 51.32c2.04-1.37 3.91-2.99 5.86-4.5h-.01zm-48.79 434.6c2.59-1.02 4.72-1.79 6.81-2.68 14.44-6.18 20.97-16.6 20.59-32.79-.34-14.48-7.59-25.2-22.01-29.82-7.93-2.54-16.55-3.83-24.89-3.96-28.62-.47-57.26-.19-85.89-.18-1.42 0-2.85.13-4.48.21v140.91c1.37.11 2.5.28 3.63.28 27.9 0 55.81.17 83.7-.16 8.27-.1 16.67-.95 24.74-2.7 16.09-3.5 25.91-14.6 27.44-29.6 1.66-16.35-5.18-29.09-19.42-35.78-3.09-1.46-6.42-2.37-10.22-3.73zm-262.99 71c0-9.99-.17-19.48.08-28.96.1-3.91-.87-5.26-5.04-5.22-20.02.22-40.03.1-60.05.09-1.68 0-3.36-.17-4.98-.26v-18.36h65.29v-34.23H228v-19.32h68.47v-33.81H174.99v140.06c41.01.01 81.71.01 123.01.01zm128.64-136.55c-1.14-.31-1.96-.6-2.81-.77-18.74-3.61-37.64-5.02-56.68-3.71-12.27.85-24.4 2.73-35.53 8.47-15.66 8.07-22.94 20.9-22.04 38.53.87 17 9.16 28.7 24.98 34.62 7.75 2.9 15.92 4.65 23.91 6.91 6.44 1.82 12.99 3.31 19.26 5.6 1.84.67 4 3.6 3.95 5.45-.05 2.1-1.96 4.9-3.87 6.02-2.79 1.64-6.24 2.52-9.5 2.9-18.02 2.09-35.49-.74-52.56-6.53-1.47-.5-2.94-1.01-4.74-1.63v35.97c1.03.29 1.84.56 2.68.75 21.34 4.9 42.97 6.95 64.82 5.57 13.33-.84 26.39-3.38 37.96-10.7 15.25-9.65 20.69-23.88 18.98-41.33-1.52-15.51-10.52-25.45-24.45-30.8-7.83-3.01-16.28-4.43-24.45-6.58-6.34-1.67-12.79-3-18.93-5.23-1.91-.69-4.05-3.77-4.09-5.8-.04-2.02 2.04-4.59 3.88-6.01 1.71-1.32 4.3-1.75 6.58-2.08 13.19-1.9 26.22-.52 39.13 2.34 4.46.99 8.86 2.26 13.54 3.46-.02-11.99-.02-23.51-.02-35.42zm-271.01-2.47h-53.38v139.71h53.38V413.4z"/><path d="M609.8 46.82c-14.15 4.58-28.34 9.05-42.45 13.75C407.16 113.92 246.98 167.31 86.8 220.68c-1.5.5-3.04.88-4.99 1.43V46.49h4.99c172.28 0 344.57 0 516.85.01 2.04 0 4.08.2 6.13.31 0 .01.02.01.02.01zM274.24 604.43h10.03c0 7.66-.02 15.06.01 22.46.01 2.04-.35 4.29.4 6.05.67 1.57 2.64 3.62 4.01 3.61 1.62-.02 3.89-1.72 4.63-3.28.93-1.97.77-4.54.79-6.85.08-7.25.03-14.5.03-21.99h9.35c0 10.27.68 20.48-.24 30.54-.62 6.8-7.23 9.99-15.99 9.48-7.27-.42-12.45-4.56-12.9-11.79-.56-9.28-.12-18.61-.12-28.23zm-162.8 9.06c-7.25-2.26-13.17-3.88-16.95 2.19-3.21 5.16-3.19 11 .26 16.16 4.05 6.06 9.96 4.73 15.72 2.92 1.17 8.99.65 9.57-8.2 9.72-8.03.14-14.97-2.23-18.32-10.03-3.57-8.31-3.6-16.85 2.1-24.46 5.42-7.25 16.55-8.04 23.13-5.1 1.46.65 1.35 4.85 2.26 8.6zm142.4 15.65c-.01 9.83-5.21 15.32-14.53 15.34-9.37.02-14.61-5.42-14.66-15.24-.05-10.09 5.16-15.55 14.77-15.5 9.36.04 14.43 5.47 14.42 15.4zm-10.21.36c-.25-2.08-.09-4.11-.81-5.76-.6-1.38-2.4-3.34-3.38-3.18-1.45.23-3.58 1.97-3.76 3.29-.5 3.54-.41 7.25.09 10.8.17 1.18 2.24 2.73 3.6 2.9 1 .13 2.72-1.48 3.28-2.7.75-1.65.71-3.66.98-5.35zm338.24-.65c.05-9.76 5.23-15.12 14.61-15.11 9.48.01 14.74 5.6 14.63 15.57-.1 9.75-5.35 15.18-14.66 15.17-9.44-.02-14.64-5.59-14.58-15.63zm10.11.21c.36 1.96.46 4.2 1.26 6.16.44 1.09 2.12 2.45 3.1 2.35 1.27-.13 3.34-1.5 3.44-2.49.39-3.98.39-8.05-.02-12.03-.1-1.02-2.24-2.58-3.41-2.54-1.16.04-2.7 1.56-3.28 2.81-.75 1.63-.73 3.63-1.09 5.74zm-272.76-14.29c.19.79.45 1.85.75 3.07.53-.31.99-.43 1.23-.73 2.98-3.84 7.01-4.14 11.08-2.73 3.99 1.38 5.01 4.93 4.98 8.88-.05 6.56-.01 13.13-.01 20.1h-9.77c0-4.76.01-9.53-.01-14.29-.01-1.46.24-3.04-.25-4.34-.44-1.17-1.67-2.73-2.67-2.82-1.04-.1-2.86 1.15-3.2 2.19-.71 2.15-.82 4.54-.89 6.84-.12 4.06-.03 8.12-.03 12.51h-9.55v-28.67c2.3-.01 5.19-.01 8.34-.01zM157.44 643.5h-9.62v-28.56c5.79-1.8 7.99-1.2 8.88 1.8 3.3-.99 6.53-2.55 9.86-2.82 4.16-.33 7.11 2.32 7.38 6.47.45 6.97.37 13.97.27 20.96-.01.8-1.42 2.13-2.31 2.26-2.26.33-4.59.11-7.47.11 0-5.72.24-11.09-.13-16.41-.13-1.92-1.54-5.18-2.71-5.34-3.47-.48-4 2.78-4.1 5.4-.19 5.23-.05 10.46-.05 16.13zm379.52.18c-3.53-.66-7.59 2.41-9.27-3.11-1.69 1.1-3.16 2.31-4.83 3.09-4.62 2.16-9.89.25-11.88-4.14-2.33-5.14-.34-10.68 4.77-12.74 1.86-.75 3.92-1.16 5.92-1.4 1.98-.23 4.01-.05 6.07-.05-.5-5.98-2.21-6.38-13.82-3.68v-7.16c5.24-.13 10.57-.72 15.82-.27 4.45.39 7.01 3.82 7.16 8.63.22 6.7.06 13.41.06 20.83zm-9.02-13.83c-5.76-.6-9.29 1.1-8.85 4.51.19 1.47 2.11 3.56 3.54 3.84 3.43.67 5.37-2.59 5.31-8.35zm-385.81 1.82h-16.92c-.21 6.64 3.47 7.79 14.73 5.04 1.67 5.79 1.34 6.34-4.36 7.39-13.48 2.48-21.43-4.38-20.26-17.51.66-7.34 5.69-12.5 12.5-12.83 7.66-.37 12.81 3.59 14.26 11.2.36 1.94.05 4 .05 6.71zm-17.92-5.19h9.31c-.43-3.19.06-6.5-4.1-6.73-4.11-.23-4.77 2.85-5.21 6.73zm293.49 5.11h-16.96c-.2 6.54 3.02 7.6 14.74 5.26 1.67 5.57 1.32 6.18-4.14 7.21-14.27 2.69-23.44-6.19-20.08-19.45 2-7.91 7.44-11.68 15.51-10.75 6.4.73 10.85 6.16 11.11 13.6.04 1.14-.09 2.29-.18 4.13zm-17.59-4.79c2.14 0 3.98-.07 5.81.02 3.31.16 3.91-1.83 2.61-4.06-.82-1.4-2.96-2.93-4.44-2.86-3.41.18-4.07 3-3.98 6.9zm-42.6-12.12c9.96-1.34 9.95-1.34 12.26 7.6.94 3.64 1.91 7.26 3.84 11.04 1.01-3.9 2.07-7.79 3.03-11.71 2.04-8.34 2.02-8.34 11.35-6.87-2.94 9.15-5.81 18.24-8.86 27.27-.26.78-1.61 1.55-2.54 1.68-9.12 1.22-9.66.83-12.42-7.93-2.18-6.92-4.37-13.82-6.66-21.08zm133.51 6.53c-1.77-.26-3.02-.44-4.64-.68v-5.74c1.27-.29 2.62-.61 3.98-.92 1.75-6.98 2.18-7.33 10.63-8.54v8.07c6.21 1.7 6.21 1.7 5.49 7.08-1.57.21-3.23.42-5.37.71 0 4.43-.44 8.83.22 13.05.27 1.71 2.94 3.05 4.52 4.56.33-.24.66-.47.99-.71.11 1.71.21 3.41.32 5.03-9.32 4.19-16.08.06-16.13-9.62-.03-4.03-.01-8.08-.01-12.29zm-308.36-.12c-1.39-.17-2.64-.33-4.09-.5-.77-3.71-1.33-6.98 3.99-6.59 1.21-6.94 2.15-7.7 10.67-8.61v8.17c6.32 1.42 6.32 1.42 5 7.06-1.46.15-3 .32-4.97.53 0 4.53-.4 8.92.21 13.17.23 1.59 2.79 2.86 4.61 3.94 2.07 5.56 1.64 6.16-4.42 6.21-7.39.07-10.41-2.82-10.54-10.18-.07-3.94-.05-7.88-.09-11.82-.01-.28-.15-.56-.37-1.38zm282.04.3c-2.42-.38-4.84-1-7.26-1.05-1.06-.02-2.15 1.12-3.22 1.73.72.95 1.27 2.2 2.22 2.78 1.47.9 3.19 1.39 4.84 1.96 4.02 1.37 5.71 4.24 5.57 8.37-.15 4.27-2.07 7.73-6.3 8.29-4.89.65-9.94.15-15.04.15v-7.07c3.2.35 6.15.83 9.11.9.88.02 1.79-1.13 2.68-1.75-.65-.84-1.14-1.96-2-2.47-1.35-.81-2.93-1.27-4.44-1.8-4.32-1.52-6.18-4.56-5.82-9.09.33-4.16 2.85-7.24 7.26-8.16 2.11-.44 4.35-.44 6.53-.37 6.61.21 6.96.72 5.87 7.58zm78.18-7.37c3.3 1.5 8.07-2.82 9.39 3.07 2.62-1.28 5.42-2.66 8.99-4.41v9.08c-7.46 1.06-8.47 2.24-8.48 9.97-.01 3.77 0 7.53 0 11.66h-9.91c.01-9.58.01-19 .01-29.37zm-329.59 29.35c-1.26.17-2.09.35-2.93.37-2.17.04-4.33.02-6.89.02v-28.94c6.55-1.51 8.34-.99 9.39 2.22 2.68-1.28 5.45-2.6 8.97-4.28v9.16c-7.15.58-8.47 1.99-8.53 9.16-.04 4.04-.01 8.08-.01 12.29zm219.37-26.45c2.87-1.34 5.44-2.53 8.76-4.08v8.84c-7.17 1.24-8.34 2.65-8.42 10.11-.04 3.76-.01 7.53-.01 11.63h-9.64V615.3c4.54-2.34 7.9-1.6 9.31 1.62zm-79.2 26.57h-9.67v-28.91h9.67v28.91zm222.87-28.94v28.9h-9.8v-28.91c3.12.01 6.23.01 9.8.01zm-94.55 28.78c-9.94 1.26-9.94 1.26-9.94-7.73 0-5.53.23-11.08-.08-16.6-.22-3.95 1.23-5.32 5-4.8 1.54.21 3.12.17 5.02.25v28.88zm84.54-34.34v-7.61h9.72v7.61h-9.72zm-222.51-7.68h9.61v7.74h-9.61v-7.74zm128.55 8.04c-1.31-8.6-.48-9.28 9.12-7.81v7.81h-9.12zm48.34-.18c1.93-8.29 1.93-8.29 9.64-7.06-3.34 7.35-3.99 7.84-9.64 7.06zm-18.42-86.09V494.9c8.62.68 17.14.86 25.47 2.19 4.91.79 7.79 4.85 8.4 10.02.66 5.52-.83 10.21-5.81 13.13-2.22 1.3-4.8 2.57-7.27 2.71-6.77.38-13.58.13-20.79.13zm.12-58.03v-25.93c8.59.45 17.24-1.34 25.64 2.12 4.78 1.97 6.75 5.79 6.89 10.67.14 4.69-1.48 8.64-5.84 10.91-1.91.99-4.04 2.05-6.11 2.13-6.77.27-13.56.1-20.58.1z"/></symbol><symbol viewBox="0 0 1080 1080" style="enable-background:new 0 0 1080 1080" xml:space="preserve" id="logo-leandro-figueiredo" xmlns="http://www.w3.org/2000/svg"><path d="M-15.5-15.5h1111v1111h-1111z"/><path style="fill:#45e5a3" d="M645.94 519.52h207.85V675.4H645.94z"/><path d="M577.66 634.47h-52.72v61.25h-91.38v-61.25H370.3v61.25h-91.38v-61.25H226.2v-76.81h52.72v-75.31H226.2v-76.81h52.72v-61.25h91.38v61.25h63.26v-61.25h91.38v61.25h52.72v76.81h-52.72v75.31h52.72v76.81zm-138.57-70.29v-88.36h-74.31v88.36h74.31z" style="fill:#fff"/></symbol><symbol fill="none" viewBox="0 0 17 26" id="meiuca-logo" xmlns="http://www.w3.org/2000/svg"><path d="M2 26V8.884C2 5.082 4.91 2 8.5 2S15 5.082 15 8.884V26" stroke="#000" stroke-width="3"/></symbol><symbol fill="none" viewBox="0 0 18 27" id="sisters-logo" xmlns="http://www.w3.org/2000/svg"><g clip-path="url(#na)" fill="#000"><path d="M0 9.178c.14 4.713 3.97 8.505 8.73 8.644V9.178H0Zm8.73-.534V0C3.97.139.14 3.931 0 8.644h8.73ZM18 17.822c-.14-4.713-3.97-8.505-8.73-8.644v8.644H18Zm-8.73.534V27c4.76-.139 8.59-3.931 8.73-8.644H9.27Zm4.428-9.501c2.376 0 4.302-1.907 4.302-4.26C18 2.244 16.074.337 13.698.337c-2.376 0-4.302 1.907-4.302 4.26 0 2.352 1.926 4.26 4.302 4.26Zm-9.1 17.724c2.376 0 4.302-1.907 4.302-4.26 0-2.352-1.926-4.26-4.302-4.26-2.376 0-4.302 1.908-4.302 4.26 0 2.353 1.926 4.26 4.302 4.26Z"/></g><defs><clipPath id="na"><path fill="#fff" d="M0 0h18v27H0z"/></clipPath></defs></symbol><symbol fill="none" viewBox="0 0 274 274" id="stamp-cirgle" xmlns="http://www.w3.org/2000/svg"><path d="m242.862 141.354 17.374 1.68-.568 5.87c-.132 1.363-.486 2.454-1.061 3.271-.571.824-1.292 1.405-2.164 1.744-.872.338-1.819.457-2.843.358-1.024-.099-1.934-.398-2.73-.897-.797-.494-1.403-1.198-1.817-2.111-.408-.913-.547-2.045-.416-3.397l.407-4.208 1.866.181-.401 4.14c-.09.933-.001 1.698.267 2.294.267.597.663 1.049 1.187 1.357.529.314 1.142.504 1.837.571.696.068 1.33-.002 1.904-.209.573-.202 1.043-.573 1.409-1.114.372-.541.604-1.283.695-2.228l.358-3.699-15.507-1.499.203-2.104Zm-3.088 21.115 16.682 5.137-1.736 5.637c-.401 1.303-.953 2.304-1.656 3.003-.698.701-1.494 1.134-2.388 1.298-.895.164-1.834.095-2.817-.207-.983-.303-1.793-.772-2.429-1.408-.636-.636-1.044-1.436-1.223-2.401-.173-.963-.06-2.091.338-3.383l1.404-4.561 1.825.562-1.385 4.496c-.274.89-.364 1.647-.271 2.27.092.629.339 1.139.742 1.531.406.398.943.701 1.611.906.668.206 1.29.261 1.867.165.576-.096 1.085-.377 1.525-.841.446-.464.807-1.146 1.085-2.047l1.094-3.552-14.89-4.585.622-2.02Zm5.076 10.16-8.758 1.798.722-2.346 8.738-1.733-.702 2.281Zm-11.955 27.11c-1.601-.907-2.822-1.98-3.662-3.219-.839-1.239-1.289-2.542-1.351-3.909-.062-1.367.274-2.698 1.007-3.993.734-1.296 1.702-2.269 2.906-2.919 1.204-.65 2.553-.935 4.048-.852 1.494.082 3.042.576 4.644 1.483 1.602.907 2.823 1.98 3.662 3.219.84 1.24 1.29 2.543 1.352 3.91.062 1.367-.274 2.698-1.007 3.993-.734 1.296-1.703 2.268-2.906 2.919-1.204.65-2.554.934-4.048.852-1.494-.082-3.043-.577-4.645-1.484Zm1.008-1.78c1.315.745 2.55 1.153 3.704 1.226 1.151.077 2.17-.126 3.058-.61.885-.478 1.587-1.177 2.108-2.097.521-.92.76-1.884.718-2.894-.045-1.005-.395-1.983-1.051-2.936-.658-.947-1.645-1.793-2.961-2.538-1.315-.744-2.548-1.155-3.699-1.232-1.154-.073-2.173.13-3.058.609-.888.483-1.592 1.185-2.112 2.105-.521.919-.759 1.882-.714 2.886.042 1.01.392 1.989 1.051 2.936.656.952 1.641 1.801 2.956 2.545Zm-18.051 9.241 3.624-3.984 12.912 11.745-3.786 4.161c-1.139 1.253-2.373 2.089-3.7 2.51-1.323.425-2.682.436-4.077.036-1.39-.397-2.754-1.203-4.09-2.419-1.345-1.224-2.285-2.517-2.82-3.879-.531-1.358-.64-2.733-.328-4.123.317-1.387 1.072-2.736 2.265-4.047Zm3.589-1.159-2.111 2.32c-.971 1.067-1.57 2.139-1.796 3.216a5.14 5.14 0 0 0 .331 3.17c.447 1.037 1.196 2.033 2.246 2.989 1.043.948 2.095 1.594 3.157 1.938 1.066.348 2.109.367 3.128.057 1.023-.305 1.993-.963 2.911-1.971l2.271-2.497-10.137-9.222Zm-16.23 34.751-1.736 1.206-6.592-9.493c-.68-.98-1.057-2.015-1.129-3.106-.075-1.083.152-2.136.68-3.16.53-1.019 1.358-1.918 2.483-2.699 1.125-.782 2.257-1.243 3.397-1.384 1.143-.137 2.212.017 3.205.462.992.452 1.829 1.168 2.509 2.148l6.592 9.493-1.736 1.206-6.495-9.353c-.486-.7-1.073-1.216-1.76-1.548a4.033 4.033 0 0 0-2.205-.368c-.788.091-1.581.413-2.379.968-.798.554-1.377 1.184-1.738 1.891a3.956 3.956 0 0 0-.426 2.195c.071.76.35 1.49.836 2.19l6.494 9.352Zm-29.543 8.215 1.962-.787c.343.518.744.932 1.206 1.243a4.37 4.37 0 0 0 1.475.657 4.771 4.771 0 0 0 1.62.122 5.846 5.846 0 0 0 1.639-.4c.981-.394 1.77-.998 2.367-1.813.592-.813.93-1.796 1.012-2.949.077-1.152-.166-2.429-.729-3.831-.562-1.403-1.269-2.494-2.12-3.273-.857-.777-1.78-1.254-2.77-1.433-.995-.176-1.983-.067-2.964.326a5.846 5.846 0 0 0-1.461.843c-.437.347-.8.747-1.089 1.199a4.472 4.472 0 0 0-.622 3.234l-1.962.787a7.026 7.026 0 0 1-.085-2.546c.128-.811.39-1.562.786-2.253a6.87 6.87 0 0 1 1.538-1.82 7.854 7.854 0 0 1 2.159-1.279c1.382-.554 2.746-.71 4.093-.466 1.346.243 2.577.864 3.694 1.861 1.116.997 2.017 2.35 2.702 4.058.685 1.709.969 3.309.851 4.801s-.579 2.791-1.384 3.898c-.805 1.106-1.899 1.937-3.28 2.491a7.834 7.834 0 0 1-2.445.567 6.757 6.757 0 0 1-2.372-.26 6.418 6.418 0 0 1-2.122-1.078c-.651-.492-1.217-1.125-1.699-1.899Zm-9.888 6.376.323 1.846-12.895 2.256-.323-1.847 5.406-.946-2.684-15.346 2.082-.364 2.684 15.346 5.407-.945Zm-39.139-13.351 5.348.642-2.081 17.33-5.585-.67c-1.681-.202-3.078-.721-4.19-1.559-1.114-.832-1.911-1.932-2.394-3.3-.483-1.363-.617-2.941-.401-4.735.216-1.805.724-3.321 1.524-4.547.799-1.22 1.855-2.106 3.169-2.658 1.313-.546 2.85-.714 4.61-.503Zm3.026 2.252-3.114-.374c-1.433-.172-2.654-.038-3.662.402a5.144 5.144 0 0 0-2.391 2.108c-.585.965-.962 2.153-1.132 3.564-.167 1.399-.084 2.63.252 3.695.335 1.07.924 1.931 1.768 2.581.842.657 1.94 1.066 3.294 1.229l3.351.402 1.634-13.607Zm-20.014-5.457-5.513 16.561-9.995-3.327.592-1.779 7.99 2.66 1.863-5.596-7.472-2.488.592-1.779 7.472 2.488 1.873-5.628-8.118-2.703.592-1.779 10.124 3.37Zm-33.095-.321c-.334.803-.3 1.591.1 2.363s1.062 1.417 1.983 1.934c.674.379 1.325.601 1.953.666.623.063 1.182-.017 1.679-.24a2.47 2.47 0 0 0 1.146-1.067c.228-.406.328-.81.299-1.21a2.952 2.952 0 0 0-.354-1.147 6.217 6.217 0 0 0-.703-1.01c-.27-.308-.526-.579-.767-.812l-1.312-1.284a15.335 15.335 0 0 1-1.08-1.173 7.02 7.02 0 0 1-.984-1.539 4.382 4.382 0 0 1-.44-1.83c-.016-.655.176-1.339.576-2.052a4.592 4.592 0 0 1 1.898-1.867c.799-.425 1.72-.602 2.761-.532 1.038.068 2.141.43 3.31 1.086 1.09.612 1.935 1.318 2.536 2.117.595.797.944 1.638 1.047 2.523.097.882-.058 1.756-.466 2.622l-1.902-1.068c.273-.602.347-1.187.221-1.752a3.594 3.594 0 0 0-.826-1.558 5.98 5.98 0 0 0-1.544-1.219c-.704-.395-1.4-.636-2.087-.722-.69-.081-1.315-.008-1.873.219-.56.233-.996.627-1.308 1.182-.284.505-.373.996-.269 1.471.105.476.332.942.681 1.399.35.457.75.91 1.202 1.359l1.573 1.586c.997 1.009 1.664 2.026 2.002 3.049.338 1.024.219 2.048-.357 3.074-.478.852-1.126 1.466-1.943 1.842-.824.378-1.727.523-2.707.435-.988-.086-1.968-.401-2.939-.946-.98-.551-1.754-1.216-2.32-1.996-.568-.775-.905-1.59-1.012-2.445a4.076 4.076 0 0 1 .442-2.459l1.784 1.001Zm-13.892-4.379L71.24 220.24l1.681 1.28-10.574 13.887-1.681-1.28ZM47.58 214.472a6.156 6.156 0 0 0-.601 1.602 4.762 4.762 0 0 0-.101 1.595c.053.524.2 1.035.443 1.535a5.65 5.65 0 0 0 1.017 1.433 5.176 5.176 0 0 0 2.53 1.483c.971.243 2.005.185 3.102-.173s2.191-1.059 3.283-2.105c1.091-1.045 1.838-2.109 2.24-3.194.4-1.084.496-2.123.284-3.116-.211-.993-.69-1.88-1.437-2.659-.691-.723-1.454-1.212-2.288-1.467a4.54 4.54 0 0 0-2.555-.032c-.87.235-1.69.721-2.462 1.46l-.349-.562 3.63 3.792-1.354 1.297-4.597-4.802 1.354-1.297c1.039-.994 2.154-1.637 3.346-1.928a6.355 6.355 0 0 1 3.53.113c1.157.371 2.215 1.057 3.174 2.058 1.069 1.117 1.745 2.349 2.029 3.697.28 1.345.162 2.716-.355 4.116-.52 1.395-1.446 2.729-2.776 4.002-.997.955-2.022 1.68-3.073 2.175-1.06.496-2.107.766-3.14.812a6.933 6.933 0 0 1-2.967-.511c-.944-.386-1.803-.983-2.577-1.792a7.74 7.74 0 0 1-1.478-2.148 6.907 6.907 0 0 1-.636-2.353 6.646 6.646 0 0 1 .209-2.382 6.848 6.848 0 0 1 1.067-2.225l1.508 1.576Zm-20.987-20.918 14.996-8.933 1.047 1.757-6.906 15.185.087.146 11.773-7.013 1.082 1.816-14.995 8.933-1.047-1.758 6.918-15.232-.087-.146-11.803 7.031-1.065-1.786Z" fill="#000"/><path d="m27.147 172.062 3.329-1.221 2.816 7.682-3.328 1.22-2.817-7.681Z" fill="#45E5A3"/><path d="m13.792 152.285-.348-2.085 11.398-1.904c1.177-.196 2.274-.094 3.292.306 1.01.396 1.866 1.051 2.566 1.965.694.915 1.154 2.048 1.38 3.398.226 1.351.159 2.572-.2 3.663-.365 1.092-.961 1.992-1.787 2.701-.833.703-1.838 1.153-3.015 1.35l-11.399 1.904-.348-2.085 11.23-1.876c.841-.14 1.558-.45 2.152-.929a4.035 4.035 0 0 0 1.275-1.838c.254-.751.302-1.606.142-2.564s-.483-1.751-.968-2.379a3.967 3.967 0 0 0-1.802-1.323c-.718-.26-1.497-.32-2.337-.18l-11.231 1.876Zm-.918-15.44 17.453-.202.024 2.113-17.453.203-.024-2.114Zm.009-15.277 20.317 7.454-.163 1.834-20.317-7.454.163-1.834Zm5.216-21.089.537-2.044 11.177 2.938c1.154.303 2.113.846 2.877 1.628.76.776 1.27 1.724 1.534 2.845.258 1.119.213 2.341-.135 3.665-.348 1.325-.91 2.411-1.685 3.258-.78.847-1.693 1.424-2.737 1.731-1.048.3-2.15.298-3.303-.005l-11.177-2.938.537-2.044 11.012 2.894c.825.217 1.606.229 2.344.035a4.037 4.037 0 0 0 1.916-1.153c.54-.581.934-1.341 1.18-2.281.248-.939.279-1.795.094-2.566a3.96 3.96 0 0 0-1.101-1.946c-.548-.532-1.234-.906-2.058-1.123l-11.012-2.894Zm6.247-16.331 8.515-.685.062-.121-4.403-7.321 1.137-2.214 5.255 8.87 10.271-.895-1.137 2.214-8.394.747-.062.122 4.282 7.258-1.138 2.214-5.192-8.991-10.334 1.016 1.138-2.214Z" fill="#000"/><path d="m46.868 64.418 2.837 2.128-4.91 6.545-2.836-2.127 4.91-6.546Z" fill="#45E5A3"/><path d="m63.7 59.12-3.958 3.653-11.839-12.826 4.133-3.815c1.245-1.149 2.546-1.875 3.905-2.178 1.356-.308 2.71-.202 4.065.32 1.35.515 2.638 1.438 3.864 2.765 1.233 1.336 2.057 2.706 2.471 4.11.41 1.4.4 2.778-.033 4.136-.436 1.354-1.305 2.632-2.608 3.834Zm-3.676.841 2.304-2.127c1.06-.979 1.75-1.995 2.07-3.048a5.147 5.147 0 0 0-.053-3.186c-.355-1.072-1.015-2.13-1.978-3.173-.956-1.036-1.948-1.771-2.976-2.206-1.032-.44-2.069-.55-3.111-.33-1.046.216-2.07.786-3.072 1.71l-2.48 2.29 9.296 10.07Zm16.753-11.513L67.68 33.552l8.99-5.49.978 1.6-7.187 4.388 3.074 5.033 6.721-4.104.977 1.6-6.72 4.105 3.092 5.062 7.302-4.46.977 1.6-9.106 5.562ZM88.91 22.13l9.923 12.01.192-.07-.193-15.579 2.08-.763-.008 18.594-2.048.751-12.027-14.18 2.08-.764Zm26.219 10.102-2.677-17.248 10.409-1.616.288 1.853-8.321 1.291.905 5.828 7.781-1.208.288 1.853-7.782 1.208.91 5.862 8.456-1.313.287 1.853-10.544 1.637Zm19.31-2.12.405-17.45 2.113.049-.361 15.575 8.111.188-.043 1.875-10.225-.237Zm35.166-4.106c-.406 1.795-1.082 3.273-2.027 4.434-.944 1.161-2.062 1.968-3.353 2.421-1.292.453-2.663.516-4.115.187-1.452-.33-2.663-.977-3.632-1.942-.97-.966-1.631-2.176-1.983-3.63-.352-1.455-.325-3.08.082-4.875.407-1.796 1.083-3.274 2.027-4.435.945-1.16 2.063-1.968 3.354-2.42 1.291-.454 2.663-.516 4.115-.187 1.451.329 2.662.976 3.632 1.942.97.965 1.631 2.175 1.983 3.63.352 1.454.324 3.08-.083 4.875Zm-1.994-.452c.334-1.474.369-2.774.105-3.9-.257-1.125-.746-2.042-1.465-2.753-.713-.709-1.585-1.18-2.615-1.414-1.031-.233-2.024-.184-2.979.147-.949.333-1.785.95-2.508 1.852-.717.904-1.243 2.093-1.577 3.567-.334 1.474-.372 2.773-.114 3.898.263 1.125.752 2.043 1.465 2.752.719.71 1.593 1.183 2.624 1.416 1.031.234 2.021.184 2.97-.148.955-.332 1.791-.95 2.508-1.853.723-.902 1.252-2.09 1.586-3.564Zm8.751 12.165 7.394-15.811 5.342 2.498c1.241.58 2.15 1.278 2.728 2.094.586.813.892 1.687.919 2.622.027.934-.177 1.868-.613 2.8-.435.93-1.022 1.689-1.759 2.272-.732.586-1.597.921-2.596 1.006-.997.08-2.111-.168-3.341-.743l-3.829-1.791.794-1.698 3.768 1.761c.849.397 1.599.57 2.251.517.652-.053 1.211-.275 1.676-.666.472-.393.857-.907 1.153-1.54.296-.633.442-1.254.439-1.864.002-.608-.191-1.175-.579-1.7-.385-.532-1.007-.999-1.867-1.4l-3.366-1.575-6.599 14.113-1.915-.895Zm30.429-3.513 1.973 1.572-4.388 15.028.16.128 13.667-7.637 1.973 1.572-10.875 13.652-1.547-1.232 8.263-10.372-.133-.107-12.529 6.974-1.494-1.19 3.997-13.77-.134-.106-8.262 10.372-1.547-1.232 10.876-13.652Zm9.378 31.64 13.612-10.925 6.594 8.215-1.462 1.174-5.271-6.567-4.599 3.691 4.929 6.142-1.463 1.174-4.929-6.142-4.626 3.713 5.356 6.673-1.462 1.174-6.679-8.322Zm33.795 20.586-15.556 7.918-.927-1.823 7.899-14.693-.078-.152-12.213 6.216-.959-1.883 15.556-7.918.927 1.823-7.914 14.739.078.152 12.244-6.232.943 1.853Zm2.919 13.02 1.815-.47 3.28 12.674-1.815.469-1.375-5.313-15.083 3.903-.53-2.046 15.083-3.903-1.375-5.314Z" fill="#000"/><path d="m251.486 130.604-3.533.301-.693-8.153 3.533-.3.693 8.152Z" fill="#45E5A3"/></symbol><symbol fill="none" viewBox="0 0 44 30" id="stamp-logo" xmlns="http://www.w3.org/2000/svg"><path d="m13.444 25.297 3.132-25.2h4.896l-3.132 25.2h-4.896ZM.268 19.933V15.29H24.1v4.644H.268Zm3.852 5.364L7.252.097h4.896l-3.132 25.2H4.12ZM1.456 10.105V5.461h23.868v4.644H1.456Z" fill="#000"/><path d="M25.953 29.041v-3.744h18v3.744h-18Z" fill="#45E5A3"/></symbol></svg>