<svg width="179" height="78" viewBox="0 0 179 78" fill="none" xmlns="http://www.w3.org/2000/svg">
<g clip-path="url(#clip0_2100_107)">
<path fill-rule="evenodd" clip-rule="evenodd" d="M15.4487 47.7216C15.4487 47.9442 15.5256 48.0495 15.7766 48.0495C15.809 48.1912 15.971 48.3895 15.9872 48.4503C16.0074 48.5231 15.8576 48.8025 16.0762 48.9725C16.1653 49.0413 16.222 49.0292 16.3677 49.0292C16.3839 49.0899 16.5539 49.2356 16.6106 49.2721C16.4527 49.5109 15.975 49.6445 16.4689 49.9036C16.4041 50.0048 16.3029 50.0817 16.2058 50.1465C16.1734 50.1222 16.145 50.1101 16.1086 50.0777C16.0722 50.0493 16.056 50.0291 16.0155 50.0048C15.89 49.9279 15.7766 50.0412 15.6147 50.1708C15.388 50.357 15.4042 50.357 15.7685 50.6606L16.2584 51.11C16.3191 51.1707 16.3717 51.2274 16.4527 51.2112C16.562 51.1869 16.7968 51.0371 16.7968 50.9238C16.7968 50.8266 16.6268 50.8104 16.5944 50.6809C16.647 50.6647 16.7118 50.6121 16.7563 50.5797C16.8575 50.6323 17.0276 50.8307 17.2259 50.5594C17.2948 50.604 17.3636 50.6566 17.4081 50.7214C17.3312 50.7618 17.2259 50.8428 17.2259 50.944C17.2259 51.0209 17.3757 51.114 17.4284 51.1464L17.2705 51.3124C17.0721 51.1748 17.0923 51.2436 16.9102 51.3812C16.6956 51.5432 16.8859 51.6079 17.23 51.9156C17.2624 51.9439 17.2786 51.9682 17.311 51.9966C17.5174 52.1706 17.4729 52.28 17.9708 51.7942L18.408 51.3974C18.485 51.3246 18.6186 51.2355 18.6874 51.1262C18.7481 51.1667 18.9505 51.3691 19.0153 51.3691C19.1489 51.3691 19.1165 51.2962 19.1651 51.2152C19.2906 51.0088 19.6671 50.859 19.6671 50.7375C19.6671 50.6647 18.9303 50.0372 18.8048 49.9279C18.5457 49.6971 18.5983 49.7376 18.0963 49.7376C17.8332 49.7376 17.9992 50.1465 18.0154 50.3489C17.9749 50.3206 17.9749 50.3165 17.9384 50.2841C17.8656 50.2194 17.736 50.0979 17.6874 50.0858C17.7279 50.0048 17.6996 49.8469 17.6672 49.7781C17.6632 49.774 17.4972 49.7052 17.3595 49.7781C17.2826 49.6607 17.1693 49.6243 17.0964 49.515C17.6551 49.515 17.6065 49.5635 17.6065 49.2923C17.6065 48.7093 17.3352 48.677 17.1045 48.43C17.0519 48.3733 17.0842 48.3652 16.9749 48.3531C16.9749 48.1952 16.9183 48.0697 16.7928 48.0049C16.647 47.928 16.5337 47.9766 16.4041 48.0454C16.3029 47.9766 16.1531 47.8754 15.9953 47.8632C16.06 47.7297 15.971 47.4868 15.7766 47.4746H15.7524C15.6916 47.4746 15.6269 47.5029 15.5499 47.5556C15.4973 47.592 15.4487 47.6284 15.4487 47.7175V47.7216Z" fill="#D9D9D9"/>
<path fill-rule="evenodd" clip-rule="evenodd" d="M28.2533 47.8632C28.1319 47.8754 27.889 48.0576 27.804 48.0292C27.7392 48.009 27.5084 47.8632 27.3708 48.0859C27.3141 48.179 27.3263 48.2438 27.2898 48.3086C27.2655 48.3531 27.2615 48.3369 27.2129 48.3733L26.966 48.5919C26.8162 48.7174 26.7676 48.7215 26.715 48.9522C26.6826 49.1061 26.634 49.3328 26.6664 49.4745C26.7959 49.5352 26.9902 49.515 27.1765 49.515C27.0995 49.6283 26.9902 49.6607 26.9133 49.7781C26.8324 49.7579 26.6016 49.6647 26.5692 49.8631C26.5611 49.9076 26.5692 49.9562 26.5692 50.0008C26.5773 50.0939 26.6057 50.025 26.553 50.0898C26.5044 50.1546 26.3263 50.3044 26.2615 50.3489C26.298 49.8955 26.464 49.7376 26.1199 49.7376C25.6543 49.7376 25.6219 49.7619 25.4235 49.9562L25.0875 50.2517C24.2657 50.9804 24.6058 50.6323 25.0551 51.1707C25.298 51.4622 25.2252 51.3326 25.5693 51.1019L26.5085 51.9804C26.5733 52.029 26.6826 52.1626 26.7797 52.1302C26.8607 52.1018 27.1562 51.8184 27.2736 51.7253C27.6663 51.4217 27.3627 51.3529 27.2655 51.28C27.14 51.1869 27.1319 51.2436 27.0186 51.3043C26.97 51.2719 26.8688 51.191 26.8364 51.1424C26.9012 51.1262 27.055 50.9845 27.0591 50.94C27.0267 50.8023 26.9093 50.7942 26.8769 50.6768C26.9498 50.6566 26.9902 50.5999 27.0388 50.5554C27.0834 50.5837 27.2372 50.7173 27.2817 50.7173C27.3424 50.7173 27.4315 50.5999 27.5246 50.5756C27.5772 50.612 27.6339 50.6606 27.6865 50.6971C27.6299 50.7821 27.4841 50.8509 27.4841 50.9602C27.4841 51.0209 27.6946 51.2031 27.8728 51.2031C27.9254 51.2031 28.0549 51.0533 28.1076 51.0128C28.2128 50.9319 28.7674 50.4299 28.7674 50.3692C28.7674 50.2517 28.727 50.2517 28.6217 50.1667C28.4719 50.0453 28.3788 49.9198 28.2574 50.0008C28.2007 50.0372 28.1359 50.102 28.0752 50.1465C27.9092 50.0372 27.893 49.9643 27.812 49.9441C27.8525 49.7902 28.0145 49.8145 28.0145 49.6567C28.0145 49.5797 27.7108 49.3611 27.6461 49.268C27.7068 49.1749 27.8768 49.0373 27.9902 49.0211C28.2047 48.9927 28.3181 48.932 28.3181 48.6972C28.3181 48.3774 28.1319 48.6891 28.4355 48.1628C28.561 47.9483 28.4881 48.1102 28.6703 48.013C28.9375 47.8713 28.8322 47.4746 28.5407 47.4746H28.5367C28.4395 47.4746 28.3505 47.5232 28.3059 47.5839C28.229 47.6932 28.2574 47.7661 28.2574 47.8632H28.2533Z" fill="#D9D9D9"/>
<path fill-rule="evenodd" clip-rule="evenodd" d="M24.7032 51.7779C24.8003 51.7779 24.9339 51.6686 24.9785 51.6038C25.1606 51.3488 24.4684 50.8994 24.3753 50.8994C24.3226 50.8994 24.1648 51.0168 24.1445 51.0775C24.1 51.2273 24.3712 51.3123 24.5291 51.5188C24.6141 51.6322 24.6344 51.7779 24.6991 51.7779H24.7032Z" fill="#D9D9D9"/>
<path fill-rule="evenodd" clip-rule="evenodd" d="M19.4442 51.7983C19.5737 51.7983 19.6263 51.5271 19.9664 51.3004C20.2336 51.1182 20.0878 51.0372 19.9866 50.9684C19.9178 50.9239 19.8814 50.8834 19.7964 50.9239L19.4887 51.1708C19.2944 51.3692 19.1527 51.4866 19.2863 51.6688C19.3227 51.7133 19.3753 51.7983 19.4401 51.7983H19.4442Z" fill="#D9D9D9"/>
<path fill-rule="evenodd" clip-rule="evenodd" d="M17.8736 49.2315C17.7765 49.6404 18.1611 49.523 18.1611 49.4339C18.1611 49.3044 18.0072 49.1789 17.8736 49.2315Z" fill="#D9D9D9"/>
<path fill-rule="evenodd" clip-rule="evenodd" d="M26.1118 49.3732C26.1118 49.5351 26.2657 49.523 26.375 49.4947C26.4154 49.3287 26.4519 49.1182 26.1847 49.2841C26.1442 49.3084 26.1118 49.3206 26.1118 49.3732Z" fill="#D9D9D9"/>
<path fill-rule="evenodd" clip-rule="evenodd" d="M4.53838 42.4023H5.10514C5.71239 42.4752 6.33582 42.7465 6.71232 43.0298C7.44101 43.5804 7.42482 43.7626 7.42482 44.6046C7.23455 44.467 6.37226 43.3416 5.34399 43.3416C4.58696 43.3416 4.80556 43.4144 4.24285 43.544C4.24285 44.6896 4.49789 45.2402 4.2469 46.4871C4.17403 46.8595 4.02829 47.2117 3.9959 47.5842C4.24285 47.5801 4.39264 47.5032 4.68816 47.5032C5.87837 47.5032 6.55038 47.9404 7.42077 48.5234V49.1752C7.2224 49.1225 7.37219 49.1063 7.17787 49.0537C6.89854 49.4707 6.50181 49.7622 6.10507 50.0617C5.96743 50.167 5.84598 50.2277 5.70834 50.3168C5.5626 50.4139 5.42496 50.4747 5.26707 50.5678C4.83795 50.8309 4.37644 51.0171 3.95137 51.2924C3.67609 51.4746 3.42104 51.673 3.14576 51.8754C2.98787 51.9928 2.90691 52.0859 2.76522 52.1912C2.64377 52.2843 2.53446 52.3855 2.43326 52.511C2.03652 53.0049 1.54263 53.6 1.54263 54.3125C1.54263 54.7294 2.06891 55.6606 2.29156 56.0532C2.40087 56.2476 2.42921 56.4581 2.64377 56.5147C2.72069 56.2314 3.38866 55.6889 3.62751 55.4986C4.7165 54.6282 5.89051 54.1829 6.91473 53.3166C7.01999 53.2275 7.05642 53.1587 7.16978 53.0858C7.32766 53.1911 7.61509 53.7133 7.74059 53.9036C7.57056 54.1586 6.96736 54.5675 6.66779 54.7497C5.58284 55.3934 5.33589 55.4703 4.36025 56.1949C4.00805 56.4581 3.65989 56.7657 3.41699 57.126C3.48177 57.3649 3.80563 57.6159 3.97971 57.79C4.18617 57.9964 4.3643 58.1907 4.60315 58.3527C5.14157 57.9924 5.40876 56.5269 5.91885 55.9156C6.18604 55.5958 6.54229 55.4946 6.96736 55.4946C7.66772 55.4946 8.19805 56.3852 8.48952 56.9115C8.60693 57.1179 8.68789 57.3244 8.78505 57.5552C9.68378 59.6967 9.56637 60.9314 10.8821 63.2106C11.0076 63.4333 11.1128 63.6155 11.2505 63.8219C11.7201 64.5223 12.3314 65.3805 12.9346 65.9756L14.4648 67.3399C14.7968 67.6152 15.2138 67.8986 15.5943 68.1293C17.6711 69.4005 19.9989 70.1211 22.4319 70.2304C24.8649 70.1171 27.1927 69.4005 29.2695 68.1293C29.65 67.8986 30.067 67.6152 30.399 67.3399L31.9292 65.9756C32.5324 65.3805 33.1437 64.5223 33.6133 63.8219C33.751 63.6155 33.8562 63.4333 33.9817 63.2106C35.2974 60.9314 35.18 59.6967 36.0788 57.5552C36.1759 57.3244 36.2569 57.122 36.3743 56.9115C36.6658 56.3892 37.1961 55.4946 37.8964 55.4946C38.3215 55.4946 38.6778 55.5958 38.945 55.9156C39.455 56.5228 39.7222 57.9924 40.2607 58.3527C40.4995 58.1907 40.6776 57.9964 40.8841 57.79C41.0582 57.6159 41.382 57.3649 41.4468 57.126C41.2039 56.7617 40.8558 56.454 40.5036 56.1949C39.532 55.4703 39.281 55.3934 38.196 54.7497C37.8964 54.5716 37.2932 54.1627 37.1232 53.9036C37.2487 53.7133 37.5361 53.1911 37.694 53.0858C37.8074 53.1627 37.8438 53.2275 37.9491 53.3166C38.9773 54.1829 40.1473 54.6282 41.2363 55.4986C41.4751 55.6889 42.1472 56.2314 42.22 56.5147C42.4346 56.4581 42.467 56.2476 42.5722 56.0532C42.7908 55.6606 43.3212 54.7294 43.3212 54.3125C43.3212 53.6 42.8273 53.0049 42.4305 52.511C42.3293 52.3855 42.22 52.2843 42.0986 52.1912C41.9609 52.0859 41.8759 51.9928 41.718 51.8754C41.4468 51.673 41.1918 51.4746 40.9124 51.2924C40.4914 51.0131 40.0299 50.8269 39.5967 50.5678C39.4388 50.4706 39.3012 50.4139 39.1555 50.3168C39.0178 50.2277 38.8964 50.167 38.7587 50.0617C38.362 49.7622 37.9653 49.4707 37.6859 49.0537C37.4876 49.1063 37.6373 49.1225 37.443 49.1752V48.5234C38.3134 47.9404 38.9854 47.5032 40.1756 47.5032C40.4712 47.5032 40.625 47.5801 40.8679 47.5842C40.8355 47.2077 40.6938 46.8595 40.6169 46.4871C40.3659 45.2402 40.6209 44.6896 40.6209 43.544C40.0582 43.4144 40.2768 43.3416 39.5198 43.3416C38.4915 43.3416 37.6293 44.467 37.439 44.6046C37.439 43.7626 37.4187 43.5804 38.1515 43.0298C38.532 42.7424 39.1555 42.4712 39.7587 42.4023H40.3254C40.5481 42.4307 40.7545 42.5036 40.9286 42.621C41.6573 43.1229 41.2727 44.0783 41.2727 44.8475C41.2727 45.6167 41.297 46.3252 41.4751 47.0093C41.5764 47.398 41.7869 47.8959 41.799 48.3574C41.8273 49.2885 40.5724 49.6852 39.7991 49.7014L39.9489 49.7986C40.7991 50.248 41.7018 50.6568 42.4427 51.2641C44.2523 52.7458 43.7746 53.9805 43.8394 56.1545C43.8717 57.2596 44.1511 58.7535 44.479 59.7574C44.6936 60.4173 44.8595 61.0691 44.8595 61.7816C44.8595 62.4496 44.2401 63.3321 43.5965 63.3321C42.9528 63.3321 42.6937 63.1054 42.2605 62.6682C42.0338 62.4415 41.5804 61.895 41.2727 61.8221C41.2363 62.2795 40.9165 62.9556 40.7667 63.3969C40.0744 65.4534 38.3458 68.3156 36.7912 69.8701C36.7022 69.9592 36.6293 70.024 36.5443 70.113C36.3783 70.2911 36.2245 70.5017 36.0342 70.6636L35.4634 71.1534C34.6578 71.9347 33.7591 72.5865 32.832 73.214C31.7552 73.9387 30.5892 74.4973 29.3505 74.9953C27.2575 75.8333 24.8042 76.4284 22.4198 76.4284C20.0353 76.4284 17.582 75.8333 15.489 74.9953C14.2503 74.4973 13.0844 73.9387 12.0075 73.214C11.0764 72.5906 10.1777 71.9388 9.3761 71.1534L8.80529 70.6636C8.61502 70.5017 8.45714 70.2911 8.29521 70.113C8.21019 70.024 8.13732 69.9592 8.04826 69.8701C6.49371 68.3156 4.76508 65.4534 4.07282 63.3969C3.92303 62.9516 3.60726 62.2795 3.56678 61.8221C3.25911 61.895 2.8057 62.4415 2.57899 62.6682C2.14583 63.1054 1.91102 63.3321 1.24305 63.3321C0.575082 63.3321 -0.0200195 62.4496 -0.0200195 61.7816C-0.0200195 61.0691 0.145961 60.4173 0.36457 59.7574C0.692483 58.7535 0.971816 57.2556 1.0042 56.1545C1.06898 53.9846 0.587227 52.7498 2.40087 51.2641C3.14171 50.6568 4.04448 50.248 4.89463 49.7986L5.04441 49.7014C4.27524 49.6852 3.01621 49.2885 3.04455 48.3574C3.06074 47.8959 3.26721 47.398 3.36841 47.0093C3.54654 46.3252 3.57083 45.6005 3.57083 44.8475C3.57083 44.0945 3.18624 43.1189 3.91494 42.621C4.08901 42.4995 4.29548 42.4307 4.51813 42.4023H4.53838ZM21.1607 75.0236C21.2417 74.8738 21.6708 71.7283 21.5372 71.5947C21.5332 71.5906 21.0838 71.3275 20.9178 71.7364C20.8247 71.9671 20.7357 72.1898 20.6385 72.4286L20.1446 73.635C20.1001 73.7241 20.1487 73.635 20.092 73.7201L20.0434 73.7767C19.9827 73.3193 19.7681 71.6352 19.6386 71.3275C19.4847 71.287 19.2661 71.2506 19.1082 71.283C19.0232 71.4935 18.6589 74.4609 18.7115 74.6674C18.8249 74.7767 18.9908 74.801 19.1204 74.7443C19.2297 74.6755 19.2094 74.6512 19.2378 74.3678L19.4159 73.0804L19.6952 74.8374C19.8329 74.886 19.9462 74.9184 20.1406 74.89C20.2337 74.7848 20.8288 73.4002 20.8652 73.2343C20.9219 74.1978 20.2701 75.1694 21.1648 75.0155L21.1607 75.0236ZM23.6423 72.9509C23.7638 73.2181 24.5937 74.7767 24.7232 74.9062C24.8973 74.9345 25.0633 74.9143 25.1726 74.8414C25.2779 74.6471 25.0916 73.461 25.0512 73.1209C25.0107 72.7525 24.9702 71.6311 24.8042 71.4206C24.2091 71.2911 24.367 71.6999 24.4318 72.2991C24.4763 72.7039 24.5289 73.1088 24.5532 73.5055L23.5492 71.6635C23.4602 71.5502 23.4075 71.534 23.2173 71.5623C23.0351 71.5906 23.0796 71.5745 23.0108 71.6878C22.9298 71.8052 23.2375 74.2099 23.282 74.6997C23.2861 74.7605 23.2942 74.8617 23.3063 74.9184C23.3873 75.2058 23.7274 75.0519 23.78 74.9831C23.9136 74.801 23.6342 73.3233 23.6423 72.9509ZM15.4729 70.4085C16.1368 70.6271 15.8817 71.3599 15.6348 71.87C15.2138 72.7485 15.0559 72.8011 14.4851 72.6068L15.4729 70.4085ZM16.4242 71.1696C16.489 70.6717 16.3028 70.279 16.0113 70.0725C15.8898 69.9875 15.6591 69.8863 15.5133 69.8134C15.2704 69.696 15.1854 69.6839 15.0599 69.9551C14.7361 70.6636 14.4527 71.3842 14.1207 72.0926C13.7442 72.8983 13.7523 72.8456 14.1612 73.0399C14.5539 73.2262 14.8697 73.4164 15.3271 73.1533C15.817 72.8699 16.319 71.9671 16.4242 71.1696ZM17.6023 71.372C18.1812 71.0725 18.1447 71.9995 18.0111 72.5137C17.578 74.1775 16.9505 73.8375 16.8817 73.384C16.8128 72.9306 17.1084 71.623 17.6023 71.372ZM18.6265 72.1979C18.8127 70.9146 17.8735 70.5583 17.3108 70.8741C16.8128 71.1534 16.4728 72.0441 16.3635 72.8294C16.157 74.2868 17.2177 74.4811 17.6832 74.1775C18.1933 73.8456 18.505 73.0521 18.6305 72.1979H18.6265ZM33.419 67.4371C33.6862 67.1375 33.8643 67.1658 34.1113 67.4533C34.3582 67.7448 34.3623 67.9836 34.0505 68.1901C33.9696 68.1212 33.4635 67.5261 33.4231 67.433L33.419 67.4371ZM34.8319 69.9511C35.0221 69.943 35.1314 69.8337 35.1922 69.696C35.2327 69.4612 34.5323 68.9066 34.4108 68.5989C34.5444 68.5342 34.6942 68.6475 34.8562 68.7325C35.0059 68.8095 35.6537 69.1657 35.7711 69.1536C35.9168 69.1374 36.0828 68.9552 36.0788 68.7568C35.9856 68.6516 34.9857 68.1617 34.7873 68.101C34.844 67.7002 34.8197 67.51 34.6173 67.2144C34.2449 66.672 33.7388 66.4493 33.1842 66.9027C32.496 67.4654 32.6458 67.3885 33.2652 68.1374C33.4433 68.352 33.6255 68.5301 33.7834 68.7447C33.9412 68.9592 34.1315 69.1374 34.3015 69.3519C34.4108 69.4896 34.7145 69.8944 34.8359 69.9551L34.8319 69.9511ZM10.2829 66.3238C10.5704 66.2631 10.7849 66.4452 10.7242 66.7651C10.6756 67.0039 10.4691 67.2185 10.3396 67.3521C10.0967 67.6031 9.67568 68.0605 9.22227 68.1536C8.83363 68.2306 8.44094 67.8824 9.13321 67.1132C9.34372 66.8825 9.8619 66.4129 10.287 66.3238H10.2829ZM10.0805 65.7894C9.40444 65.9999 8.72837 66.6639 8.4207 67.1497C7.90252 67.9755 8.46523 68.9633 9.44088 68.6678C10.0765 68.4734 10.8052 67.769 11.0764 67.3035C11.6148 66.3805 10.9023 65.5344 10.0805 65.7894ZM6.69612 65.757C6.97546 65.757 7.63533 65.1417 7.9511 65.0121L8.34379 65.6315C7.96324 65.8663 7.55841 66.1538 7.16978 66.4372C7.16978 66.6558 7.25074 66.7813 7.40053 66.8744C7.54627 66.9068 10.1291 65.0769 10.1331 65.0567C10.1331 64.8664 10.0643 64.7288 9.90643 64.6357C9.6271 64.6599 9.08463 65.1943 8.75671 65.3158C8.6717 65.081 8.48143 64.9231 8.41261 64.6842C8.64741 64.4656 9.32752 64.1296 9.44897 63.9029C9.42468 63.7126 9.31538 63.4738 9.10082 63.5426L6.5261 65.2955C6.3925 65.4534 6.56658 65.6761 6.68803 65.753L6.69612 65.757ZM12.5054 69.9794C12.639 69.8215 12.6917 69.773 12.8496 69.6677L12.6795 70.1171L12.5014 69.9794H12.5054ZM12.4609 70.6231C12.4083 70.8417 12.0399 71.6109 12.0966 71.7526C12.1209 71.8093 12.2302 71.9064 12.3071 71.9469C12.5662 72.0764 12.6026 71.7728 12.7605 71.368C13.0439 70.6393 13.3192 69.9106 13.6066 69.1779C13.6835 68.9835 13.8171 68.7811 13.6714 68.6313C13.4325 68.3844 13.3151 68.5139 13.2139 68.603C12.9589 68.8297 10.8942 70.6312 10.8821 70.7648C10.9104 70.8984 11.0359 71.0239 11.1493 71.0644C11.3598 71.1372 11.9144 70.5017 12.0682 70.3681C12.2099 70.4328 12.3192 70.5583 12.4569 70.6272L12.4609 70.6231ZM36.0666 66.6072C35.8399 66.5465 34.7833 65.8825 34.423 65.6923C34.1679 65.5587 33.9979 65.7854 33.9696 66.004C33.9979 66.1862 36.2407 67.344 36.605 67.5585C36.8601 67.7083 36.9613 67.7367 37.1192 67.4938C37.2811 67.2347 36.8925 66.8582 36.601 66.4169L35.5768 64.9028C35.4796 64.7612 35.342 64.4049 35.1112 64.5628C34.7185 64.83 35.0586 65.0931 35.3865 65.5951C35.6253 65.9594 35.8561 66.2712 36.0707 66.6153L36.0666 66.6072ZM31.9333 68.7892C32.0871 68.6192 32.2329 68.5261 32.4029 68.3763C32.6255 68.182 32.4798 67.5828 31.9819 68.016C31.0507 68.8337 30.901 68.4127 32.2288 70.0806C32.3665 70.2547 33.1761 71.3599 33.3057 71.368C33.4352 71.3356 34.2327 70.6555 34.3218 70.5583C34.3258 70.3357 34.2044 70.1899 34.0505 70.1413C33.8643 70.1778 33.5647 70.5259 33.3826 70.6393C33.2854 70.5786 32.8037 69.9389 32.7713 69.8823C32.917 69.6798 33.2206 69.5705 33.3421 69.3195C33.3138 69.0888 33.1154 68.8742 32.913 69.0281L32.4555 69.4369C32.3462 69.36 31.9819 68.9066 31.9333 68.7852V68.7892ZM31.1155 69.5017C31.3139 68.5949 30.3301 69.1252 30.1277 69.3641C29.7553 69.8094 29.9456 70.4571 30.2735 70.7729C30.7471 71.2304 31.4515 70.8458 31.7187 71.1453C31.8523 71.2951 31.9778 71.6554 31.7875 71.8376C31.5973 72.0238 31.322 72.0036 31.1196 72.125C31.0912 72.2465 31.1074 72.3112 31.1479 72.3963C31.4718 73.0804 33.1923 71.8538 32.0264 70.696C31.5608 70.2345 30.9495 70.6433 30.6338 70.3478C30.5002 70.2223 30.3504 69.9308 30.5245 69.7325C30.65 69.5908 30.9414 69.5584 31.1155 69.4936V69.5017ZM5.32375 60.8343C5.11728 60.7938 4.97964 60.8707 4.86224 60.9557C4.63554 62.235 5.86622 62.7977 6.58682 62.0285C6.92283 61.6682 6.83377 60.9962 7.11715 60.8181C7.30742 60.6966 7.56651 60.6724 7.69606 60.8545C7.87013 61.1055 7.70415 61.3525 7.82965 61.5346C7.83775 61.5427 8.33569 61.8585 8.32759 61.2432C8.32759 60.9598 8.24663 60.6724 8.10898 60.5023C7.79726 60.1218 7.20216 60.0246 6.7609 60.4011C6.26296 60.8302 6.46537 61.478 6.12936 61.7087C5.9067 61.8585 5.58284 61.8383 5.46544 61.6318C5.3197 61.3727 5.44115 61.065 5.33184 60.8383L5.32375 60.8343ZM27.9052 71.1777C27.9538 71.0522 27.9902 70.8984 27.9619 70.7324C27.9012 70.6312 27.0065 70.4207 26.6624 71.2789C26.3345 72.0967 26.8486 73.8617 27.7271 74.1411C28.2412 74.3071 29.1116 73.9225 28.638 73.4002C28.3181 73.384 28.14 73.8375 27.7433 73.5136C27.3304 73.1776 26.9903 72.1412 27.136 71.5664C27.2656 71.0482 27.5692 71.2749 27.9093 71.1818L27.9052 71.1777ZM6.58277 64.5425C6.60301 64.2592 6.49371 64.3077 6.37226 64.081C6.27915 63.907 6.2751 63.7491 6.37226 63.5669C6.50181 63.3281 6.78114 63.1256 7.06047 62.9758C7.31552 62.8382 7.69606 62.6763 8.02802 62.6844C8.57049 62.6965 8.48143 62.9839 8.58264 63.4131C9.35991 63.8381 9.14535 62.6641 8.65551 62.3038C7.89442 61.7452 6.10102 62.567 5.80955 63.5102C5.66381 63.9798 5.97148 65 6.58277 64.5425ZM36.0464 63.7045C36.184 63.5952 36.2447 63.3847 36.3257 63.2187C36.7467 63.3928 38.5806 64.4616 38.868 64.4292C38.945 64.3442 39.0745 64.1701 39.03 64.0406C38.9733 63.8989 38.945 63.9191 38.7749 63.8381C38.6616 63.7815 38.5685 63.7369 38.4551 63.6803L36.5605 62.7127C36.6212 62.5386 36.7386 62.3767 36.7548 62.1824C36.6374 61.9962 36.3905 61.8504 36.2447 62.1055C36.1476 62.2714 36.0626 62.5062 35.9775 62.6884C35.8844 62.8949 35.7994 63.073 35.7063 63.2714C35.5768 63.5588 35.7589 63.7207 36.0423 63.7086L36.0464 63.7045ZM10.4044 69.6718C10.4772 69.4936 10.5461 69.4369 10.6716 69.3074C10.7768 69.1981 10.8375 69.0888 10.9428 68.9754L12.0277 67.6921C12.1047 67.595 12.2545 67.4938 12.1654 67.3318C12.129 67.263 11.967 67.0889 11.8375 67.1254C11.7322 67.1537 10.8821 68.2144 10.7242 68.3803L9.90238 69.3681C9.46921 69.8215 9.84976 69.777 10.4125 70.3923C10.8052 70.8174 10.9549 70.2385 10.9549 70.2304C10.8902 70.0523 10.5339 69.7608 10.3963 69.6718H10.4044ZM39.8963 61.5873C40.038 61.4901 40.0704 61.2998 40.038 61.1177C39.8477 60.9922 37.1475 60.1218 36.9127 60.142C36.4795 60.7088 37.0746 60.7209 38.1029 61.057C38.3903 61.1501 39.7263 61.6197 39.8963 61.5873ZM22.5048 75.0317C22.5736 74.1208 22.5412 72.7768 22.5452 71.8254C22.5452 71.4571 22.1769 71.4854 22.0595 71.6271C21.9744 71.7364 21.934 74.9143 22.0595 75.0277C22.193 75.1005 22.3712 75.0722 22.5048 75.0277V75.0317ZM25.7718 71.2263C25.1524 71.1089 25.3386 71.5623 25.4236 71.959C25.5005 72.3234 25.5734 72.6675 25.6544 73.0318C25.958 74.4528 25.8851 74.9184 26.4802 74.5783C26.5207 74.3152 25.8811 71.3882 25.7718 71.2263ZM28.225 70.4045C28.2088 70.6393 28.8039 71.9388 28.9254 72.2424C28.9942 72.4125 29.3828 73.5055 29.5205 73.5541C29.6784 73.6108 29.8646 73.461 29.9294 73.3921C29.982 73.2626 28.7392 70.3559 28.6461 70.2466C28.4436 70.2345 28.3303 70.3073 28.225 70.4045ZM39.4955 62.8787C39.6048 62.7613 39.6615 62.6479 39.6413 62.4374C39.451 62.2836 38.3741 61.9071 38.0422 61.7775C37.7628 61.6682 37.4835 61.563 37.2123 61.4577C36.941 61.3525 36.601 61.0934 36.4633 61.4375C36.3135 61.818 36.6415 61.8383 36.9653 61.9597C37.4228 62.1338 39.2769 62.907 39.4915 62.8787H39.4955ZM38.1312 65.9149C38.4875 65.417 38.281 65.4656 37.107 64.7247C36.8155 64.5425 35.7063 63.7693 35.4432 63.7855C35.1274 64.2025 35.2934 64.2389 35.6618 64.4737C35.9411 64.6518 36.1961 64.8057 36.4755 64.9798C36.7548 65.1579 36.9856 65.3036 37.2568 65.4737C37.4673 65.6072 37.8883 65.9392 38.1312 65.919V65.9149ZM43.4143 62.3565C43.8798 62.3565 44.0661 61.9192 44.0661 61.4577C44.0661 61.1055 43.9082 60.6278 43.8313 60.3485C43.726 59.972 43.6329 59.636 43.5357 59.2554C43.3738 58.6118 43.2078 57.6402 43.2078 56.8467C43.1147 56.8791 43.1754 56.8508 43.1107 56.9115L42.8394 57.2556C42.7261 57.4013 42.6208 57.5349 42.4832 57.6726C41.9528 58.1948 40.4955 59.5874 39.8194 59.7413L40.8072 60.304C41.3942 60.6562 42.0945 61.1582 42.5641 61.648C42.7585 61.8464 43.0783 62.3524 43.4102 62.3524L43.4143 62.3565ZM39.6251 58.8344C39.2729 58.5591 38.779 57.3123 38.6332 56.8184C38.2648 57.288 37.7183 58.2636 37.8519 59.2595C38.443 59.3931 39.1433 59.2393 39.6251 58.8344ZM39.9854 48.3574C39.7465 48.3574 39.115 48.5072 38.8761 48.5963C38.7385 48.6448 38.694 48.6934 38.5563 48.7258C38.6575 49.1063 39.451 49.4828 39.7789 49.7055C39.7789 49.2804 39.9732 48.7784 39.9813 48.3574H39.9854ZM1.46976 62.3565C1.0042 62.3565 0.81798 61.9192 0.81798 61.4577C0.81798 61.1055 0.975864 60.6278 1.05278 60.3485C1.15804 59.972 1.25115 59.636 1.34831 59.2554C1.51024 58.6118 1.67622 57.6402 1.67622 56.8467C1.76933 56.8791 1.70861 56.8508 1.77338 56.9115L2.04462 57.2556C2.15797 57.4013 2.26323 57.5349 2.40087 57.6726C2.9312 58.1948 4.38859 59.5874 5.06466 59.7413L4.07687 60.304C3.48986 60.6562 2.78951 61.1582 2.3199 61.648C2.12558 61.8464 1.80577 62.3524 1.47381 62.3524L1.46976 62.3565ZM5.25897 58.8344C5.61118 58.5591 6.10507 57.3123 6.25081 56.8184C6.61921 57.288 7.16573 58.2636 7.03213 59.2595C6.43703 59.3931 5.74072 59.2393 5.25897 58.8344ZM4.89463 48.3574C5.13348 48.3574 5.76501 48.5072 6.00386 48.5963C6.14151 48.6448 6.18604 48.6934 6.32368 48.7258C6.22247 49.1063 5.429 49.4828 5.10109 49.7055C5.10109 49.2804 4.90677 48.7784 4.89868 48.3574H4.89463Z" fill="#D9D9D9"/>
<path fill-rule="evenodd" clip-rule="evenodd" d="M23.104 8.65541C23.2497 9.00357 23.1809 8.84164 23.9137 9.04C25.4966 9.46912 26.6544 10.4731 26.9539 12.1127C27.1118 12.979 27.0187 13.1895 26.9418 14.0235C27.4397 13.4689 27.9863 13.3676 28.2939 14.1409C28.3466 14.2704 28.3223 14.2907 28.464 14.3271C28.6947 14.1166 28.7959 12.4527 28.7676 12.0155C28.7028 11.1127 28.4397 10.3678 28.0065 9.79704C27.1645 8.68375 25.6059 8.11699 23.6303 8.12509C23.5453 8.15342 23.5007 8.35989 23.2578 8.53396L23.104 8.65946V8.65541Z" fill="#D9D9D9"/>
<path fill-rule="evenodd" clip-rule="evenodd" d="M16.5698 14.0639H16.6183C17.092 12.9182 17.8612 13.8615 17.9786 13.9505L18.1688 13.9222C18.1041 13.1085 18.0231 12.987 18.181 12.1329C18.4117 10.886 19.0919 9.98725 20.2294 9.41644C20.6181 9.22212 21.1079 9.04805 21.5492 8.95898C21.7192 8.9266 21.6949 8.97922 21.8407 8.65536C21.7354 8.57844 21.6302 8.51772 21.5451 8.43675C21.4966 8.38817 21.4601 8.34769 21.4196 8.29101C21.3913 8.25053 21.3994 8.26267 21.3711 8.22219L21.3022 8.12908C20.5695 8.0805 19.4522 8.31125 18.8368 8.5582C18.0676 8.86587 17.5737 9.25856 17.1649 9.76055C16.4281 10.6795 16.2702 11.9993 16.4038 13.2138C16.4483 13.6469 16.5212 13.6591 16.5779 14.0639H16.5698Z" fill="#D9D9D9"/>
<path fill-rule="evenodd" clip-rule="evenodd" d="M28.9495 20.61C28.7795 20.9986 28.1965 20.7881 28.3504 20.359C28.4961 19.9501 29.1317 20.189 28.9495 20.61ZM15.8694 20.4885C15.8128 20.0432 16.4322 19.9906 16.505 20.3711C16.6022 20.8488 15.918 20.8934 15.8694 20.4885ZM24.4357 20.2416C24.3587 19.7679 25.0308 19.691 25.0753 20.1201C25.1198 20.5493 24.4964 20.6343 24.4357 20.2416ZM23.9418 20.3023C23.8446 20.5452 23.2495 20.4481 22.954 20.4481H21.8164C21.5047 20.4481 20.9663 20.5574 20.9217 20.2092C20.9055 20.0716 20.9055 19.1971 20.946 19.104C21.0432 18.8854 21.6585 18.9745 21.9378 18.9745H23.0754C23.4195 18.9745 23.9175 18.8773 23.958 19.2093C23.9741 19.3469 23.9742 20.2173 23.9377 20.3023H23.9418ZM19.9258 20.2133C19.8408 19.7598 20.4683 19.6546 20.5574 20.0351C20.606 20.2416 20.4886 20.4035 20.3388 20.4521C20.1364 20.5169 19.9582 20.3752 19.9299 20.2133H19.9258ZM25.6502 19.8489C25.7028 19.772 26.7108 19.2336 26.8039 19.2174C26.9254 19.1971 27.8524 19.8327 27.8929 19.8772C27.8443 20.0068 27.4638 20.1809 27.3464 20.2456C26.5934 20.6788 26.9739 20.6788 25.9133 20.0432C25.804 19.9785 25.7028 19.9299 25.6461 19.8449L25.6502 19.8489ZM16.9301 19.8772C16.9908 19.7598 17.339 19.5817 17.4523 19.5088C18.1041 19.104 17.8774 19.1 18.5899 19.4846C18.7721 19.5817 19.0514 19.6708 19.181 19.8165C19.1364 19.9015 18.7559 20.1242 18.6587 20.1849C17.8936 20.6505 18.1851 20.6343 17.4969 20.2335C17.343 20.1444 17.007 19.9906 16.9341 19.8772H16.9301ZM29.0953 19.8489C28.9536 20.2497 28.2977 20.0594 28.4961 19.5898C28.6459 19.2457 29.245 19.4198 29.0953 19.8489ZM15.752 19.7275C15.6994 19.2498 16.339 19.2336 16.3957 19.6343C16.4605 20.108 15.7966 20.1363 15.752 19.7275ZM25.0753 19.4846C24.9336 19.9177 24.3183 19.7032 24.4599 19.2781C24.5895 18.8895 25.217 19.0514 25.0753 19.4846ZM19.9258 19.3914C19.8368 18.938 20.4683 18.8287 20.5574 19.2133C20.6626 19.6789 20.0068 19.8003 19.9258 19.3914ZM15.0679 19.27C15.1731 19.3753 15.2946 19.4967 15.3391 19.5412C15.6346 19.8165 15.7844 20.7274 15.6144 21.1606H15.6711C17.7236 20.9339 19.691 20.8003 21.6626 20.7719C23.63 20.7436 25.6016 20.8165 27.6622 21.0108L27.731 21.0189C28.2775 21.0715 28.8686 21.1241 29.411 21.2051C29.2248 20.9298 29.1479 20.5128 29.3179 20.0716C29.4272 19.7841 29.6296 19.5048 29.8401 19.2983C29.6823 19.2821 29.4879 19.2538 29.3139 19.2255C29.2005 19.2093 29.0953 19.1931 29.0224 19.185C27.569 19.0069 26.0631 18.8692 24.5531 18.7963C23.1928 18.7275 21.8245 18.7113 20.4926 18.7559C19.5898 18.7883 18.7559 18.8368 17.926 18.9137C17.1001 18.9907 16.2783 19.0919 15.3998 19.2336C15.2905 19.2498 15.1772 19.27 15.0679 19.2781V19.27Z" fill="#D9D9D9"/>
<path fill-rule="evenodd" clip-rule="evenodd" d="M21.3672 21.5696C22.6586 21.5332 23.9824 21.5575 25.2981 21.6344C26.6624 21.7153 28.0145 21.8489 29.314 22.0311C29.5933 22.0716 29.7553 22.0271 29.8281 21.9501C29.8484 21.9299 29.8565 21.9056 29.8605 21.8813C29.8605 21.853 29.8605 21.8206 29.8443 21.7882C29.7998 21.683 29.6783 21.5858 29.4921 21.5534C28.9213 21.4644 28.2857 21.4036 27.6987 21.3469L27.6299 21.3389C25.5815 21.1486 23.6221 21.0757 21.6667 21.1041C19.7114 21.1324 17.752 21.266 15.7036 21.4846L15.5983 21.4927C15.4931 21.5008 15.4243 21.5089 15.3473 21.5656C15.2704 21.6263 15.2218 21.687 15.2016 21.7437C15.1895 21.7842 15.1854 21.8247 15.2016 21.8611C15.2137 21.8975 15.2421 21.934 15.2866 21.9663C15.3554 22.0149 15.4526 22.0473 15.5781 22.0514C15.7279 22.0595 16.0032 22.0149 16.2339 21.9785C16.323 21.9623 16.408 21.9501 16.4849 21.9421C17.2986 21.8327 18.1083 21.7518 18.9139 21.6911C19.7195 21.6303 20.5373 21.5898 21.3631 21.5696H21.3672Z" fill="#D9D9D9"/>
<path fill-rule="evenodd" clip-rule="evenodd" d="M21.4522 13.6793L21.7154 13.651C21.8854 13.4445 22.1971 13.068 22.5655 13.068C22.9056 13.068 23.2821 13.4567 23.3995 13.6996L23.6181 13.7239C23.6707 13.5417 23.7719 13.3474 23.8367 13.1207C24.1605 11.9628 23.8853 10.9629 23.4723 9.87392C23.3145 9.4529 23.0635 8.9752 22.9663 8.70801C22.525 8.80922 22.4643 8.8497 22.0028 8.72825C21.6911 9.01568 21.2255 10.5824 21.1324 11.141C21.0514 11.6309 21.0434 11.8697 21.1081 12.3758C21.2053 13.1773 21.3551 13.2502 21.4522 13.6793Z" fill="#D9D9D9"/>
<path fill-rule="evenodd" clip-rule="evenodd" d="M12.8416 14.8656C13.2302 14.8575 13.206 14.8616 13.4934 15.0033C13.3557 13.8698 13.3315 13.2747 13.8901 12.21C14.0116 11.9752 14.2545 11.6351 14.4204 11.4853C14.9427 11.0157 15.133 10.8092 15.9224 10.5097C16.0722 10.453 16.2219 10.4004 16.3839 10.3558C16.8535 10.2222 16.5134 10.3761 16.9992 9.72024L17.2988 9.34375C15.9993 9.45305 14.7403 9.8336 13.7403 10.5987C13.1128 11.0764 12.6311 11.8942 12.5339 12.8374C12.4732 13.4244 12.5825 14.4487 12.8457 14.8737L12.8416 14.8656Z" fill="#D9D9D9"/>
<path fill-rule="evenodd" clip-rule="evenodd" d="M31.7065 14.1611L31.6862 14.987C31.9048 14.9506 31.7631 14.8332 32.3582 14.8534C32.5161 14.0356 32.7185 13.8858 32.6011 12.809C32.4999 11.8738 32.0222 11.0642 31.3988 10.5986C30.9413 10.2545 30.6822 10.0885 30.0912 9.85778C29.569 9.65537 28.4516 9.34365 27.8403 9.3477C27.9051 9.46105 27.982 9.51772 28.0751 9.63512C28.7067 10.4569 28.2209 10.1857 28.9455 10.4124C29.4839 10.5824 30.0183 10.8699 30.3705 11.1613C30.743 11.469 31.083 11.8334 31.3259 12.3758C31.5688 12.9102 31.7024 13.5013 31.7024 14.1611H31.7065Z" fill="#D9D9D9"/>
<path fill-rule="evenodd" clip-rule="evenodd" d="M23.5451 7.7124H21.355C21.5574 8.91475 23.3508 8.92285 23.5451 7.7124Z" fill="#D9D9D9"/>
<path fill-rule="evenodd" clip-rule="evenodd" d="M21.3916 7.20194H23.5129C23.4198 6.79306 22.9826 6.43276 22.4644 6.42871C21.9098 6.42871 21.509 6.77282 21.3916 7.20194Z" fill="#D9D9D9"/>
<path fill-rule="evenodd" clip-rule="evenodd" d="M16.2664 14.9505C16.2664 15.3432 16.4203 14.987 16.3069 15.4363C16.1612 16.0112 15.975 15.7845 15.9142 16.1893C15.8778 16.4565 16.0924 16.6063 16.2664 16.7035C16.5498 16.8573 16.3272 16.9099 16.5215 17.1042C16.817 17.4038 17.3676 16.8047 17.3676 16.6265C17.3676 16.4484 17.0397 16.4646 17.0397 16.0557C17.0397 15.9667 17.0761 15.8695 17.1085 15.7966C17.1206 15.7683 17.2421 15.574 17.2502 15.5699C17.3352 15.4849 17.6955 15.404 17.8169 15.404C17.9465 15.404 18.1165 15.5537 18.1975 15.6347C18.3108 15.74 18.3432 15.7602 18.3432 16.1407C18.3432 16.2784 18.2218 16.2217 18.2218 16.5496C18.3756 16.5901 18.9343 17.0314 19.1205 16.6346C19.1893 16.4889 19.1246 16.4322 19.1934 16.3027C19.2865 16.1246 19.4849 16.1003 19.4849 15.7804C19.4849 15.4606 19.2177 15.3716 19.0355 15.2501C18.8128 15.1044 18.8776 14.6874 18.4647 14.8817C18.4647 14.4647 18.4363 14.4647 17.9748 14.3919C17.6429 14.3392 17.7846 14.064 17.2421 14.064C16.7644 14.064 16.8615 14.5619 16.5134 14.7238C16.4162 14.7684 16.2624 14.821 16.2624 14.9627L16.2664 14.9505Z" fill="#D9D9D9"/>
<path fill-rule="evenodd" clip-rule="evenodd" d="M21.4038 14.218C21.4038 14.55 21.5414 14.2706 21.3188 14.7443C21.1487 15.1046 20.7925 14.9507 20.7925 15.4811C20.7925 15.7887 21.0313 15.8171 21.1042 15.9871C21.1487 16.0924 21.1406 16.7684 21.8815 16.2826C22.0313 16.1855 22.1244 16.149 22.1406 15.9304C21.6831 15.809 22.0353 14.9507 22.343 14.9507C22.7438 14.9507 22.849 14.89 23.0555 15.137L23.1648 15.2746C23.2943 15.4568 23.2458 15.6794 23.1648 15.813C23.1122 15.898 22.9948 15.9507 22.9948 16.0924C22.9948 16.1612 23.6182 17.0356 23.9056 16.2705C24.0109 15.9871 24.0554 16.149 24.2497 15.9223C24.5615 15.5539 24.274 15.2827 24.0838 15.0884C23.8206 14.8212 24.0716 14.5095 23.5656 14.6269C23.5899 14.5257 23.7761 14.2706 23.4846 14.0965C23.2903 13.9791 23.2741 14.0844 23.1324 13.9589C23.0676 13.9022 23.0231 13.7727 22.9219 13.6796C22.8247 13.5905 22.7235 13.5419 22.6183 13.5298H22.4806C22.2985 13.5541 22.1163 13.6755 21.9746 13.8577C21.8167 14.0642 21.9098 13.9265 21.6629 13.9953C21.5819 14.0196 21.3997 14.1573 21.3997 14.222L21.4038 14.218Z" fill="#D9D9D9"/>
<path fill-rule="evenodd" clip-rule="evenodd" d="M26.9496 14.4204C26.6419 14.4204 26.4881 14.3111 26.4719 14.805C26.4678 14.9386 26.4961 14.8131 26.3099 15.0884C26.1358 15.3475 25.5205 15.3354 25.6905 15.8819C25.816 16.2908 25.9294 15.9386 25.9294 16.6632C26.0954 16.7725 25.978 16.7847 26.2573 16.7847C26.4273 16.7847 26.9091 16.5903 26.9091 16.5013C26.9091 16.2584 26.7188 16.3353 26.7998 15.9021C26.7998 15.89 26.8241 15.8131 26.8241 15.805C26.8605 15.7119 27.0265 15.5742 27.1115 15.5175C27.2977 15.4001 27.8604 15.4406 27.9981 15.7564C28.2491 16.3474 27.9131 16.4446 27.7228 16.6592C27.8523 16.9021 28.0709 17.1773 28.2774 17.23H28.4029C28.4677 17.2097 28.5284 17.1612 28.581 17.064C28.6822 16.8818 28.5729 16.9264 28.7834 16.817C29.6012 16.4082 29.079 16.0276 28.9413 15.7645C28.8037 15.4973 29.0263 15.2706 28.581 15.2706C28.6134 15.1249 28.8077 14.8901 28.4555 14.7038C28.2734 14.6067 28.2936 14.6957 28.1843 14.4852C27.6823 13.5298 27.0143 14.4164 26.9496 14.4164V14.4204Z" fill="#D9D9D9"/>
<path fill-rule="evenodd" clip-rule="evenodd" d="M12.6388 15.3597C12.6388 15.801 13.1691 16.4932 13.412 16.7037C13.7521 16.6147 13.6914 16.311 14.2703 16.5377C14.6144 16.6713 14.5537 17.06 14.5941 17.2341C15.8977 17.2341 15.4848 16.7847 15.4038 16.5904C15.3066 16.3637 15.4929 15.8212 15.0354 15.7362C14.7115 15.6755 14.578 15.805 14.3189 15.639C14.0841 15.4892 14.2055 15.1978 13.9019 15.1978C13.6428 15.1978 13.8169 15.4164 13.3311 15.2787C13.0558 15.2018 12.8858 15.303 12.6348 15.3637L12.6388 15.3597Z" fill="#D9D9D9"/>
<path fill-rule="evenodd" clip-rule="evenodd" d="M30.4556 15.6833C29.6136 15.6833 29.8727 16.0841 29.7998 16.493C29.7957 16.5173 29.3828 17.1893 30.1318 17.1893C31.0507 17.1893 30.322 17.1529 30.7309 16.6468C30.7997 16.5618 30.7795 16.5618 30.8807 16.5132C31.3624 16.2784 31.4839 16.5375 31.7227 16.663C32.0749 16.4768 32.5365 15.7076 32.5365 15.319C32.2409 15.2502 32.3097 15.238 31.9656 15.238C31.6985 15.238 31.743 15.3595 31.5325 15.2704C30.8847 14.9911 31.1357 15.404 30.8928 15.5943C30.6499 15.7845 30.5042 15.6914 30.4597 15.6914L30.4556 15.6833Z" fill="#D9D9D9"/>
<path d="M19.3271 17.0637C19.4242 16.918 19.4971 16.7318 19.5295 16.5617C19.5457 16.4889 19.5902 16.4241 19.6631 16.3917L19.7076 16.3715C19.825 16.3107 19.9707 16.3593 20.0315 16.4767C20.1124 16.6306 20.2663 16.833 20.4484 16.9949C20.5861 17.1163 20.7359 17.2176 20.8735 17.2499H20.8816C21.2824 17.3431 21.5658 17.003 21.7156 16.8208C21.7803 16.7439 21.833 16.6791 21.8977 16.6427C21.8856 16.5577 21.9342 16.5132 22.0961 16.5132H22.8329C22.9665 16.5132 23.0393 16.5658 23.0515 16.6225C23.1082 16.6467 23.1527 16.6913 23.177 16.752C23.2215 16.8654 23.258 16.9423 23.3025 16.9989C23.343 17.0475 23.3956 17.088 23.4766 17.1325C23.6749 17.2378 23.8612 17.2621 24.0312 17.2297C24.2093 17.1933 24.3834 17.088 24.5494 16.9423C24.6263 16.8734 24.6911 16.7803 24.7599 16.6832C24.8085 16.6184 24.857 16.5455 24.9178 16.4686C24.9259 16.4565 24.938 16.4403 24.9542 16.4281C25.0514 16.3391 25.2052 16.3472 25.2943 16.4443C25.3347 16.4889 25.3712 16.5577 25.4198 16.6427C25.4845 16.756 25.5695 16.918 25.6788 17.0556C25.861 17.2864 26.1363 17.4605 26.5128 17.1609L26.5452 17.1366L26.5857 17.1042C26.5695 17.0759 26.5654 17.0435 26.5857 17.003C26.6545 16.8127 27.622 17.0637 27.7273 17.1325L27.6787 17.2621C27.6949 17.2864 27.7151 17.3107 27.7313 17.3431C27.7475 17.3673 27.7637 17.3957 27.8002 17.4321C27.8366 17.4686 27.873 17.5009 27.9176 17.5212H27.9257C27.9621 17.5414 28.0107 17.5455 28.0714 17.5293C28.4438 17.6021 28.541 17.4564 28.6422 17.3714C28.7758 17.258 28.8851 17.1285 28.9296 17.0435C28.9418 17.0192 28.962 16.9949 28.9823 16.9747C29.0835 16.8856 29.2333 16.8977 29.3223 16.9989C29.3952 17.084 29.4276 17.2014 29.4681 17.3512C29.545 17.6264 29.3992 18.0475 29.8 17.9422C29.8486 17.9301 29.8891 17.9017 29.9255 17.8774C29.962 17.8531 29.9943 17.8329 30.0227 17.8127C30.0267 17.5333 30.1846 17.6102 30.3546 17.7034C30.4437 17.7519 30.7514 17.8693 30.7797 17.9543C30.8081 18.0434 30.7797 18.1851 30.5611 18.1001C30.553 18.1406 30.5368 18.1811 30.5085 18.2134C30.4842 18.2418 30.4599 18.2701 30.4356 18.2944C30.2413 18.1365 29.9822 18.1041 29.6826 18.0677H29.6543C28.8163 17.9624 27.9499 17.8815 27.0836 17.8127C26.2051 17.7438 25.3145 17.6953 24.4441 17.6669C22.9908 17.6143 21.5415 17.6183 20.0962 17.6629C18.651 17.7074 17.2098 17.8005 15.7767 17.9301L15.6431 17.9422C15.3597 17.9665 14.8294 18.011 14.7079 18.0556C14.6674 18.0717 14.627 18.092 14.5865 18.1203C14.5258 18.1649 14.461 18.2215 14.4084 18.2904C14.3922 18.262 14.3841 18.2296 14.3841 18.1972H14.376C14.3152 18.1851 14.2424 18.1041 14.2788 18.011C14.3071 17.926 14.8618 17.675 14.9508 17.675C15.0075 17.7317 15.0358 17.7722 15.0399 17.8086C15.0966 17.8127 15.1532 17.8248 15.2059 17.8369C15.303 17.8572 15.4042 17.8774 15.5338 17.8086C15.5824 17.7843 15.6228 17.7236 15.6593 17.6507C15.7079 17.5536 15.6714 17.4443 15.6957 17.3471L15.7241 17.2257C15.7241 17.2257 15.7322 17.1973 15.7403 17.1811L15.805 17.0435C15.8293 16.9909 15.8698 16.9504 15.9265 16.9261C16.0479 16.8735 16.1896 16.9261 16.2422 17.0475C16.2827 17.1406 16.4568 17.2823 16.5782 17.4038C16.6673 17.4928 16.7604 17.5657 16.8333 17.586C16.9021 17.6062 16.9669 17.594 17.0236 17.5698C17.1086 17.5293 17.1855 17.4443 17.2422 17.3592C17.2786 17.3066 17.3069 17.2661 17.3312 17.2337C17.3191 17.2095 17.3191 17.1811 17.3353 17.1447C17.392 17.0151 17.7442 17.0151 17.9142 16.9909C18.1611 16.9544 18.4445 16.8289 18.4486 17.0961C18.4688 17.1123 18.4891 17.1285 18.5093 17.1487C18.5417 17.1771 18.5903 17.2176 18.6834 17.2621C18.7481 17.2945 18.821 17.3188 18.8898 17.3309C18.9506 17.339 19.0153 17.3309 19.0801 17.3107C19.1692 17.2783 19.2542 17.1892 19.3311 17.0759L19.3271 17.0637Z" fill="#D9D9D9"/>
<path fill-rule="evenodd" clip-rule="evenodd" d="M8.5826 51.7256H8.57451C8.67976 51.6284 9.18175 51.2965 9.32344 51.2681L9.35178 51.2357C9.49347 51.1062 20.4239 44.3617 21.7437 43.5278C21.9137 43.4185 22.444 43.0622 22.6019 43.0217C22.7193 43.1351 25.8324 45.0661 26.0268 45.1835C27.1886 45.8879 28.3262 46.6328 29.4881 47.3534L34.682 50.6042C34.9249 50.758 36.3257 51.6082 36.3945 51.7013C36.524 51.7337 36.5848 51.8227 36.7264 51.8673C36.7062 52.094 36.5362 52.7417 36.4309 52.8834L36.3945 53.021C36.2568 53.4421 35.852 54.2922 35.7063 54.4784C35.6779 54.5149 35.682 54.5068 35.6536 54.5351L35.6415 54.5715C35.5646 54.7902 35.2286 55.2679 35.095 55.45L33.6376 57.1989C33.1599 57.7049 32.8927 57.9438 32.3664 58.4336L31.5851 59.0895C30.1236 60.3161 28.0671 61.5589 26.3911 62.49C25.9782 62.7208 22.7962 64.3725 22.4966 64.2875C21.8489 64.1013 19.1689 62.7572 18.6062 62.4496C17.0476 61.6075 15.5659 60.7007 14.2057 59.6886C13.9183 59.474 13.6794 59.2716 13.396 59.0611C13.1289 58.8587 12.0399 57.9316 11.8658 57.7171C11.7403 57.5632 11.2342 57.1017 10.9913 56.8224L10.4853 56.2273C10.2748 55.9723 10.0724 55.6929 9.86996 55.4095C9.72018 55.199 9.4206 54.7659 9.31535 54.5149L9.32344 54.5068L8.92266 53.7659C8.81336 53.519 8.65547 53.1951 8.5907 52.9239C8.53807 52.8227 8.53807 52.8186 8.54212 52.7134C8.42472 52.6081 8.32351 52.0616 8.30327 51.8713C8.42472 51.8308 8.45306 51.7782 8.58665 51.7296L8.5826 51.7256ZM11.1411 35.0101C11.1411 36.087 10.9913 36.9816 10.9994 37.929C11.1897 37.9735 11.3152 38.103 11.4164 38.0868C11.5419 38.0666 11.635 37.9128 11.8212 37.8642C11.8374 38.1476 11.6917 38.1718 11.5784 38.3662C11.4731 38.5483 11.3962 38.6455 11.2788 38.7993C11.1209 39.0098 10.8456 39.5564 10.5541 39.524C10.5703 39.4025 10.6189 39.3135 10.6634 39.2204C10.4894 38.8722 10.2869 38.9815 10.1048 38.6576C9.82948 38.1719 9.99141 37.5889 9.99141 37.4189L9.92259 36.6173C9.90235 35.6862 9.76876 35.1761 10.0845 34.3219C9.91045 34.0021 9.76471 34.0628 9.54205 33.8645C9.55824 33.7025 9.56634 33.7147 9.6635 33.6418C9.75661 33.5689 9.80519 33.5487 9.89425 33.488C10.3072 33.2005 10.4084 32.8686 10.8254 33.1641C10.9671 33.2653 11.0966 33.4353 11.2788 33.492C11.4407 33.4272 11.6755 33.1479 11.7848 33.2491C12.0034 33.4515 11.5986 33.6701 11.4933 33.7349C11.0075 34.0345 11.1411 34.0142 11.1411 35.0142V35.0101ZM18.7479 30.4882C18.6062 30.4598 18.6062 30.4396 18.5252 30.3667C18.5252 29.8769 19.4726 30.0145 19.3956 30.4193C19.3713 30.5408 19.3713 30.6299 19.3147 30.9537C19.2539 31.2978 18.5414 31.3707 18.4807 31.3666C18.2783 31.3424 17.8451 31.1683 17.7723 31.0225C17.7318 30.9375 17.8046 30.7513 17.25 30.8404C16.8088 30.9132 16.6063 31.4193 16.7845 31.8808C16.9343 32.2694 17.3027 32.7593 17.7885 32.4516C17.837 32.4192 17.9585 32.2937 18.0233 32.2289C18.1164 32.1399 18.1528 32.0791 18.25 31.9941C18.6184 31.6743 19.5252 31.8282 19.8288 32.1682C20.1486 32.5285 19.679 33.2613 19.4685 33.5568C19.3794 33.6823 19.1163 33.9535 18.9989 34.0466C18.2985 34.5931 18.1892 33.8887 17.752 33.743C17.6953 34.0304 17.5253 34.5729 17.7723 34.9656C17.8897 35.1559 17.9382 35.249 18.1164 35.3542C18.8289 35.7712 18.6062 35.3259 18.9422 35.1882C19.2418 35.0668 19.5738 35.2773 19.7519 35.4919C19.8248 35.5809 19.8693 35.7631 19.9219 35.8967C20.2255 36.6456 20.1648 37.0221 19.7195 37.6051C19.177 38.3176 18.9058 38.35 18.3147 39.0827C18.1569 39.277 17.6589 39.8155 17.3836 39.8559C17.3431 39.6049 17.2905 39.6414 17.4241 39.4714C17.4565 39.4268 17.4727 39.3823 17.4889 39.354C17.3674 39.2204 17.3431 39.192 17.1569 39.0908C16.8533 38.9208 16.8169 38.9734 16.4849 38.8965C16.5294 38.7467 16.497 38.8196 16.6266 38.7143C16.9343 38.4755 17.5658 37.7103 17.6508 37.6618C17.6589 37.6577 17.6872 37.6456 17.6953 37.6456C17.7561 37.6334 17.7318 37.6375 17.7642 37.6456C17.8249 37.8642 17.6144 37.8116 17.9301 38.1233C18.2095 38.4593 18.3714 38.3864 18.675 38.0302C18.8046 37.8804 18.9868 37.5929 19.0151 37.3622C19.0434 37.1517 19.0434 37.1355 19.0029 36.9128C18.9584 36.6497 18.8248 36.593 18.6791 36.427C18.5495 36.2732 18.5131 36.1194 18.2338 36.0627C17.999 36.0182 17.9099 36.2125 17.7075 36.3056C17.3027 36.4878 16.8371 36.0141 16.8169 35.6619C16.7966 35.2895 16.6995 34.496 16.8654 34.245C17.0274 33.994 18.4969 32.9131 18.7358 32.8645C18.9665 33.1843 19.1487 33.4394 19.428 32.8807C19.7559 32.2289 19.1244 32.2006 18.7398 32.2937C18.5172 32.3463 18.3795 32.3463 18.2014 32.5488C18.0637 32.7066 17.922 32.8524 17.6549 32.905C16.748 33.0872 16.5699 32.4273 16.3635 31.7836C16.1529 31.1197 17.1164 30.0955 17.8897 30.4234C18.3552 30.6177 18.1892 31.059 18.8451 31.0549C19.0029 30.9051 19.1487 30.6582 19.0272 30.3586C18.7762 30.306 18.8977 30.3586 18.7317 30.4882H18.7479ZM13.8373 34.0102C13.983 33.9899 14.5134 33.488 14.651 33.3787C14.8332 33.2329 15.2987 32.8159 15.485 32.7593C15.408 33.1398 14.9223 32.99 15.6145 33.5446C15.9586 33.8199 15.8938 34.5972 15.906 34.8603C15.9181 35.1154 15.9343 35.3704 15.9424 35.6255C15.9951 37.099 16.1286 37.1881 15.4121 38.2326C15.1732 38.5807 15.0558 38.8641 14.7401 39.1151C14.3798 39.3985 14.0964 40.783 15.2016 40.7061C15.5052 40.6859 15.8088 40.6373 15.8898 40.4672C15.9627 40.3094 16.2015 40.1434 16.0436 39.945C15.8938 39.7628 15.6105 39.6778 15.4121 39.7952C15.4931 40.0219 15.57 39.8479 15.4647 40.1798C14.8575 40.4146 14.8129 39.6414 15.3635 39.4633C16.7926 39.0908 16.825 40.8235 15.8007 41.0219C15.6752 41.0502 15.1125 41.281 14.5701 41.0057C14.0519 40.868 13.9992 39.7588 14.1571 39.3499C14.1936 39.2527 14.7927 38.6091 14.9142 38.3014C15.0882 37.8561 14.9506 35.6336 14.9101 35.0506C14.8818 34.6944 14.8372 34.6944 14.7077 34.415C14.5903 34.1559 14.5862 33.998 14.2988 33.9373C14.06 34.0709 13.8252 34.3543 13.8009 34.7429C13.7604 35.3907 13.7968 37.2407 13.9021 37.8885C13.9547 38.1961 14.0154 38.1395 14.1085 38.3419C14.0478 38.4633 13.6673 38.9289 13.562 39.0341C13.392 39.2001 13.1369 39.6819 12.9831 39.6009C12.9264 39.4835 13.2422 39.1758 13.3151 39.0382C13.2017 38.9329 13.1046 38.8317 12.9872 38.7143C12.9345 38.6617 12.8657 38.5848 12.805 38.5483C12.5864 38.4228 12.4002 38.5726 12.7645 37.9694C12.8981 37.7468 12.9102 37.7063 12.9062 37.3824C12.9021 36.9493 12.8293 37.2286 12.8657 36.4594C12.886 36.0141 12.8374 35.8117 12.8171 35.4311C12.805 35.1963 12.8495 34.9858 12.8252 34.7025C12.7443 33.7025 12.8252 34.1357 12.8576 33.7794C12.8698 33.6701 12.8374 33.5608 12.8333 33.4434C12.8212 32.99 13.0195 31.2857 13.2179 30.9982C13.4082 30.723 13.6511 30.6137 13.9669 30.3262C14.3474 29.9821 14.485 30.0631 14.8413 29.7716C14.6267 29.2939 15.0275 29.3587 15.1004 29.4275C15.323 29.6421 14.9992 30.3465 14.8818 30.4234C14.5215 30.6663 14.149 30.7918 13.983 31.2209C13.8697 31.5205 13.8252 33.5365 13.8414 34.0142L13.8373 34.0102ZM14.5417 28.2737C10.6513 28.634 7.8701 32.0346 8.24254 35.7914C8.59475 39.358 11.7889 42.374 15.8331 41.9854C19.4483 41.6372 22.4643 38.4876 22.0878 34.4798C21.7558 30.9213 18.5576 27.9053 14.5417 28.2737ZM24.0107 24.4278H36.0301H36.7345V50.6892C36.6009 50.6487 36.0625 50.2884 35.9168 50.1913L35.7022 50.0496C35.3986 49.9079 35.099 49.6407 34.7954 49.499L34.682 49.418C34.5323 49.3209 34.3906 49.2359 34.2448 49.1468C34.0829 49.0497 33.9412 48.9444 33.7752 48.8675L33.6619 48.7865L31.7025 47.5558L31.6782 47.5315C31.5122 47.4587 31.3139 47.317 31.16 47.2158C30.9981 47.1105 30.7876 47.0093 30.654 46.8838L30.6014 46.8636L24.3832 42.9772C24.1322 42.8234 23.2901 42.2687 23.1322 42.204V24.4278H24.0107ZM7.1495 23.1445C7.08473 23.4846 7.13736 24.5412 7.13736 24.9582V51.9644C7.13736 54.612 9.39226 57.3163 11.1047 58.8668C11.1978 58.9518 11.2383 59.0125 11.3395 59.0895C11.6998 59.3769 12.1208 59.7696 12.5742 60.1177C15.3635 62.2714 18.6022 63.9515 21.8692 65.2996C22.6869 65.6356 22.44 65.6477 23.1444 65.3481L25.043 64.5182C27.4275 63.4292 31.0143 61.4172 32.921 59.7008C33.0749 59.5591 33.2611 59.4336 33.4149 59.2757L35.6132 56.9803C36.5321 55.8063 37.7709 53.9886 37.7709 51.932V26.7192C37.7709 25.9945 37.7345 23.6749 37.7709 23.1445H7.1495Z" fill="#D9D9D9"/>
<path fill-rule="evenodd" clip-rule="evenodd" d="M27.3667 35.8726L27.1683 35.8645C27.1116 35.7674 27.1359 35.735 27.1116 35.6257C26.9457 34.8687 26.3222 33.7311 25.4437 33.9295C24.5207 34.14 24.379 35.3545 24.966 35.65C25.1077 35.7188 25.2413 35.6783 25.3223 35.7836C25.4113 35.905 25.3425 36.0143 25.3304 36.1358C25.5166 36.0548 25.6866 35.7917 25.6138 35.4921C25.5895 35.3909 25.4113 35.0063 25.9295 34.9537C26.4477 34.9011 26.8768 35.3383 26.9821 35.7674C26.8768 35.7431 26.9133 35.8646 26.804 35.8888C26.7959 36.237 27.0671 36.1925 27.3586 36.2572C27.314 36.2937 26.893 36.824 26.5489 36.2977C26.4599 36.1601 26.4882 36.067 26.4194 35.9698C26.2089 36.2046 26.1319 36.5366 26.3789 36.7997C26.6825 37.1236 26.9497 36.8564 27.1764 36.7106C27.1319 36.9495 26.8283 37.1964 27.3545 37.4758C27.5165 37.5608 27.4557 37.5486 27.5569 37.7025C27.6622 37.6053 27.5853 37.5891 27.7432 37.492C27.8484 37.4272 27.9213 37.3908 27.9901 37.3138C28.1561 37.1195 27.9982 36.8928 27.9375 36.7147C28.0589 36.7714 28.144 36.8847 28.2816 36.9293C28.8403 37.1114 29.1074 36.2572 28.6945 35.9739C28.5893 36.2208 28.6095 36.3949 28.3626 36.4961C28.0873 36.6054 27.9011 36.407 27.7715 36.2856C27.816 36.2532 27.7715 36.2734 27.8444 36.2532C28.0144 36.2046 28.3302 36.2896 28.3261 35.8767L28.0994 35.7674C28.3221 34.9739 29.152 34.6946 29.5163 35.0994C29.6337 35.229 29.5771 35.2978 29.5325 35.4516C29.4516 35.7269 29.5771 36.0629 29.8078 36.1317C29.654 35.6217 30.0224 35.7431 30.1964 35.6257C30.8199 35.2047 30.5041 34.0792 29.658 33.9214C28.7188 33.7432 28.0144 34.9375 27.9496 35.8605C27.8484 35.8686 27.8079 35.8848 27.7189 35.8565C27.5934 35.2411 27.978 34.3505 28.1439 33.804C28.4395 32.8607 27.7837 31.8729 27.565 31.877C27.3586 31.881 26.6987 32.8567 26.9902 33.7959C27.1724 34.3788 27.4881 35.2128 27.3707 35.8726H27.3667Z" fill="#D9D9D9"/>
<path fill-rule="evenodd" clip-rule="evenodd" d="M31.7712 42.888L31.8117 42.8557L31.8036 42.884C31.7469 43.1026 31.5971 43.2605 31.7752 43.4669C31.9615 43.6815 31.8724 43.4386 32.1963 43.8515C32.2206 43.8232 32.2003 43.8515 32.2368 43.7949C32.3056 43.6977 32.2853 43.6937 32.3825 43.6329C32.8683 43.3374 32.7023 43.3212 32.5849 42.8759C32.8197 42.965 33.0424 43.2969 33.3784 42.9488C33.6213 42.6978 33.5565 42.3253 33.3298 42.1189C33.2084 42.3456 33.2691 42.5318 33.0019 42.637C32.7226 42.7463 32.4797 42.5399 32.4108 42.3941C32.7306 42.378 32.9735 42.3699 32.9533 42.0257L32.7549 41.8719C32.9412 41.1392 33.7508 40.8355 34.1435 41.2444C34.2609 41.3659 34.2002 41.459 34.1557 41.6128C34.0706 41.9083 34.2326 42.216 34.439 42.2808C34.3216 41.7505 34.5241 41.961 34.8155 41.7788C34.9734 41.6776 35.1434 41.4347 35.1556 41.1635C35.1799 40.6169 34.7508 40.1676 34.3095 40.0745C33.7225 39.953 33.2812 40.4631 33.0869 40.7384C32.6456 41.3699 32.7185 41.6209 32.5809 41.9691L32.3663 41.9812C32.2084 40.54 33.1395 40.0137 32.7509 38.8235C32.6578 38.5402 32.4311 38.1029 32.1963 38.022C31.9939 38.022 31.3299 38.9895 31.6214 39.9409C31.8198 40.5967 32.1113 41.212 32.0303 41.9731H31.8157C31.6821 41.6128 31.7267 41.2971 31.3097 40.7343C31.1032 40.455 30.6701 39.9328 30.0588 40.0785C29.6216 40.1838 29.1965 40.6331 29.241 41.1918C29.2613 41.4428 29.4232 41.6978 29.5932 41.7909C29.828 41.9124 30.079 41.7707 29.9535 42.2808C30.1559 42.2201 30.3179 41.9245 30.2409 41.6331C30.2247 41.5764 30.0183 41.1513 30.5648 41.0987C31.087 41.0461 31.5202 41.4428 31.6376 41.8719L31.4392 42.0136C31.415 42.3577 31.67 42.3739 31.9777 42.386C31.9129 42.5358 31.6821 42.7342 31.4069 42.637C31.1194 42.5358 31.1721 42.297 31.0547 42.1108C30.8401 42.2727 30.8037 42.6897 30.9818 42.9042C31.2571 43.2402 31.5081 43.05 31.7672 42.8799L31.7712 42.888Z" fill="#D9D9D9"/>
<path fill-rule="evenodd" clip-rule="evenodd" d="M33.3542 29.816C33.3218 29.8403 33.3218 29.8241 33.3015 29.8646C33.2165 30.4718 32.6093 30.5082 32.4028 30.0953C32.5364 30.0872 33.0748 30.071 32.9331 29.7269L32.7469 29.6379C32.7753 29.5245 32.8279 29.5205 32.8846 29.4192C33.0789 29.0589 33.6902 28.5327 34.1274 28.9415C34.265 29.0711 34.2043 29.1399 34.1517 29.3059C34.0667 29.5852 34.2003 29.9091 34.4351 29.986C34.2731 29.484 34.5687 29.6257 34.8197 29.48C34.9735 29.3909 35.1435 29.1359 35.1516 28.8525C35.1759 28.0509 34.0748 27.0753 33.087 28.4355C32.8036 28.8282 32.6579 29.1602 32.589 29.735L32.3704 29.7472C32.1963 29.2816 32.6295 28.0914 32.7631 27.6582C33.0627 26.6988 32.3988 25.7272 32.1883 25.7231C31.9939 25.7231 31.3219 26.6907 31.6093 27.6339C31.8199 28.3303 32.087 28.9254 32.0223 29.735H31.7875C31.7267 29.1885 31.5567 28.7918 31.2936 28.4315C30.2936 27.0672 29.1844 28.0752 29.233 28.8849C29.2492 29.1561 29.4273 29.4071 29.5811 29.4881C29.8362 29.6257 30.0993 29.5083 29.9455 29.982C30.1722 29.9172 30.3098 29.5893 30.2248 29.3018C30.1762 29.144 30.1236 29.0873 30.237 28.9577C30.6337 28.5003 31.4879 28.9577 31.6296 29.6379C31.5405 29.6176 31.4758 29.6783 31.4393 29.7512C31.4069 29.816 31.4636 29.9172 31.5 29.9617C31.5931 30.0751 31.7915 30.0832 31.9858 30.0953C31.917 30.2411 31.6741 30.4556 31.3948 30.3423C31.1559 30.2492 31.164 30.0467 31.0628 29.8079C30.8321 30.0063 30.7754 30.407 31.0183 30.6499C31.3381 30.9698 31.5689 30.6945 31.8158 30.5568C31.6701 30.9738 31.5729 31.0952 31.9939 31.326C32.1478 31.411 32.0992 31.4232 32.1923 31.5487C32.2895 31.4394 32.2287 31.411 32.3704 31.3341C32.8846 31.0507 32.6862 30.9252 32.5728 30.5568C32.7834 30.6904 33.0708 30.9374 33.3542 30.6661C33.6254 30.407 33.5525 30.0913 33.3542 29.8119V29.816Z" fill="#D9D9D9"/>
<path fill-rule="evenodd" clip-rule="evenodd" d="M22.3591 61.7696C22.3591 61.7696 22.3672 61.7696 22.3672 61.7777C22.3672 61.7777 22.3591 61.7736 22.3591 61.7696ZM29.2736 57.4379V57.4784C29.2655 58.3933 28.9457 58.5471 28.8849 58.7738C29.1805 58.7981 29.306 59.1989 29.0914 59.3892C28.9092 59.5511 28.5206 59.4863 28.4963 59.1827L28.2494 59.3406C27.6988 59.6766 26.8851 59.709 26.29 59.454C26.209 59.4175 26.0957 59.3406 26.0309 59.3244C26.0268 59.5066 25.8851 59.6564 25.7192 59.6645C25.5451 59.6766 25.3913 59.5309 25.3548 59.3851C25.2293 59.3851 25.1929 59.3851 25.1119 59.3446C25.0998 59.4904 24.9824 59.4742 24.869 59.4459C24.8002 59.5875 24.7678 59.6037 24.6261 59.5268C24.5775 59.7333 24.5006 59.6645 24.3387 59.628C24.3265 59.7981 24.1565 59.713 24.0756 59.6685C24.0594 59.7292 24.0432 59.7454 24.0148 59.79C23.865 59.79 23.8691 59.7819 23.7719 59.7292C23.7476 59.7738 23.7395 59.79 23.7112 59.8304C23.5898 59.8304 23.5614 59.8426 23.5088 59.7697C23.3711 59.9438 23.363 59.875 23.1809 59.8304C23.1282 60.0207 22.9704 59.9033 22.8732 59.8507C22.9096 60.0086 22.8853 60.0855 22.8125 60.1988C22.9704 60.3041 22.8408 60.4175 22.8651 60.5349C22.8773 60.6077 22.9177 60.5956 22.8894 60.7211C22.8732 60.7899 22.8449 60.8263 22.8165 60.8709C22.9663 60.9721 22.857 61.0571 22.8773 61.1583C22.9339 61.4174 22.9299 61.2838 22.8773 61.5024C22.9704 61.5267 22.9906 61.6603 22.9987 61.7493C23.0108 61.9639 22.9987 61.8667 23.0918 62.0044C23.2052 62.1785 23.3064 63.0812 23.2295 63.2391C23.2011 63.2958 23.1525 63.2918 23.108 63.3444C23.0027 63.4739 22.942 63.4618 22.7558 63.4618C22.7032 63.5711 22.7639 63.563 22.6546 63.644C22.5858 63.6925 22.602 63.7452 22.525 63.7816C22.4927 63.7978 22.4198 63.8059 22.3348 63.8099H22.1162C22.0757 63.8099 22.0393 63.8059 22.0109 63.7978C21.8773 63.7694 21.9016 63.7735 21.8247 63.6966C21.764 63.6318 21.7316 63.6561 21.6951 63.563C21.6506 63.4618 21.6749 63.1784 21.6709 63.0327C21.6709 62.7817 21.7073 62.5388 21.8125 62.3404C21.8733 62.2311 21.8773 62.2837 21.8814 62.1744L21.9866 61.7574C21.9785 61.7089 21.8773 61.4417 22.1202 61.4214C22.0797 61.3607 22.015 61.2595 22.019 61.1542C22.019 61.0652 22.0554 61.0692 22.0676 61.0247C22.0757 60.9802 22.0514 60.968 22.0352 60.8952C21.9947 60.7494 22.0838 60.7777 22.0393 60.6037C22.0231 60.5429 22.015 60.5227 22.0393 60.462C22.0635 60.3891 22.0635 60.4175 22.104 60.3608L22.0352 60.2231C22.0109 60.126 22.015 60.1462 22.0433 60.0531C22.0797 59.9195 21.9785 59.9155 21.9219 59.8304C21.849 59.8507 21.8409 59.8912 21.7235 59.8669C21.6628 59.8547 21.6385 59.8264 21.598 59.7697C21.5373 59.8507 21.4077 59.8102 21.3551 59.7292C21.1851 59.8426 21.1932 59.7495 21.0677 59.6685C21.0353 59.7859 20.8531 59.7616 20.8248 59.6483C20.7762 59.6604 20.594 59.7576 20.5373 59.5268C20.4685 59.5714 20.4604 59.624 20.3754 59.5916C20.3147 59.5673 20.2701 59.5309 20.2539 59.4661C20.0394 59.4823 20.0799 59.5106 19.9665 59.3446C19.841 59.4297 19.7722 59.3932 19.7034 59.2637C19.6265 59.2799 19.6467 59.2961 19.5617 59.3042C19.5617 59.628 19.2783 59.7333 19.0637 59.6159C18.9463 59.5511 18.8816 59.4701 18.8694 59.3244C18.165 59.6968 17.3675 59.7454 16.651 59.3163C16.5578 59.2596 16.5012 59.2111 16.4202 59.1584C16.4121 59.4621 16.0154 59.5835 15.813 59.377C15.5943 59.1584 15.7563 58.7941 16.0559 58.79C15.8089 58.4176 15.651 58.114 15.647 57.4986V57.45C15.651 56.9116 15.821 56.6282 16.0963 56.2194C15.9506 56.1505 15.8858 56.1586 15.817 55.9886C15.7036 55.7052 16.0032 55.4259 16.2785 55.5271C16.404 55.5757 16.485 55.6566 16.485 55.8307C16.5781 55.8105 16.6631 55.7255 16.7562 55.6728C17.0639 55.5109 17.3635 55.4218 17.748 55.4218C18.2419 55.4218 18.6953 55.6324 18.9909 55.8307C18.9909 55.4988 19.1569 55.4502 19.4807 55.523C19.4888 55.1951 19.7115 55.0575 19.8815 54.8875L20.8936 53.8592C20.9543 53.8025 20.9624 53.7701 21.015 53.7135C21.0677 53.6568 21.1041 53.6487 21.1527 53.6042L21.2903 53.4179C21.2903 53.4179 21.3106 53.3815 21.3106 53.3774C21.3348 53.3329 21.3308 53.337 21.3551 53.3005C21.2134 53.2074 20.9705 52.9888 20.841 52.8552C20.6021 52.6164 20.3228 52.422 20.0758 52.1913C20.003 52.1225 19.8613 52.0577 19.8694 51.9362C19.8815 51.7622 20.4118 51.1509 20.6183 51.3452C20.6993 51.4221 20.7762 51.495 20.8612 51.5719L21.1162 51.7865C21.1648 51.831 21.1851 51.8634 21.2417 51.9039L21.7518 52.3532C21.8125 52.3978 21.8206 52.4059 21.8692 52.4585C22.0433 52.6326 21.9785 52.503 22.2012 52.5516C22.2983 52.5718 22.4927 52.5759 22.5979 52.6245C22.6748 52.5071 22.8489 52.3775 22.9582 52.2723C23.0027 52.2277 23.0149 52.2277 23.0594 52.1913L23.2537 52.0172C23.4035 51.8755 23.5776 51.7541 23.7233 51.6083C23.776 51.5557 24.0594 51.2885 24.1039 51.2764C24.2456 51.2399 24.7719 51.7217 24.7678 51.8877C24.7678 51.9686 24.4237 52.248 24.3468 52.3127L23.6788 52.9281C23.7436 52.9443 23.776 52.9888 23.7922 53.0576C23.8691 53.3572 23.6545 53.3532 23.5776 53.4989C23.6586 53.5191 23.614 53.5191 23.6505 53.5475C23.7193 53.6001 23.8124 53.6082 23.8853 53.677L24.8447 54.6769C25.1403 54.9725 25.4196 55.1466 25.452 55.519C25.5329 55.4785 25.7354 55.4542 25.8285 55.5109C25.9175 55.5635 25.9418 55.6931 25.9418 55.8267L26.205 55.6647C26.2981 55.6202 26.3831 55.5757 26.4883 55.5392C26.6908 55.4664 26.9458 55.4137 27.1847 55.4178C27.4073 55.4178 27.719 55.4826 27.8891 55.5514C28.0834 55.6243 28.2534 55.7376 28.4275 55.8267C28.4518 55.5433 28.8283 55.4016 29.0347 55.6081C29.1197 55.6931 29.1724 55.8388 29.1116 55.9846C29.0428 56.1586 28.9781 56.1465 28.8323 56.2153C29.0874 56.5918 29.2736 56.9319 29.2817 57.4258L29.2736 57.4379ZM22.4805 60.0976C22.4805 60.3122 22.4765 60.2231 22.5412 60.3203C22.436 60.3972 22.4927 60.5308 22.4967 60.6482L22.4805 60.8506C22.4805 61.0004 22.5331 60.798 22.4846 61.0814C22.4765 61.134 22.4846 61.1461 22.4846 61.1907C22.4846 61.3567 22.3672 61.2312 22.521 61.4619C22.4805 61.5267 22.4603 61.5064 22.44 61.5834L22.3591 61.4822C22.4238 61.389 22.4198 61.466 22.4198 61.2797C22.4198 61.138 22.3388 61.219 22.3955 61.0733C22.4562 60.9194 22.3996 60.9275 22.3915 60.8263C22.3834 60.7616 22.4198 60.7454 22.4198 60.6684C22.4198 60.547 22.3793 60.547 22.3591 60.466C22.4238 60.3729 22.4198 60.4539 22.4198 60.2636C22.4198 60.1746 22.3915 60.211 22.3955 60.1462C22.3955 60.0976 22.4198 60.1017 22.4198 60.0005H22.5008C22.4886 60.045 22.4805 60.0491 22.4805 60.1017V60.0976ZM19.424 58.7738V58.7819C19.424 58.7819 19.424 58.7819 19.424 58.7738ZM26.8446 57.0007C26.8446 57.1383 26.9741 57.3084 27.1523 57.3084C27.4761 57.3084 27.5773 56.9197 27.3344 56.7578C27.4154 56.608 27.464 56.442 27.6421 56.3327C27.9214 56.1667 28.4477 56.2882 28.4842 56.8266C28.5044 57.0897 28.302 57.3407 28.0024 57.4096C27.9822 57.3934 27.7757 57.0614 27.4883 57.3205C27.3182 57.4743 27.3668 57.8346 27.719 57.8346C27.9255 57.8346 27.9133 57.7375 28.0065 57.6727C28.7311 57.8427 28.5327 58.7941 28.0065 58.7941H27.8648C27.6381 58.7941 27.3547 58.5269 27.3547 58.3042C27.3547 58.2395 27.4761 58.199 27.4761 58.0411C27.4761 57.6039 26.8446 57.6322 26.8446 58.0411C26.8446 58.2192 26.9822 58.2152 26.9741 58.3326C26.9458 58.8103 26.375 58.9034 26.1523 58.7941C26.1928 58.6807 26.4074 58.7131 26.1564 58.4419C26.0309 58.3042 26.1361 58.284 25.8649 58.1423C25.8851 57.8913 26.1361 57.7456 26.3547 57.6929C26.541 57.9723 26.9256 57.8022 26.9256 57.5715C26.9256 57.1424 26.5126 57.1626 26.375 57.3691C26.2414 57.2962 26.1604 57.3165 26.0228 57.2112C25.7799 57.0169 25.7799 56.5797 26.0228 56.3894C26.4155 56.0777 26.8648 56.2194 26.9863 56.7416C26.9296 56.8226 26.8446 56.8671 26.8446 57.0047V57.0007ZM17.4242 56.9804C17.4242 57.4905 18.1893 57.3488 18.0274 56.8873C17.999 56.8104 17.9545 56.7983 17.914 56.7375C17.9424 56.608 18.0274 56.4663 18.1043 56.3772C18.4322 55.9926 19.0556 56.3691 19.0556 56.7578C19.0556 57.2274 18.752 57.2598 18.5456 57.3691C18.5132 57.3448 18.5213 57.3448 18.5051 57.3286L18.4484 57.28C18.2338 57.1302 17.9748 57.3164 17.9748 57.4905C17.9748 57.9156 18.3998 57.9156 18.5456 57.6929C18.6873 57.7618 18.9666 57.8022 19.0354 58.1018C18.9382 58.1099 18.8492 58.203 18.8249 58.2597C18.7966 58.3366 18.8249 58.3123 18.8127 58.365C18.8087 58.4054 18.8249 58.3569 18.8006 58.4014C18.7804 58.4419 18.6549 58.5836 18.7439 58.7738C18.6225 58.8022 18.5941 58.8346 18.4363 58.8346C18.3108 58.8346 18.1286 58.7293 18.0598 58.6605C17.9747 58.5714 17.9464 58.3973 17.8857 58.284C18.2298 58.1909 17.9626 57.4541 17.5294 57.8063C17.2582 58.0249 17.5375 58.2718 17.5578 58.3042C17.5051 58.4014 17.4525 58.5917 17.3756 58.6524C16.8534 59.0775 16.068 58.5026 16.5497 57.867C16.6752 57.701 16.8048 57.7051 16.906 57.6525C16.987 57.9561 17.497 57.867 17.497 57.5513C17.497 57.3974 17.3675 57.2233 17.2096 57.2233C16.9951 57.2233 16.9019 57.4055 16.8817 57.4055C16.6833 57.4055 16.3595 57.1545 16.404 56.8266C16.4607 56.3894 16.8696 56.0129 17.3473 56.4137C17.4768 56.523 17.4728 56.608 17.5578 56.7335C17.5092 56.8064 17.4161 56.859 17.4161 56.9764L17.4242 56.9804ZM21.8692 55.6526C21.9502 55.6081 21.9461 55.5919 22.0109 55.5514C22.0635 55.77 22.0838 55.685 22.0919 55.7943L22.0109 55.8186C22.0109 55.8793 22.0109 55.9117 22.019 55.9724C22.0352 56.0979 21.9623 56.1465 22.0716 56.3489C21.9988 56.4582 21.9907 56.3934 22.0352 56.612C22.0676 56.7537 22.0109 56.6525 22.0109 56.778C22.0109 56.8873 22.0716 56.9561 22.0635 57.0169C22.0595 57.0614 22.0473 57.0371 22.0271 57.1221C22.0109 57.1829 22.0109 57.1869 22.0271 57.2476C22.0797 57.4339 22.0635 57.2841 22.0231 57.4662C22.0028 57.5593 22.0393 57.6201 22.0878 57.697C21.9461 57.7334 22.0473 57.9237 22.0393 58.0168C22.0231 58.1585 21.9623 58.114 22.0878 58.3488C22.019 58.4459 21.9542 58.3933 22.0473 58.6362C22.0838 58.7293 22.0635 58.6767 22.0352 58.7657C21.9826 58.9317 22.0473 58.9763 22.0635 59.041C21.9623 59.1949 22.0069 59.1382 22.0352 59.3204C22.0595 59.4863 22.0352 59.3204 21.8409 59.4499C21.7437 59.2637 21.6668 59.3689 21.5777 59.4297C21.4725 59.2718 21.4927 59.4013 21.2701 59.2677C21.1729 59.2111 21.181 59.2394 21.096 59.2515C20.9826 59.2677 21.0839 59.203 20.8855 59.203C20.7802 59.203 20.8571 59.2273 20.7964 59.203C20.7762 59.1949 20.7883 59.1179 20.5211 59.1787C20.4483 59.0734 20.424 59.0775 20.258 59.0775C20.2175 58.9277 20.0961 58.9398 19.9949 58.9965C19.9098 58.871 19.9179 58.8953 19.7074 58.8953C19.6791 58.7738 19.6062 58.7738 19.4645 58.7738C19.7196 58.3973 19.6062 58.5188 19.7277 58.2638C19.8491 58.2921 19.8694 58.3204 19.9503 58.1625C20.1406 58.2516 20.1568 58.0532 20.2378 58.0047C20.3106 57.9601 20.2904 58.0128 20.343 57.9277C20.3633 57.8954 20.3754 57.8427 20.3956 57.8225C20.4564 57.7658 20.6142 57.8468 20.6183 57.5715C20.6993 57.5715 20.7074 57.5634 20.7478 57.5148C20.7762 57.4743 20.8005 57.4258 20.8045 57.365C20.9867 57.3488 20.9786 57.1343 21.0231 57.0735C21.0596 57.025 21.0758 57.0533 21.1243 56.9926C21.1567 56.9481 21.1567 56.9197 21.1689 56.8752C21.2013 56.7659 21.1648 56.8266 21.2498 56.774C21.351 56.7133 21.3551 56.6849 21.3551 56.5311C21.5818 56.5837 21.5251 56.4137 21.5616 56.2882C21.5858 56.2072 21.6182 56.2436 21.6668 56.1505C21.7559 55.9886 21.6425 56.0615 21.8044 55.9238C21.8935 55.8469 21.8652 55.7417 21.8611 55.6566L21.8692 55.6526ZM22.0109 55.5109V55.519C22.0109 55.519 22.0109 55.519 22.0109 55.5109ZM22.0312 55.3692C22.0554 55.4056 22.0554 55.3247 22.0473 55.4097C22.0473 55.4542 22.0473 55.4299 22.0312 55.4502V55.3692ZM23.2578 55.2073C23.3266 55.2235 23.9824 55.8469 24.112 55.9441C24.278 56.0696 24.5411 56.2639 24.7678 56.2679C24.7314 56.3408 24.6787 56.5958 24.9095 56.6363C25.0957 56.6687 25.0755 56.6566 25.2577 56.6323C25.2172 56.8185 25.035 57.0088 25.035 57.5755C25.035 57.6767 25.0552 57.6686 25.0552 57.7577C24.9257 57.6606 25.1281 57.7415 24.8771 57.6079C24.8002 57.5674 24.8366 57.5432 24.78 57.5027C24.6585 57.4136 24.7233 57.5512 24.6342 57.3853C24.5937 57.3084 24.5694 57.2922 24.4642 57.2881C24.4642 57.2031 24.4642 57.1788 24.4197 57.1302C24.3792 57.0857 24.3346 57.0695 24.3063 57.0371C24.2375 56.9521 24.3184 56.9076 24.116 56.7983C24.116 56.4946 23.9743 56.5999 23.9217 56.3813C23.8974 56.2801 23.8772 56.2396 23.7881 56.2153C23.7881 56.2153 23.78 56.2153 23.776 56.2153H23.7557C23.7072 56.2032 23.7679 56.1303 23.6464 56.0048C23.614 55.9724 23.6221 55.9927 23.6059 55.9441C23.5655 55.8307 23.5898 55.6931 23.44 55.6809C23.44 55.4218 23.3347 55.4866 23.2942 55.3368C23.278 55.2801 23.2821 55.264 23.2578 55.2113V55.2073ZM21.687 55.4704C21.5211 55.4826 21.6061 55.6121 21.4887 55.7012C21.4199 55.7538 21.428 55.7174 21.3875 55.8226C21.3632 55.8914 21.3591 55.9319 21.3591 56.021C21.2053 56.102 21.2174 56.1384 21.2174 56.3084C21.0798 56.3084 20.9948 56.4137 20.9948 56.5513C20.9017 56.5513 20.8855 56.5635 20.8612 56.6404C20.841 56.7011 20.8329 56.7861 20.8329 56.8549C20.6345 56.859 20.764 56.9481 20.5778 57.0695C20.5009 57.1181 20.513 57.1262 20.4887 57.2071C20.4483 57.3529 20.4685 57.2436 20.343 57.3043C20.3309 57.3286 20.3066 57.4096 20.2985 57.4258C20.2459 57.5108 20.2904 57.4419 20.1892 57.4784C20.1042 57.5108 20.0758 57.5917 20.0556 57.6727C19.9422 57.6727 19.9382 57.6484 19.9139 57.7334H19.8329C19.8329 57.5229 19.8775 57.4986 19.8167 57.1383C19.7641 56.8185 19.7115 56.8023 19.671 56.6323C20.0799 56.6323 20.2256 56.6363 20.1406 56.2639C20.3106 56.2639 20.5373 56.1101 20.6507 56.0372C20.6912 56.0129 20.7114 55.9926 20.7559 55.9603C20.7964 55.9319 20.8248 55.9198 20.8652 55.8874L21.8328 55.0211V55.1223C21.679 55.1344 21.6911 55.3044 21.6911 55.4704H21.687ZM22.8489 54.8591L22.8773 54.8915C22.9258 54.9401 22.9137 54.9198 22.9663 54.9441C22.9704 54.9441 22.9744 54.9441 22.9825 54.9482C22.9866 54.9482 22.9906 54.9522 22.9947 54.9563C23.0473 54.9846 23.104 55.0332 23.1363 55.0818C23.0351 55.1304 22.9339 55.0939 22.9339 55.3692C22.9339 55.5716 23.0351 55.523 23.0797 55.6526C23.1242 55.7943 23.0797 55.9036 23.2416 55.94C23.2416 56.191 23.3347 56.1181 23.3833 56.2477C23.4359 56.3934 23.3752 56.4865 23.5898 56.4906C23.5898 56.5918 23.6181 56.6809 23.691 56.7375C23.7517 56.7861 23.7355 56.7011 23.776 56.8752C23.7881 56.9157 23.776 56.9076 23.8003 56.9521C23.8327 57.0047 23.8731 57.025 23.9379 57.0412C23.9379 57.1869 23.9905 57.3164 24.1201 57.3286C24.1241 57.5715 24.2415 57.4662 24.3225 57.6363C24.3427 57.6808 24.3751 57.7334 24.4318 57.7699C24.533 57.8346 24.5128 57.7658 24.5735 57.8913C24.6545 58.0532 24.6464 57.9035 24.7597 58.0735C24.8366 58.1909 24.8731 58.1544 24.9297 58.1666C25.0431 58.199 25.039 58.3407 25.1969 58.2638C25.2496 58.4824 25.5127 58.7819 25.4398 58.8548H25.4317C25.4196 58.8912 25.3305 58.7374 25.2172 58.956C25.0876 58.9439 25.0188 58.9115 24.954 59.037C24.8488 59.0127 24.7273 58.9763 24.6909 59.1179C24.4763 59.0694 24.5047 59.1018 24.448 59.2192C24.3306 59.1908 24.2537 59.1665 24.2253 59.2799C24.1444 59.2596 24.0027 59.2191 23.9622 59.3811C23.865 59.3285 23.7233 59.2515 23.6748 59.4216C23.5695 59.3487 23.4076 59.2596 23.3873 59.4823C23.2942 59.4216 23.1242 59.3366 23.0797 59.5025C22.9785 59.4782 22.9987 59.4459 22.8773 59.4418C22.9339 59.1949 22.8368 59.2839 22.8489 59.1827C22.857 59.1098 22.9299 59.0896 22.8732 58.9358C22.8084 58.7698 22.9015 58.8427 22.9015 58.6848C22.9015 58.5998 22.8692 58.5552 22.8206 58.5228C22.8692 58.45 22.9056 58.3569 22.8853 58.2718C22.8692 58.199 22.8408 58.1868 22.8489 58.1383C22.857 58.0573 22.9339 58.0654 22.8692 57.8792C22.8084 57.7091 22.9987 57.7658 22.8206 57.5027C22.8449 57.4743 22.8206 57.5148 22.8489 57.4662C22.9582 57.2922 22.8732 57.195 22.8732 57.1545C22.8692 57.0128 22.9825 57.0695 22.8206 56.8307C22.8975 56.774 22.9177 56.6768 22.8813 56.5837C22.857 56.5189 22.853 56.5513 22.853 56.5068C22.853 56.4663 22.8975 56.4177 22.8975 56.3206C22.8975 56.2072 22.8408 56.2355 22.8449 56.1586C22.8449 56.1141 22.8975 56.0534 22.8975 55.9724C22.8975 55.8631 22.8773 55.9522 22.8692 55.8672C22.8651 55.8145 22.8975 55.7943 22.8975 55.7498C22.8975 55.6728 22.853 55.6283 22.8489 55.5797C22.8408 55.519 22.8975 55.4664 22.8975 55.4016C22.8975 55.3611 22.857 55.3004 22.8489 55.264C22.8287 55.1749 22.8773 55.2518 22.8773 55.0332C22.8773 54.9158 22.8206 54.9846 22.857 54.851L22.8489 54.8591ZM22.3996 54.6122H22.4805C22.5048 54.8996 22.4805 54.6931 22.4805 54.9199C22.4805 55.0251 22.5008 54.9401 22.5048 55.0251C22.5048 55.0899 22.4805 55.0575 22.4805 55.1425V55.2842C22.4805 55.3733 22.525 55.2842 22.5089 55.3935C22.5008 55.4502 22.4279 55.6081 22.5412 55.6931C22.44 55.8429 22.4886 55.855 22.4927 56.0007C22.4927 56.102 22.4522 56.1262 22.5048 56.2436C22.525 56.2882 22.5291 56.2517 22.5291 56.3003C22.5291 56.3853 22.4846 56.2801 22.4846 56.5473C22.4846 56.6404 22.521 56.5392 22.5129 56.6404C22.5048 56.7456 22.4846 56.5877 22.4846 56.8509C22.4846 56.8995 22.517 56.9116 22.5453 56.9521C22.4198 57.0978 22.517 57.28 22.5129 57.3124C22.5048 57.4177 22.4846 57.2517 22.4846 57.5432C22.4846 57.6241 22.521 57.5513 22.517 57.6403C22.517 57.7172 22.4846 57.6322 22.4846 57.8468C22.4846 57.952 22.5048 57.867 22.5089 57.952C22.5089 57.9642 22.4522 58.1423 22.4967 58.2192C22.525 58.2597 22.4967 58.2395 22.5412 58.2557C22.5089 58.3731 22.4805 58.2961 22.4805 58.5188C22.4805 58.5674 22.5129 58.5795 22.5412 58.62C22.4643 58.7334 22.4805 58.7091 22.4805 58.8831C22.4805 58.9317 22.5129 58.9439 22.5412 58.9843C22.4117 59.0815 22.525 59.2637 22.5008 59.3487C22.4765 59.4378 22.4805 59.4378 22.4805 59.5552C22.3307 59.4823 22.3915 59.5592 22.4198 59.3932C22.4562 59.1787 22.3348 59.2353 22.3996 59.0856C22.4238 59.0248 22.4238 59.1301 22.4238 58.9439C22.4238 58.8791 22.3874 58.8265 22.3631 58.7819C22.4238 58.6929 22.4238 58.7617 22.4238 58.5998C22.4238 58.535 22.3874 58.4824 22.3631 58.4378C22.5089 58.2233 22.4036 58.2192 22.3996 58.1302C22.3996 58.0856 22.4846 57.9682 22.3631 57.7861C22.4846 57.6039 22.3955 57.5351 22.3915 57.4581C22.3874 57.361 22.4886 57.3529 22.3631 57.114C22.4279 57.0209 22.4238 57.1019 22.4238 56.9116C22.4238 56.8064 22.4036 56.8873 22.3996 56.8064C22.3996 56.7578 22.4157 56.7659 22.436 56.6971C22.4562 56.6161 22.3996 56.527 22.3672 56.4663C22.4765 56.3044 22.4198 56.3691 22.4198 56.1586L22.4279 56.0574C22.4279 55.9562 22.3915 55.94 22.3834 55.8833C22.3712 55.7983 22.4279 55.8833 22.4279 55.6931C22.4279 55.5878 22.4117 55.6364 22.4036 55.5595C22.3955 55.4866 22.4279 55.5392 22.4279 55.3449C22.4279 55.2032 22.3429 55.2842 22.4036 55.1425C22.4279 55.0818 22.4279 55.187 22.4279 55.0008C22.4279 54.9198 22.3996 54.936 22.3996 54.8794C22.3996 54.8591 22.4643 54.7336 22.4076 54.6162L22.3996 54.6122Z" fill="#D9D9D9"/>
<path fill-rule="evenodd" clip-rule="evenodd" d="M20.4807 18.4157C21.8248 18.3672 23.2012 18.3874 24.5695 18.4522C26.0957 18.5291 27.6098 18.6667 29.0631 18.8449C29.1401 18.853 29.2494 18.8692 29.3627 18.8894C29.6137 18.9299 29.9173 18.9744 30.0347 18.9704C30.0995 18.9704 30.1643 18.9461 30.2169 18.9096C30.2533 18.8853 30.2817 18.857 30.3019 18.8206C30.3181 18.7882 30.3222 18.7598 30.3222 18.7356C30.3222 18.7072 30.31 18.6789 30.2898 18.6465C30.1683 18.4643 29.9254 18.436 29.6218 18.3995H29.5935C28.7595 18.2943 27.8972 18.2133 27.039 18.1486C26.1524 18.0797 25.2699 18.0312 24.4116 18.0028C22.9664 17.9502 21.5211 17.9542 20.084 17.9988C18.6428 18.0433 17.2097 18.1364 15.7806 18.266L15.647 18.2781C15.3799 18.2983 14.886 18.3429 14.809 18.3712C14.7929 18.3793 14.7726 18.3874 14.7564 18.3995C14.6957 18.44 14.639 18.5048 14.6026 18.5817C14.5702 18.6465 14.5621 18.7194 14.5864 18.7882C14.5945 18.8044 14.6026 18.8246 14.6147 18.8408C14.6633 18.9096 14.7564 18.938 14.8698 18.9461C15.0115 18.9542 15.1855 18.9299 15.3394 18.9056C16.2219 18.7639 17.0478 18.6627 17.8858 18.5817C18.7238 18.5048 19.5658 18.4562 20.4686 18.4198L20.4807 18.4157Z" fill="#D9D9D9"/>
<path fill-rule="evenodd" clip-rule="evenodd" d="M21.4321 4.931V5.51801L22.1446 5.43299V5.39656C22.1163 5.34393 22.1001 5.28725 22.1001 5.22248C22.1001 5.13747 22.1284 5.06055 22.1811 4.99983L21.4321 4.92696V4.931ZM22.7438 4.16992H22.1851L22.2499 4.91886H22.2863C22.3349 4.89457 22.3916 4.87838 22.4523 4.87838C22.5211 4.87838 22.5818 4.89862 22.6345 4.931L22.7438 4.16992ZM22.1811 6.27504H22.7478L22.6588 5.52206H22.6264C22.5738 5.55444 22.513 5.57064 22.4523 5.57064C22.4078 5.57064 22.3632 5.56254 22.3228 5.54635H22.258L22.1851 6.27504H22.1811ZM23.4603 5.51801L22.7397 5.42085C22.7762 5.36417 22.8005 5.29535 22.8005 5.22653C22.8005 5.14556 22.7721 5.06865 22.7235 5.00792L23.4684 4.93505L23.4563 5.52206L23.4603 5.51801Z" fill="#D9D9D9"/>
<g opacity="0.7">
<path d="M76.6791 19.5009C76.4605 19.6669 76.2257 19.8086 75.9747 19.93C75.7237 20.0475 75.4525 20.1406 75.165 20.2094C74.8776 20.2782 74.5537 20.3106 74.1975 20.3106C73.6348 20.3106 73.1166 20.2053 72.6429 19.9989C72.1693 19.7924 71.7564 19.509 71.4082 19.1487C71.0601 18.7884 70.7888 18.3634 70.5904 17.8776C70.3921 17.3877 70.2949 16.8614 70.2949 16.2987C70.2949 15.736 70.3921 15.2219 70.5904 14.732C70.7848 14.2422 71.0601 13.8131 71.4082 13.4487C71.7564 13.0803 72.1733 12.7929 72.6551 12.5824C73.1368 12.3719 73.6631 12.2666 74.2339 12.2666C74.5902 12.2666 74.91 12.2949 75.1974 12.3557C75.4849 12.4164 75.748 12.4974 75.9909 12.6067C76.2338 12.716 76.4605 12.8455 76.667 12.9953C76.8734 13.1491 77.0758 13.3151 77.2661 13.5013L76.667 14.145C76.335 13.8333 75.9747 13.5783 75.5942 13.3799C75.2136 13.1815 74.7562 13.0803 74.2218 13.0803C73.7927 13.0803 73.3959 13.1613 73.0275 13.3232C72.6591 13.4851 72.3434 13.7118 72.0721 13.9993C71.8009 14.2867 71.5904 14.6268 71.4406 15.0154C71.2868 15.404 71.2139 15.8251 71.2139 16.2785C71.2139 16.7319 71.2908 17.1529 71.4406 17.5456C71.5904 17.9383 71.8049 18.2783 72.0721 18.5698C72.3393 18.8613 72.6632 19.088 73.0275 19.254C73.3919 19.42 73.7927 19.505 74.2218 19.505C74.7562 19.505 75.2136 19.4078 75.5982 19.2095C75.9828 19.0111 76.3633 18.7358 76.7317 18.3795L77.3106 18.9463C77.1123 19.1528 76.9018 19.339 76.6832 19.509L76.6791 19.5009Z" fill="#D9D9D9"/>
<path d="M86.1319 13.1935H81.3873V15.8492H85.6339V16.6508H81.3873V19.3753H86.1886V20.1768H80.5088V12.396H86.1319V13.1976V13.1935Z" fill="#D9D9D9"/>
<path d="M95.3459 12.3921H96.2001V20.1729H95.4997L90.4758 13.7928V20.1729H89.6216V12.3921H90.4434L95.3459 18.6265V12.3921Z" fill="#D9D9D9"/>
<path d="M103.005 20.1728H102.127V13.2057H99.5156V12.396H105.616V13.2057H103.005V20.1728Z" fill="#D9D9D9"/>
<path d="M114.296 20.1729L112.041 17.1489H109.818V20.1729H108.94V12.3921H112.284C112.713 12.3921 113.102 12.4488 113.446 12.5581C113.79 12.6674 114.085 12.8253 114.328 13.0317C114.571 13.2341 114.761 13.4811 114.895 13.7645C115.029 14.0519 115.093 14.3677 115.093 14.7158C115.093 15.0437 115.041 15.3312 114.94 15.5903C114.834 15.8453 114.689 16.068 114.502 16.2582C114.312 16.4485 114.089 16.6064 113.83 16.7319C113.571 16.8574 113.288 16.9464 112.984 16.9991L115.373 20.177H114.296V20.1729ZM113.697 13.6106C113.349 13.3394 112.859 13.2018 112.227 13.2018H109.818V16.3716H112.215C112.506 16.3716 112.774 16.3351 113.017 16.2582C113.264 16.1854 113.474 16.076 113.652 15.9384C113.83 15.8008 113.968 15.6307 114.069 15.4324C114.17 15.23 114.219 15.0032 114.219 14.7523C114.219 14.2624 114.045 13.8819 113.697 13.6106Z" fill="#D9D9D9"/>
<path d="M125.947 17.8126C125.753 18.2984 125.486 18.7275 125.137 19.0959C124.789 19.4643 124.372 19.7598 123.882 19.9784C123.393 20.197 122.854 20.3063 122.259 20.3063C121.664 20.3063 121.126 20.197 120.64 19.9825C120.154 19.7679 119.737 19.4764 119.389 19.108C119.041 18.7396 118.773 18.3146 118.583 17.8288C118.393 17.343 118.3 16.8288 118.3 16.2904C118.3 15.752 118.397 15.2379 118.587 14.7521C118.782 14.2663 119.049 13.8371 119.397 13.4687C119.745 13.1003 120.162 12.8048 120.652 12.5862C121.142 12.3676 121.68 12.2583 122.275 12.2583C122.87 12.2583 123.409 12.3676 123.895 12.5822C124.38 12.7967 124.797 13.0882 125.145 13.4566C125.494 13.825 125.761 14.2501 125.951 14.7359C126.141 15.2217 126.234 15.7358 126.234 16.2742C126.234 16.8126 126.137 17.3268 125.947 17.8126ZM125.097 15.0395C124.943 14.6468 124.733 14.3067 124.457 14.0153C124.182 13.7278 123.858 13.4971 123.486 13.3271C123.113 13.157 122.7 13.072 122.259 13.072C121.818 13.072 121.405 13.157 121.032 13.323C120.66 13.489 120.336 13.7157 120.069 14.0072C119.802 14.2986 119.591 14.6347 119.441 15.0233C119.288 15.4119 119.215 15.8289 119.215 16.2742C119.215 16.7195 119.292 17.1365 119.441 17.5292C119.591 17.9219 119.806 18.2619 120.081 18.5534C120.356 18.8408 120.68 19.0716 121.053 19.2416C121.425 19.4117 121.838 19.4967 122.279 19.4967C122.721 19.4967 123.133 19.4117 123.506 19.2457C123.878 19.0797 124.202 18.853 124.465 18.5615C124.733 18.2741 124.943 17.934 125.093 17.5454C125.243 17.1568 125.32 16.7398 125.32 16.2945C125.32 15.8491 125.243 15.4322 125.093 15.0395H125.097Z" fill="#D9D9D9"/>
</g>
<path d="M86.824 39.3008C86.3422 40.4424 85.6581 41.4342 84.7755 42.2722C83.893 43.1102 82.8404 43.7701 81.6178 44.2519C80.3953 44.7336 79.0553 44.9765 77.5898 44.9765H70.2866V26.249H77.5898C79.0512 26.249 80.3953 26.4838 81.6178 26.9575C82.8404 27.4311 83.893 28.087 84.7755 28.925C85.6581 29.763 86.3422 30.7507 86.824 31.8802C87.3057 33.0137 87.5486 34.2404 87.5486 35.5601V35.6128C87.5486 36.9325 87.3098 38.1632 86.824 39.3048V39.3008ZM83.2412 35.6087C83.2412 34.7869 83.1036 34.0299 82.8283 33.3336C82.553 32.6373 82.1684 32.0422 81.6786 31.5402C81.1887 31.0422 80.5936 30.6536 79.8973 30.3743C79.201 30.099 78.4359 29.9613 77.5979 29.9613H74.4118V41.2521H77.5979C78.4359 41.2521 79.201 41.1185 79.8973 40.8513C80.5936 40.5841 81.1847 40.1995 81.6786 39.7016C82.1684 39.2036 82.553 38.6126 82.8283 37.9365C83.1036 37.2604 83.2412 36.4993 83.2412 35.6613V35.6087Z" fill="#D9D9D9"/>
<path d="M112.219 39.3697C111.721 40.5397 111.029 41.5639 110.146 42.4464C109.264 43.329 108.211 44.0253 106.989 44.5354C105.766 45.0455 104.434 45.2964 102.989 45.2964C101.544 45.2964 100.216 45.0414 99.0015 44.5354C97.787 44.0253 96.7426 43.3411 95.856 42.4748C94.9734 41.6084 94.2852 40.5923 93.7954 39.4264C93.3055 38.2564 93.0586 37.0055 93.0586 35.6655V35.6129C93.0586 34.277 93.3096 33.022 93.8075 31.852C94.3055 30.6861 94.9977 29.6578 95.8803 28.7753C96.7628 27.8928 97.8154 27.1965 99.0379 26.6864C100.261 26.1803 101.592 25.9253 103.038 25.9253C104.483 25.9253 105.811 26.1803 107.025 26.6864C108.24 27.1965 109.284 27.8806 110.171 28.747C111.053 29.6133 111.742 30.6294 112.231 31.7953C112.721 32.9653 112.968 34.2162 112.968 35.5562V35.6088C112.968 36.9448 112.717 38.1998 112.219 39.3697ZM108.661 35.6088C108.661 34.8073 108.523 34.0462 108.248 33.3337C107.973 32.6212 107.58 31.9978 107.07 31.4593C106.56 30.925 105.961 30.4999 105.264 30.1882C104.568 29.8764 103.811 29.7186 102.989 29.7186C102.167 29.7186 101.386 29.8724 100.702 30.172C100.014 30.4756 99.4266 30.8966 98.9367 31.431C98.4469 31.9654 98.0623 32.5848 97.787 33.2892C97.5117 33.9936 97.3741 34.7466 97.3741 35.5481V35.6008C97.3741 36.4023 97.5117 37.1634 97.787 37.8759C98.0623 38.5884 98.455 39.2118 98.9651 39.7503C99.4752 40.2846 100.07 40.7097 100.758 41.0214C101.447 41.3332 102.208 41.491 103.046 41.491C103.884 41.491 104.625 41.3413 105.321 41.0376C106.017 40.734 106.608 40.317 107.102 39.7786C107.592 39.2442 107.977 38.6248 108.252 37.9204C108.527 37.216 108.665 36.463 108.665 35.6615V35.6088H108.661Z" fill="#D9D9D9"/>
<path d="M133.971 44.9724V32.7466L128.7 40.746H128.594L123.376 32.8275V44.9765H119.308V26.249H123.749L128.671 34.1675L133.594 26.249H138.035V44.9765H133.967L133.971 44.9724Z" fill="#D9D9D9"/>
<path d="M85.6908 66.1369C85.3629 66.7806 84.8892 67.315 84.2739 67.7401C83.6585 68.1692 82.9217 68.489 82.0554 68.7036C81.1931 68.9181 80.2337 69.0234 79.1852 69.0234H70.291V50.2959H78.9706C80.8935 50.2959 82.4036 50.7331 83.4966 51.6076C84.5896 52.482 85.1402 53.66 85.1402 55.1377V55.1903C85.1402 55.7247 85.0754 56.1983 84.9418 56.6072C84.8083 57.0161 84.6301 57.3885 84.4115 57.7165C84.1889 58.0484 83.9338 58.3358 83.6423 58.5868C83.3509 58.8378 83.0351 59.0524 82.6991 59.2305C83.78 59.6394 84.6342 60.1981 85.2576 60.9025C85.877 61.6069 86.1887 62.5825 86.1887 63.8334V63.8861C86.1887 64.7403 86.0227 65.4892 85.6948 66.1329L85.6908 66.1369ZM81.0757 55.838C81.0757 55.2146 80.845 54.7369 80.3794 54.4049C79.9138 54.077 79.2459 53.911 78.3714 53.911H74.3029V57.8703H78.1042C79.0151 57.8703 79.7357 57.7164 80.2701 57.4007C80.8045 57.089 81.0717 56.5829 81.0717 55.8907V55.838H81.0757ZM82.1161 63.3274C82.1161 62.704 81.8773 62.2101 81.3955 61.8417C80.9138 61.4773 80.1365 61.2952 79.0677 61.2952H74.3069V65.4163H79.2013C80.1122 65.4163 80.8247 65.2503 81.3429 64.9224C81.8611 64.5945 82.1202 64.0804 82.1202 63.3841V63.3315L82.1161 63.3274Z" fill="#D9D9D9"/>
<path d="M110.612 63.4205C110.114 64.5905 109.422 65.6147 108.54 66.4972C107.657 67.3797 106.604 68.0761 105.382 68.5861C104.159 69.0962 102.827 69.3472 101.382 69.3472C99.9369 69.3472 98.6091 69.0922 97.3946 68.5861C96.1801 68.0761 95.1356 67.3919 94.249 66.5256C93.3665 65.6592 92.6783 64.6431 92.1885 63.4772C91.6986 62.3072 91.4517 61.0563 91.4517 59.7163V59.6637C91.4517 58.3277 91.7027 57.0728 92.2006 55.9028C92.6985 54.7369 93.3908 53.7086 94.2733 52.8261C95.1559 51.9436 96.2084 51.2472 97.431 50.7372C98.6536 50.2311 99.9855 49.9761 101.431 49.9761C102.876 49.9761 104.204 50.2311 105.418 50.7372C106.633 51.2472 107.677 51.9314 108.564 52.7977C109.446 53.6641 110.135 54.6802 110.624 55.8461C111.114 57.0161 111.361 58.267 111.361 59.607V59.6596C111.361 60.9956 111.11 62.2505 110.612 63.4205ZM107.054 59.6637C107.054 58.8621 106.916 58.101 106.641 57.3885C106.366 56.676 105.973 56.0526 105.463 55.5142C104.953 54.9798 104.354 54.5547 103.657 54.243C102.961 53.9313 102.204 53.7734 101.382 53.7734C100.56 53.7734 99.779 53.9272 99.0949 54.2268C98.4067 54.5304 97.8197 54.9514 97.3298 55.4858C96.84 56.0202 96.4554 56.6396 96.1801 57.344C95.9048 58.0484 95.7672 58.8014 95.7672 59.603V59.6556C95.7672 60.4571 95.9048 61.2182 96.1801 61.9307C96.4554 62.6432 96.8481 63.2667 97.3581 63.8051C97.8682 64.3395 98.4633 64.7645 99.1515 65.0763C99.8398 65.388 100.601 65.5459 101.439 65.5459C102.277 65.5459 103.018 65.3961 103.714 65.0925C104.41 64.7888 105.001 64.3719 105.495 63.8334C105.985 63.2991 106.37 62.6797 106.645 61.9753C106.92 61.2709 107.058 60.5179 107.058 59.7163V59.6637H107.054Z" fill="#D9D9D9"/>
<path d="M130.736 65.9629C130.4 66.6835 129.931 67.2908 129.328 67.7806C128.724 68.2705 128.004 68.647 127.17 68.9061C126.336 69.1652 125.409 69.2947 124.393 69.2947C122.964 69.2947 121.567 69.0478 120.19 68.5579C118.818 68.0681 117.567 67.3151 116.446 66.299L118.879 63.3842C119.733 64.0805 120.612 64.6311 121.514 65.044C122.413 65.4529 123.401 65.6593 124.47 65.6593C125.328 65.6593 125.992 65.5055 126.461 65.1897C126.935 64.878 127.17 64.4448 127.17 63.8902V63.8376C127.17 63.5704 127.121 63.3356 127.02 63.1291C126.923 62.9227 126.733 62.7324 126.457 62.5543C126.182 62.3761 125.797 62.198 125.303 62.0199C124.814 61.8418 124.174 61.6555 123.385 61.4572C122.437 61.2264 121.579 60.9673 120.81 60.6799C120.041 60.3965 119.389 60.0443 118.85 59.6233C118.312 59.2063 117.899 58.6841 117.604 58.0566C117.308 57.4332 117.162 56.6559 117.162 55.7288V55.6762C117.162 54.818 117.32 54.0488 117.64 53.3606C117.96 52.6724 118.405 52.0813 118.984 51.5793C119.559 51.0814 120.247 50.6968 121.049 50.4296C121.846 50.1624 122.729 50.0288 123.692 50.0288C125.065 50.0288 126.328 50.2353 127.477 50.6442C128.627 51.053 129.684 51.6441 130.647 52.4092L128.506 55.5143C127.668 54.9435 126.846 54.4941 126.044 54.1621C125.243 53.8342 124.441 53.6682 123.636 53.6682C122.83 53.6682 122.231 53.8261 121.83 54.1378C121.429 54.4496 121.227 54.8382 121.227 55.3038V55.3564C121.227 55.66 121.284 55.9231 121.401 56.1458C121.518 56.3685 121.729 56.5709 122.032 56.749C122.336 56.9271 122.753 57.0972 123.279 57.2591C123.806 57.421 124.474 57.6072 125.279 57.8218C126.227 58.0728 127.073 58.3521 127.813 58.6638C128.554 58.9756 129.182 59.3521 129.692 59.7893C130.202 60.2265 130.587 60.7406 130.846 61.3276C131.105 61.9146 131.234 62.619 131.234 63.4409V63.4935C131.234 64.4205 131.064 65.2464 130.728 65.967L130.736 65.9629Z" fill="#D9D9D9"/>
<path d="M152.455 67.3961C151.937 67.805 151.37 68.1572 150.755 68.4527C150.14 68.7482 149.468 68.9709 148.735 69.1207C148.002 69.2705 147.184 69.3474 146.273 69.3474C144.901 69.3474 143.626 69.0964 142.448 68.5984C141.27 68.1005 140.254 67.4163 139.399 66.55C138.541 65.6836 137.873 64.6635 137.391 63.4854C136.91 62.3074 136.671 61.0524 136.671 59.7124V59.6598C136.671 58.3238 136.91 57.0689 137.391 55.8989C137.873 54.733 138.541 53.7047 139.399 52.8222C140.258 51.9396 141.282 51.2433 142.476 50.7332C143.67 50.2272 144.99 49.9722 146.435 49.9722C147.31 49.9722 148.107 50.045 148.832 50.1867C149.553 50.3284 150.208 50.5268 150.799 50.7737C151.386 51.0247 151.933 51.3283 152.431 51.6846C152.929 52.0409 153.394 52.4335 153.824 52.8627L151.2 55.8867C150.468 55.2269 149.723 54.7087 148.966 54.3362C148.209 53.9598 147.354 53.7735 146.411 53.7735C145.626 53.7735 144.901 53.9274 144.229 54.2269C143.561 54.5306 142.986 54.9516 142.505 55.486C142.023 56.0203 141.646 56.6397 141.379 57.3441C141.112 58.0485 140.978 58.8015 140.978 59.6031V59.6557C140.978 60.4573 141.112 61.2184 141.379 61.9309C141.646 62.6434 142.019 63.2668 142.488 63.8052C142.962 64.3396 143.533 64.7647 144.201 65.0764C144.869 65.3881 145.606 65.546 146.407 65.546C147.476 65.546 148.383 65.3517 149.123 64.959C149.864 64.5663 150.597 64.0319 151.33 63.3518L153.953 65.9994C153.471 66.5176 152.973 66.9791 152.455 67.392V67.3961Z" fill="#D9D9D9"/>
<path d="M178.251 63.4205C177.754 64.5905 177.061 65.6147 176.179 66.4972C175.296 67.3797 174.244 68.0761 173.021 68.5861C171.798 69.0962 170.467 69.3472 169.021 69.3472C167.576 69.3472 166.248 69.0922 165.034 68.5861C163.819 68.0761 162.775 67.3919 161.888 66.5256C161.006 65.6592 160.317 64.6431 159.828 63.4772C159.338 62.3072 159.091 61.0563 159.091 59.7163V59.6637C159.091 58.3277 159.342 57.0728 159.84 55.9028C160.338 54.7369 161.03 53.7086 161.912 52.8261C162.795 51.9436 163.848 51.2472 165.07 50.7372C166.293 50.2311 167.625 49.9761 169.07 49.9761C170.515 49.9761 171.843 50.2311 173.057 50.7372C174.272 51.2472 175.316 51.9314 176.203 52.7977C177.086 53.6641 177.774 54.6802 178.264 55.8461C178.753 57.0161 179 58.267 179 59.607V59.6596C179 60.9956 178.749 62.2505 178.251 63.4205ZM174.693 59.6637C174.693 58.8621 174.555 58.101 174.28 57.3885C174.005 56.676 173.612 56.0526 173.102 55.5142C172.592 54.9798 171.993 54.5547 171.296 54.243C170.6 53.9313 169.843 53.7734 169.021 53.7734C168.2 53.7734 167.418 53.9272 166.734 54.2268C166.046 54.5304 165.459 54.9514 164.969 55.4858C164.479 56.0202 164.095 56.6396 163.819 57.344C163.544 58.0484 163.406 58.8014 163.406 59.603V59.6556C163.406 60.4571 163.544 61.2182 163.819 61.9307C164.095 62.6432 164.487 63.2667 164.997 63.8051C165.507 64.3395 166.102 64.7645 166.791 65.0763C167.479 65.388 168.24 65.5459 169.078 65.5459C169.916 65.5459 170.657 65.3961 171.353 65.0925C172.049 64.7888 172.641 64.3719 173.134 63.8334C173.624 63.2991 174.009 62.6797 174.284 61.9753C174.559 61.2709 174.697 60.5179 174.697 59.7163V59.6637H174.693Z" fill="#D9D9D9"/>
<path d="M56.5713 0H55.9316V77.8328H56.5713V0Z" fill="#D9D9D9"/>
</g>
<defs>
<clipPath id="clip0_2100_107">
<rect width="179" height="77.8328" fill="white"/>
</clipPath>
</defs>
</svg>
