<svg width="1290" height="62" viewBox="0 0 1290 62" fill="none" xmlns="http://www.w3.org/2000/svg">
<path d="M37.348 33.2988C38.5785 34.666 39.4808 36.1699 40.0551 37.8105C40.6566 39.4238 40.9574 41.3105 40.9574 43.4707C40.9574 48.6113 39.057 52.8496 35.2562 56.1855C31.4554 59.5215 26.7386 61.1895 21.1058 61.1895C18.5082 61.1895 15.9105 60.793 13.3129 60C10.7152 59.1797 8.47302 58.1953 6.5863 57.0469L4.82263 60.041H1.54138L0.967163 40.1074H4.28943C4.97302 42.5684 5.76599 44.7969 6.66833 46.793C7.59802 48.7617 8.81482 50.6074 10.3187 52.3301C11.7406 53.9434 13.3949 55.2285 15.2816 56.1855C17.1957 57.1426 19.4105 57.6211 21.9261 57.6211C23.8129 57.6211 25.4535 57.375 26.848 56.8828C28.2699 56.3906 29.4183 55.6934 30.2933 54.791C31.1683 53.8887 31.8109 52.8359 32.2211 51.6328C32.6586 50.4023 32.8773 48.9941 32.8773 47.4082C32.8773 45.084 32.2211 42.9238 30.9086 40.9277C29.5961 38.9043 27.641 37.373 25.0433 36.334C23.266 35.623 21.2289 34.8438 18.932 33.9961C16.6351 33.1211 14.6527 32.3008 12.9847 31.5352C9.70349 30.0586 7.14685 28.1309 5.31482 25.752C3.51013 23.3457 2.60779 20.2148 2.60779 16.3594C2.60779 14.1445 3.05896 12.0801 3.9613 10.166C4.86365 8.25195 6.1488 6.54297 7.81677 5.03906C9.40271 3.61719 11.2758 2.50977 13.4359 1.7168C15.5961 0.896484 17.8519 0.486328 20.2035 0.486328C22.8832 0.486328 25.2758 0.896484 27.3812 1.7168C29.514 2.53711 31.4554 3.49414 33.2054 4.58789L34.8871 1.79883H38.1683L38.4965 21.1172H35.1742C34.5726 18.9023 33.889 16.7832 33.1234 14.7598C32.3851 12.7363 31.4144 10.9043 30.2113 9.26367C29.0355 7.67773 27.6 6.41992 25.9047 5.49023C24.2094 4.5332 22.1312 4.05469 19.6703 4.05469C17.0726 4.05469 14.8578 4.88867 13.0258 6.55664C11.1937 8.22461 10.2777 10.2617 10.2777 12.668C10.2777 15.1836 10.8656 17.2754 12.0414 18.9434C13.2172 20.584 14.9261 21.9375 17.1683 23.0039C19.1644 23.9609 21.1195 24.7949 23.0336 25.5059C24.975 26.1895 26.848 26.9277 28.6527 27.7207C30.2933 28.4316 31.8656 29.2383 33.3695 30.1406C34.9008 31.043 36.2269 32.0957 37.348 33.2988ZM79.534 61.3535C76.0613 61.3535 72.7254 60.6699 69.5261 59.3027C66.3543 57.9355 63.5379 55.9668 61.0769 53.3965C58.6433 50.8262 56.7019 47.6953 55.2527 44.0039C53.8035 40.2852 53.0789 36.1016 53.0789 31.4531C53.0789 26.8047 53.7898 22.5938 55.2117 18.8203C56.6336 15.0195 58.6023 11.752 61.1179 9.01758C63.6062 6.31055 66.5457 4.21875 69.9363 2.74219C73.3269 1.26562 76.95 0.527344 80.8054 0.527344C83.6765 0.527344 86.2742 0.882813 88.5984 1.59375C90.9226 2.30469 93.1375 3.30273 95.2429 4.58789L96.9246 1.79883H100.206L100.575 22.5527H97.2117C96.7742 20.5293 96.1179 18.3418 95.2429 15.9902C94.3679 13.6113 93.3426 11.6016 92.1668 9.96094C90.8543 8.10156 89.2957 6.65234 87.491 5.61328C85.6863 4.54688 83.6218 4.01367 81.2976 4.01367C78.6453 4.01367 76.1707 4.60156 73.8738 5.77734C71.6043 6.95313 69.6355 8.68945 67.9676 10.9863C66.3816 13.2012 65.1375 16.0176 64.2351 19.4355C63.3328 22.8535 62.8816 26.668 62.8816 30.8789C62.8816 34.5977 63.3465 38.0156 64.2761 41.1328C65.2332 44.2227 66.5867 46.9434 68.3367 49.2949C70.0867 51.6191 72.1511 53.4375 74.5301 54.75C76.9363 56.0625 79.616 56.7188 82.5691 56.7188C84.784 56.7188 86.8211 56.377 88.6804 55.6934C90.5398 54.9824 92.1531 54.0527 93.5203 52.9043C94.8875 51.7012 96.0906 50.334 97.1297 48.8027C98.1687 47.2715 99.0164 45.6035 99.6726 43.7988L102.749 45.2754C100.397 51.0449 97.2801 55.1738 93.3972 57.6621C89.5144 60.123 84.8933 61.3535 79.534 61.3535ZM173.728 60H149.57V57.0879C150.226 57.0332 151.169 56.9512 152.4 56.8418C153.657 56.7324 154.519 56.5684 154.984 56.3496C155.804 56.0215 156.405 55.5293 156.788 54.873C157.171 54.1895 157.362 53.3145 157.362 52.248V31.5352H130.005V51.7969C130.005 52.7539 130.155 53.5605 130.456 54.2168C130.784 54.873 131.413 55.4473 132.343 55.9395C132.808 56.1855 133.628 56.4316 134.804 56.6777C136.007 56.9238 136.95 57.0605 137.634 57.0879V60H113.476V57.0879C114.132 57.0332 115.075 56.9512 116.306 56.8418C117.564 56.7324 118.425 56.5684 118.89 56.3496C119.71 56.0215 120.312 55.5293 120.695 54.873C121.077 54.1895 121.269 53.3145 121.269 52.248V10.248C121.269 9.37305 121.091 8.58008 120.736 7.86914C120.38 7.13086 119.765 6.55664 118.89 6.14648C118.152 5.79102 117.249 5.47656 116.183 5.20312C115.144 4.92969 114.241 4.76562 113.476 4.71094V1.79883H137.634V4.71094C136.868 4.73828 135.925 4.86133 134.804 5.08008C133.71 5.29883 132.89 5.50391 132.343 5.69531C131.413 6.02344 130.784 6.57031 130.456 7.33594C130.155 8.10156 130.005 8.93555 130.005 9.83789V27.8848H157.362V10.248C157.362 9.37305 157.185 8.58008 156.829 7.86914C156.474 7.13086 155.859 6.55664 154.984 6.14648C154.245 5.79102 153.343 5.47656 152.277 5.20312C151.237 4.92969 150.335 4.76562 149.57 4.71094V1.79883H173.728V4.71094C172.962 4.73828 172.019 4.86133 170.898 5.08008C169.804 5.29883 168.984 5.50391 168.437 5.69531C167.507 6.02344 166.878 6.57031 166.55 7.33594C166.249 8.10156 166.099 8.93555 166.099 9.83789V51.7969C166.099 52.7539 166.249 53.5605 166.55 54.2168C166.878 54.873 167.507 55.4473 168.437 55.9395C168.902 56.1855 169.722 56.4316 170.898 56.6777C172.101 56.9238 173.044 57.0605 173.728 57.0879V60ZM234.576 8.68945C237.146 11.3691 239.156 14.6094 240.605 18.4102C242.054 22.1836 242.779 26.3672 242.779 30.9609C242.779 35.582 242.041 39.7793 240.564 43.5527C239.087 47.3262 237.037 50.5391 234.412 53.1914C231.869 55.8164 228.916 57.8398 225.552 59.2617C222.189 60.6836 218.607 61.3945 214.806 61.3945C210.759 61.3945 207.013 60.6426 203.568 59.1387C200.15 57.6074 197.211 55.4883 194.75 52.7812C192.289 50.1289 190.347 46.916 188.925 43.1426C187.531 39.3418 186.834 35.2812 186.834 30.9609C186.834 26.2305 187.572 22.0195 189.048 18.3281C190.525 14.6094 192.562 11.3965 195.16 8.68945C197.73 6.00977 200.711 3.95898 204.101 2.53711C207.519 1.11523 211.087 0.404297 214.806 0.404297C218.662 0.404297 222.298 1.12891 225.716 2.57812C229.134 4.02734 232.087 6.06445 234.576 8.68945ZM228.464 49.9512C229.996 47.4629 231.103 44.6465 231.787 41.502C232.498 38.3574 232.853 34.8438 232.853 30.9609C232.853 26.9688 232.457 23.3047 231.664 19.9688C230.898 16.6328 229.763 13.7891 228.259 11.4375C226.755 9.11328 224.869 7.30859 222.599 6.02344C220.33 4.71094 217.732 4.05469 214.806 4.05469C211.525 4.05469 208.736 4.80664 206.439 6.31055C204.142 7.81445 202.269 9.82422 200.82 12.3398C199.453 14.7461 198.427 17.5625 197.744 20.7891C197.087 24.0156 196.759 27.4062 196.759 30.9609C196.759 34.8984 197.115 38.4531 197.826 41.625C198.537 44.7969 199.658 47.6133 201.189 50.0742C202.666 52.4805 204.525 54.3672 206.767 55.7344C209.009 57.0742 211.689 57.7441 214.806 57.7441C217.732 57.7441 220.371 57.0605 222.722 55.6934C225.074 54.3262 226.988 52.4121 228.464 49.9512ZM302.396 42.6914L301.166 60H255.68V57.0879C256.336 57.0332 257.279 56.9375 258.51 56.8008C259.768 56.6641 260.643 56.4863 261.135 56.2676C261.955 55.9121 262.543 55.3926 262.898 54.709C263.281 54.0254 263.473 53.1504 263.473 52.084V10.4121C263.473 9.48242 263.309 8.66211 262.98 7.95117C262.68 7.24023 262.064 6.66602 261.135 6.22852C260.506 5.90039 259.617 5.58594 258.469 5.28516C257.348 4.95703 256.418 4.76562 255.68 4.71094V1.79883H280.248V4.71094C279.482 4.73828 278.484 4.875 277.254 5.12109C276.051 5.36719 275.176 5.58594 274.629 5.77734C273.699 6.10547 273.057 6.66602 272.701 7.45898C272.373 8.25195 272.209 9.09961 272.209 10.002V49.0898C272.209 50.8945 272.291 52.3027 272.455 53.3145C272.646 54.2988 273.07 55.0645 273.727 55.6113C274.355 56.1035 275.285 56.4316 276.516 56.5957C277.773 56.7324 279.523 56.8008 281.766 56.8008C282.777 56.8008 283.83 56.7734 284.924 56.7188C286.018 56.6641 287.057 56.5547 288.041 56.3906C288.998 56.2266 289.873 56.0078 290.666 55.7344C291.486 55.4336 292.088 55.0645 292.471 54.627C293.592 53.3691 294.891 51.4688 296.367 48.9258C297.871 46.3555 298.91 44.2773 299.484 42.6914H302.396ZM366.239 60H341.998V57.0879C344.131 56.9512 345.895 56.6777 347.289 56.2676C348.711 55.8574 349.422 55.3516 349.422 54.75C349.422 54.5039 349.395 54.2031 349.34 53.8477C349.286 53.4922 349.203 53.1777 349.094 52.9043L344.254 39.8613H323.87C323.104 41.7754 322.475 43.4434 321.983 44.8652C321.518 46.2871 321.094 47.5996 320.711 48.8027C320.356 49.9785 320.11 50.9355 319.973 51.6738C319.836 52.4121 319.768 53.0137 319.768 53.4785C319.768 54.5723 320.629 55.4199 322.352 56.0215C324.075 56.623 326.016 56.9785 328.176 57.0879V60H306.274V57.0879C306.985 57.0332 307.873 56.8828 308.94 56.6367C310.006 56.3633 310.881 56.0078 311.565 55.5703C312.659 54.832 313.506 54.0664 314.108 53.2734C314.709 52.4531 315.297 51.332 315.871 49.9102C318.797 42.6094 322.024 34.4062 325.551 25.3008C329.078 16.1953 332.223 8.08789 334.985 0.978516H338.266L357.666 51.1816C358.077 52.248 358.541 53.1094 359.061 53.7656C359.58 54.4219 360.305 55.0645 361.235 55.6934C361.864 56.0762 362.684 56.4043 363.696 56.6777C364.707 56.9238 365.555 57.0605 366.239 57.0879V60ZM342.778 36.2109L333.959 13.6523L325.305 36.2109H342.778ZM455.532 31.248C455.532 36.1973 454.603 40.4902 452.743 44.127C450.884 47.7637 448.464 50.7441 445.484 53.0684C442.476 55.3926 439.099 57.1289 435.353 58.2773C431.607 59.4258 427.737 60 423.745 60H399.628V57.0879C400.421 57.0879 401.446 57.0195 402.704 56.8828C403.989 56.7188 404.837 56.541 405.247 56.3496C406.068 55.9941 406.655 55.4746 407.011 54.791C407.394 54.0801 407.585 53.2324 407.585 52.248V10.248C407.585 9.31836 407.421 8.48438 407.093 7.74609C406.792 7.00781 406.177 6.41992 405.247 5.98242C404.4 5.57227 403.484 5.27148 402.499 5.08008C401.515 4.88867 400.667 4.76562 399.956 4.71094V1.79883H425.386C428.886 1.79883 432.331 2.3457 435.722 3.43945C439.112 4.50586 442.066 5.95508 444.581 7.78711C447.999 10.2207 450.679 13.4062 452.62 17.3438C454.562 21.2812 455.532 25.916 455.532 31.248ZM445.484 31.207C445.484 27.2969 444.964 23.7695 443.925 20.625C442.886 17.4531 441.368 14.6914 439.372 12.3398C437.486 10.0977 435.161 8.33398 432.4 7.04883C429.665 5.76367 426.616 5.12109 423.253 5.12109C422.132 5.12109 420.861 5.14844 419.439 5.20312C418.044 5.23047 417.005 5.25781 416.321 5.28516V50.0332C416.321 52.5215 417.046 54.2441 418.495 55.2012C419.945 56.1582 422.173 56.6367 425.181 56.6367C428.654 56.6367 431.689 56.0215 434.286 54.791C436.884 53.5605 438.989 51.8516 440.603 49.6641C442.298 47.3672 443.529 44.7148 444.294 41.707C445.087 38.6719 445.484 35.1719 445.484 31.207ZM515.314 8.68945C517.884 11.3691 519.894 14.6094 521.343 18.4102C522.793 22.1836 523.517 26.3672 523.517 30.9609C523.517 35.582 522.779 39.7793 521.302 43.5527C519.826 47.3262 517.775 50.5391 515.15 53.1914C512.607 55.8164 509.654 57.8398 506.291 59.2617C502.927 60.6836 499.345 61.3945 495.544 61.3945C491.498 61.3945 487.752 60.6426 484.306 59.1387C480.888 57.6074 477.949 55.4883 475.488 52.7812C473.027 50.1289 471.086 46.916 469.664 43.1426C468.269 39.3418 467.572 35.2812 467.572 30.9609C467.572 26.2305 468.31 22.0195 469.787 18.3281C471.263 14.6094 473.3 11.3965 475.898 8.68945C478.468 6.00977 481.449 3.95898 484.839 2.53711C488.257 1.11523 491.826 0.404297 495.544 0.404297C499.4 0.404297 503.037 1.12891 506.455 2.57812C509.873 4.02734 512.826 6.06445 515.314 8.68945ZM509.203 49.9512C510.734 47.4629 511.841 44.6465 512.525 41.502C513.236 38.3574 513.591 34.8438 513.591 30.9609C513.591 26.9688 513.195 23.3047 512.402 19.9688C511.636 16.6328 510.502 13.7891 508.998 11.4375C507.494 9.11328 505.607 7.30859 503.337 6.02344C501.068 4.71094 498.47 4.05469 495.544 4.05469C492.263 4.05469 489.474 4.80664 487.177 6.31055C484.88 7.81445 483.007 9.82422 481.558 12.3398C480.191 14.7461 479.166 17.5625 478.482 20.7891C477.826 24.0156 477.498 27.4062 477.498 30.9609C477.498 34.8984 477.853 38.4531 478.564 41.625C479.275 44.7969 480.396 47.6133 481.927 50.0742C483.404 52.4805 485.263 54.3672 487.505 55.7344C489.748 57.0742 492.427 57.7441 495.544 57.7441C498.47 57.7441 501.109 57.0605 503.461 55.6934C505.812 54.3262 507.726 52.4121 509.203 49.9512ZM606.473 60H580.756V57.0879C581.686 57.0605 582.875 56.9648 584.324 56.8008C585.801 56.6367 586.812 56.4043 587.359 56.1035C588.207 55.584 588.822 54.9961 589.205 54.3398C589.615 53.6562 589.82 52.8086 589.82 51.7969V9.46875H589.205L569.354 59.0566H567.303L548.395 8.44336H547.861V43.1836C547.861 46.5469 548.066 49.1035 548.477 50.8535C548.914 52.6035 549.57 53.8613 550.445 54.627C551.047 55.2012 552.291 55.748 554.178 56.2676C556.064 56.7871 557.295 57.0605 557.869 57.0879V60H534.367V57.0879C535.598 56.9785 536.883 56.7734 538.223 56.4727C539.59 56.1719 540.643 55.7207 541.381 55.1191C542.338 54.3535 542.994 53.1777 543.35 51.5918C543.705 50.0059 543.883 47.3535 543.883 43.6348V13.8574C543.883 12.1348 543.678 10.7266 543.268 9.63281C542.857 8.53906 542.27 7.65039 541.504 6.9668C540.656 6.22852 539.617 5.68164 538.387 5.32617C537.156 4.9707 535.939 4.76562 534.736 4.71094V1.79883H554.588L571.24 45.4395L585.473 8.93555C585.992 7.5957 586.43 6.20117 586.785 4.75195C587.168 3.27539 587.373 2.29102 587.4 1.79883H606.391V4.71094C605.625 4.73828 604.641 4.86133 603.438 5.08008C602.262 5.29883 601.4 5.50391 600.854 5.69531C599.924 6.02344 599.295 6.57031 598.967 7.33594C598.639 8.10156 598.475 8.93555 598.475 9.83789V51.7969C598.475 52.7539 598.639 53.5605 598.967 54.2168C599.295 54.873 599.924 55.4473 600.854 55.9395C601.346 56.2129 602.221 56.4727 603.479 56.7188C604.736 56.9375 605.734 57.0605 606.473 57.0879V60ZM645.377 60H619.168V57.0879C619.907 57.0332 620.973 56.9512 622.368 56.8418C623.762 56.7324 624.746 56.5684 625.321 56.3496C626.223 55.9941 626.879 55.5156 627.289 54.9141C627.7 54.2852 627.905 53.4238 627.905 52.3301V10.166C627.905 9.20898 627.754 8.41602 627.453 7.78711C627.153 7.13086 626.442 6.58398 625.321 6.14648C624.5 5.81836 623.461 5.51758 622.203 5.24414C620.973 4.94336 619.961 4.76562 619.168 4.71094V1.79883H645.377V4.71094C644.53 4.73828 643.518 4.84766 642.342 5.03906C641.166 5.20312 640.141 5.42187 639.266 5.69531C638.227 6.02344 637.53 6.55664 637.174 7.29492C636.819 8.0332 636.641 8.85352 636.641 9.75586V51.8789C636.641 52.7812 636.832 53.5879 637.215 54.2988C637.625 54.9824 638.309 55.5293 639.266 55.9395C639.84 56.1582 640.77 56.4043 642.055 56.6777C643.368 56.9238 644.475 57.0605 645.377 57.0879V60ZM717.997 4.71094C717.231 4.73828 716.055 4.95703 714.469 5.36719C712.884 5.77734 711.749 6.20117 711.065 6.63867C710.081 7.32227 709.411 8.63477 709.055 10.5762C708.727 12.5176 708.563 14.9785 708.563 17.959V60.5742H704.995L669.721 12.9551V42.9785C669.721 46.3418 669.927 48.9258 670.337 50.7305C670.774 52.5352 671.43 53.8203 672.305 54.5859C672.934 55.1875 674.233 55.748 676.202 56.2676C678.171 56.7871 679.469 57.0605 680.098 57.0879V60H656.227V57.0879C656.966 57.0332 658.21 56.7734 659.96 56.3086C661.71 55.8164 662.803 55.3789 663.241 54.9961C664.198 54.2305 664.854 53.0684 665.21 51.5098C665.565 49.9238 665.743 47.2305 665.743 43.4297V14.7598C665.743 13.502 665.524 12.2441 665.087 10.9863C664.649 9.72852 664.061 8.75781 663.323 8.07422C662.339 7.17188 660.999 6.40625 659.303 5.77734C657.635 5.12109 656.282 4.76562 655.243 4.71094V1.79883H671.854L704.585 46.1777V18.4922C704.585 15.1016 704.366 12.5039 703.928 10.6992C703.491 8.86719 702.862 7.65039 702.042 7.04883C701.276 6.5293 700.018 6.02344 698.268 5.53125C696.546 5.03906 695.233 4.76562 694.331 4.71094V1.79883H717.997V4.71094ZM753.784 60H727.575V57.0879C728.314 57.0332 729.38 56.9512 730.775 56.8418C732.169 56.7324 733.154 56.5684 733.728 56.3496C734.63 55.9941 735.286 55.5156 735.696 54.9141C736.107 54.2852 736.312 53.4238 736.312 52.3301V10.166C736.312 9.20898 736.161 8.41602 735.861 7.78711C735.56 7.13086 734.849 6.58398 733.728 6.14648C732.907 5.81836 731.868 5.51758 730.611 5.24414C729.38 4.94336 728.368 4.76562 727.575 4.71094V1.79883H753.784V4.71094C752.937 4.73828 751.925 4.84766 750.749 5.03906C749.573 5.20312 748.548 5.42187 747.673 5.69531C746.634 6.02344 745.937 6.55664 745.581 7.29492C745.226 8.0332 745.048 8.85352 745.048 9.75586V51.8789C745.048 52.7812 745.239 53.5879 745.622 54.2988C746.032 54.9824 746.716 55.5293 747.673 55.9395C748.247 56.1582 749.177 56.4043 750.462 56.6777C751.775 56.9238 752.882 57.0605 753.784 57.0879V60ZM792.32 61.3535C788.847 61.3535 785.511 60.6699 782.312 59.3027C779.14 57.9355 776.324 55.9668 773.863 53.3965C771.429 50.8262 769.488 47.6953 768.039 44.0039C766.589 40.2852 765.865 36.1016 765.865 31.4531C765.865 26.8047 766.576 22.5938 767.998 18.8203C769.419 15.0195 771.388 11.752 773.904 9.01758C776.392 6.31055 779.332 4.21875 782.722 2.74219C786.113 1.26562 789.736 0.527344 793.591 0.527344C796.462 0.527344 799.06 0.882813 801.384 1.59375C803.709 2.30469 805.923 3.30273 808.029 4.58789L809.711 1.79883H812.992L813.361 22.5527H809.998C809.56 20.5293 808.904 18.3418 808.029 15.9902C807.154 13.6113 806.128 11.6016 804.953 9.96094C803.64 8.10156 802.082 6.65234 800.277 5.61328C798.472 4.54688 796.408 4.01367 794.084 4.01367C791.431 4.01367 788.957 4.60156 786.66 5.77734C784.39 6.95313 782.421 8.68945 780.753 10.9863C779.168 13.2012 777.923 16.0176 777.021 19.4355C776.119 22.8535 775.668 26.668 775.668 30.8789C775.668 34.5977 776.132 38.0156 777.062 41.1328C778.019 44.2227 779.373 46.9434 781.123 49.2949C782.873 51.6191 784.937 53.4375 787.316 54.75C789.722 56.0625 792.402 56.7188 795.355 56.7188C797.57 56.7188 799.607 56.377 801.466 55.6934C803.326 54.9824 804.939 54.0527 806.306 52.9043C807.673 51.7012 808.877 50.334 809.916 48.8027C810.955 47.2715 811.802 45.6035 812.459 43.7988L815.535 45.2754C813.183 51.0449 810.066 55.1738 806.183 57.6621C802.3 60.123 797.679 61.3535 792.32 61.3535ZM851.691 60H825.482V57.0879C826.221 57.0332 827.287 56.9512 828.682 56.8418C830.076 56.7324 831.061 56.5684 831.635 56.3496C832.537 55.9941 833.193 55.5156 833.604 54.9141C834.014 54.2852 834.219 53.4238 834.219 52.3301V10.166C834.219 9.20898 834.068 8.41602 833.768 7.78711C833.467 7.13086 832.756 6.58398 831.635 6.14648C830.814 5.81836 829.775 5.51758 828.518 5.24414C827.287 4.94336 826.275 4.76562 825.482 4.71094V1.79883H851.691V4.71094C850.844 4.73828 849.832 4.84766 848.656 5.03906C847.48 5.20312 846.455 5.42187 845.58 5.69531C844.541 6.02344 843.844 6.55664 843.488 7.29492C843.133 8.0332 842.955 8.85352 842.955 9.75586V51.8789C842.955 52.7812 843.146 53.5879 843.529 54.2988C843.939 54.9824 844.623 55.5293 845.58 55.9395C846.154 56.1582 847.084 56.4043 848.369 56.6777C849.682 56.9238 850.789 57.0605 851.691 57.0879V60ZM926.671 33.2988C927.901 34.666 928.803 36.1699 929.378 37.8105C929.979 39.4238 930.28 41.3105 930.28 43.4707C930.28 48.6113 928.38 52.8496 924.579 56.1855C920.778 59.5215 916.061 61.1895 910.428 61.1895C907.831 61.1895 905.233 60.793 902.635 60C900.038 59.1797 897.796 58.1953 895.909 57.0469L894.145 60.041H890.864L890.29 40.1074H893.612C894.296 42.5684 895.089 44.7969 895.991 46.793C896.921 48.7617 898.137 50.6074 899.641 52.3301C901.063 53.9434 902.718 55.2285 904.604 56.1855C906.518 57.1426 908.733 57.6211 911.249 57.6211C913.135 57.6211 914.776 57.375 916.171 56.8828C917.593 56.3906 918.741 55.6934 919.616 54.791C920.491 53.8887 921.134 52.8359 921.544 51.6328C921.981 50.4023 922.2 48.9941 922.2 47.4082C922.2 45.084 921.544 42.9238 920.231 40.9277C918.919 38.9043 916.964 37.373 914.366 36.334C912.589 35.623 910.552 34.8438 908.255 33.9961C905.958 33.1211 903.975 32.3008 902.307 31.5352C899.026 30.0586 896.469 28.1309 894.637 25.752C892.833 23.3457 891.93 20.2148 891.93 16.3594C891.93 14.1445 892.382 12.0801 893.284 10.166C894.186 8.25195 895.471 6.54297 897.139 5.03906C898.725 3.61719 900.598 2.50977 902.759 1.7168C904.919 0.896484 907.175 0.486328 909.526 0.486328C912.206 0.486328 914.598 0.896484 916.704 1.7168C918.837 2.53711 920.778 3.49414 922.528 4.58789L924.21 1.79883H927.491L927.819 21.1172H924.497C923.895 18.9023 923.212 16.7832 922.446 14.7598C921.708 12.7363 920.737 10.9043 919.534 9.26367C918.358 7.67773 916.923 6.41992 915.227 5.49023C913.532 4.5332 911.454 4.05469 908.993 4.05469C906.395 4.05469 904.18 4.88867 902.348 6.55664C900.516 8.22461 899.6 10.2617 899.6 12.668C899.6 15.1836 900.188 17.2754 901.364 18.9434C902.54 20.584 904.249 21.9375 906.491 23.0039C908.487 23.9609 910.442 24.7949 912.356 25.5059C914.298 26.1895 916.171 26.9277 917.975 27.7207C919.616 28.4316 921.188 29.2383 922.692 30.1406C924.223 31.043 925.55 32.0957 926.671 33.2988ZM992.154 42.8555L991.046 60H942.73V57.0879C943.55 57.0332 944.644 56.9238 946.011 56.7598C947.378 56.5684 948.267 56.377 948.677 56.1855C949.552 55.7754 950.154 55.2422 950.482 54.5859C950.837 53.9297 951.015 53.0957 951.015 52.084V10.248C951.015 9.3457 950.864 8.55273 950.564 7.86914C950.263 7.1582 949.634 6.58398 948.677 6.14648C947.939 5.79102 946.941 5.47656 945.683 5.20312C944.452 4.92969 943.468 4.76562 942.73 4.71094V1.79883H987.765V15.8262H984.689C984.142 13.748 982.952 11.5469 981.12 9.22266C979.316 6.87109 977.593 5.58594 975.952 5.36719C975.105 5.25781 974.093 5.17578 972.917 5.12109C971.741 5.06641 970.402 5.03906 968.898 5.03906H959.751V28.1719H966.314C968.419 28.1719 969.95 27.9805 970.907 27.5977C971.892 27.1875 972.753 26.5176 973.491 25.5879C974.093 24.7949 974.599 23.7422 975.009 22.4297C975.446 21.0898 975.734 19.832 975.87 18.6562H978.946V41.4199H975.87C975.761 40.1074 975.46 38.7266 974.968 37.2773C974.503 35.8008 974.011 34.7344 973.491 34.0781C972.644 33.0117 971.673 32.3145 970.579 31.9863C969.513 31.6582 968.091 31.4941 966.314 31.4941H959.751V48.9668C959.751 50.7168 959.874 52.0977 960.12 53.1094C960.366 54.1211 960.845 54.8867 961.556 55.4062C962.267 55.9258 963.237 56.2676 964.468 56.4316C965.698 56.5684 967.448 56.6367 969.718 56.6367C970.62 56.6367 971.81 56.6367 973.286 56.6367C974.763 56.6367 976.007 56.582 977.019 56.4727C978.058 56.3633 979.124 56.1719 980.218 55.8984C981.339 55.5977 982.132 55.2012 982.597 54.709C983.855 53.3965 985.167 51.4141 986.534 48.7617C987.929 46.082 988.818 44.1133 989.2 42.8555H992.154ZM1060.38 60H1044.72C1041.24 54.5586 1038.1 49.8555 1035.28 45.8906C1032.49 41.9258 1029.46 37.8379 1026.18 33.627H1020.23V52.084C1020.23 53.041 1020.38 53.8887 1020.68 54.627C1020.98 55.3379 1021.62 55.8848 1022.61 56.2676C1023.1 56.459 1023.96 56.6367 1025.19 56.8008C1026.42 56.9648 1027.46 57.0605 1028.31 57.0879V60H1003.7V57.0879C1004.36 57.0332 1005.3 56.9375 1006.53 56.8008C1007.79 56.6641 1008.66 56.4863 1009.16 56.2676C1009.98 55.9121 1010.56 55.3926 1010.92 54.709C1011.3 54.0254 1011.49 53.1504 1011.49 52.084V10.002C1011.49 9.04492 1011.36 8.19727 1011.08 7.45898C1010.81 6.7207 1010.17 6.16016 1009.16 5.77734C1008.47 5.53125 1007.58 5.3125 1006.49 5.12109C1005.4 4.90234 1004.47 4.76562 1003.7 4.71094V1.79883H1030.57C1033.03 1.79883 1035.34 2.05859 1037.5 2.57812C1039.66 3.07031 1041.61 3.87695 1043.36 4.99805C1045.06 6.0918 1046.41 7.52734 1047.42 9.30469C1048.44 11.0547 1048.94 13.1738 1048.94 15.6621C1048.94 17.9043 1048.6 19.8867 1047.92 21.6094C1047.23 23.332 1046.22 24.8223 1044.88 26.0801C1043.65 27.2559 1042.17 28.2812 1040.45 29.1562C1038.73 30.0039 1036.83 30.7285 1034.75 31.3301C1037.62 35.1309 1040 38.3301 1041.89 40.9277C1043.8 43.5254 1046.14 46.6836 1048.9 50.4023C1050.1 52.043 1051.18 53.2598 1052.14 54.0527C1053.12 54.8184 1054.1 55.4473 1055.05 55.9395C1055.76 56.2949 1056.65 56.5684 1057.72 56.7598C1058.78 56.9512 1059.67 57.0605 1060.38 57.0879V60ZM1038.81 16.6055C1038.81 13.0781 1037.8 10.2891 1035.77 8.23828C1033.75 6.16016 1030.89 5.12109 1027.2 5.12109H1020.23V30.0996H1025.6C1029.38 30.0996 1032.52 28.8965 1035.04 26.4902C1037.55 24.0566 1038.81 20.7617 1038.81 16.6055ZM1121.97 4.71094C1121.26 4.73828 1120.4 4.90234 1119.39 5.20312C1118.38 5.47656 1117.54 5.81836 1116.88 6.22852C1115.96 6.80273 1115.2 7.54102 1114.63 8.44336C1114.08 9.3457 1113.54 10.4121 1112.99 11.6426C1111.16 15.9902 1108.41 22.7715 1104.74 31.9863C1101.08 41.1738 1097.31 50.7578 1093.42 60.7383H1090.02C1086.08 50.1562 1082.28 39.957 1078.62 30.1406C1074.95 20.3242 1072.46 13.6934 1071.15 10.248C1070.82 9.40039 1070.39 8.66211 1069.84 8.0332C1069.29 7.37695 1068.57 6.76172 1067.67 6.1875C1066.93 5.72266 1066.11 5.38086 1065.21 5.16211C1064.3 4.91602 1063.47 4.76562 1062.7 4.71094V1.79883H1086.78V4.71094C1084.73 4.82031 1082.99 5.02539 1081.57 5.32617C1080.18 5.62695 1079.48 6.16016 1079.48 6.92578C1079.48 7.22656 1079.53 7.58203 1079.64 7.99219C1079.75 8.40234 1079.85 8.73047 1079.93 8.97656C1080.94 11.6562 1082.58 16.0312 1084.85 22.1016C1087.12 28.1445 1090.35 36.7578 1094.53 47.9414C1096.61 42.8828 1099 36.9082 1101.71 30.0176C1104.42 23.127 1106.23 18.3965 1107.16 15.8262C1108.07 13.3379 1108.59 11.6152 1108.72 10.6582C1108.89 9.70117 1108.97 8.92188 1108.97 8.32031C1108.97 7.69141 1108.68 7.17188 1108.11 6.76172C1107.56 6.32422 1106.82 5.95508 1105.89 5.6543C1104.99 5.38086 1104.07 5.17578 1103.14 5.03906C1102.21 4.90234 1101.27 4.79297 1100.31 4.71094V1.79883H1121.97V4.71094ZM1155.34 60H1129.13V57.0879C1129.87 57.0332 1130.93 56.9512 1132.33 56.8418C1133.72 56.7324 1134.71 56.5684 1135.28 56.3496C1136.18 55.9941 1136.84 55.5156 1137.25 54.9141C1137.66 54.2852 1137.87 53.4238 1137.87 52.3301V10.166C1137.87 9.20898 1137.72 8.41602 1137.41 7.78711C1137.11 7.13086 1136.4 6.58398 1135.28 6.14648C1134.46 5.81836 1133.42 5.51758 1132.16 5.24414C1130.93 4.94336 1129.92 4.76562 1129.13 4.71094V1.79883H1155.34V4.71094C1154.49 4.73828 1153.48 4.84766 1152.3 5.03906C1151.13 5.20312 1150.1 5.42187 1149.23 5.69531C1148.19 6.02344 1147.49 6.55664 1147.14 7.29492C1146.78 8.0332 1146.6 8.85352 1146.6 9.75586V51.8789C1146.6 52.7812 1146.79 53.5879 1147.18 54.2988C1147.59 54.9824 1148.27 55.5293 1149.23 55.9395C1149.8 56.1582 1150.73 56.4043 1152.02 56.6777C1153.33 56.9238 1154.44 57.0605 1155.34 57.0879V60ZM1215.53 17.5898H1212.7C1212.45 16.6055 1212 15.4434 1211.35 14.1035C1210.72 12.7363 1210.01 11.4512 1209.21 10.248C1208.39 8.99023 1207.49 7.89648 1206.51 6.9668C1205.55 6.00977 1204.62 5.46289 1203.72 5.32617C1202.87 5.2168 1201.8 5.13477 1200.52 5.08008C1199.23 5.02539 1198.04 4.99805 1196.95 4.99805H1194.57V51.5508C1194.57 52.4531 1194.76 53.2871 1195.15 54.0527C1195.53 54.791 1196.2 55.3652 1197.16 55.7754C1197.65 55.9668 1198.67 56.2266 1200.23 56.5547C1201.82 56.8828 1203.05 57.0605 1203.92 57.0879V60H1176.44V57.0879C1177.21 57.0332 1178.37 56.9238 1179.93 56.7598C1181.51 56.5957 1182.61 56.3906 1183.21 56.1445C1184.11 55.7891 1184.77 55.2832 1185.18 54.627C1185.62 53.9434 1185.83 53.041 1185.83 51.9199V4.99805H1183.46C1182.61 4.99805 1181.56 5.02539 1180.3 5.08008C1179.04 5.10742 1177.84 5.18945 1176.69 5.32617C1175.79 5.43555 1174.84 5.98242 1173.86 6.9668C1172.9 7.92383 1172.01 9.01758 1171.19 10.248C1170.37 11.4785 1169.65 12.791 1169.02 14.1855C1168.39 15.5527 1167.95 16.6875 1167.71 17.5898H1164.83V1.79883H1215.53V17.5898ZM1251.28 60H1225.07V57.0879C1225.81 57.0332 1226.87 56.9512 1228.27 56.8418C1229.66 56.7324 1230.65 56.5684 1231.22 56.3496C1232.12 55.9941 1232.78 55.5156 1233.19 54.9141C1233.6 54.2852 1233.8 53.4238 1233.8 52.3301V10.166C1233.8 9.20898 1233.65 8.41602 1233.35 7.78711C1233.05 7.13086 1232.34 6.58398 1231.22 6.14648C1230.4 5.81836 1229.36 5.51758 1228.1 5.24414C1226.87 4.94336 1225.86 4.76562 1225.07 4.71094V1.79883H1251.28V4.71094C1250.43 4.73828 1249.42 4.84766 1248.24 5.03906C1247.07 5.20312 1246.04 5.42187 1245.17 5.69531C1244.13 6.02344 1243.43 6.55664 1243.07 7.29492C1242.72 8.0332 1242.54 8.85352 1242.54 9.75586V51.8789C1242.54 52.7812 1242.73 53.5879 1243.11 54.2988C1243.52 54.9824 1244.21 55.5293 1245.17 55.9395C1245.74 56.1582 1246.67 56.4043 1247.95 56.6777C1249.27 56.9238 1250.37 57.0605 1251.28 57.0879V60ZM1289.61 60H1263.4V57.0879C1264.14 57.0332 1265.2 56.9512 1266.6 56.8418C1267.99 56.7324 1268.98 56.5684 1269.55 56.3496C1270.45 55.9941 1271.11 55.5156 1271.52 54.9141C1271.93 54.2852 1272.13 53.4238 1272.13 52.3301V10.166C1272.13 9.20898 1271.98 8.41602 1271.68 7.78711C1271.38 7.13086 1270.67 6.58398 1269.55 6.14648C1268.73 5.81836 1267.69 5.51758 1266.43 5.24414C1265.2 4.94336 1264.19 4.76562 1263.4 4.71094V1.79883H1289.61V4.71094C1288.76 4.73828 1287.75 4.84766 1286.57 5.03906C1285.4 5.20312 1284.37 5.42187 1283.5 5.69531C1282.46 6.02344 1281.76 6.55664 1281.4 7.29492C1281.05 8.0332 1280.87 8.85352 1280.87 9.75586V51.8789C1280.87 52.7812 1281.06 53.5879 1281.44 54.2988C1281.86 54.9824 1282.54 55.5293 1283.5 55.9395C1284.07 56.1582 1285 56.4043 1286.28 56.6777C1287.6 56.9238 1288.7 57.0605 1289.61 57.0879V60Z" fill="#4D4D4D"/>
</svg>
