<svg xmlns="http://www.w3.org/2000/svg" viewBox="0 0 500 500" style="enable-background:new 0 0 500 500" xml:space="preserve"><path d="M420.88 56c.36.27.98.48 1.04.8.15.82.06 1.7.06 2.55v339.71H78.36c-.05-1.04-.14-2.06-.14-3.07-.01-35.64.01-71.29-.05-106.93 0-2.02.6-3.25 2.3-4.39C192.7 209.44 304.9 134.18 417.08 58.92c1.33-.89 2.54-1.94 3.8-2.92zm-32.06 281.76c1.68-.66 3.06-1.16 4.42-1.74 9.36-4.01 13.6-10.76 13.35-21.26-.22-9.39-4.92-16.34-14.27-19.34-5.14-1.65-10.73-2.48-16.14-2.57-18.56-.3-37.13-.12-55.7-.12-.92 0-1.85.08-2.91.14v91.38c.89.07 1.62.18 2.35.18 18.09 0 36.19.11 54.28-.1 5.36-.06 10.81-.62 16.04-1.75 10.43-2.27 16.8-9.47 17.79-19.2 1.08-10.6-3.36-18.86-12.59-23.2-2-.95-4.16-1.54-6.62-2.42zm-170.5 46.05c0-6.45-.11-12.58.05-18.7.06-2.53-.56-3.4-3.27-3.37-12.98.14-25.95.06-38.93.06-1.09 0-2.18-.11-3.23-.17v-11.86h42.15v-22.05h-42.15v-12.97h44.1v-21.4h-78.47v90.45c26.6.01 52.98.01 79.75.01zm83.44-88.56c-.74-.2-1.27-.39-1.82-.5-12.15-2.34-24.41-3.26-36.76-2.41-7.96.55-15.82 1.77-23.04 5.49-10.16 5.23-14.88 13.55-14.29 24.99.56 11.02 5.94 18.61 16.2 22.45 5.03 1.88 10.32 3.02 15.51 4.48 4.18 1.18 8.42 2.15 12.49 3.63 1.19.43 2.59 2.33 2.56 3.53-.03 1.36-1.27 3.18-2.51 3.9-1.81 1.06-4.05 1.63-6.16 1.88-11.69 1.36-23.01-.48-34.08-4.23-.95-.32-1.91-.65-3.07-1.06v23.33c.67.19 1.19.36 1.74.49 13.84 3.18 27.87 4.51 42.04 3.61 8.64-.54 17.11-2.19 24.62-6.94 9.89-6.26 13.42-15.49 12.31-26.8-.99-10.06-6.82-16.5-15.86-19.97-5.08-1.95-10.56-2.87-15.86-4.27-4.11-1.08-8.29-1.95-12.28-3.39-1.24-.45-2.63-2.44-2.65-3.76-.03-1.31 1.32-2.98 2.52-3.9 1.11-.86 2.79-1.13 4.27-1.35 8.55-1.23 17-.34 25.38 1.52 2.89.64 5.75 1.47 8.78 2.24-.04-7.76-.04-15.23-.04-22.96zm-175.5-1.9H91.89v90.79h34.37v-90.79z"/><path d="M420.67 56.21c-9.18 2.97-18.38 5.87-27.53 8.92-103.88 34.6-207.76 69.22-311.63 103.83-.97.32-1.97.57-3.24.93V56h3.24c111.72 0 223.45 0 335.17.01 1.32 0 2.65.13 3.98.2h.01zM203 417.21h6.5c0 4.97-.01 9.77.01 14.57.01 1.32-.23 2.78.26 3.92.43 1.02 1.71 2.35 2.6 2.34 1.05-.01 2.52-1.12 3-2.13.6-1.28.5-2.94.51-4.44.05-4.7.02-9.4.02-14.26h6.06c0 6.66.44 13.28-.16 19.8-.4 4.41-4.69 6.48-10.37 6.15-4.71-.27-8.07-2.96-8.37-7.65-.34-6.01-.06-12.06-.06-18.3zm-105.57 6.2c-4.7-1.47-8.54-2.52-10.99 1.42-2.08 3.35-2.07 7.13.17 10.48 2.63 3.93 6.46 3.07 10.19 1.89.76 5.83.42 6.21-5.32 6.3-5.21.09-9.71-1.45-11.88-6.5-2.32-5.39-2.33-10.93 1.36-15.86 3.51-4.7 10.73-5.21 15-3.31.95.42.88 3.15 1.47 5.58zm92.34 10.15c-.01 6.37-3.38 9.93-9.42 9.95-6.08.01-9.47-3.51-9.51-9.88-.03-6.54 3.35-10.08 9.58-10.05 6.07.02 9.36 3.54 9.35 9.98zm-6.62.23c-.16-1.35-.06-2.67-.53-3.74-.39-.89-1.56-2.17-2.19-2.06-.94.15-2.32 1.28-2.44 2.13-.32 2.3-.27 4.7.06 7 .11.77 1.45 1.77 2.33 1.88.65.08 1.76-.96 2.13-1.75.49-1.06.47-2.36.64-3.46zm219.35-.42c.03-6.33 3.39-9.81 9.47-9.8 6.15.01 9.56 3.63 9.49 10.1-.06 6.32-3.47 9.84-9.51 9.84-6.12-.02-9.49-3.63-9.45-10.14zm6.56.14c.23 1.27.3 2.72.82 3.99.29.71 1.37 1.59 2.01 1.52.82-.08 2.17-.97 2.23-1.61.25-2.58.25-5.22-.01-7.8-.06-.66-1.45-1.67-2.21-1.65-.75.03-1.75 1.01-2.13 1.82-.49 1.06-.48 2.36-.71 3.73zm-176.89-9.27c.12.51.29 1.2.49 1.99.34-.2.64-.28.8-.47 1.93-2.49 4.55-2.68 7.19-1.77 2.59.89 3.25 3.2 3.23 5.76-.03 4.25-.01 8.51-.01 12.76h-6.34c0-2.81.01-5.9-.01-8.99-.01-.95.16-1.97-.16-2.81-.29-.76-1.08-1.77-1.73-1.83-.67-.06-1.85.75-2.08 1.42-.46 1.39-.53 2.94-.58 4.44-.08 2.63-.02 5.27-.02 7.78h-6.18v-18.26c1.49-.02 3.36-.02 5.4-.02zm-104.86 18.91h-6.24v-18.52c3.75-1.17 5.18-.78 5.76 1.17 2.14-.64 4.23-1.65 6.39-1.83 2.7-.21 4.61 1.5 4.79 4.2.29 4.52.24 9.06.18 13.59-.01.52-.92 1.38-1.5 1.47-1.47.21-2.98.07-4.84.07 0-3.71.16-7.19-.08-10.64-.08-1.25-1-3.36-1.76-3.46-2.25-.31-2.59 1.8-2.66 3.5-.13 3.38-.04 6.77-.04 10.45zm246.05-.16c-2.29-.43-4.92 1.56-6.01-2.02-1.1.71-2.05 1.5-3.13 2-3 1.4-6.41.16-7.7-2.68-1.51-3.33-.22-6.93 3.09-8.26 1.21-.49 2.54-.75 3.84-.91 1.28-.15 2.6-.03 3.94-.03-.32-3.88-1.43-4.14-8.96-2.39v-4.64c3.4-.08 6.85-.47 10.26-.18 2.89.25 4.55 2.48 4.64 5.6.14 4.34.03 8.7.03 13.51zm-5.83-8.97c-3.74-.39-6.02.71-5.74 2.92.12.95 1.37 2.31 2.3 2.49 2.22.44 3.48-1.68 3.44-5.41zm-250.2 1.35h-10.97c-.14 4.31 2.25 5.05 9.55 3.27 1.08 3.75.87 4.11-2.83 4.79-8.74 1.61-13.9-2.84-13.14-11.36.43-4.76 3.69-8.11 8.11-8.32 4.97-.24 8.31 2.33 9.25 7.26.23 1.27.03 2.6.03 4.36zm-11.62-3.24h6.04c-.28-2.07.04-4.22-2.66-4.36-2.67-.16-3.09 1.84-3.38 4.36zm190.33 3.24h-11c-.13 4.24 1.96 4.93 9.56 3.41 1.08 3.61.86 4.01-2.68 4.68-9.25 1.74-15.2-4.01-13.02-12.61 1.3-5.13 4.82-7.57 10.06-6.97 4.15.47 7.04 3.99 7.2 8.82.02.73-.07 1.48-.12 2.67zm-11.41-3.33c1.39 0 2.58-.05 3.77.01 2.15.1 2.54-1.19 1.69-2.63-.53-.91-1.92-1.9-2.88-1.85-2.21.11-2.64 1.94-2.58 4.47zM257 424.18c6.46-.87 6.45-.87 7.95 4.93.61 2.36 1.24 4.71 2.49 7.16.65-2.53 1.34-5.05 1.96-7.59 1.32-5.41 1.31-5.41 7.36-4.46-1.91 5.93-3.77 11.83-5.75 17.68-.17.51-1.04 1.01-1.65 1.09-5.91.79-6.26.54-8.05-5.14-1.4-4.49-2.82-8.96-4.31-13.67zm86.35 4.15c-1.18-.17-2.01-.29-3.09-.45v-3.82c.85-.19 1.74-.41 2.65-.61 1.17-4.65 1.45-4.88 7.08-5.69v5.37c4.13 1.13 4.13 1.13 3.66 4.71-1.05.14-2.15.28-3.58.47 0 2.95-.29 5.88.15 8.69.18 1.14 1.96 2.03 3.01 3.04.22-.16.44-.31.66-.47.07 1.14.14 2.27.21 3.35-6.21 2.79-10.71.04-10.74-6.41-.02-2.68-.01-5.38-.01-8.18zm-199.95.01c-.9-.11-1.71-.21-2.65-.32-.5-2.41-.86-4.53 2.59-4.27.78-4.5 1.39-4.99 6.92-5.58v5.3c4.1.92 4.1.92 3.24 4.58-.95.1-1.95.21-3.22.34 0 2.94-.26 5.78.14 8.54.15 1.03 1.81 1.85 2.99 2.56 1.34 3.61 1.06 3.99-2.87 4.03-4.79.05-6.75-1.83-6.84-6.6-.05-2.56-.03-5.11-.06-7.67-.01-.2-.1-.38-.24-.91zm183.37.19c-1.57-.25-3.14-.65-4.71-.68-.69-.01-1.39.73-2.09 1.12.47.62.82 1.43 1.44 1.8.95.58 2.07.9 3.14 1.27 2.61.89 3.7 2.75 3.61 5.43-.1 2.77-1.34 5.01-4.09 5.38-3.17.42-6.45.1-9.75.1v-4.58c2.08.23 3.99.54 5.91.58.57.01 1.16-.73 1.74-1.13-.42-.54-.74-1.27-1.3-1.6-.88-.53-1.9-.82-2.88-1.17-2.8-.99-4.01-2.96-3.77-5.89.21-2.7 1.85-4.7 4.71-5.29 1.37-.29 2.82-.29 4.23-.24 4.29.12 4.51.45 3.81 4.9zm50.21-5.07c2.14.97 5.23-1.83 6.09 1.99 1.7-.83 3.51-1.72 5.83-2.86v5.89c-4.84.69-5.49 1.45-5.5 6.47-.01 2.44 0 4.88 0 7.56h-6.43c.01-6.22.01-12.33.01-19.05zm-213.35 19.13c-.8.11-1.33.22-1.86.24-1.38.03-2.75.01-4.38.01v-18.4c4.16-.96 5.3-.63 5.97 1.41 1.7-.81 3.46-1.65 5.7-2.72v5.82c-4.55.37-5.39 1.27-5.42 5.82-.03 2.58-.01 5.15-.01 7.82zm141.79-17.27c1.85-.87 3.51-1.64 5.66-2.65v5.73c-4.63.8-5.39 1.72-5.44 6.56-.03 2.44-.01 4.88-.01 7.54h-6.23v-18.24c2.94-1.51 5.11-1.03 6.02 1.06zm-50.76 17.83h-6.48v-18.81h6.48v18.81zm144.62-18.74v18.74h-6.48V424.4c2.06.01 4.11.01 6.48.01zm-61.61 18.35c-6.45.82-6.45.82-6.45-5.01 0-3.59.15-7.19-.05-10.76-.14-2.56.8-3.45 3.24-3.11 1 .14 2.02.11 3.26.16v18.72zm54.47-22.31v-5.19h6.48v5.19h-6.48zm-143.96-5.18h6.48v5.19h-6.48v-5.19zm83.57 5.18c-.85-5.58-.31-6.02 5.91-5.06v5.06h-5.91zm31.08.16c1.25-5.38 1.25-5.38 6.25-4.58-2.16 4.77-2.58 5.08-6.25 4.58zm-12.19-55.83V346.5c5.59.44 11.12.56 16.52 1.42 3.18.51 5.05 3.15 5.45 6.5.43 3.58-.54 6.62-3.77 8.51-1.44.84-3.11 1.67-4.71 1.76-4.4.25-8.82.09-13.49.09zm.65-37.63v-16.82c5.57.29 11.18-.87 16.63 1.37 3.1 1.28 4.38 3.75 4.47 6.92.09 3.04-.96 5.6-3.79 7.08-1.24.64-2.62 1.33-3.96 1.38-4.4.18-8.8.07-13.35.07z"/></svg>