<svg width="25" height="29" viewBox="0 0 25 29" fill="none" xmlns="http://www.w3.org/2000/svg">
<g clip-path="url(#clip0_87_7242)">
<path d="M14.3217 26.1347C15.5498 25.7952 16.8185 25.3812 17.9652 24.8015C18.3718 24.6276 18.7459 24.3957 19.1526 24.2052C19.8438 23.8657 20.4701 24.818 19.917 25.3397C18.811 26.3997 17.3471 26.9711 15.8751 27.203C15.2814 27.2195 13.8744 27.6336 13.8582 26.6481C13.8826 26.3831 14.0777 26.1844 14.3136 26.1347H14.3217Z" fill="black"/>
<path d="M15.8913 27.8903C16.7941 27.6585 17.7456 27.3686 18.5914 26.9463C18.8923 26.8138 19.177 26.6399 19.486 26.4991C20.0309 26.2176 20.5758 26.9877 20.1448 27.4183C19.0468 28.5445 17.461 29.1076 15.9076 28.9917C15.6067 28.9586 15.3952 28.6936 15.4196 28.3872C15.444 28.1222 15.6474 27.94 15.8832 27.8903H15.8913Z" fill="black"/>
<path d="M8.21409 9.10909C7.1975 9.73844 6.27036 10.7653 5.99385 11.9743C5.91252 12.3635 5.3107 12.2559 5.3595 11.8667C5.46522 10.7404 6.02638 9.72188 6.7502 8.89378C7.14057 8.50458 7.81558 7.55226 8.39301 8.21474C8.61259 8.50458 8.53126 8.93519 8.21409 9.10909Z" fill="black"/>
<path d="M7.52275 1.05164C-4.75767 6.84832 -1.15487 23.9486 12.1909 24.1804C12.1909 24.1804 13.4515 23.3523 12.1909 23.3523C10.9304 23.3523 7.10798 21.8452 5.70102 19.8909C2.80577 15.9822 3.15547 10.3429 6.48176 7.02222C11.7843 1.90458 20.6571 5.5979 20.8767 13.0508C21.0149 15.9822 19.5673 18.7895 17.4447 20.8349C17.4447 20.8349 19.73 19.394 19.673 19.7998C19.6161 20.2055 18.5263 21.9031 18.5263 21.9031C18.5263 21.9031 20.836 20.8515 20.5026 21.3732L19.5429 22.8969C22.8529 20.8763 24.943 17.0588 25.0081 13.0508C25.3334 3.95826 15.6799 -2.65824 7.52275 1.05164Z" fill="black"/>
</g>
<defs>
<clipPath id="clip0_87_7242">
<rect width="25" height="29" fill="white"/>
</clipPath>
</defs>
</svg>
