<svg width="25" height="33" viewBox="0 0 25 33" fill="none" xmlns="http://www.w3.org/2000/svg">
<g clip-path="url(#clip0_87_7169)">
<path fill-rule="evenodd" clip-rule="evenodd" d="M12.4461 26.5977C9.24561 26.5726 6.67283 24.0728 6.69911 21.014C6.72539 17.9552 9.34123 15.496 12.5414 15.5214C15.7419 15.5465 18.3146 18.0466 18.2884 21.1051C18.2621 24.1639 15.6462 26.6231 12.4461 26.5977ZM24.9848 21.0509C25.1419 18.1096 24.087 13.2952 21.5042 9.35998C21.4357 9.25791 21.3191 9.29826 21.344 9.40621C21.5162 10.0061 21.5576 11.0899 20.5597 11.0258C18.7919 10.9125 20.6215 7.29629 16.7389 4.78769C16.6612 4.73745 16.5683 4.80452 16.6108 4.88469C16.877 5.36834 17.0352 6.8765 16.4201 7.39062C15.9267 7.80293 15.0208 7.69204 14.1499 6.33379C12.6983 4.07049 13.2493 1.65033 14.2357 0.138703C14.3098 0.0256713 14.2083 -0.0192207 14.1239 0.00750071C8.78261 1.69228 7.71626 7.70834 6.57973 9.9027C6.38905 10.2704 6.22381 10.4628 5.89781 10.4419C4.92512 10.3797 5.62577 8.39614 5.96267 7.70566C6.00992 7.6084 5.89305 7.55469 5.83015 7.61748C3.08039 10.3642 0.591204 15.0404 0.118139 19.3858C0.133237 19.283 0.0739636 19.745 0.0451659 20.0833C0.0451659 20.0835 0.0451659 20.0841 0.0451659 20.0841C0.0339824 20.2166 0.0247559 20.3494 0.017207 20.4825C0.0093785 20.6415 0.00182959 20.8007 0.000431643 20.9613C-0.056325 27.5556 5.49128 32.9453 12.391 32.9996C19.2907 33.0538 24.93 27.7523 24.987 21.158C24.9873 21.1219 24.9848 21.0867 24.9848 21.0509Z" fill="black"/>
</g>
<defs>
<clipPath id="clip0_87_7169">
<rect width="25" height="33" fill="white"/>
</clipPath>
</defs>
</svg>
