<svg width="18" height="18" viewBox="0 0 18 18" fill="none" xmlns="http://www.w3.org/2000/svg">
<g clip-path="url(#clip0_276_94)">
<path d="M9 0C3.9375 0 0 3.9375 0 9C0 14.9062 5.34375 17.4375 6.1875 17.4375C6.75 17.4375 6.75 17.1562 6.75 16.875V15.4688C4.78125 16.0312 3.9375 14.9062 3.65625 14.0625C3.65625 14.0625 3.65625 13.7812 3.09375 13.2188C2.8125 12.9375 1.6875 12.375 2.8125 12.375C3.65625 12.375 4.21875 13.5 4.21875 13.5C5.0625 14.625 6.1875 14.3438 6.75 14.0625C6.75 13.5 7.3125 12.9375 7.3125 12.9375C5.0625 12.6562 3.375 11.8125 3.375 8.71875C3.375 7.59375 3.65625 6.75 4.21875 6.1875C4.21875 6.1875 3.65625 5.0625 4.21875 3.65625C4.21875 3.65625 5.625 3.65625 6.75 4.78125C7.59375 4.21875 10.4062 4.21875 11.25 4.78125C12.375 3.65625 13.7812 3.65625 13.7812 3.65625C14.3438 5.625 13.7812 6.1875 13.7812 6.1875C14.3438 6.75 14.625 7.59375 14.625 8.71875C14.625 11.8125 12.6562 12.6562 10.6875 12.9375C10.9688 13.2188 11.25 13.7812 11.25 14.625V16.875C11.25 17.1562 11.25 17.4375 11.8125 17.4375C12.6562 17.4375 18 14.9062 18 9C18 3.9375 14.0625 0 9 0Z" fill="white"/>
</g>
<defs>
<clipPath id="clip0_276_94">
<rect width="18" height="18" fill="white"/>
</clipPath>
</defs>
</svg>
