<svg width="18" height="18" viewBox="0 0 18 18" fill="none" xmlns="http://www.w3.org/2000/svg">
<path d="M5.2035 3.37744C5.73 3.37744 6.2085 3.42244 6.6435 3.51844C7.07625 3.61594 7.446 3.76594 7.75725 3.97594C8.06475 4.18594 8.307 4.46344 8.47725 4.81594C8.646 5.16844 8.73225 5.60344 8.73225 6.11344C8.73225 6.66844 8.60475 7.13344 8.352 7.50844C8.0985 7.88344 7.72425 8.18344 7.2255 8.42344C7.905 8.61844 8.4075 8.96344 8.742 9.45094C9.078 9.94594 9.24075 10.5384 9.24075 11.2209C9.24075 11.7834 9.14325 12.2634 8.93325 12.6684C8.72325 13.0809 8.43075 13.4184 8.06325 13.6809C7.70325 13.9419 7.27575 14.1309 6.81075 14.2562C6.35325 14.3799 5.87175 14.4467 5.37825 14.4467H0V3.38269H5.2035V3.37744ZM12.705 12.4989C13.035 12.8199 13.5097 12.9812 14.1255 12.9812C14.568 12.9812 14.9505 12.8702 15.273 12.6459C15.591 12.4284 15.783 12.1884 15.858 11.9409H17.799C17.4968 12.9009 17.013 13.5909 16.374 14.0034C15.7365 14.4234 14.961 14.6259 14.064 14.6259C13.4363 14.6259 12.876 14.5284 12.36 14.3259C11.8552 14.1234 11.43 13.8384 11.07 13.4709C10.722 13.1034 10.4527 12.6609 10.2622 12.1434C10.0725 11.6259 9.9825 11.0559 9.9825 10.4409C9.9825 9.83869 10.0838 9.28594 10.2848 8.76844C10.4873 8.24344 10.7678 7.80844 11.1248 7.42594C11.496 7.04344 11.922 6.75469 12.4268 6.53044C12.9315 6.30619 13.4767 6.20569 14.0917 6.20569C14.7742 6.20569 15.3593 6.32869 15.8768 6.59794C16.3793 6.85294 16.7918 7.21294 17.1218 7.64794C17.4518 8.08744 17.6842 8.59294 17.8267 9.16294C17.9692 9.72544 18.0143 10.3179 17.9843 10.9479H12.2167C12.2167 11.5779 12.4268 12.1719 12.7493 12.4967L12.6893 12.5192L12.705 12.4989ZM5.025 12.5364C5.26275 12.5364 5.49 12.5139 5.7045 12.4667C5.922 12.4217 6.1155 12.3429 6.27675 12.2417C6.43425 12.1404 6.56925 11.9957 6.66675 11.8044C6.76425 11.6244 6.80925 11.3769 6.80925 11.0844C6.80925 10.5219 6.64425 10.1169 6.32925 9.86944C6.00675 9.62944 5.58675 9.50944 5.06175 9.50944H2.43V12.5469H5.025V12.5244V12.5364ZM15.2302 8.29894C14.9662 8.01019 14.5252 7.85494 13.9875 7.85494C13.6365 7.85494 13.3462 7.91044 13.113 8.03344C12.8865 8.14594 12.7005 8.29594 12.558 8.47594C12.4155 8.65594 12.3202 8.83594 12.264 9.03844C12.2077 9.23344 12.174 9.41344 12.1627 9.57094H15.7343C15.6818 9.00844 15.4867 8.59594 15.2242 8.30344V8.31094L15.2302 8.29894ZM4.89 7.83769C5.3205 7.83769 5.6775 7.73719 5.95875 7.52869C6.23925 7.32619 6.37425 6.98869 6.37425 6.52519C6.37425 6.26719 6.32175 6.05644 6.23925 5.89069C6.14175 5.72569 6.01425 5.59819 5.86425 5.50669C5.70675 5.41369 5.52675 5.34919 5.32425 5.31394C5.12175 5.27419 4.90425 5.25844 4.69425 5.25844H2.4225V7.83844H4.89V7.83769ZM11.7135 4.11919H16.1895V5.20969H11.7135V4.11019V4.11769V4.11919Z" fill="white"/>
</svg>
