<svg width="18" height="18" viewBox="0 0 18 18" fill="none" xmlns="http://www.w3.org/2000/svg">
<g clip-path="url(#clip0_276_74)">
<path d="M4.18994 5.79102H0.57641C0.416035 5.79102 0.286087 5.92102 0.286087 6.08134V17.6901C0.286087 17.8504 0.416035 17.9804 0.57641 17.9804H4.18994C4.35031 17.9804 4.48026 17.8504 4.48026 17.6901V6.08134C4.48026 5.92102 4.35031 5.79102 4.18994 5.79102Z" fill="white"/>
<path d="M2.38448 0.0200195C1.06966 0.0200195 0 1.08852 0 2.40188C0 3.71583 1.06966 4.78474 2.38448 4.78474C3.69825 4.78474 4.76704 3.71577 4.76704 2.40188C4.7671 1.08852 3.69825 0.0200195 2.38448 0.0200195Z" fill="white"/>
<path d="M13.3812 5.50244C11.9299 5.50244 10.857 6.12634 10.2063 6.83525V6.08129C10.2063 5.92097 10.0763 5.79096 9.91596 5.79096H6.45538C6.295 5.79096 6.16505 5.92097 6.16505 6.08129V17.69C6.16505 17.8504 6.295 17.9803 6.45538 17.9803H10.061C10.2214 17.9803 10.3513 17.8504 10.3513 17.69V11.9464C10.3513 10.0109 10.877 9.25689 12.2262 9.25689C13.6956 9.25689 13.8124 10.4657 13.8124 12.046V17.6901C13.8124 17.8504 13.9423 17.9804 14.1027 17.9804H17.7097C17.87 17.9804 18 17.8504 18 17.6901V11.3225C18 8.44451 17.4512 5.50244 13.3812 5.50244Z" fill="white"/>
</g>
<defs>
<clipPath id="clip0_276_74">
<rect width="18" height="18" fill="white"/>
</clipPath>
</defs>
</svg>
