<svg width="18" height="18" viewBox="0 0 18 18" fill="none" xmlns="http://www.w3.org/2000/svg">
<path d="M5.07663 3.86719C7.88038 3.86719 10.1531 6.15576 10.1531 8.97865C10.1531 11.8016 7.88021 14.0899 5.07663 14.0899C2.27305 14.0899 0 11.8016 0 8.97865C0 6.15576 2.27287 3.86719 5.07663 3.86719ZM13.1836 4.1666C14.5855 4.1666 15.722 6.32082 15.722 8.97865H15.7221C15.7221 11.6358 14.5857 13.7907 13.1838 13.7907C11.7819 13.7907 10.6455 11.6358 10.6455 8.97865C10.6455 6.32151 11.7818 4.1666 13.1836 4.1666ZM17.1073 4.66782C17.6002 4.66782 18 6.59781 18 8.97865C18 11.3588 17.6004 13.2895 17.1073 13.2895C16.6142 13.2895 16.2147 11.3593 16.2147 8.97865C16.2147 6.59798 16.6143 4.66782 17.1073 4.66782Z" fill="white"/>
</svg>
