<svg width="24" height="25" viewBox="0 0 24 25" fill="none" xmlns="http://www.w3.org/2000/svg">
<g clip-path="url(#clip0_51_189)">
<path d="M0.772612 1.52927L19.3332 1.52682L0.797825 7.82698L0.772612 1.52927Z" fill="black" stroke="black" stroke-width="1.33333"/>
<mask id="path-2-inside-1_51_189" fill="white">
<path fill-rule="evenodd" clip-rule="evenodd" d="M23.3499 0.985596L23.3402 24.5456L0.118817 24.5486L0.114563 16.8287L23.3499 0.985596ZM3.59376 20.4125C3.59376 20.6427 3.59357 20.8845 3.59337 21.1323C3.59274 21.9127 3.59207 22.7527 3.59726 23.4773L1.23693 23.4772L1.23891 17.3033C1.90576 17.3125 2.9257 17.3122 3.59255 17.3034L3.59376 20.4125ZM4.41219 17.2608L4.41994 20.3582C4.41994 20.4432 4.41725 20.6742 4.41376 20.9743V20.9743C4.40305 21.8958 4.38476 23.4688 4.41341 23.4687C6.09792 23.463 8.12444 23.4633 9.80895 23.4684L9.81579 21.9666C9.30001 21.9735 8.63516 21.9732 7.99447 21.9729H7.99433H7.99419C7.5326 21.9726 7.08356 21.9724 6.71189 21.9749L6.70916 21.1182C7.1085 21.1218 7.60505 21.1217 8.10519 21.1216C8.64363 21.1214 9.18622 21.1213 9.61615 21.1259L9.61037 19.6199C9.15716 19.6264 8.58205 19.6261 8.01829 19.6257H8.01799C7.55031 19.6255 7.09045 19.6252 6.71448 19.6288L6.71584 18.7571C7.18852 18.761 7.77067 18.761 8.34571 18.761H8.34574H8.34577C8.85054 18.761 9.34982 18.761 9.76474 18.7637L9.76048 17.2605C8.09527 17.2659 6.07726 17.2656 4.41219 17.2608ZM15.4314 18.9911C14.7905 18.7766 14.1562 18.6712 13.5039 18.6867C13.3029 18.6916 13.103 18.7078 12.9123 18.7786C12.7714 18.8309 12.6572 18.9128 12.6519 19.0822C12.6466 19.2572 12.7655 19.3353 12.9053 19.3885C13.1718 19.4901 13.4498 19.5441 13.7278 19.5981L13.7278 19.5981C13.8366 19.6193 13.9455 19.6404 14.0536 19.6644C14.5515 19.7747 15.0207 19.9333 15.401 20.3049C16.0072 20.8977 16.0739 22.4525 14.9177 23.0918C14.4476 23.3517 13.9424 23.4688 13.4175 23.5124C12.4361 23.5939 11.325 23.4206 10.3654 23.2133L10.3712 21.6637C10.7818 21.823 11.1887 21.9406 11.611 21.9985C12.0611 22.0602 12.5119 22.1004 12.9636 22.0192C13.058 22.0022 13.153 21.9755 13.2411 21.9377C13.3681 21.8833 13.4895 21.8137 13.4896 21.6462C13.4898 21.4825 13.3793 21.4057 13.251 21.3456C13.0382 21.246 12.8099 21.2012 12.5818 21.157C12.1815 21.0794 11.7849 20.9867 11.4066 20.8312C10.7621 20.5664 10.3874 20.093 10.33 19.3819C10.2663 18.5921 10.5533 17.9889 11.2635 17.6199C11.8968 17.2909 12.5861 17.236 13.2815 17.2186C13.8133 17.2055 14.4448 17.3251 15.012 17.4325L15.0121 17.4325C15.1585 17.4603 15.3006 17.4872 15.4356 17.5108L15.4314 18.9911ZM21.416 20.3766C21.3666 20.3713 21.3161 20.3659 21.2778 20.317C21.3199 20.301 21.362 20.2857 21.4038 20.2706C21.4935 20.2381 21.5822 20.206 21.6677 20.1667C22.2522 19.8981 22.5111 19.4221 22.5052 18.789C22.4994 18.1539 22.1965 17.713 21.62 17.4663C21.2821 17.3216 20.9238 17.267 20.5595 17.2654C20.0182 17.2631 19.4438 17.2623 18.864 17.2615C18.0633 17.2604 17.2525 17.2592 16.5048 17.2541L16.5062 23.4888L20.2224 23.4843C20.585 23.484 20.9466 23.4647 21.3035 23.3939C22.1291 23.2301 22.5828 22.6918 22.6137 21.8415C22.6378 21.1771 22.1791 20.5919 21.4786 20.387C21.4587 20.3812 21.4374 20.3789 21.416 20.3766ZM19.019 18.4368C18.9194 18.4383 18.8229 18.4396 18.734 18.4367L18.7467 19.6337C18.8375 19.6309 18.9342 19.6326 19.0332 19.6343C19.2718 19.6386 19.524 19.6431 19.7397 19.584C20.0201 19.5071 20.1708 19.3236 20.1743 19.0583C20.1786 18.7463 20.0566 18.578 19.7488 18.4909C19.5321 18.4295 19.2661 18.4333 19.019 18.4368ZM19.0575 20.9264C18.9405 20.9276 18.8275 20.9288 18.7291 20.9242L18.7393 22.2084C18.8022 22.2076 18.8693 22.208 18.9386 22.2085C19.1957 22.2101 19.4845 22.2119 19.7135 22.1535C20.0684 22.0629 20.2571 21.8351 20.2447 21.5297C20.2316 21.2056 20.0303 21.0124 19.6515 20.9503C19.4796 20.9221 19.2624 20.9243 19.0575 20.9264Z"/>
</mask>
<path fill-rule="evenodd" clip-rule="evenodd" d="M23.3499 0.985596L23.3402 24.5456L0.118817 24.5486L0.114563 16.8287L23.3499 0.985596ZM3.59376 20.4125C3.59376 20.6427 3.59357 20.8845 3.59337 21.1323C3.59274 21.9127 3.59207 22.7527 3.59726 23.4773L1.23693 23.4772L1.23891 17.3033C1.90576 17.3125 2.9257 17.3122 3.59255 17.3034L3.59376 20.4125ZM4.41219 17.2608L4.41994 20.3582C4.41994 20.4432 4.41725 20.6742 4.41376 20.9743V20.9743C4.40305 21.8958 4.38476 23.4688 4.41341 23.4687C6.09792 23.463 8.12444 23.4633 9.80895 23.4684L9.81579 21.9666C9.30001 21.9735 8.63516 21.9732 7.99447 21.9729H7.99433H7.99419C7.5326 21.9726 7.08356 21.9724 6.71189 21.9749L6.70916 21.1182C7.1085 21.1218 7.60505 21.1217 8.10519 21.1216C8.64363 21.1214 9.18622 21.1213 9.61615 21.1259L9.61037 19.6199C9.15716 19.6264 8.58205 19.6261 8.01829 19.6257H8.01799C7.55031 19.6255 7.09045 19.6252 6.71448 19.6288L6.71584 18.7571C7.18852 18.761 7.77067 18.761 8.34571 18.761H8.34574H8.34577C8.85054 18.761 9.34982 18.761 9.76474 18.7637L9.76048 17.2605C8.09527 17.2659 6.07726 17.2656 4.41219 17.2608ZM15.4314 18.9911C14.7905 18.7766 14.1562 18.6712 13.5039 18.6867C13.3029 18.6916 13.103 18.7078 12.9123 18.7786C12.7714 18.8309 12.6572 18.9128 12.6519 19.0822C12.6466 19.2572 12.7655 19.3353 12.9053 19.3885C13.1718 19.4901 13.4498 19.5441 13.7278 19.5981L13.7278 19.5981C13.8366 19.6193 13.9455 19.6404 14.0536 19.6644C14.5515 19.7747 15.0207 19.9333 15.401 20.3049C16.0072 20.8977 16.0739 22.4525 14.9177 23.0918C14.4476 23.3517 13.9424 23.4688 13.4175 23.5124C12.4361 23.5939 11.325 23.4206 10.3654 23.2133L10.3712 21.6637C10.7818 21.823 11.1887 21.9406 11.611 21.9985C12.0611 22.0602 12.5119 22.1004 12.9636 22.0192C13.058 22.0022 13.153 21.9755 13.2411 21.9377C13.3681 21.8833 13.4895 21.8137 13.4896 21.6462C13.4898 21.4825 13.3793 21.4057 13.251 21.3456C13.0382 21.246 12.8099 21.2012 12.5818 21.157C12.1815 21.0794 11.7849 20.9867 11.4066 20.8312C10.7621 20.5664 10.3874 20.093 10.33 19.3819C10.2663 18.5921 10.5533 17.9889 11.2635 17.6199C11.8968 17.2909 12.5861 17.236 13.2815 17.2186C13.8133 17.2055 14.4448 17.3251 15.012 17.4325L15.0121 17.4325C15.1585 17.4603 15.3006 17.4872 15.4356 17.5108L15.4314 18.9911ZM21.416 20.3766C21.3666 20.3713 21.3161 20.3659 21.2778 20.317C21.3199 20.301 21.362 20.2857 21.4038 20.2706C21.4935 20.2381 21.5822 20.206 21.6677 20.1667C22.2522 19.8981 22.5111 19.4221 22.5052 18.789C22.4994 18.1539 22.1965 17.713 21.62 17.4663C21.2821 17.3216 20.9238 17.267 20.5595 17.2654C20.0182 17.2631 19.4438 17.2623 18.864 17.2615C18.0633 17.2604 17.2525 17.2592 16.5048 17.2541L16.5062 23.4888L20.2224 23.4843C20.585 23.484 20.9466 23.4647 21.3035 23.3939C22.1291 23.2301 22.5828 22.6918 22.6137 21.8415C22.6378 21.1771 22.1791 20.5919 21.4786 20.387C21.4587 20.3812 21.4374 20.3789 21.416 20.3766ZM19.019 18.4368C18.9194 18.4383 18.8229 18.4396 18.734 18.4367L18.7467 19.6337C18.8375 19.6309 18.9342 19.6326 19.0332 19.6343C19.2718 19.6386 19.524 19.6431 19.7397 19.584C20.0201 19.5071 20.1708 19.3236 20.1743 19.0583C20.1786 18.7463 20.0566 18.578 19.7488 18.4909C19.5321 18.4295 19.2661 18.4333 19.019 18.4368ZM19.0575 20.9264C18.9405 20.9276 18.8275 20.9288 18.7291 20.9242L18.7393 22.2084C18.8022 22.2076 18.8693 22.208 18.9386 22.2085C19.1957 22.2101 19.4845 22.2119 19.7135 22.1535C20.0684 22.0629 20.2571 21.8351 20.2447 21.5297C20.2316 21.2056 20.0303 21.0124 19.6515 20.9503C19.4796 20.9221 19.2624 20.9243 19.0575 20.9264Z" fill="black"/>
<path d="M23.3402 24.5456L23.3404 25.879L24.673 25.8788L24.6736 24.5462L23.3402 24.5456ZM23.3499 0.985596L24.6833 0.986146L24.6843 -1.53803L22.5988 -0.116024L23.3499 0.985596ZM0.118817 24.5486L-1.21452 24.5493L-1.21378 25.8821L0.118985 25.8819L0.118817 24.5486ZM0.114563 16.8287L-0.636577 15.727L-1.21916 16.1243L-1.21877 16.8294L0.114563 16.8287ZM3.59337 21.1323L2.26004 21.1313L3.59337 21.1323ZM3.59376 20.4125H4.9271V20.412L3.59376 20.4125ZM3.59726 23.4773L3.59717 24.8107L4.94017 24.8108L4.93056 23.4678L3.59726 23.4773ZM1.23693 23.4772L-0.0963984 23.4768L-0.0968251 24.8104L1.23685 24.8105L1.23693 23.4772ZM1.23891 17.3033L1.25732 15.9701L-0.0939909 15.9514L-0.0944232 17.3028L1.23891 17.3033ZM3.59255 17.3034L4.92588 17.3029L4.92535 15.9525L3.57506 15.9702L3.59255 17.3034ZM4.41994 20.3582H5.75328L5.75327 20.3548L4.41994 20.3582ZM4.41219 17.2608L4.416 15.9275L3.07551 15.9237L3.07886 17.2642L4.41219 17.2608ZM4.41376 20.9743L3.08052 20.9588L3.08043 20.9665V20.9743H4.41376ZM4.41376 20.9743L5.74701 20.9899L5.7471 20.9821V20.9743H4.41376ZM4.41341 23.4687L4.40891 22.1354L4.40808 22.1354L4.41341 23.4687ZM9.80895 23.4684L9.80494 24.8017L11.1362 24.8057L11.1423 23.4744L9.80895 23.4684ZM9.81579 21.9666L11.1491 21.9727L11.1553 20.6151L9.7978 20.6334L9.81579 21.9666ZM7.99447 21.9729L7.99518 20.6395H7.99447V21.9729ZM7.99419 21.9729L7.99348 23.3062H7.99419V21.9729ZM6.71189 21.9749L5.37857 21.9791L5.38284 23.3172L6.72088 23.3082L6.71189 21.9749ZM6.70916 21.1182L6.72124 19.7849L5.37152 19.7727L5.37583 21.1224L6.70916 21.1182ZM8.10519 21.1216L8.1055 22.4549H8.1055L8.10519 21.1216ZM9.61615 21.1259L9.60209 22.4591L10.9547 22.4734L10.9495 21.1207L9.61615 21.1259ZM9.61037 19.6199L10.9437 19.6148L10.9385 18.2675L9.59138 18.2867L9.61037 19.6199ZM8.01829 19.6257L8.01905 18.2924H8.01829V19.6257ZM8.01799 19.6257L8.01723 20.9591H8.01799V19.6257ZM6.71448 19.6288L5.38114 19.6267L5.37903 20.9751L6.72731 20.9621L6.71448 19.6288ZM6.71584 18.7571L6.7269 17.4238L5.38462 17.4127L5.38251 18.755L6.71584 18.7571ZM8.34571 18.761L8.34569 20.0944H8.34571V18.761ZM8.34577 18.761L8.34578 17.4277H8.34577V18.761ZM9.76474 18.7637L9.75621 20.097L11.1019 20.1056L11.0981 18.7599L9.76474 18.7637ZM9.76048 17.2605L11.0938 17.2568L11.09 15.9229L9.75618 15.9272L9.76048 17.2605ZM13.5039 18.6867L13.4723 17.3537L13.4714 17.3537L13.5039 18.6867ZM15.4314 18.9911L15.0082 20.2555L16.7594 20.8417L16.7647 18.9949L15.4314 18.9911ZM12.9123 18.7786L12.4485 17.5285L12.448 17.5287L12.9123 18.7786ZM12.6519 19.0822L11.3192 19.0404L11.3192 19.0417L12.6519 19.0822ZM12.9053 19.3885L13.3801 18.1426L13.3799 18.1425L12.9053 19.3885ZM13.7278 19.5981L14.0941 18.3161L14.0386 18.3002L13.9821 18.2893L13.7278 19.5981ZM13.7278 19.5981L13.3615 20.8801L13.4169 20.896L13.4734 20.907L13.7278 19.5981ZM14.0536 19.6644L13.7647 20.9661L13.7652 20.9662L14.0536 19.6644ZM15.401 20.3049L16.3332 19.3516L16.3329 19.3513L15.401 20.3049ZM14.9177 23.0918L14.2726 21.9249L14.2725 21.925L14.9177 23.0918ZM13.4175 23.5124L13.3072 22.1836H13.3072L13.4175 23.5124ZM10.3654 23.2133L9.03207 23.2084L9.02805 24.2885L10.0838 24.5166L10.3654 23.2133ZM10.3712 21.6637L10.8533 20.4206L9.04507 19.7193L9.03784 21.6587L10.3712 21.6637ZM11.611 21.9985L11.792 20.6775L11.792 20.6775L11.611 21.9985ZM12.9636 22.0192L13.1995 23.3315L13.2005 23.3313L12.9636 22.0192ZM13.2411 21.9377L13.7661 23.1634L13.7666 23.1631L13.2411 21.9377ZM13.4896 21.6462L12.1563 21.6449V21.645L13.4896 21.6462ZM13.251 21.3456L13.8166 20.1382L13.8163 20.138L13.251 21.3456ZM12.5818 21.157L12.328 22.4659L12.3282 22.466L12.5818 21.157ZM11.4066 20.8312L10.8998 22.0645L10.8999 22.0645L11.4066 20.8312ZM10.33 19.3819L9.00097 19.489L9.00099 19.4893L10.33 19.3819ZM11.2635 17.6199L10.6488 16.4367L10.6487 16.4368L11.2635 17.6199ZM13.2815 17.2186L13.2485 15.8857L13.2483 15.8857L13.2815 17.2186ZM15.012 17.4325L15.2914 16.1288L15.2758 16.1254L15.2601 16.1225L15.012 17.4325ZM15.0121 17.4325L14.7327 18.7363L14.7483 18.7396L14.7639 18.7426L15.0121 17.4325ZM15.4356 17.5108L16.769 17.5146L16.7722 16.391L15.6654 16.1974L15.4356 17.5108ZM21.2778 20.317L20.8017 19.0716L19.1153 19.7164L20.2276 21.1385L21.2778 20.317ZM21.416 20.3766L21.5581 19.0509L21.5581 19.0509L21.416 20.3766ZM21.4038 20.2706L21.8578 21.5242L21.8578 21.5242L21.4038 20.2706ZM21.6677 20.1667L21.1111 18.9551L21.1108 18.9552L21.6677 20.1667ZM22.5052 18.789L21.1719 18.8011L21.1719 18.8015L22.5052 18.789ZM21.62 17.4663L21.0951 18.692L21.0953 18.6921L21.62 17.4663ZM20.5595 17.2654L20.5538 18.5988H20.5539L20.5595 17.2654ZM18.864 17.2615L18.8622 18.5948H18.8622L18.864 17.2615ZM16.5048 17.2541L16.514 15.9208L15.1712 15.9115L15.1715 17.2544L16.5048 17.2541ZM16.5062 23.4888L15.1728 23.4891L15.1731 24.8237L16.5077 24.8221L16.5062 23.4888ZM20.2224 23.4843L20.2212 22.151H20.2208L20.2224 23.4843ZM21.3035 23.3939L21.5628 24.7018L21.5631 24.7018L21.3035 23.3939ZM22.6137 21.8415L21.2812 21.7931L21.2812 21.7932L22.6137 21.8415ZM21.4786 20.387L21.8528 19.1073L21.8525 19.1072L21.4786 20.387ZM18.734 18.4367L18.7783 17.1041L17.3859 17.0578L17.4007 18.4509L18.734 18.4367ZM19.019 18.4368L19 17.1036H19L19.019 18.4368ZM18.7467 19.6337L17.4135 19.6479L17.428 21.0096L18.7891 20.9664L18.7467 19.6337ZM19.0332 19.6343L19.057 18.3012H19.057L19.0332 19.6343ZM19.7397 19.584L19.3872 18.2981L19.3872 18.2981L19.7397 19.584ZM20.1743 19.0583L18.8411 19.0401L18.8411 19.0407L20.1743 19.0583ZM19.7488 18.4909L19.3855 19.7738L19.3855 19.7738L19.7488 18.4909ZM18.7291 20.9242L18.7911 19.5923L17.3847 19.5269L17.3958 20.9348L18.7291 20.9242ZM19.0575 20.9264L19.0438 19.5932H19.0438L19.0575 20.9264ZM18.7393 22.2084L17.406 22.219L17.4166 23.5583L18.7559 23.5416L18.7393 22.2084ZM18.9386 22.2085L18.9469 20.8752H18.9469L18.9386 22.2085ZM19.7135 22.1535L20.0428 23.4455L20.0431 23.4454L19.7135 22.1535ZM20.2447 21.5297L18.9124 21.5834L18.9125 21.5841L20.2447 21.5297ZM19.6515 20.9503L19.4355 22.266L19.4357 22.266L19.6515 20.9503ZM24.6736 24.5462L24.6833 0.986146L22.0166 0.985045L22.0069 24.5451L24.6736 24.5462ZM0.118985 25.8819L23.3404 25.879L23.3401 23.2123L0.11865 23.2152L0.118985 25.8819ZM-1.21877 16.8294L-1.21452 24.5493L1.45215 24.5478L1.4479 16.8279L-1.21877 16.8294ZM22.5988 -0.116024L-0.636577 15.727L0.865703 17.9303L24.1011 2.08722L22.5988 -0.116024ZM4.9267 21.1334C4.9269 20.8857 4.9271 20.6433 4.9271 20.4125H2.26043C2.26043 20.6421 2.26024 20.8833 2.26004 21.1313L4.9267 21.1334ZM4.93056 23.4678C4.92541 22.7495 4.92607 21.9151 4.9267 21.1334L2.26004 21.1313C2.25941 21.9102 2.25872 22.7559 2.26396 23.4869L4.93056 23.4678ZM1.23685 24.8105L3.59717 24.8107L3.59734 22.144L1.23702 22.1439L1.23685 24.8105ZM-0.0944232 17.3028L-0.0963984 23.4768L2.57027 23.4776L2.57224 17.3037L-0.0944232 17.3028ZM3.57506 15.9702C2.91947 15.9788 1.91151 15.9791 1.25732 15.9701L1.2205 18.6365C1.9 18.6458 2.93193 18.6455 3.61003 18.6366L3.57506 15.9702ZM4.9271 20.412L4.92588 17.3029L2.25921 17.3039L2.26043 20.4131L4.9271 20.412ZM5.75327 20.3548L5.74552 17.2575L3.07886 17.2642L3.08661 20.3615L5.75327 20.3548ZM5.74701 20.9898C5.75042 20.6961 5.75327 20.4534 5.75327 20.3582H3.08661C3.08661 20.4331 3.08409 20.6523 3.08052 20.9588L5.74701 20.9898ZM5.7471 20.9743V20.9743H3.08043V20.9743H5.7471ZM4.40808 22.1354C4.81881 22.1337 5.11954 22.3158 5.28864 22.4631C5.44661 22.6008 5.5347 22.7434 5.57505 22.8154C5.6558 22.9594 5.68943 23.0843 5.69862 23.1185C5.72275 23.2085 5.73084 23.2791 5.73202 23.2888C5.73665 23.3266 5.7372 23.3484 5.73645 23.3333C5.73548 23.3136 5.73411 23.2683 5.73308 23.1909C5.7311 23.0415 5.73098 22.8259 5.73214 22.5732C5.73445 22.0704 5.74164 21.4518 5.74701 20.9899L3.08052 20.9588C3.07518 21.4184 3.06786 22.047 3.0655 22.561C3.06433 22.8168 3.06434 23.052 3.06665 23.2263C3.06777 23.3107 3.0696 23.3955 3.07306 23.4654C3.07453 23.4951 3.07762 23.5516 3.08512 23.6129C3.08775 23.6343 3.09735 23.7138 3.12309 23.8098C3.13309 23.847 3.16755 23.9742 3.24915 24.1197C3.28992 24.1924 3.37844 24.3357 3.53684 24.4737C3.70639 24.6214 4.00756 24.8036 4.41873 24.802L4.40808 22.1354ZM9.81296 22.135C8.12595 22.13 6.09657 22.1297 4.40891 22.1354L4.4179 24.802C6.09927 24.7963 8.12293 24.7966 9.80494 24.8017L9.81296 22.135ZM8.48247 21.9605L8.47563 23.4623L11.1423 23.4744L11.1491 21.9727L8.48247 21.9605ZM7.99377 23.3062C8.63126 23.3065 9.30661 23.3069 9.83377 23.2998L9.7978 20.6334C9.29342 20.6402 8.63906 20.6399 7.99518 20.6395L7.99377 23.3062ZM7.99433 23.3062H7.99447V20.6395H7.99433V23.3062ZM7.99419 23.3062H7.99433V20.6395H7.99419V23.3062ZM6.72088 23.3082C7.08668 23.3057 7.53038 23.3059 7.99348 23.3062L7.9949 20.6395C7.53481 20.6393 7.08044 20.639 6.7029 20.6416L6.72088 23.3082ZM5.37583 21.1224L5.37857 21.9791L8.04522 21.9706L8.04248 21.1139L5.37583 21.1224ZM8.10488 19.7882C7.60272 19.7884 7.11306 19.7885 6.72124 19.7849L6.69707 22.4515C7.10394 22.4552 7.60738 22.455 8.1055 22.4549L8.10488 19.7882ZM9.63021 19.7926C9.19154 19.788 8.64092 19.7881 8.10487 19.7882L8.1055 22.4549C8.64633 22.4548 9.1809 22.4547 9.60209 22.4591L9.63021 19.7926ZM8.27705 19.625L8.28282 21.131L10.9495 21.1207L10.9437 19.6148L8.27705 19.625ZM8.01753 20.9591C8.57799 20.9594 9.16414 20.9598 9.62936 20.9531L9.59138 18.2867C9.15018 18.293 8.58611 18.2927 8.01905 18.2924L8.01753 20.9591ZM8.01799 20.9591H8.01829V18.2924H8.01799V20.9591ZM6.72731 20.9621C7.09505 20.9586 7.5474 20.9588 8.01723 20.9591L8.01876 18.2924C7.55323 18.2921 7.08586 18.2919 6.70164 18.2956L6.72731 20.9621ZM5.38251 18.755L5.38114 19.6267L8.04781 19.6309L8.04917 18.7592L5.38251 18.755ZM8.34572 17.4277C7.76894 17.4277 7.19289 17.4277 6.7269 17.4238L6.70478 20.0904C7.18415 20.0944 7.7724 20.0944 8.34569 20.0944L8.34572 17.4277ZM8.34574 17.4277H8.34571V20.0944H8.34574V17.4277ZM8.34577 17.4277H8.34574V20.0944H8.34577V17.4277ZM9.77326 17.4304C9.3532 17.4277 8.84926 17.4277 8.34578 17.4277L8.34575 20.0944C8.85182 20.0944 9.34644 20.0944 9.75621 20.097L9.77326 17.4304ZM8.42716 17.2643L8.43141 18.7675L11.0981 18.7599L11.0938 17.2568L8.42716 17.2643ZM4.40838 18.5942C6.07581 18.5989 8.09655 18.5992 9.76478 18.5939L9.75618 15.9272C8.09399 15.9326 6.0787 15.9323 4.416 15.9275L4.40838 18.5942ZM13.5356 20.0196C14.0176 20.0082 14.498 20.0847 15.0082 20.2555L15.8546 17.7267C15.0831 17.4685 14.2948 17.3342 13.4723 17.3537L13.5356 20.0196ZM13.3761 20.0287C13.3598 20.0347 13.3588 20.0325 13.3848 20.029C13.4133 20.0251 13.4579 20.0215 13.5365 20.0196L13.4714 17.3537C13.236 17.3595 12.8538 17.3781 12.4485 17.5285L13.3761 20.0287ZM13.9846 19.1241C13.9769 19.3692 13.8742 19.6235 13.6875 19.8157C13.5362 19.9714 13.3895 20.0237 13.3766 20.0284L12.448 17.5287C12.2943 17.5858 12.02 17.7052 11.775 17.9574C11.4946 18.2459 11.3322 18.6259 11.3192 19.0404L13.9846 19.1241ZM13.3799 18.1425C13.3843 18.1442 13.4185 18.1572 13.4671 18.1849C13.5162 18.213 13.5968 18.2656 13.6818 18.3533C13.7708 18.4451 13.8561 18.5671 13.9141 18.718C13.9719 18.8682 13.988 19.0092 13.9846 19.1228L11.3192 19.0417C11.3057 19.4843 11.4657 19.8983 11.7666 20.2088C12.0181 20.4684 12.3026 20.5857 12.4307 20.6345L13.3799 18.1425ZM13.9821 18.2893C13.6855 18.2316 13.5213 18.1964 13.3801 18.1426L12.4305 20.6345C12.8223 20.7837 13.2141 20.8566 13.4734 20.907L13.9821 18.2893ZM14.0941 18.3161L14.0941 18.3161L13.3615 20.8801L13.3615 20.8801L14.0941 18.3161ZM14.3425 18.3628C14.2143 18.3343 14.088 18.3098 13.9821 18.2893L13.4734 20.907C13.5852 20.9287 13.6767 20.9465 13.7647 20.9661L14.3425 18.3628ZM16.3329 19.3513C15.6824 18.7156 14.9146 18.4895 14.3421 18.3627L13.7652 20.9662C14.1885 21.06 14.359 21.1509 14.4691 21.2585L16.3329 19.3513ZM15.5628 24.2587C16.5944 23.6883 17.0615 22.7046 17.1475 21.8083C17.2277 20.9727 16.9945 19.9982 16.3332 19.3516L14.4688 21.2582C14.4276 21.2179 14.4459 21.216 14.4693 21.292C14.4906 21.3615 14.5025 21.455 14.493 21.5536C14.4749 21.7427 14.3972 21.856 14.2726 21.9249L15.5628 24.2587ZM13.5278 24.8412C14.1781 24.7872 14.8808 24.6358 15.5629 24.2586L14.2725 21.925C14.0144 22.0677 13.7067 22.1505 13.3072 22.1836L13.5278 24.8412ZM10.0838 24.5166C11.0742 24.7306 12.3432 24.9395 13.5278 24.8412L13.3072 22.1836C12.5291 22.2482 11.5758 22.1107 10.6469 21.9101L10.0838 24.5166ZM9.03784 21.6587L9.03207 23.2084L11.6987 23.2183L11.7045 21.6686L9.03784 21.6587ZM11.792 20.6775C11.4979 20.6372 11.1938 20.5526 10.8533 20.4206L9.88904 22.9068C10.3699 23.0933 10.8796 23.2441 11.43 23.3195L11.792 20.6775ZM12.7278 20.7069C12.4937 20.749 12.2177 20.7358 11.792 20.6775L11.43 23.3195C11.9046 23.3845 12.5302 23.4518 13.1995 23.3315L12.7278 20.7069ZM12.7161 20.7121C12.7264 20.7077 12.7321 20.706 12.7327 20.7058C12.7335 20.7056 12.7314 20.7063 12.7268 20.7071L13.2005 23.3313C13.3775 23.2994 13.5714 23.2468 13.7661 23.1634L12.7161 20.7121ZM12.1563 21.645C12.1564 21.5212 12.18 21.3753 12.245 21.2252C12.3095 21.076 12.3981 20.9618 12.4817 20.8801C12.6246 20.7407 12.7616 20.6926 12.7156 20.7123L13.7666 23.1631C13.8476 23.1284 14.1088 23.0183 14.3442 22.7886C14.6344 22.5054 14.8226 22.1076 14.823 21.6474L12.1563 21.645ZM12.6853 22.553C12.7095 22.5643 12.5765 22.5103 12.4399 22.3626C12.3626 22.2791 12.2857 22.1681 12.2308 22.0296C12.1759 21.8909 12.1562 21.7578 12.1563 21.6449L14.823 21.6474C14.8234 21.2213 14.6636 20.8394 14.3971 20.5515C14.1732 20.3095 13.9208 20.187 13.8166 20.1382L12.6853 22.553ZM12.3282 22.466C12.5801 22.5148 12.6461 22.5346 12.6856 22.5531L13.8163 20.138C13.4304 19.9573 13.0396 19.8876 12.8355 19.848L12.3282 22.466ZM10.8999 22.0645C11.4025 22.271 11.9028 22.3835 12.328 22.4659L12.8357 19.8481C12.4602 19.7752 12.1674 19.7023 11.9133 19.5979L10.8999 22.0645ZM9.00099 19.4893C9.04714 20.0607 9.22929 20.6073 9.58395 21.0772C9.93584 21.5434 10.4013 21.8596 10.8998 22.0645L11.9134 19.598C11.7674 19.538 11.7233 19.4851 11.7123 19.4706C11.7042 19.4598 11.6703 19.4143 11.659 19.2746L9.00099 19.4893ZM10.6487 16.4368C10.0862 16.7291 9.61852 17.1565 9.32168 17.7317C9.02932 18.2983 8.95414 18.9081 9.00097 19.489L11.659 19.2748C11.6422 19.066 11.6787 18.9793 11.6914 18.9545C11.6997 18.9385 11.7307 18.8797 11.8783 18.803L10.6487 16.4368ZM13.2483 15.8857C12.5338 15.9035 11.5742 15.9559 10.6488 16.4367L11.8782 18.8031C12.2193 18.6259 12.6384 18.5684 13.3147 18.5515L13.2483 15.8857ZM15.2601 16.1225C14.7328 16.0226 13.9507 15.8683 13.2485 15.8857L13.3145 18.5516C13.6759 18.5426 14.1569 18.6276 14.7638 18.7425L15.2601 16.1225ZM15.2914 16.1288L15.2914 16.1288L14.7326 18.7362L14.7327 18.7363L15.2914 16.1288ZM15.6654 16.1974C15.5412 16.1757 15.4086 16.1506 15.2602 16.1225L14.7639 18.7426C14.9084 18.7699 15.06 18.7987 15.2059 18.8242L15.6654 16.1974ZM16.7647 18.9949L16.769 17.5146L14.1023 17.507L14.0981 18.9873L16.7647 18.9949ZM20.2276 21.1385C20.6521 21.6812 21.2699 21.7019 21.2739 21.7024L21.5581 19.0509C21.5072 19.0454 21.6343 19.0534 21.777 19.1025C21.9636 19.1668 22.1682 19.2912 22.3281 19.4956L20.2276 21.1385ZM20.9499 19.0169C20.9098 19.0314 20.8566 19.0506 20.8017 19.0716L21.754 21.5624C21.7832 21.5513 21.8142 21.54 21.8578 21.5242L20.9499 19.0169ZM21.1108 18.9552C21.0843 18.9674 21.0485 18.9812 20.9499 19.0169L21.8578 21.5242C21.9385 21.495 22.08 21.4446 22.2247 21.3781L21.1108 18.9552ZM21.1719 18.8015C21.1732 18.9341 21.1466 18.9588 21.1602 18.9358C21.1626 18.9318 21.1655 18.9277 21.1684 18.9242C21.1713 18.9207 21.173 18.9193 21.1723 18.92C21.1713 18.9208 21.1549 18.9349 21.1111 18.9551L22.2243 21.3782C22.7299 21.146 23.1627 20.7883 23.4555 20.2933C23.7432 19.8068 23.8431 19.2771 23.8385 18.7765L21.1719 18.8015ZM21.0953 18.6921C21.1465 18.7139 21.1705 18.7311 21.1777 18.7368C21.1837 18.7415 21.1785 18.7384 21.1708 18.727C21.163 18.7155 21.1615 18.7085 21.163 18.7136C21.1648 18.7201 21.1714 18.7469 21.1719 18.8011L23.8385 18.7769C23.8336 18.2446 23.7009 17.7098 23.3824 17.237C23.0648 16.7656 22.6227 16.4452 22.1447 16.2405L21.0953 18.6921ZM20.5539 18.5988C20.7903 18.5998 20.9623 18.6351 21.0951 18.692L22.1449 16.2406C21.6019 16.0081 21.0573 15.9342 20.5651 15.9321L20.5539 18.5988ZM18.8622 18.5948C19.4423 18.5956 20.0147 18.5964 20.5538 18.5988L20.5652 15.9321C20.0216 15.9298 19.4452 15.929 18.8659 15.9282L18.8622 18.5948ZM16.4956 18.5874C17.2476 18.5926 18.0623 18.5937 18.8622 18.5948L18.8659 15.9282C18.0644 15.927 17.2573 15.9259 16.514 15.9208L16.4956 18.5874ZM17.8395 23.4885L17.8381 17.2538L15.1715 17.2544L15.1728 23.4891L17.8395 23.4885ZM20.2208 22.151L16.5046 22.1554L16.5077 24.8221L20.2239 24.8177L20.2208 22.151ZM21.0443 22.0861C20.8071 22.1331 20.5417 22.1507 20.2212 22.151L20.2235 24.8177C20.6283 24.8173 21.0862 24.7963 21.5628 24.7018L21.0443 22.0861ZM21.2812 21.7932C21.2776 21.8932 21.2626 21.9532 21.2521 21.9834C21.2469 21.9984 21.2426 22.0069 21.2404 22.0108C21.2393 22.0128 21.2385 22.014 21.2381 22.0146C21.2377 22.0151 21.2375 22.0153 21.2375 22.0154C21.2375 22.0154 21.2374 22.0155 21.2372 22.0157C21.2369 22.016 21.2361 22.0167 21.2348 22.0178C21.2323 22.0198 21.2259 22.0247 21.2137 22.0313C21.1893 22.0446 21.137 22.0676 21.0439 22.0861L21.5631 24.7018C22.2075 24.5738 22.8214 24.2735 23.2757 23.7349C23.7289 23.1978 23.9224 22.5435 23.9461 21.8899L21.2812 21.7932ZM21.1044 21.6667C21.2016 21.6952 21.2492 21.7398 21.2672 21.7629C21.2832 21.7832 21.2813 21.7909 21.2812 21.7931L23.9461 21.89C23.9955 20.5316 23.0543 19.4586 21.8528 19.1073L21.1044 21.6667ZM21.2738 21.7024C21.2897 21.704 21.2715 21.7023 21.2486 21.6989C21.2228 21.695 21.1705 21.6861 21.1046 21.6668L21.8525 19.1072C21.7668 19.0821 21.6939 19.0692 21.6471 19.0621C21.6033 19.0555 21.5637 19.0515 21.5581 19.0509L21.2738 21.7024ZM18.6897 19.7693C18.8163 19.7735 18.9459 19.7714 19.0381 19.77L19 17.1036C18.8929 17.1052 18.8296 17.1058 18.7783 17.1041L18.6897 19.7693ZM20.08 19.6195L20.0672 18.4225L17.4007 18.4509L17.4135 19.6479L20.08 19.6195ZM19.057 18.3012C18.9652 18.2996 18.8343 18.2969 18.7044 18.3011L18.7891 20.9664C18.8407 20.9648 18.9031 20.9656 19.0094 20.9675L19.057 18.3012ZM19.3872 18.2981C19.4091 18.2921 19.3987 18.2979 19.3314 18.3011C19.2627 18.3044 19.1841 18.3035 19.057 18.3012L19.0094 20.9675C19.1996 20.9709 19.6564 20.9894 20.0921 20.8699L19.3872 18.2981ZM18.8411 19.0407C18.8428 18.9142 18.8858 18.7208 19.0326 18.5431C19.1724 18.3737 19.3267 18.3147 19.3872 18.2981L20.0921 20.8699C20.433 20.7765 20.803 20.5872 21.0892 20.2406C21.3823 19.8855 21.5024 19.4677 21.5076 19.0759L18.8411 19.0407ZM19.3855 19.7738C19.3778 19.7716 19.1785 19.7142 19.009 19.4863C18.8394 19.2585 18.841 19.0502 18.8411 19.0401L21.5075 19.0765C21.5119 18.7544 21.4547 18.306 21.1482 17.8942C20.8417 17.4824 20.4276 17.2973 20.112 17.208L19.3855 19.7738ZM19.0381 19.77C19.1693 19.7682 19.2541 19.7674 19.3281 19.7712C19.4029 19.7749 19.4126 19.7814 19.3855 19.7738L20.112 17.208C19.6704 17.0829 19.1921 17.1009 19 17.1036L19.0381 19.77ZM18.6672 22.2561C18.811 22.2628 18.9647 22.2608 19.0713 22.2597L19.0438 19.5932C18.9163 19.5945 18.844 19.5948 18.7911 19.5923L18.6672 22.2561ZM20.0726 22.1978L20.0624 20.9136L17.3958 20.9348L17.406 22.219L20.0726 22.1978ZM18.9469 20.8752C18.8803 20.8748 18.8004 20.8742 18.7227 20.8752L18.7559 23.5416C18.8041 23.541 18.8583 23.5413 18.9303 23.5418L18.9469 20.8752ZM19.3842 20.8614C19.392 20.8595 19.3617 20.8672 19.27 20.8718C19.1807 20.8763 19.0818 20.876 18.9469 20.8752L18.9303 23.5418C19.1371 23.5431 19.6137 23.5549 20.0428 23.4455L19.3842 20.8614ZM18.9125 21.5841C18.9062 21.4314 18.9555 21.2307 19.0986 21.0614C19.2291 20.9071 19.3621 20.8671 19.384 20.8615L20.0431 23.4454C20.4199 23.3493 20.8247 23.1502 21.1352 22.7829C21.4582 22.4007 21.5956 21.9334 21.5769 21.4754L18.9125 21.5841ZM19.4357 22.266C19.4585 22.2698 19.3151 22.2527 19.1557 22.0977C18.9717 21.9187 18.9173 21.7048 18.9124 21.5834L21.5769 21.476C21.559 21.0305 21.3974 20.558 21.0148 20.1859C20.6568 19.8378 20.2233 19.693 19.8674 19.6346L19.4357 22.266ZM19.0713 22.2597C19.1784 22.2586 19.2589 22.2579 19.3313 22.2598C19.3657 22.2608 19.3918 22.2621 19.4112 22.2637C19.4311 22.2652 19.4383 22.2665 19.4355 22.266L19.8675 19.6346C19.5574 19.5837 19.2121 19.5914 19.0438 19.5932L19.0713 22.2597Z" fill="black" mask="url(#path-2-inside-1_51_189)"/>
<mask id="path-4-inside-2_51_189" fill="white">
<path fill-rule="evenodd" clip-rule="evenodd" d="M18.7291 20.9243C18.9997 20.9369 19.3814 20.9061 19.6515 20.9504C20.0303 21.0125 20.2316 21.2057 20.2447 21.5298C20.2571 21.8352 20.0684 22.063 19.7135 22.1536C19.4227 22.2277 19.0357 22.2048 18.7393 22.2085L18.7291 20.9243Z"/>
</mask>
<path fill-rule="evenodd" clip-rule="evenodd" d="M18.7291 20.9243C18.9997 20.9369 19.3814 20.9061 19.6515 20.9504C20.0303 21.0125 20.2316 21.2057 20.2447 21.5298C20.2571 21.8352 20.0684 22.063 19.7135 22.1536C19.4227 22.2277 19.0357 22.2048 18.7393 22.2085L18.7291 20.9243Z" fill="black"/>
<path d="M18.7291 20.9243L18.7911 19.5924L17.3847 19.527L17.3958 20.9349L18.7291 20.9243ZM19.6515 20.9504L19.4355 22.2661L19.4357 22.2661L19.6515 20.9504ZM20.2447 21.5298L18.9124 21.5835L18.9125 21.5842L20.2447 21.5298ZM19.7135 22.1536L20.0428 23.4456L20.0431 23.4455L19.7135 22.1536ZM18.7393 22.2085L17.406 22.2191L17.4166 23.5584L18.7559 23.5417L18.7393 22.2085ZM18.6672 22.2562C18.7704 22.261 18.8728 22.2612 18.9568 22.2608C18.9997 22.2605 19.0433 22.2601 19.0823 22.2597C19.1227 22.2593 19.1595 22.2589 19.1954 22.2588C19.2681 22.2585 19.3248 22.2592 19.371 22.2613C19.4189 22.2635 19.4374 22.2664 19.4355 22.2661L19.8675 19.6347C19.6116 19.5927 19.3492 19.5915 19.1856 19.5921C18.9714 19.5929 18.882 19.5966 18.7911 19.5924L18.6672 22.2562ZM19.4357 22.2661C19.4585 22.2699 19.3151 22.2528 19.1557 22.0978C18.9717 21.9188 18.9173 21.7049 18.9124 21.5835L21.5769 21.4761C21.559 21.0306 21.3974 20.5581 21.0148 20.186C20.6568 19.8379 20.2233 19.6931 19.8674 19.6347L19.4357 22.2661ZM18.9125 21.5842C18.9062 21.4315 18.9555 21.2308 19.0986 21.0615C19.2291 20.9072 19.3621 20.8672 19.384 20.8616L20.0431 23.4455C20.4199 23.3494 20.8247 23.1503 21.1352 22.783C21.4582 22.4008 21.5956 21.9335 21.5769 21.4755L18.9125 21.5842ZM19.3842 20.8615C19.3876 20.8607 19.339 20.8712 19.1971 20.8745C19.133 20.876 19.0645 20.8759 18.9832 20.8755C18.9088 20.8751 18.8123 20.8742 18.7227 20.8753L18.7559 23.5417C18.7776 23.5415 19.1321 23.5434 19.2599 23.5404C19.4584 23.5357 19.7487 23.5206 20.0428 23.4456L19.3842 20.8615ZM20.0726 22.1979L20.0624 20.9137L17.3958 20.9349L17.406 22.2191L20.0726 22.1979Z" fill="black" mask="url(#path-4-inside-2_51_189)"/>
<mask id="path-6-inside-3_51_189" fill="white">
<path fill-rule="evenodd" clip-rule="evenodd" d="M18.7339 18.4368C19.0434 18.4471 19.4447 18.4049 19.7487 18.491C20.0565 18.5782 20.1786 18.7465 20.1743 19.0584C20.1708 19.3238 20.0201 19.5073 19.7396 19.5842C19.4345 19.6678 19.0561 19.6241 18.7467 19.6339L18.7339 18.4368Z"/>
</mask>
<path fill-rule="evenodd" clip-rule="evenodd" d="M18.7339 18.4368C19.0434 18.4471 19.4447 18.4049 19.7487 18.491C20.0565 18.5782 20.1786 18.7465 20.1743 19.0584C20.1708 19.3238 20.0201 19.5073 19.7396 19.5842C19.4345 19.6678 19.0561 19.6241 18.7467 19.6339L18.7339 18.4368Z" fill="black"/>
<path d="M18.7339 18.4368L18.7782 17.1042L17.3858 17.058L17.4007 18.4511L18.7339 18.4368ZM19.7487 18.491L19.3855 19.7739L19.3855 19.7739L19.7487 18.491ZM20.1743 19.0584L18.8411 19.0403L18.8411 19.0409L20.1743 19.0584ZM19.7396 19.5842L19.3871 18.2983L19.3871 18.2983L19.7396 19.5842ZM18.7467 19.6339L17.4135 19.6481L17.428 21.0097L18.789 20.9665L18.7467 19.6339ZM18.6897 19.7694C18.8017 19.7732 18.913 19.7719 18.9984 19.7707C19.0934 19.7695 19.1624 19.7682 19.2321 19.7688C19.3842 19.7701 19.4126 19.7816 19.3855 19.7739L20.112 17.2081C19.7808 17.1143 19.4566 17.1039 19.2547 17.1022C18.9426 17.0996 18.9458 17.1098 18.7782 17.1042L18.6897 19.7694ZM19.3855 19.7739C19.3778 19.7717 19.1785 19.7143 19.0089 19.4865C18.8393 19.2586 18.841 19.0504 18.8411 19.0403L21.5075 19.0766C21.5119 18.7546 21.4546 18.3062 21.1482 17.8944C20.8417 17.4826 20.4275 17.2974 20.112 17.2081L19.3855 19.7739ZM18.8411 19.0409C18.8427 18.9144 18.8858 18.721 19.0325 18.5432C19.1723 18.3739 19.3267 18.3148 19.3871 18.2983L20.0921 20.8701C20.433 20.7766 20.803 20.5874 21.0891 20.2407C21.3822 19.8856 21.5024 19.4678 21.5075 19.076L18.8411 19.0409ZM19.3871 18.2983C19.409 18.2923 19.3813 18.3028 19.2389 18.3034C19.1716 18.3037 19.1062 18.3022 19.0119 18.3006C18.9273 18.2992 18.8171 18.2976 18.7044 18.3012L18.789 20.9665C18.9486 20.9615 18.9501 20.9713 19.2506 20.97C19.4511 20.9691 19.7651 20.9597 20.0921 20.8701L19.3871 18.2983ZM20.08 19.6197L20.0672 18.4226L17.4007 18.4511L17.4135 19.6481L20.08 19.6197Z" fill="black" mask="url(#path-6-inside-3_51_189)"/>
</g>
<defs>
<clipPath id="clip0_51_189">
<rect width="24" height="25" fill="white"/>
</clipPath>
</defs>
</svg>
