<svg width="18" height="27" viewBox="0 0 18 27" fill="none" xmlns="http://www.w3.org/2000/svg">
<g clip-path="url(#clip0_87_7254)">
<path d="M0 9.17786C0.140078 13.8908 3.97067 17.6835 8.73062 17.8222V9.17786H0Z" fill="black"/>
<path d="M8.73062 8.64437V0C3.97067 0.138694 0.140078 3.93144 0 8.64437H8.73062Z" fill="black"/>
<path d="M18 17.8222C17.86 13.1093 14.0294 9.31655 9.26941 9.17786V17.8222H18Z" fill="black"/>
<path d="M9.26941 18.3556V27C14.0294 26.8613 17.86 23.0685 18 18.3556H9.26941Z" fill="black"/>
<path d="M13.698 8.85508C16.0739 8.85508 18 6.94803 18 4.59557C18 2.24311 16.0739 0.33606 13.698 0.33606C11.3221 0.33606 9.396 2.24311 9.396 4.59557C9.396 6.94803 11.3221 8.85508 13.698 8.85508Z" fill="black"/>
<path d="M4.59827 26.5786C6.9742 26.5786 8.90028 24.6715 8.90028 22.3191C8.90028 19.9666 6.9742 18.0596 4.59827 18.0596C2.22234 18.0596 0.296265 19.9666 0.296265 22.3191C0.296265 24.6715 2.22234 26.5786 4.59827 26.5786Z" fill="black"/>
</g>
<defs>
<clipPath id="clip0_87_7254">
<rect width="18" height="27" fill="white"/>
</clipPath>
</defs>
</svg>
