<svg width="274" height="274" viewBox="0 0 274 274" fill="none" xmlns="http://www.w3.org/2000/svg">
<path d="M242.862 141.354L260.236 143.034L259.668 148.904C259.536 150.267 259.182 151.358 258.607 152.175C258.036 152.999 257.315 153.58 256.443 153.919C255.571 154.257 254.624 154.376 253.6 154.277C252.576 154.178 251.666 153.879 250.87 153.38C250.073 152.886 249.467 152.182 249.053 151.269C248.645 150.356 248.506 149.224 248.637 147.872L249.044 143.664L250.91 143.845L250.509 147.985C250.419 148.918 250.508 149.683 250.776 150.279C251.043 150.876 251.439 151.328 251.963 151.636C252.492 151.95 253.105 152.14 253.8 152.207C254.496 152.275 255.13 152.205 255.704 151.998C256.277 151.796 256.747 151.425 257.113 150.884C257.485 150.343 257.717 149.601 257.808 148.656L258.166 144.957L242.659 143.458L242.862 141.354Z" fill="black"/>
<path d="M239.774 162.469L256.456 167.606L254.72 173.243C254.319 174.546 253.767 175.547 253.064 176.246C252.366 176.947 251.57 177.38 250.676 177.544C249.781 177.708 248.842 177.639 247.859 177.337C246.876 177.034 246.066 176.565 245.43 175.929C244.794 175.293 244.386 174.493 244.207 173.528C244.034 172.565 244.147 171.437 244.545 170.145L245.949 165.584L247.774 166.146L246.389 170.642C246.115 171.532 246.025 172.289 246.118 172.912C246.21 173.541 246.457 174.051 246.86 174.443C247.266 174.841 247.803 175.144 248.471 175.349C249.139 175.555 249.761 175.61 250.338 175.514C250.914 175.418 251.423 175.137 251.863 174.673C252.309 174.209 252.67 173.527 252.948 172.626L254.042 169.074L239.152 164.489L239.774 162.469ZM244.85 172.629L236.092 174.427L236.814 172.081L245.552 170.348L244.85 172.629Z" fill="black"/>
<path d="M232.895 199.739C231.294 198.832 230.073 197.759 229.233 196.52C228.394 195.281 227.944 193.978 227.882 192.611C227.82 191.244 228.156 189.913 228.889 188.618C229.623 187.322 230.591 186.349 231.795 185.699C232.999 185.049 234.348 184.764 235.843 184.847C237.337 184.929 238.885 185.423 240.487 186.33C242.089 187.237 243.31 188.31 244.149 189.549C244.989 190.789 245.439 192.092 245.501 193.459C245.563 194.826 245.227 196.157 244.494 197.452C243.76 198.748 242.791 199.72 241.588 200.371C240.384 201.021 239.034 201.305 237.54 201.223C236.046 201.141 234.497 200.646 232.895 199.739ZM233.903 197.959C235.218 198.704 236.453 199.112 237.607 199.185C238.758 199.262 239.777 199.059 240.665 198.575C241.55 198.097 242.252 197.398 242.773 196.478C243.294 195.558 243.533 194.594 243.491 193.584C243.446 192.579 243.096 191.601 242.44 190.648C241.782 189.701 240.795 188.855 239.479 188.11C238.164 187.366 236.931 186.955 235.78 186.878C234.626 186.805 233.607 187.008 232.722 187.487C231.834 187.97 231.13 188.672 230.61 189.592C230.089 190.511 229.851 191.474 229.896 192.478C229.938 193.488 230.288 194.467 230.947 195.414C231.603 196.366 232.588 197.215 233.903 197.959Z" fill="black"/>
<path d="M215.852 207.2L219.476 203.216L232.388 214.961L228.602 219.122C227.463 220.375 226.229 221.211 224.902 221.632C223.579 222.057 222.22 222.068 220.825 221.668C219.435 221.271 218.071 220.465 216.735 219.249C215.39 218.025 214.45 216.732 213.915 215.37C213.384 214.012 213.275 212.637 213.587 211.247C213.904 209.86 214.659 208.511 215.852 207.2ZM219.441 206.041L217.33 208.361C216.359 209.428 215.76 210.5 215.534 211.577C215.307 212.654 215.417 213.71 215.865 214.747C216.312 215.784 217.061 216.78 218.111 217.736C219.154 218.684 220.206 219.33 221.268 219.674C222.334 220.022 223.377 220.041 224.396 219.731C225.419 219.426 226.389 218.768 227.307 217.76L229.578 215.263L219.441 206.041Z" fill="black"/>
<path d="M203.211 240.792L201.475 241.998L194.883 232.505C194.203 231.525 193.826 230.49 193.754 229.399C193.679 228.316 193.906 227.263 194.434 226.239C194.964 225.22 195.792 224.321 196.917 223.54C198.042 222.758 199.174 222.297 200.314 222.156C201.457 222.019 202.526 222.173 203.519 222.618C204.511 223.07 205.348 223.786 206.028 224.766L212.62 234.259L210.884 235.465L204.389 226.112C203.903 225.412 203.316 224.896 202.629 224.564C201.945 224.236 201.21 224.114 200.424 224.196C199.636 224.287 198.843 224.609 198.045 225.164C197.247 225.718 196.668 226.348 196.307 227.055C195.95 227.766 195.808 228.498 195.881 229.25C195.952 230.01 196.231 230.74 196.717 231.44L203.211 240.792Z" fill="black"/>
<path d="M173.668 249.007L175.63 248.22C175.973 248.738 176.374 249.152 176.836 249.463C177.292 249.776 177.784 249.995 178.311 250.12C178.836 250.253 179.376 250.293 179.931 250.242C180.485 250.191 181.032 250.057 181.57 249.842C182.551 249.448 183.34 248.844 183.937 248.029C184.529 247.216 184.867 246.233 184.949 245.08C185.026 243.928 184.783 242.651 184.22 241.249C183.658 239.846 182.951 238.755 182.1 237.976C181.243 237.199 180.32 236.722 179.33 236.543C178.335 236.367 177.347 236.476 176.366 236.869C175.829 237.085 175.341 237.366 174.905 237.712C174.468 238.059 174.105 238.459 173.816 238.911C173.523 239.372 173.32 239.873 173.206 240.414C173.09 240.963 173.085 241.54 173.194 242.145L171.232 242.932C171.047 242.045 171.019 241.196 171.147 240.386C171.275 239.575 171.537 238.824 171.933 238.133C172.331 237.447 172.844 236.84 173.471 236.313C174.093 235.788 174.813 235.362 175.63 235.034C177.012 234.48 178.376 234.324 179.723 234.568C181.069 234.811 182.3 235.432 183.417 236.429C184.533 237.426 185.434 238.779 186.119 240.487C186.804 242.196 187.088 243.796 186.97 245.288C186.852 246.78 186.391 248.079 185.586 249.186C184.781 250.292 183.687 251.123 182.306 251.677C181.488 252.005 180.674 252.194 179.861 252.244C179.044 252.297 178.253 252.21 177.489 251.984C176.727 251.763 176.019 251.404 175.367 250.906C174.716 250.414 174.15 249.781 173.668 249.007Z" fill="black"/>
<path d="M163.78 255.383L164.103 257.229L151.208 259.485L150.885 257.638L156.291 256.692L153.607 241.346L155.689 240.982L158.373 256.328L163.78 255.383Z" fill="black"/>
<path d="M124.641 242.032L129.989 242.674L127.908 260.004L122.323 259.334C120.642 259.132 119.245 258.613 118.133 257.775C117.019 256.943 116.222 255.843 115.739 254.475C115.256 253.112 115.122 251.534 115.338 249.74C115.554 247.935 116.062 246.419 116.862 245.193C117.661 243.973 118.717 243.087 120.031 242.535C121.344 241.989 122.881 241.821 124.641 242.032ZM127.667 244.284L124.553 243.91C123.12 243.738 121.899 243.872 120.891 244.312C119.882 244.752 119.085 245.454 118.5 246.42C117.915 247.385 117.538 248.573 117.368 249.984C117.201 251.383 117.284 252.614 117.62 253.679C117.955 254.749 118.544 255.61 119.388 256.26C120.23 256.917 121.328 257.326 122.682 257.489L126.033 257.891L127.667 244.284Z" fill="black"/>
<path d="M107.653 238.827L102.14 255.388L92.1452 252.061L92.7374 250.282L100.727 252.942L102.59 247.346L95.1178 244.858L95.71 243.079L103.182 245.567L105.055 239.939L96.9367 237.236L97.5289 235.457L107.653 238.827Z" fill="black"/>
<path d="M74.5577 238.506C74.2242 239.309 74.2577 240.097 74.6583 240.869C75.0589 241.641 75.72 242.286 76.6415 242.803C77.3154 243.182 77.9662 243.404 78.5939 243.469C79.2167 243.532 79.7764 243.452 80.2729 243.229C80.7645 243.003 81.1466 242.648 81.4191 242.162C81.6472 241.756 81.7466 241.352 81.7175 240.952C81.6806 240.553 81.5628 240.171 81.3641 239.805C81.1625 239.444 80.9281 239.108 80.6607 238.795C80.3905 238.487 80.1351 238.216 79.8944 237.983L78.5821 236.699C78.2442 236.373 77.8839 235.982 77.5012 235.526C77.1136 235.067 76.7858 234.554 76.5179 233.987C76.2422 233.422 76.0959 232.812 76.0789 232.157C76.0619 231.502 76.2536 230.818 76.6541 230.105C77.1157 229.282 77.7484 228.66 78.5521 228.238C79.3509 227.813 80.2714 227.636 81.3135 227.706C82.3508 227.774 83.454 228.136 84.6233 228.792C85.7134 229.404 86.5585 230.11 87.1587 230.909C87.754 231.706 88.103 232.547 88.2056 233.432C88.3033 234.314 88.1483 235.188 87.7405 236.054L85.8379 234.986C86.111 234.384 86.1847 233.799 86.0592 233.234C85.9259 232.67 85.6506 232.151 85.2332 231.676C84.8081 231.202 84.2934 230.796 83.6889 230.457C82.9853 230.062 82.2896 229.821 81.6018 229.735C80.9113 229.654 80.287 229.727 79.7292 229.954C79.1686 230.187 78.7325 230.581 78.4211 231.136C78.1374 231.641 78.0478 232.132 78.1522 232.607C78.2566 233.083 78.4836 233.549 78.8332 234.006C79.1827 234.463 79.5833 234.916 80.035 235.365L81.6075 236.951C82.6047 237.96 83.2722 238.977 83.6099 240C83.9476 241.024 83.8286 242.048 83.2529 243.074C82.7745 243.926 82.127 244.54 81.3102 244.916C80.4857 245.294 79.5833 245.439 78.603 245.351C77.615 245.265 76.6354 244.95 75.6643 244.405C74.6833 243.854 73.91 243.189 73.3444 242.409C72.7761 241.634 72.4386 240.819 72.332 239.964C72.2204 239.107 72.3677 238.287 72.774 237.505L74.5577 238.506Z" fill="black"/>
<path d="M60.6656 234.127L71.2399 220.24L72.9215 221.52L62.3472 235.407L60.6656 234.127Z" fill="black"/>
<path d="M47.5805 214.472C47.2957 215.004 47.0952 215.538 46.979 216.074C46.8548 216.61 46.8211 217.142 46.8779 217.669C46.9308 218.193 47.0784 218.704 47.3206 219.204C47.5629 219.703 47.9021 220.181 48.3383 220.637C49.0534 221.384 49.8965 221.878 50.8678 222.12C51.839 222.363 52.873 222.305 53.9699 221.947C55.0667 221.589 56.161 220.888 57.2528 219.842C58.3445 218.797 59.0911 217.733 59.4925 216.648C59.8939 215.564 59.9888 214.525 59.7774 213.532C59.566 212.539 59.087 211.652 58.3405 210.873C57.6489 210.15 56.886 209.661 56.0517 209.406C55.2093 209.151 54.3576 209.14 53.4966 209.374C52.6274 209.609 51.8071 210.095 51.0355 210.834L50.6861 210.272L54.3166 214.064L52.9622 215.361L48.3651 210.559L49.7195 209.262C50.7579 208.268 51.873 207.625 53.0648 207.334C54.2528 207.038 55.4294 207.076 56.5947 207.447C57.752 207.818 58.8101 208.504 59.7688 209.505C60.8375 210.622 61.5139 211.854 61.7979 213.202C62.078 214.547 61.9597 215.918 61.443 217.318C60.9223 218.713 59.997 220.047 58.6673 221.32C57.6699 222.275 56.6454 223 55.5938 223.495C54.5342 223.991 53.4874 224.261 52.4537 224.307C51.4199 224.353 50.431 224.182 49.487 223.796C48.543 223.41 47.684 222.813 46.91 222.004C46.2734 221.339 45.7807 220.623 45.4317 219.856C45.0747 219.089 44.8628 218.304 44.7959 217.503C44.7209 216.702 44.7905 215.908 45.0045 215.121C45.2145 214.338 45.5702 213.596 46.0718 212.896L47.5805 214.472Z" fill="black"/>
<path d="M26.5933 193.554L41.5887 184.621L42.6355 186.378L35.7296 201.563L35.8168 201.709L47.5905 194.696L48.6723 196.512L33.6769 205.445L32.63 203.687L39.5478 188.455L39.4606 188.309L27.6575 195.34L26.5933 193.554Z" fill="black"/>
<path d="M27.1468 172.062L30.4756 170.841L33.2923 178.523L29.9636 179.743L27.1468 172.062Z" fill="#45E5A3"/>
<path d="M13.7918 152.285L13.4435 150.2L24.8424 148.296C26.0193 148.1 27.1164 148.202 28.1338 148.602C29.1446 148.998 30 149.653 30.7 150.567C31.3943 151.482 31.8543 152.615 32.0799 153.965C32.3055 155.316 32.2387 156.537 31.8795 157.628C31.5147 158.72 30.919 159.62 30.0926 160.329C29.2597 161.032 28.2548 161.482 27.0779 161.679L15.679 163.583L15.3308 161.498L26.5615 159.622C27.4022 159.482 28.1194 159.172 28.7133 158.693C29.3016 158.214 29.7264 157.602 29.9877 156.855C30.2424 156.104 30.2897 155.249 30.1297 154.291C29.9696 153.333 29.647 152.54 29.162 151.912C28.6714 151.286 28.0706 150.845 27.3597 150.589C26.6422 150.329 25.8631 150.269 25.0225 150.409L13.7918 152.285Z" fill="black"/>
<path d="M12.8736 136.845L30.327 136.643L30.3515 138.756L12.8981 138.959L12.8736 136.845Z" fill="black"/>
<path d="M12.8832 121.568L33.2005 129.022L33.0375 130.856L12.7202 123.402L12.8832 121.568Z" fill="black"/>
<path d="M18.0987 100.479L18.636 98.4346L29.8131 101.373C30.9671 101.676 31.9259 102.219 32.6896 103.001C33.4493 103.777 33.9608 104.725 34.2243 105.846C34.4823 106.965 34.4372 108.187 34.0891 109.511C33.741 110.836 33.1794 111.922 32.4043 112.769C31.6237 113.616 30.7113 114.193 29.6671 114.5C28.6188 114.8 27.5177 114.798 26.3637 114.495L15.1866 111.557L15.7239 109.513L26.7362 112.407C27.5605 112.624 28.3417 112.636 29.08 112.442C29.8128 112.247 30.4514 111.862 30.9958 111.289C31.5361 110.708 31.9298 109.948 32.1768 109.008C32.4238 108.069 32.4548 107.213 32.2698 106.442C32.0793 105.669 31.7123 105.021 31.1687 104.496C30.6211 103.964 29.9352 103.59 29.1109 103.373L18.0987 100.479Z" fill="black"/>
<path d="M24.3455 84.1479L32.8607 83.4628L32.923 83.3415L28.52 76.0209L29.6571 73.8073L34.9123 82.677L45.1831 81.7824L44.0461 83.9961L35.6522 84.7434L35.5899 84.8647L39.8716 92.123L38.7345 94.3367L33.5416 85.3456L23.2084 86.3615L24.3455 84.1479Z" fill="black"/>
<path d="M46.8685 64.4184L49.7049 66.5457L44.7958 73.0912L41.9594 70.9639L46.8685 64.4184Z" fill="#45E5A3"/>
<path d="M63.7002 59.1191L59.7424 62.7726L47.9032 49.947L52.0364 46.1317C53.2806 44.9832 54.5822 44.2572 55.9413 43.9537C57.2966 43.646 58.6514 43.7525 60.0057 44.2731C61.3562 44.7895 62.6442 45.7115 63.8697 47.0392C65.103 48.3752 65.9267 49.745 66.341 51.1488C66.7515 52.5484 66.7406 53.9271 66.3083 55.285C65.8722 56.6386 65.0028 57.9167 63.7002 59.1191ZM60.0237 59.9612L62.3283 57.8338C63.3887 56.855 64.0787 55.8391 64.3982 54.7864C64.7178 53.7336 64.6999 52.6714 64.3447 51.5997C63.9895 50.528 63.3302 49.4703 62.3667 48.4266C61.4109 47.3912 60.4191 46.6559 59.391 46.2207C58.3592 45.7814 57.3221 45.6716 56.28 45.8913C55.234 46.1068 54.21 46.677 53.208 47.6019L50.7281 49.8911L60.0237 59.9612Z" fill="black"/>
<path d="M76.7771 48.4477L67.6792 33.5518L76.6692 28.0611L77.6465 29.6612L70.4603 34.0502L73.5344 39.0834L80.2551 34.9787L81.2324 36.5789L74.5118 40.6836L77.6036 45.7459L84.9061 41.2858L85.8834 42.8859L76.7771 48.4477Z" fill="black"/>
<path d="M88.9096 22.1294L98.8331 34.1405L99.0251 34.07L98.8318 18.4911L100.912 17.7282L100.904 36.3223L98.8555 37.0734L86.8292 22.8922L88.9096 22.1294Z" fill="black"/>
<path d="M115.129 32.2319L112.452 14.984L122.861 13.3679L123.149 15.2207L114.828 16.5125L115.733 22.3404L123.514 21.1323L123.802 22.9851L116.02 24.1932L116.93 30.0548L125.386 28.7421L125.673 30.5949L115.129 32.2319Z" fill="black"/>
<path d="M134.439 30.1119L134.844 12.662L136.957 12.7109L136.596 28.2863L144.707 28.4742L144.664 30.3487L134.439 30.1119Z" fill="black"/>
<path d="M169.605 26.0058C169.199 27.8012 168.523 29.2793 167.578 30.4402C166.634 31.6011 165.516 32.4081 164.225 32.8612C162.933 33.3144 161.562 33.3765 160.11 33.0475C158.658 32.7186 157.447 32.0714 156.478 31.1059C155.508 30.1405 154.847 28.9305 154.495 27.4758C154.143 26.0211 154.17 24.3961 154.577 22.6007C154.984 20.8053 155.66 19.3272 156.604 18.1663C157.549 17.0055 158.667 16.1985 159.958 15.7453C161.249 15.2921 162.621 15.23 164.073 15.559C165.524 15.888 166.735 16.5352 167.705 17.5006C168.675 18.466 169.336 19.6761 169.688 21.1307C170.04 22.5854 170.012 24.2104 169.605 26.0058ZM167.611 25.5538C167.945 24.0798 167.98 22.7799 167.716 21.6541C167.459 20.5295 166.97 19.612 166.251 18.9015C165.538 18.1923 164.666 17.7209 163.636 17.4874C162.605 17.2539 161.612 17.3027 160.657 17.634C159.708 17.9666 158.872 18.584 158.149 19.4863C157.432 20.3899 156.906 21.5787 156.572 23.0527C156.238 24.5267 156.2 25.826 156.458 26.9505C156.721 28.0764 157.21 28.9939 157.923 29.7031C158.642 30.4136 159.516 30.8856 160.547 31.1191C161.578 31.3527 162.568 31.3032 163.517 30.9706C164.472 30.6393 165.308 30.0219 166.025 29.1183C166.748 28.216 167.277 27.0278 167.611 25.5538Z" fill="black"/>
<path d="M176.362 37.7188L183.756 21.9076L189.098 24.4058C190.339 24.9858 191.248 25.6839 191.826 26.4999C192.412 27.3132 192.718 28.1871 192.745 29.1218C192.772 30.0565 192.568 30.9897 192.132 31.9213C191.697 32.8528 191.11 33.6105 190.373 34.1941C189.641 34.7801 188.776 35.1155 187.777 35.2002C186.78 35.2797 185.666 35.0319 184.436 34.4567L180.607 32.666L181.401 30.9675L185.169 32.7293C186.018 33.1264 186.768 33.2986 187.42 33.246C188.072 33.1933 188.631 32.9714 189.096 32.5805C189.568 32.1868 189.953 31.6734 190.249 31.0404C190.545 30.4073 190.691 29.7858 190.688 29.1758C190.69 28.5683 190.497 28.0014 190.109 27.4753C189.724 26.9439 189.102 26.4773 188.242 26.0754L184.876 24.5014L178.277 38.6141L176.362 37.7188Z" fill="black"/>
<path d="M206.791 34.2059L208.764 35.7777L204.376 50.8061L204.536 50.9336L218.203 43.297L220.176 44.8689L209.301 58.5212L207.754 57.2892L216.017 46.9167L215.884 46.8104L203.355 53.7844L201.861 52.5949L205.858 38.8238L205.724 38.7176L197.462 49.0902L195.915 47.8582L206.791 34.2059Z" fill="black"/>
<path d="M216.169 65.846L229.781 54.9209L236.375 63.1363L234.913 64.3099L229.642 57.7429L225.043 61.4343L229.972 67.576L228.509 68.7496L223.58 62.6079L218.954 66.3208L224.31 72.9941L222.848 74.1677L216.169 65.846Z" fill="black"/>
<path d="M249.964 86.432L234.408 94.3496L233.481 92.5266L241.38 77.8336L241.302 77.6817L229.089 83.8982L228.13 82.0145L243.686 74.097L244.613 75.9199L236.699 90.6588L236.777 90.8107L249.021 84.5787L249.964 86.432Z" fill="black"/>
<path d="M252.883 99.4521L254.698 98.9823L257.978 111.656L256.163 112.125L254.788 106.812L239.705 110.715L239.175 108.669L254.258 104.766L252.883 99.4521Z" fill="black"/>
<path d="M251.486 130.604L247.953 130.905L247.26 122.752L250.793 122.452L251.486 130.604Z" fill="#45E5A3"/>
</svg>
