<svg xmlns="http://www.w3.org/2000/svg" viewBox="0 0 500 500" style="enable-background:new 0 0 500 500" xml:space="preserve"><path d="M252.39 371.83c-40.62-.32-73.28-32.05-72.95-70.88s33.54-70.04 74.15-69.72c40.62.32 73.29 32.06 72.95 70.88-.33 38.82-33.53 70.04-74.15 69.72zm159.16-70.41c1.99-37.33-11.4-98.45-44.17-148.39-.89-1.29-2.36-.79-2.04.58 2.18 7.62 2.72 21.38-9.95 20.56-22.44-1.45.79-47.35-48.5-79.18-.99-.63-2.16.22-1.62 1.23 3.38 6.13 5.38 25.28-2.41 31.81-6.27 5.23-17.77 3.82-28.83-13.42-18.43-28.74-11.42-59.45 1.09-78.63.94-1.43-.36-2.01-1.42-1.66-67.79 21.38-81.34 97.74-95.76 125.6-2.41 4.66-4.52 7.11-8.66 6.84-12.35-.79-3.45-25.97.83-34.73.6-1.24-.89-1.92-1.69-1.13-34.91 34.87-66.5 94.22-72.5 149.38.19-1.31-.56 4.56-.93 8.85v.01c-.3 3.7-.49 7.42-.57 11.13-.71 83.71 69.7 152.11 157.28 152.81 87.58.69 159.16-66.61 159.88-150.31-.01.01-.03-1.35-.03-1.35z" style="fill-rule:evenodd;clip-rule:evenodd"/></svg>