<svg xmlns="http://www.w3.org/2000/svg" viewBox="0 0 500 500" style="enable-background:new 0 0 500 500" xml:space="preserve"><path d="M419.88 214.45c-.68.01-1.66 1.42-1.96 2.35-5.86 17.9-11.64 35.82-17.44 53.74-1.96 6.06-3.92 12.12-6.14 18.99-1.95-5.87-3.63-10.88-5.28-15.91-6.23-18.9-12.48-37.8-18.63-56.72-.62-1.9-1.49-2.65-3.49-2.62-6.76.1-13.51.09-20.26.01-1.83-.02-2.67.61-3.26 2.4-7.08 21.62-14.24 43.22-21.41 64.82-.75 2.25-1.65 4.46-2.78 7.5-1.67-5.2-3.05-9.45-4.42-13.71-6.27-19.52-12.55-39.03-18.75-58.57-.63-1.99-1.7-2.46-3.61-2.44-8.41.09-16.83.04-25.24.04h-1.51c1.33 4.23 2.49 7.93 3.83 12.19-33.89-26.34-82.59-16.46-102.46 14.78-6.92-16.96-19.25-27.41-37.39-30.01-17.46-2.5-33.52 1.13-47.57 13.9V160H49.53c-.06.99-.15 1.69-.15 2.39-.01 56.93.01 113.87-.06 170.8 0 2.61.69 3.55 3.4 3.5 8.79-.15 17.59-.04 26.38-.07.9 0 1.8-.22 3-.38v-4.08c0-18.11-.13-36.21.06-54.31.11-9.86 1.9-19.38 7.8-27.71 8.43-11.89 28.99-13.65 39.17-3.24 6.16 6.29 7.9 14.27 7.96 22.64.15 20.97.05 41.93.05 62.89v4.12h32.17v-21.33c18.45 20.79 41.17 28.33 67.55 23.24 26.78-5.16 43.73-21.69 50.97-49.06 5.45 16.4 10.64 32.01 15.88 47.75 8.58 0 16.98-.12 25.38.07 2.68.06 3.99-.68 4.85-3.28 5.4-16.43 10.95-32.82 16.46-49.21 2.1-6.25 4.22-12.49 6.59-19.53 2.81 8.37 5.34 15.82 7.82 23.31 5.11 15.41 10.15 30.85 15.38 46.22.36 1.05 2.06 2.3 3.16 2.32 8.17.19 16.35.17 24.53.01.95-.01 2.43-1.03 2.72-1.91 4.72-13.79 9.29-27.64 13.88-41.48 6.51-19.67 13-39.34 19.5-59.01 2.18-6.6 4.35-13.2 6.7-20.32-10.72.01-20.76-.04-30.8.11zm-180.93 93.66c-20.3 10.24-44.79-1.46-49.58-23.76-.64-3.01-.81-6.11-1.02-7.68.25-21.02 12.97-35.32 32.1-37.61 15.87-1.9 31.81 9.31 36.23 25.5 4.9 17.87-2.41 35.82-17.73 43.55z"/></svg>