<svg xmlns="http://www.w3.org/2000/svg" viewBox="0 0 500 500" style="enable-background:new 0 0 500 500" xml:space="preserve"><path d="M144.07 111.99c75.7 0 137.06 61.79 137.06 138.01s-61.37 138-137.06 138S7 326.22 7 250s61.37-138.01 137.07-138.01zm218.89 8.09c37.85 0 68.53 58.16 68.53 129.93 0 71.74-30.68 129.93-68.53 129.93S294.43 321.75 294.43 250s30.68-129.92 68.53-129.92zm105.94 13.53c13.31 0 24.1 52.11 24.1 116.39 0 64.26-10.79 116.39-24.1 116.39-13.31 0-24.1-52.11-24.1-116.39s10.79-116.39 24.1-116.39z"/></svg>