<svg xmlns="http://www.w3.org/2000/svg" viewBox="0 0 500 500" style="enable-background:new 0 0 500 500" xml:space="preserve"><path d="M148.39 99.34c14.1 0 26.92 1.21 38.57 3.78 11.59 2.61 21.5 6.63 29.84 12.26 8.24 5.63 14.73 13.06 19.29 22.5 4.52 9.44 6.83 21.1 6.83 34.76 0 14.87-3.42 27.32-10.19 37.37-6.79 10.05-16.82 18.08-30.18 24.51 18.2 5.22 31.66 14.47 40.62 27.52 9 13.26 13.36 29.13 13.36 47.41 0 15.07-2.61 27.93-8.24 38.78-5.63 11.05-13.46 20.09-23.31 27.12-9.64 6.99-21.1 12.05-33.55 15.41-12.26 3.32-25.15 5.1-38.37 5.1H9V99.48h139.39v-.14zm200.95 244.34c8.84 8.6 21.56 12.92 38.05 12.92 11.85 0 22.1-2.97 30.74-8.98 8.52-5.83 13.66-12.26 15.67-18.89h52c-8.1 25.72-21.06 44.2-38.17 55.25-17.08 11.25-37.85 16.68-61.88 16.68-16.82 0-31.82-2.61-45.65-8.04-13.52-5.42-24.91-13.06-34.56-22.9-9.32-9.84-16.53-21.7-21.64-35.56-5.08-13.86-7.49-29.13-7.49-45.61 0-16.13 2.71-30.94 8.1-44.8 5.42-14.06 12.94-25.72 22.5-35.96 9.95-10.25 21.36-17.98 34.88-23.99 13.52-6.01 28.13-8.7 44.6-8.7 18.28 0 33.95 3.29 47.82 10.51 13.46 6.83 24.51 16.47 33.35 28.13 8.84 11.77 15.07 25.31 18.89 40.58 3.82 15.07 5.02 30.94 4.22 47.82h-154.5c0 16.88 5.63 32.79 14.26 41.49l-1.61.6.42-.55zm-205.73 1.01c6.37 0 12.46-.6 18.2-1.87 5.83-1.21 11.01-3.32 15.33-6.03 4.22-2.71 7.84-6.59 10.45-11.71 2.61-4.82 3.82-11.45 3.82-19.29 0-15.07-4.42-25.92-12.86-32.55-8.64-6.43-19.89-9.64-33.95-9.64H74.1v81.37h69.52v-.6l-.01.32zm273.38-113.52c-7.07-7.74-18.89-11.89-33.29-11.89-9.4 0-17.18 1.49-23.43 4.78-6.07 3.01-11.05 7.03-14.87 11.85s-6.37 9.64-7.88 15.07c-1.51 5.22-2.41 10.05-2.71 14.26h95.67c-1.41-15.07-6.63-26.12-13.66-33.95v.2l.17-.32zm-277-12.35c11.53 0 21.1-2.69 28.63-8.28 7.51-5.42 11.13-14.47 11.13-26.88 0-6.91-1.41-12.56-3.62-17-2.61-4.42-6.03-7.84-10.05-10.29-4.22-2.49-9.04-4.22-14.47-5.16-5.42-1.06-11.25-1.49-16.88-1.49H73.89v69.11h66.1v-.01zm182.79-99.61h119.9v29.21h-119.9v-29.45.24z"/></svg>