<?xml version="1.0" encoding="utf-8"?>
<!-- Generator: Adobe Illustrator 27.3.1, SVG Export Plug-In . SVG Version: 6.00 Build 0)  -->
<svg version="1.1" id="Layer_1" xmlns="http://www.w3.org/2000/svg" xmlns:xlink="http://www.w3.org/1999/xlink" x="0px" y="0px"
	 viewBox="0 0 500 500" style="enable-background:new 0 0 500 500;" xml:space="preserve">
<style type="text/css">
	.st0{fill:#FFFFFF;}
</style>
<g id="Logo_00000103979715689099227230000000063500429350583718_">
	<path d="M28.9,101.5V250v15.7v132.8h442.3V265.7V250V101.5H28.9z M458.5,385.8h-417V265.7h417V385.8z"/>
	<g>
		<path class="st0" d="M96.6,194.4H78.3v31.1H60.3v-86.4H98c8.7,0,15.6,2.2,20.8,6.7s7.7,11.4,7.7,20.7c0,10.2-2.6,17.4-7.7,21.6
			S106.2,194.4,96.6,194.4z M105.1,176.4c2.3-2.1,3.5-5.4,3.5-9.8c0-4.5-1.2-7.7-3.5-9.6c-2.4-1.9-5.7-2.9-9.9-2.9H78.3v25.4h16.8
			C99.4,179.5,102.7,178.5,105.1,176.4z"/>
		<path class="st0" d="M206.1,192.2v-53.1h18.3v53.1c0,9.2-1.4,16.3-4.3,21.5c-5.3,9.4-15.5,14.1-30.4,14.1
			c-15,0-25.1-4.7-30.5-14.1c-2.9-5.1-4.3-12.3-4.3-21.5v-53.1h18.3v53.1c0,5.9,0.7,10.3,2.1,13c2.2,4.8,7,7.3,14.3,7.3
			c7.3,0,12.1-2.4,14.2-7.3C205.4,202.4,206.1,198.1,206.1,192.2z"/>
		<path class="st0" d="M326.6,225.5h-18.1l-35.3-61.4v61.4h-16.8v-86.4h18.9l34.4,60.3v-60.3h16.8V225.5z"/>
		<path class="st0" d="M435,225.5h-23.2l-26.7-37.7l-8.6,8.9v28.9h-17.8v-86.4h17.8v35.6l33.4-35.6h23.3l-35.4,35.6L435,225.5z"/>
	</g>
	<g>
		<path d="M64.7,359.5v-65.8h13.1l15.6,46.6c1.4,4.3,2.5,7.6,3.1,9.7c0.7-2.4,1.9-5.9,3.5-10.6l15.8-45.8h11.7v65.8h-8.4v-55.1
			L100,359.5h-7.9l-19-56v56H64.7z"/>
		<path d="M138.6,359.5v-65.8h47.6v7.8h-38.9v20.2h36.4v7.7h-36.4v22.4h40.4v7.8H138.6z"/>
		<path d="M213.4,359.5v-58.1h-21.7v-7.8h52.2v7.8h-21.8v58.1H213.4z"/>
		<path d="M249.8,359.5v-65.8H279c5.9,0,10.3,0.6,13.4,1.8c3.1,1.2,5.5,3.3,7.3,6.3c1.8,3,2.7,6.3,2.7,9.9c0,4.7-1.5,8.6-4.5,11.8
			c-3,3.2-7.7,5.2-14,6.1c2.3,1.1,4.1,2.2,5.3,3.3c2.5,2.3,5,5.3,7.2,8.8l11.5,17.9h-11l-8.7-13.7c-2.5-4-4.6-7-6.3-9.1
			c-1.6-2.1-3.1-3.6-4.4-4.4c-1.3-0.8-2.6-1.4-4-1.8c-1-0.2-2.6-0.3-4.8-0.3h-10.1v29.2H249.8z M258.5,322.7h18.7
			c4,0,7.1-0.4,9.3-1.2c2.2-0.8,4-2.1,5.1-4c1.2-1.8,1.8-3.8,1.8-5.9c0-3.1-1.1-5.7-3.4-7.7c-2.3-2-5.8-3-10.7-3h-20.8V322.7z"/>
		<path d="M314.4,359.5v-65.8h8.7v65.8H314.4z"/>
		<path d="M382.3,336.4l8.7,2.2c-1.8,7.2-5.1,12.6-9.9,16.4c-4.7,3.8-10.5,5.6-17.4,5.6c-7.1,0-12.9-1.4-17.3-4.3
			c-4.4-2.9-7.8-7.1-10.1-12.6c-2.3-5.5-3.5-11.4-3.5-17.6c0-6.9,1.3-12.8,3.9-17.9s6.3-9,11.2-11.6c4.8-2.6,10.2-4,16-4
			c6.6,0,12.1,1.7,16.6,5c4.5,3.4,7.6,8.1,9.4,14.1l-8.6,2c-1.5-4.8-3.7-8.3-6.6-10.5c-2.9-2.2-6.6-3.3-11-3.3
			c-5.1,0-9.3,1.2-12.7,3.6c-3.4,2.4-5.8,5.7-7.2,9.8c-1.4,4.1-2.1,8.3-2.1,12.6c0,5.6,0.8,10.5,2.4,14.7c1.6,4.2,4.2,7.3,7.6,9.4
			c3.4,2.1,7.2,3.1,11.2,3.1c4.9,0,9-1.4,12.4-4.2C378.9,346.1,381.1,341.9,382.3,336.4z"/>
		<path d="M395.7,338.3l8.2-0.7c0.4,3.3,1.3,6,2.7,8.1c1.4,2.1,3.6,3.8,6.6,5.1c3,1.3,6.4,2,10.1,2c3.3,0,6.3-0.5,8.8-1.5
			c2.5-1,4.4-2.3,5.7-4.1c1.2-1.7,1.9-3.6,1.9-5.6c0-2.1-0.6-3.9-1.8-5.4c-1.2-1.5-3.2-2.8-5.9-3.9c-1.8-0.7-5.7-1.8-11.7-3.2
			c-6-1.5-10.3-2.8-12.7-4.1c-3.1-1.6-5.5-3.7-7-6.1c-1.5-2.4-2.3-5.2-2.3-8.2c0-3.3,0.9-6.4,2.8-9.3c1.9-2.9,4.6-5.1,8.3-6.6
			s7.6-2.2,12.1-2.2c4.9,0,9.2,0.8,12.9,2.4c3.7,1.6,6.6,3.9,8.6,6.9c2,3.1,3.1,6.5,3.2,10.4l-8.4,0.6c-0.4-4.2-2-7.3-4.6-9.4
			c-2.6-2.1-6.4-3.2-11.5-3.2c-5.3,0-9.1,1-11.5,2.9c-2.4,1.9-3.6,4.3-3.6,7c0,2.4,0.9,4.3,2.6,5.8c1.7,1.5,6.1,3.1,13.1,4.7
			c7.1,1.6,11.9,3,14.6,4.2c3.8,1.8,6.7,4,8.5,6.7c1.8,2.7,2.7,5.8,2.7,9.4c0,3.5-1,6.8-3,9.9c-2,3.1-4.9,5.5-8.6,7.2
			c-3.8,1.7-8,2.6-12.7,2.6c-6,0-11-0.9-15-2.6c-4-1.7-7.2-4.3-9.5-7.8C397,346.6,395.8,342.7,395.7,338.3z"/>
	</g>
</g>
</svg>
