<svg xmlns="http://www.w3.org/2000/svg" viewBox="0 0 500 500" style="enable-background:new 0 0 500 500" xml:space="preserve"><path d="M121.51 190.35c2.01 67.69 53.79 117.3 122.15 119.3v-119.3H121.51zm122.15-9.69V61.36c-68.36 2-120.14 51.61-122.15 119.3h122.15zm128.62 129.26c-2.01-67.69-53.79-117.3-122.15-119.3v119.3h122.15zM250.13 318v120.92c68.36-2 120.14-53.23 122.15-120.92H250.13zm68.58-134.58c34.12 0 61.79-27.39 61.79-61.18 0-33.77-27.66-61.16-61.79-61.16s-61.79 27.39-61.79 61.18c0 33.78 27.66 61.18 61.79 61.18v-.02zM181.29 437.98c34.12 0 61.79-27.39 61.79-61.18 0-33.78-27.66-61.18-61.79-61.18s-61.79 27.4-61.79 61.18c.01 33.79 27.67 61.18 61.79 61.18z"/></svg>