<svg width="274" height="274" viewBox="0 0 274 274" fill="none" xmlns="http://www.w3.org/2000/svg"><path d="m242.862 141.354 17.374 1.68-.568 5.87c-.132 1.363-.486 2.454-1.061 3.271-.571.824-1.292 1.405-2.164 1.744-.872.338-1.819.457-2.843.358-1.024-.099-1.934-.398-2.73-.897-.797-.494-1.403-1.198-1.817-2.111-.408-.913-.547-2.045-.416-3.397l.407-4.208 1.866.181-.401 4.14c-.09.933-.001 1.698.267 2.294.267.597.663 1.049 1.187 1.357.529.314 1.142.504 1.837.571.696.068 1.33-.002 1.904-.209.573-.202 1.043-.573 1.409-1.114.372-.541.604-1.283.695-2.228l.358-3.699-15.507-1.499.203-2.104Zm-3.088 21.115 16.682 5.137-1.736 5.637c-.401 1.303-.953 2.304-1.656 3.003-.698.701-1.494 1.134-2.388 1.298-.895.164-1.834.095-2.817-.207-.983-.303-1.793-.772-2.429-1.408-.636-.636-1.044-1.436-1.223-2.401-.173-.963-.06-2.091.338-3.383l1.404-4.561 1.825.562-1.385 4.496c-.274.89-.364 1.647-.271 2.27.092.629.339 1.139.742 1.531.406.398.943.701 1.611.906.668.206 1.29.261 1.867.165.576-.096 1.085-.377 1.525-.841.446-.464.807-1.146 1.085-2.047l1.094-3.552-14.89-4.585.622-2.02Zm5.076 10.16-8.758 1.798.722-2.346 8.738-1.733-.702 2.281Zm-11.955 27.11c-1.601-.907-2.822-1.98-3.662-3.219-.839-1.239-1.289-2.542-1.351-3.909-.062-1.367.274-2.698 1.007-3.993.734-1.296 1.702-2.269 2.906-2.919 1.204-.65 2.553-.935 4.048-.852 1.494.082 3.042.576 4.644 1.483 1.602.907 2.823 1.98 3.662 3.219.84 1.24 1.29 2.543 1.352 3.91.062 1.367-.274 2.698-1.007 3.993-.734 1.296-1.703 2.268-2.906 2.919-1.204.65-2.554.934-4.048.852-1.494-.082-3.043-.577-4.645-1.484Zm1.008-1.78c1.315.745 2.55 1.153 3.704 1.226 1.151.077 2.17-.126 3.058-.61.885-.478 1.587-1.177 2.108-2.097.521-.92.76-1.884.718-2.894-.045-1.005-.395-1.983-1.051-2.936-.658-.947-1.645-1.793-2.961-2.538-1.315-.744-2.548-1.155-3.699-1.232-1.154-.073-2.173.13-3.058.609-.888.483-1.592 1.185-2.112 2.105-.521.919-.759 1.882-.714 2.886.042 1.01.392 1.989 1.051 2.936.656.952 1.641 1.801 2.956 2.545Zm-18.051 9.241 3.624-3.984 12.912 11.745-3.786 4.161c-1.139 1.253-2.373 2.089-3.7 2.51-1.323.425-2.682.436-4.077.036-1.39-.397-2.754-1.203-4.09-2.419-1.345-1.224-2.285-2.517-2.82-3.879-.531-1.358-.64-2.733-.328-4.123.317-1.387 1.072-2.736 2.265-4.047Zm3.589-1.159-2.111 2.32c-.971 1.067-1.57 2.139-1.796 3.216a5.14 5.14 0 0 0 .331 3.17c.447 1.037 1.196 2.033 2.246 2.989 1.043.948 2.095 1.594 3.157 1.938 1.066.348 2.109.367 3.128.057 1.023-.305 1.993-.963 2.911-1.971l2.271-2.497-10.137-9.222Zm-16.23 34.751-1.736 1.206-6.592-9.493c-.68-.98-1.057-2.015-1.129-3.106-.075-1.083.152-2.136.68-3.16.53-1.019 1.358-1.918 2.483-2.699 1.125-.782 2.257-1.243 3.397-1.384 1.143-.137 2.212.017 3.205.462.992.452 1.829 1.168 2.509 2.148l6.592 9.493-1.736 1.206-6.495-9.353c-.486-.7-1.073-1.216-1.76-1.548a4.033 4.033 0 0 0-2.205-.368c-.788.091-1.581.413-2.379.968-.798.554-1.377 1.184-1.738 1.891a3.956 3.956 0 0 0-.426 2.195c.071.76.35 1.49.836 2.19l6.494 9.352Zm-29.543 8.215 1.962-.787c.343.518.744.932 1.206 1.243a4.37 4.37 0 0 0 1.475.657 4.771 4.771 0 0 0 1.62.122 5.846 5.846 0 0 0 1.639-.4c.981-.394 1.77-.998 2.367-1.813.592-.813.93-1.796 1.012-2.949.077-1.152-.166-2.429-.729-3.831-.562-1.403-1.269-2.494-2.12-3.273-.857-.777-1.78-1.254-2.77-1.433-.995-.176-1.983-.067-2.964.326a5.846 5.846 0 0 0-1.461.843c-.437.347-.8.747-1.089 1.199a4.472 4.472 0 0 0-.622 3.234l-1.962.787a7.026 7.026 0 0 1-.085-2.546c.128-.811.39-1.562.786-2.253a6.87 6.87 0 0 1 1.538-1.82 7.854 7.854 0 0 1 2.159-1.279c1.382-.554 2.746-.71 4.093-.466 1.346.243 2.577.864 3.694 1.861 1.116.997 2.017 2.35 2.702 4.058.685 1.709.969 3.309.851 4.801s-.579 2.791-1.384 3.898c-.805 1.106-1.899 1.937-3.28 2.491a7.834 7.834 0 0 1-2.445.567 6.757 6.757 0 0 1-2.372-.26 6.418 6.418 0 0 1-2.122-1.078c-.651-.492-1.217-1.125-1.699-1.899Zm-9.888 6.376.323 1.846-12.895 2.256-.323-1.847 5.406-.946-2.684-15.346 2.082-.364 2.684 15.346 5.407-.945Zm-39.139-13.351 5.348.642-2.081 17.33-5.585-.67c-1.681-.202-3.078-.721-4.19-1.559-1.114-.832-1.911-1.932-2.394-3.3-.483-1.363-.617-2.941-.401-4.735.216-1.805.724-3.321 1.524-4.547.799-1.22 1.855-2.106 3.169-2.658 1.313-.546 2.85-.714 4.61-.503Zm3.026 2.252-3.114-.374c-1.433-.172-2.654-.038-3.662.402a5.144 5.144 0 0 0-2.391 2.108c-.585.965-.962 2.153-1.132 3.564-.167 1.399-.084 2.63.252 3.695.335 1.07.924 1.931 1.768 2.581.842.657 1.94 1.066 3.294 1.229l3.351.402 1.634-13.607Zm-20.014-5.457-5.513 16.561-9.995-3.327.592-1.779 7.99 2.66 1.863-5.596-7.472-2.488.592-1.779 7.472 2.488 1.873-5.628-8.118-2.703.592-1.779 10.124 3.37Zm-33.095-.321c-.334.803-.3 1.591.1 2.363s1.062 1.417 1.983 1.934c.674.379 1.325.601 1.953.666.623.063 1.182-.017 1.679-.24a2.47 2.47 0 0 0 1.146-1.067c.228-.406.328-.81.299-1.21a2.952 2.952 0 0 0-.354-1.147 6.217 6.217 0 0 0-.703-1.01c-.27-.308-.526-.579-.767-.812l-1.312-1.284a15.335 15.335 0 0 1-1.08-1.173 7.02 7.02 0 0 1-.984-1.539 4.382 4.382 0 0 1-.44-1.83c-.016-.655.176-1.339.576-2.052a4.592 4.592 0 0 1 1.898-1.867c.799-.425 1.72-.602 2.761-.532 1.038.068 2.141.43 3.31 1.086 1.09.612 1.935 1.318 2.536 2.117.595.797.944 1.638 1.047 2.523.097.882-.058 1.756-.466 2.622l-1.902-1.068c.273-.602.347-1.187.221-1.752a3.594 3.594 0 0 0-.826-1.558 5.98 5.98 0 0 0-1.544-1.219c-.704-.395-1.4-.636-2.087-.722-.69-.081-1.315-.008-1.873.219-.56.233-.996.627-1.308 1.182-.284.505-.373.996-.269 1.471.105.476.332.942.681 1.399.35.457.75.91 1.202 1.359l1.573 1.586c.997 1.009 1.664 2.026 2.002 3.049.338 1.024.219 2.048-.357 3.074-.478.852-1.126 1.466-1.943 1.842-.824.378-1.727.523-2.707.435-.988-.086-1.968-.401-2.939-.946-.98-.551-1.754-1.216-2.32-1.996-.568-.775-.905-1.59-1.012-2.445a4.076 4.076 0 0 1 .442-2.459l1.784 1.001Zm-13.892-4.379L71.24 220.24l1.681 1.28-10.574 13.887-1.681-1.28ZM47.58 214.472a6.156 6.156 0 0 0-.601 1.602 4.762 4.762 0 0 0-.101 1.595c.053.524.2 1.035.443 1.535a5.65 5.65 0 0 0 1.017 1.433 5.176 5.176 0 0 0 2.53 1.483c.971.243 2.005.185 3.102-.173s2.191-1.059 3.283-2.105c1.091-1.045 1.838-2.109 2.24-3.194.4-1.084.496-2.123.284-3.116-.211-.993-.69-1.88-1.437-2.659-.691-.723-1.454-1.212-2.288-1.467a4.54 4.54 0 0 0-2.555-.032c-.87.235-1.69.721-2.462 1.46l-.349-.562 3.63 3.792-1.354 1.297-4.597-4.802 1.354-1.297c1.039-.994 2.154-1.637 3.346-1.928a6.355 6.355 0 0 1 3.53.113c1.157.371 2.215 1.057 3.174 2.058 1.069 1.117 1.745 2.349 2.029 3.697.28 1.345.162 2.716-.355 4.116-.52 1.395-1.446 2.729-2.776 4.002-.997.955-2.022 1.68-3.073 2.175-1.06.496-2.107.766-3.14.812a6.933 6.933 0 0 1-2.967-.511c-.944-.386-1.803-.983-2.577-1.792a7.74 7.74 0 0 1-1.478-2.148 6.907 6.907 0 0 1-.636-2.353 6.646 6.646 0 0 1 .209-2.382 6.848 6.848 0 0 1 1.067-2.225l1.508 1.576Zm-20.987-20.918 14.996-8.933 1.047 1.757-6.906 15.185.087.146 11.773-7.013 1.082 1.816-14.995 8.933-1.047-1.758 6.918-15.232-.087-.146-11.803 7.031-1.065-1.786Z" fill="#000"/><path d="m27.147 172.062 3.329-1.221 2.816 7.682-3.328 1.22-2.817-7.681Z" fill="#45E5A3"/><path d="m13.792 152.285-.348-2.085 11.398-1.904c1.177-.196 2.274-.094 3.292.306 1.01.396 1.866 1.051 2.566 1.965.694.915 1.154 2.048 1.38 3.398.226 1.351.159 2.572-.2 3.663-.365 1.092-.961 1.992-1.787 2.701-.833.703-1.838 1.153-3.015 1.35l-11.399 1.904-.348-2.085 11.23-1.876c.841-.14 1.558-.45 2.152-.929a4.035 4.035 0 0 0 1.275-1.838c.254-.751.302-1.606.142-2.564s-.483-1.751-.968-2.379a3.967 3.967 0 0 0-1.802-1.323c-.718-.26-1.497-.32-2.337-.18l-11.231 1.876Zm-.918-15.44 17.453-.202.024 2.113-17.453.203-.024-2.114Zm.009-15.277 20.317 7.454-.163 1.834-20.317-7.454.163-1.834Zm5.216-21.089.537-2.044 11.177 2.938c1.154.303 2.113.846 2.877 1.628.76.776 1.27 1.724 1.534 2.845.258 1.119.213 2.341-.135 3.665-.348 1.325-.91 2.411-1.685 3.258-.78.847-1.693 1.424-2.737 1.731-1.048.3-2.15.298-3.303-.005l-11.177-2.938.537-2.044 11.012 2.894c.825.217 1.606.229 2.344.035a4.037 4.037 0 0 0 1.916-1.153c.54-.581.934-1.341 1.18-2.281.248-.939.279-1.795.094-2.566a3.96 3.96 0 0 0-1.101-1.946c-.548-.532-1.234-.906-2.058-1.123l-11.012-2.894Zm6.247-16.331 8.515-.685.062-.121-4.403-7.321 1.137-2.214 5.255 8.87 10.271-.895-1.137 2.214-8.394.747-.062.122 4.282 7.258-1.138 2.214-5.192-8.991-10.334 1.016 1.138-2.214Z" fill="#000"/><path d="m46.868 64.418 2.837 2.128-4.91 6.545-2.836-2.127 4.91-6.546Z" fill="#45E5A3"/><path d="m63.7 59.12-3.958 3.653-11.839-12.826 4.133-3.815c1.245-1.149 2.546-1.875 3.905-2.178 1.356-.308 2.71-.202 4.065.32 1.35.515 2.638 1.438 3.864 2.765 1.233 1.336 2.057 2.706 2.471 4.11.41 1.4.4 2.778-.033 4.136-.436 1.354-1.305 2.632-2.608 3.834Zm-3.676.841 2.304-2.127c1.06-.979 1.75-1.995 2.07-3.048a5.147 5.147 0 0 0-.053-3.186c-.355-1.072-1.015-2.13-1.978-3.173-.956-1.036-1.948-1.771-2.976-2.206-1.032-.44-2.069-.55-3.111-.33-1.046.216-2.07.786-3.072 1.71l-2.48 2.29 9.296 10.07Zm16.753-11.513L67.68 33.552l8.99-5.49.978 1.6-7.187 4.388 3.074 5.033 6.721-4.104.977 1.6-6.72 4.105 3.092 5.062 7.302-4.46.977 1.6-9.106 5.562ZM88.91 22.13l9.923 12.01.192-.07-.193-15.579 2.08-.763-.008 18.594-2.048.751-12.027-14.18 2.08-.764Zm26.219 10.102-2.677-17.248 10.409-1.616.288 1.853-8.321 1.291.905 5.828 7.781-1.208.288 1.853-7.782 1.208.91 5.862 8.456-1.313.287 1.853-10.544 1.637Zm19.31-2.12.405-17.45 2.113.049-.361 15.575 8.111.188-.043 1.875-10.225-.237Zm35.166-4.106c-.406 1.795-1.082 3.273-2.027 4.434-.944 1.161-2.062 1.968-3.353 2.421-1.292.453-2.663.516-4.115.187-1.452-.33-2.663-.977-3.632-1.942-.97-.966-1.631-2.176-1.983-3.63-.352-1.455-.325-3.08.082-4.875.407-1.796 1.083-3.274 2.027-4.435.945-1.16 2.063-1.968 3.354-2.42 1.291-.454 2.663-.516 4.115-.187 1.451.329 2.662.976 3.632 1.942.97.965 1.631 2.175 1.983 3.63.352 1.454.324 3.08-.083 4.875Zm-1.994-.452c.334-1.474.369-2.774.105-3.9-.257-1.125-.746-2.042-1.465-2.753-.713-.709-1.585-1.18-2.615-1.414-1.031-.233-2.024-.184-2.979.147-.949.333-1.785.95-2.508 1.852-.717.904-1.243 2.093-1.577 3.567-.334 1.474-.372 2.773-.114 3.898.263 1.125.752 2.043 1.465 2.752.719.71 1.593 1.183 2.624 1.416 1.031.234 2.021.184 2.97-.148.955-.332 1.791-.95 2.508-1.853.723-.902 1.252-2.09 1.586-3.564Zm8.751 12.165 7.394-15.811 5.342 2.498c1.241.58 2.15 1.278 2.728 2.094.586.813.892 1.687.919 2.622.027.934-.177 1.868-.613 2.8-.435.93-1.022 1.689-1.759 2.272-.732.586-1.597.921-2.596 1.006-.997.08-2.111-.168-3.341-.743l-3.829-1.791.794-1.698 3.768 1.761c.849.397 1.599.57 2.251.517.652-.053 1.211-.275 1.676-.666.472-.393.857-.907 1.153-1.54.296-.633.442-1.254.439-1.864.002-.608-.191-1.175-.579-1.7-.385-.532-1.007-.999-1.867-1.4l-3.366-1.575-6.599 14.113-1.915-.895Zm30.429-3.513 1.973 1.572-4.388 15.028.16.128 13.667-7.637 1.973 1.572-10.875 13.652-1.547-1.232 8.263-10.372-.133-.107-12.529 6.974-1.494-1.19 3.997-13.77-.134-.106-8.262 10.372-1.547-1.232 10.876-13.652Zm9.378 31.64 13.612-10.925 6.594 8.215-1.462 1.174-5.271-6.567-4.599 3.691 4.929 6.142-1.463 1.174-4.929-6.142-4.626 3.713 5.356 6.673-1.462 1.174-6.679-8.322Zm33.795 20.586-15.556 7.918-.927-1.823 7.899-14.693-.078-.152-12.213 6.216-.959-1.883 15.556-7.918.927 1.823-7.914 14.739.078.152 12.244-6.232.943 1.853Zm2.919 13.02 1.815-.47 3.28 12.674-1.815.469-1.375-5.313-15.083 3.903-.53-2.046 15.083-3.903-1.375-5.314Z" fill="#000"/><path d="m251.486 130.604-3.533.301-.693-8.153 3.533-.3.693 8.152Z" fill="#45E5A3"/></svg>