<?xml version="1.0" encoding="utf-8"?>
<!-- Generator: Adobe Illustrator 27.3.1, SVG Export Plug-In . SVG Version: 6.00 Build 0)  -->
<svg version="1.1" id="Layer_1" xmlns="http://www.w3.org/2000/svg" xmlns:xlink="http://www.w3.org/1999/xlink" x="0px" y="0px"
	 viewBox="0 0 500 500" style="enable-background:new 0 0 500 500;" xml:space="preserve">
<style type="text/css">
	.st0{fill:url(#SVGID_1_);}
	.st1{fill:url(#SVGID_00000163044032316883447880000015291287872265866920_);}
	.st2{fill:url(#SVGID_00000155856599698663856310000002715246912416184723_);}
	.st3{fill:url(#SVGID_00000109016013129830912000000014742456104927098277_);}
</style>
<g id="Logo">
	
		<linearGradient id="SVGID_1_" gradientUnits="userSpaceOnUse" x1="71.0282" y1="953.1784" x2="518.0521" y2="707.18" gradientTransform="matrix(1 0 0 1 0 -475.18)">
		<stop  offset="0.6817" style="stop-color:#000000"/>
		<stop  offset="1" style="stop-color:#424242"/>
	</linearGradient>
	<path class="st0" d="M409.3,260.6l0.1,103.8c0,16.6,13.5,31.6,30.1,32.6c17.7,1.1,32.9-12.3,34-30c0-0.7,0.1-1.3,0.1-2V183.5
		c0-17.2-13.2-31.7-30.3-32.6c-10.7-0.6-19.1,4-26.6,11.6L304.2,275c-7,7.1-11,16.6-11,26.6l0.1,75L409.3,260.6z"/>
	
		<linearGradient id="SVGID_00000104684296053395104100000018082778197713723542_" gradientUnits="userSpaceOnUse" x1="249.6028" y1="548.6295" x2="249.6028" y2="872.2999" gradientTransform="matrix(1 0 0 1 0 -475.18)">
		<stop  offset="0" style="stop-color:#000000"/>
		<stop  offset="0.4598" style="stop-color:#020202"/>
		<stop  offset="0.6258" style="stop-color:#090909"/>
		<stop  offset="0.7441" style="stop-color:#141414"/>
		<stop  offset="0.8398" style="stop-color:#252525"/>
		<stop  offset="0.9208" style="stop-color:#3B3B3B"/>
		<stop  offset="0.9923" style="stop-color:#565656"/>
		<stop  offset="1" style="stop-color:#595959"/>
	</linearGradient>
	<path style="fill:url(#SVGID_00000104684296053395104100000018082778197713723542_);" d="M217.5,183c0-17.7,14.4-32.1,32.1-32.1
		s32.1,14.4,32.1,32.1v182c0,17.7-14.4,32.1-32.1,32.1s-32.1-14.4-32.1-32.1L217.5,183L217.5,183z"/>
	
		<linearGradient id="SVGID_00000075848592843023773870000010873568850318685871_" gradientUnits="userSpaceOnUse" x1="249.5937" y1="548.6385" x2="249.5937" y2="872.0814" gradientTransform="matrix(1 0 0 1 0 -475.18)">
		<stop  offset="1.209077e-03" style="stop-color:#171717"/>
		<stop  offset="1" style="stop-color:#585858"/>
	</linearGradient>
	<path style="fill:url(#SVGID_00000075848592843023773870000010873568850318685871_);" d="M249.6,137.7c17.7,0,32.1-14.4,32.1-32.1
		c0-17.7-14.4-32.1-32.1-32.1c-17.7,0-32.1,14.4-32.1,32.1c0,0,0,0,0,0C217.5,123.3,231.9,137.7,249.6,137.7z"/>
	
		<linearGradient id="SVGID_00000135688925889471188660000003131625061574208406_" gradientUnits="userSpaceOnUse" x1="364.0932" y1="960.7824" x2="811.1171" y2="714.7841" gradientTransform="matrix(-1 0 0 -1 793.04 1030.8024)">
		<stop  offset="0.8131" style="stop-color:#000000"/>
		<stop  offset="1" style="stop-color:#424242"/>
	</linearGradient>
	<path style="fill:url(#SVGID_00000135688925889471188660000003131625061574208406_);" d="M90.7,287.4l-0.1-103.8
		c0-16.6-13.5-31.6-30.1-32.6c-17.7-1.1-32.9,12.3-34,30c0,0.7-0.1,1.3-0.1,2v181.5c0,17.2,13.2,31.7,30.3,32.6
		c10.7,0.6,19.1-4,26.6-11.6L195.8,273c7-7.1,11-16.6,11-26.6l-0.1-75L90.7,287.4z"/>
</g>
</svg>
